<?xml version="1.0" encoding="utf-8"?>
<!-- Generator: Adobe Illustrator 22.1.0, SVG Export Plug-In . SVG Version: 6.00 Build 0)  -->
<svg version="1.1" id="Layer_1" xmlns="http://www.w3.org/2000/svg" xmlns:xlink="http://www.w3.org/1999/xlink" x="0px" y="0px"
	 viewBox="0 0 298.9 239" style="enable-background:new 0 0 298.9 239;" xml:space="preserve">
<style type="text/css">
	.st0{fill:none;stroke:#000000;stroke-miterlimit:10;}
	.st1{stroke:#000000;stroke-miterlimit:10;}
	.st2{fill:#6A4C1C;stroke:#000000;stroke-miterlimit:10;}
	.st3{fill:#FFFFFF;stroke:#FFFFFF;stroke-miterlimit:10;}
	.st4{fill:#807A79;}
</style>
<polyline class="st0" points="50,181.1 9,218.9 50,181.1 2.9,177.6 50,181.1 24,139.6 50,181.1 31.5,228.4 50,181.1 64.7,212.2 
	50,181.1 78.5,196.4 "/>
<path class="st0" d="M44.6,172.5c0.2,0.6,0,2.5,0,3.4c-0.1,2.1-1.2,3.9-1.7,4.5"/>
<path class="st0" d="M41.7,168.4c0.2,0.9,0.1,3-0.3,4.5c-1.2,4.5-6.8,6.9-7.3,7"/>
<path class="st0" d="M37,160.4c0.4,1.5,0.4,5.4-0.5,8.5c-1.9,6.9-9.6,10.2-10.5,10.5"/>
<path class="st0" d="M31.2,151.1c0.7,2.1,1.2,6.6,1.1,10c-0.2,8.9-8.3,16.2-10,18"/>
<path class="st0" d="M43.5,180.6c0.2,0.4,0.7,1.7,0.8,2.5c0.1,0.9,0.1,2.4,0,2.7"/>
<path class="st0" d="M28.8,179.5c0.6,0.4,2.8,1.9,3.6,2.9c0.2,0.2,1.6,1.8,2.2,4.1c1.1,4-0.6,8.4-1.1,9.3"/>
<path class="st0" d="M17.6,179.1c1.1,0.3,3.9,1.8,5.6,3.2c2.1,1.7,2.9,3.7,4,6.3c1,2.4,2.1,5.3,1.5,8.9c-0.2,0.9-0.1,3.1-0.3,3.6"/>
<path class="st0" d="M33.6,154.9c1.2,0.4,5.1,1.3,9.1,0.1c3.7-1.1,6.4-3.3,7.2-4.3"/>
<path class="st0" d="M37,160.8c0.8,0.4,3.3,1.2,4.9,1.5c1.7,0.3,4.3,0.8,6-0.8c0.3-0.3,2.4-1.7,2.5-3.6"/>
<path class="st0" d="M38.8,191.3c0.2-0.1,2.1-0.2,3.2,0.5c1.3,0.8,2,3.8,2,4"/>
<path class="st0" d="M30.7,199c0.7-0.1,3.1-0.1,4.5,0.4c0.6,0.2,2.4,0.8,3.5,2.6c0.7,1,1.4,3.5,1.5,4.1"/>
<path class="st0" d="M24.9,204.2c0.8-0.1,4.3-0.5,6.7,0.8c0.4,0.2,2.1,1.1,3.3,3.2c1,1.6,1.7,6,1.7,6.8"/>
<path class="st0" d="M57.9,197.8c-0.4-0.5-3.1-2.8-5.1-3.4c-0.4-0.1-2.1-0.6-4.2,0.1c-2.3,0.7-4.5,3-5,3.6"/>
<path class="st0" d="M39,209c0.8-1,3.8-3.6,6.4-4.8c2.7-1.2,5-1.3,6.4-1.3c3.6,0,7.8,1.4,9.5,2.2"/>
<path class="st0" d="M58.9,186.2c-0.4,0.2-1.7,0.6-2.2,1.1c-1.1,1.2-1.8,3.6-1.9,4.2"/>
<path class="st0" d="M69.5,191.5c-0.9,0.1-4.2,0.4-5.7,1.5c-1.4,1-2,2.2-2.5,3.2c-0.7,1.3-1,5-1.1,5.8"/>
<path class="st0" d="M70,191.9c-1.5-1-1.8-3.8-1.2-5c0.6-1.1,2.3-2.2,2.5-2.3"/>
<path class="st0" d="M49.4,194c-0.3,1.9-1.3,9.2-1.8,14.9c-0.1,1.3-0.2,2.5-0.2,2.5c-0.2,3.1-0.2,5.8-0.3,7.7"/>
<ellipse class="st1" cx="47.3" cy="221.9" rx="2.6" ry="2.8"/>
<path class="st0" d="M45.1,219.9c-0.3-0.3-1.5-1.6-3.4-1.8c-2.9-0.3-4.8,2.2-4.9,2.4"/>
<path class="st0" d="M44.3,222.1c-0.8-0.3-2-0.7-3.3-0.3c-2.5,0.6-4.4,3.3-4.5,6.8"/>
<path class="st0" d="M49.7,219.8c0.8-0.3,2.3-0.6,4-0.3c4.3,1,5.8,5.6,5.9,5.9"/>
<path class="st0" d="M50.1,223.1c0.6-0.1,2.2-0.1,3.6,0.8c2.8,1.8,2.8,5.4,2.7,5.6"/>
<path class="st0" d="M49,224.7c0.6,0.3,1.7,1.1,2.5,2.6c1.3,2.4,0.6,4.7,0.4,5.2"/>
<polyline class="st0" points="57.4,75.4 148.7,12.5 237.7,75.4 "/>
<path class="st0" d="M44.8,223.5c-0.8,0.2-1.9,0.7-2.9,1.6c-3,2.7-2.5,6.9-2.4,7.5"/>
<polygon class="st2" points="245.7,184.3 48.2,184.3 48.2,177.8 48.2,76.4 245.7,76.4 "/>
<rect x="60.5" y="87.4" class="st1" width="174" height="87.2"/>
<rect x="61.2" y="169.2" class="st3" width="35.9" height="5.1"/>
<g id="søm">
	<g>
		<path class="st4" d="M157.7,15c1.3,5.3-1.9,11.1-7.3,12.8c-4.5,1.4-9.9-0.4-12.2-4.7c-2.8-5.3,1.1-10.8,1.4-11.2
			c0.6-0.8,3.9-5.1,9-4.7C153.1,7.4,156.7,10.9,157.7,15z"/>
	</g>
	<g>
		<path class="st0" d="M148.6,7.1c-5.2-0.3-8.4,3.9-9,4.7c-0.3,0.4-4.2,5.9-1.4,11.2c2.3,4.3,7.7,6.1,12.2,4.7
			c5.3-1.6,8.6-7.5,7.3-12.8C156.7,10.9,153.1,7.4,148.6,7.1z"/>
		<polyline class="st0" points="150.6,12.6 146.2,17.7 141.9,22.6 		"/>
		<polyline class="st0" points="141.9,14.2 146.2,17.7 150.6,21.4 152.4,22.6 		"/>
	</g>
</g>
</svg>
