<?xml version="1.0" encoding="utf-8"?>
<!-- Generator: Adobe Illustrator 22.1.0, SVG Export Plug-In . SVG Version: 6.00 Build 0)  -->
<svg version="1.1" id="Layer_1" xmlns="http://www.w3.org/2000/svg" xmlns:xlink="http://www.w3.org/1999/xlink" x="0px" y="0px"
	 viewBox="0 0 253.3 401" style="enable-background:new 0 0 253.3 401;" xml:space="preserve">
<style type="text/css">
	.st0{fill:#8C5D12;}
	.st1{fill:#FFFFFF;}
	.st2{fill:none;stroke:#000000;stroke-miterlimit:10;}
	.st3{fill:#807A79;}
</style>
<g id="blackbaord">
	<g>
		<path class="st0" d="M248.4,98.6v300.7H2.5V98.6H248.4z M238.7,387.4V110.7H12.5v276.7h178.9h13.2H238.7z"/>
		<polygon class="st1" points="224.2,381.9 224.1,386.6 204.7,386.8 204.8,382.2 		"/>
		<polygon points="238.7,387.4 204.7,387.4 204.7,386.8 224.1,386.6 224.2,381.9 204.8,382.2 204.7,382.1 207.2,381.1 205.9,376.6 
			189.8,382.5 191.4,387.1 191.4,387.4 12.5,387.4 12.5,110.7 238.7,110.7 		"/>
		<polygon class="st1" points="205.9,376.6 207.2,381.1 204.7,382.1 191.4,387.1 189.8,382.5 		"/>
		<polygon points="204.7,382.1 204.8,382.2 204.7,386.8 204.7,387.4 191.4,387.4 191.4,387.1 		"/>
	</g>
	<g>
		<rect x="2.5" y="98.6" class="st2" width="245.9" height="300.7"/>
		<polygon class="st2" points="191.4,387.4 12.5,387.4 12.5,110.7 238.7,110.7 238.7,387.4 204.7,387.4 		"/>
		<polygon class="st2" points="204.7,386.8 224.1,386.6 224.2,381.9 204.8,382.2 		"/>
		<polygon class="st2" points="204.7,382.1 207.2,381.1 205.9,376.6 189.8,382.5 191.4,387.1 		"/>
	</g>
</g>
<polyline class="st2" points="10.7,98.6 116.6,6.9 231.4,96.8 233.9,98.6 "/>
<g id="søm">
	<g>
		<path class="st3" d="M124,10.8c1,4.1-1.5,8.7-5.7,10c-3.5,1.1-7.8-0.3-9.5-3.7c-2.2-4.1,0.8-8.4,1.1-8.8c0.5-0.7,3-4,7.1-3.7
			C120.4,4.9,123.2,7.7,124,10.8z"/>
	</g>
	<g>
		<path class="st2" d="M116.9,4.7c-4-0.3-6.6,3-7.1,3.7c-0.2,0.3-3.3,4.6-1.1,8.8c1.8,3.4,6,4.8,9.5,3.7c4.2-1.3,6.7-5.9,5.7-10
			C123.2,7.7,120.4,4.9,116.9,4.7z"/>
		<polyline class="st2" points="118.5,9 115,13 111.7,16.8 		"/>
		<polyline class="st2" points="111.7,10.2 115,13 118.5,15.9 119.9,16.8 		"/>
	</g>
</g>
</svg>
