<svg xmlns="http://www.w3.org/2000/svg" viewBox="0 0 847.33 611.32"><defs><style>.cls-1{fill:#152230;}.cls-2{fill:#f2902c;}.cls-3{fill:#fff;}</style></defs><title>privatsnak_logo</title><g id="Layer_2" data-name="Layer 2"><g id="Layer_1-2" data-name="Layer 1"><path class="cls-1" d="M123.31,301.74c-4.47,1.51-7.58,5-11.2,7.75-12.78,9.6-25.41,19.4-38.12,29.09-1,.76-1.92,2.25-3.37,1.66-1.79-.72-1.08-2.59-1.08-4-.05-19.66-.2-39.32.08-59,.07-4.61-1.4-5.5-5.64-5.41-12.49.27-25,.17-37.49.05C11.32,271.79.16,260.3.16,245.14.2,173.33.51,101.52,0,29.71-.13,11.37,13,0,29.79,0Q424.91.45,820,.21c16.22,0,27.22,11,27.23,27.27q0,108.72.06,217.43c0,13.63-7.13,22.54-21.56,26.84-2.83.05-5.66.14-8.49.14H347.57q-90.43,0-180.88,0c-3.77,0-6.94.55-10.07,3.19-6.35,5.34-13.4,9.86-19.78,15.17C132.29,294,126.65,296.53,123.31,301.74Z"/><path class="cls-2" d="M123.31,301.74c3.34-5.21,9-7.75,13.53-11.53,6.38-5.31,13.43-9.83,19.78-15.17,3.13-2.64,6.3-3.2,10.07-3.19q90.44.07,180.88,0H817.28c2.83,0,5.66-.09,8.49-.14,1.57,3,5.08,2.68,7.53,4.29,8.31,5.46,12.56,12.81,12.55,22.83,0,72-.26,144,.21,215.92.1,15-10.82,29-29,29q-192.93-.39-385.86-.13c-46.49,0-93,.11-139.45-.09a20.69,20.69,0,0,0-13.57,4.71q-32.69,25.29-65.48,50.45c-5,3.84-10.13,7.49-15.16,11.29-3.12,2.37-4.25,1.55-4.24-2.23q0-28.23-.13-56.47c0-7.54-.16-7.65-7.52-7.65-11.33,0-22.68-.36-34,.09-15.84.63-28.4-12-28.34-28.58.29-69.47.13-138.95.13-208.42C123.43,305.06,123.35,303.4,123.31,301.74Z"/><path class="cls-3" d="M144.76,206.16H108.22V65.58h58.17q23.67,0,36.27,12.3t12.58,34.68q0,22.38-12.58,34.68t-36.27,12.31H144.76Zm0-76.07h12.12q20.15,0,20.14-17.53T156.88,95H144.76Z"/><path class="cls-3" d="M344.4,206.16H298.91L264,152.09v54.07H227.49V65.58h56.87A56,56,0,0,1,304.87,69a38.65,38.65,0,0,1,23,23.22A48.22,48.22,0,0,1,330.79,109q0,16-7.74,26t-22.84,13.52ZM264,128.41h6.9q10.8,0,16.59-4.47t5.78-12.87q0-8.38-5.78-12.87t-16.59-4.47H264Z"/><path class="cls-3" d="M392.1,65.58V206.16H355.55V65.58Z"/><path class="cls-3" d="M442.4,65.58l33.94,85.58,34.12-85.58h39.71L490.88,206.16H461.79L402.69,65.58Z"/><path class="cls-3" d="M629.72,182.73H577.51l-8.39,24.43h-39L583.66,66.58h39.9l53.52,140.58h-39ZM620,155l-16.41-46.8L587.21,155Z"/><path class="cls-3" d="M731.14,97.53V207.16H694.6V97.53h-30V66.58h96.58v31Z"/><path class="cls-3" d="M308.57,372.11a44.84,44.84,0,0,0-11.9-7.16,31.61,31.61,0,0,0-11.52-2.33q-7.08,0-11.53,3.35a10.43,10.43,0,0,0-4.47,8.74,8.65,8.65,0,0,0,2.24,6.13,19.31,19.31,0,0,0,5.85,4.19,50.45,50.45,0,0,0,8.18,3.07q4.56,1.29,9,2.78,17.85,6,26.13,15.9t8.27,25.94a50.4,50.4,0,0,1-3.63,19.52,40.69,40.69,0,0,1-10.59,15,48.82,48.82,0,0,1-17.11,9.67,71.34,71.34,0,0,1-23,3.44q-26.6,0-49.28-15.8l15.62-29.38a63.43,63.43,0,0,0,16.18,10.78,38.8,38.8,0,0,0,15.8,3.53q8.92,0,13.3-4.09a12.65,12.65,0,0,0,3.25-14.78,11.77,11.77,0,0,0-3.72-4.27,29.07,29.07,0,0,0-6.78-3.63c-2.79-1.12-6.17-2.35-10.14-3.72q-7.06-2.23-13.85-4.93a43.35,43.35,0,0,1-12.08-7.15,33.3,33.3,0,0,1-8.56-11.25q-3.25-6.79-3.25-17.2a49.64,49.64,0,0,1,3.44-18.88,41.89,41.89,0,0,1,9.67-14.5,43.17,43.17,0,0,1,15.24-9.39,57.68,57.68,0,0,1,20.18-3.34,88.33,88.33,0,0,1,21.75,2.88,96,96,0,0,1,21.76,8.46Z"/><path class="cls-3" d="M342.6,476.42V336.22H379l67.31,85.72V336.22h36.26v140.2H446.35L379,390.7v85.72Z"/><path class="cls-3" d="M589.15,452.06H537.09l-8.37,24.36H489.86l53.36-140.2H583l53.37,140.2H597.51Zm-9.67-27.71-16.36-46.67-16.37,46.67Z"/><path class="cls-3" d="M679.69,394.05l44.44-57.83h45L713.54,402.6l60.8,73.82H727.11l-47.42-60.81v60.81H643.25V336.22h36.44Z"/></g></g></svg>
