<svg xmlns="http://www.w3.org/2000/svg" xmlns:xlink="http://www.w3.org/1999/xlink" viewBox="0 0 723 340"><defs><style>.cls-1{fill:none;}.cls-2{clip-path:url(#clip-path);}.cls-3{fill:#152230;}.cls-4{fill:#fff;}</style><clipPath id="clip-path" transform="translate(0 0)"><rect class="cls-1" width="723" height="340"/></clipPath></defs><title>dilemma_1</title><g id="Layer_2" data-name="Layer 2"><g id="Layer_1-2" data-name="Layer 1"><g id="Artwork_1" data-name="Artwork 1"><g class="cls-2"><g class="cls-2"><path class="cls-3" d="M105.22,301.4c-3.82,1.52-6.47,5-9.56,7.75C84.76,318.74,74,328.52,63.13,338.2c-.85.77-1.64,2.25-2.87,1.67-1.53-.73-.92-2.59-.93-4,0-19.64-.16-39.28.08-58.92.05-4.6-1.2-5.49-4.82-5.4-10.66.27-21.32.17-32,.05C9.66,271.49.13,260,.14,244.87c0-71.73.3-143.46-.14-215.19C-.11,11.36,11.1,0,25.42,0q337.14.45,674.3.21c13.84,0,23.23,11,23.23,27.24q0,108.6,0,217.19c0,13.61-6.08,22.52-18.4,26.81-2.41.05-4.82.14-7.24.14q-200.39,0-400.79,0-77.16,0-154.34,0c-3.21,0-5.92.55-8.59,3.18-5.42,5.35-11.43,9.86-16.88,15.16-3.88,3.78-8.7,6.31-11.54,11.51" transform="translate(0 0)"/></g></g></g><path class="cls-4" d="M45.44,64.4V38.76h5.38a19.5,19.5,0,0,1,6.11.77,11.48,11.48,0,0,1,4.37,2.54,12.27,12.27,0,0,1,4,9.51,12.12,12.12,0,0,1-4.13,9.56,11.89,11.89,0,0,1-4.35,2.54,19.68,19.68,0,0,1-6,.72Zm3.87-3.64h1.74a14.46,14.46,0,0,0,4.34-.55,8.78,8.78,0,0,0,6-8.63,8.91,8.91,0,0,0-2.82-6.84Q56,42.4,51.05,42.4H49.31Z" transform="translate(0 0)"/><path class="cls-4" d="M68.85,41.5A2.43,2.43,0,0,1,73,39.81a2.26,2.26,0,0,1,.71,1.71A2.35,2.35,0,0,1,73,43.25a2.3,2.3,0,0,1-1.71.71,2.42,2.42,0,0,1-2.44-2.46Zm4.3,6.73V64.4H69.41V48.23Z" transform="translate(0 0)"/><path class="cls-4" d="M81.62,36.36v28H77.88v-28Z" transform="translate(0 0)"/><path class="cls-4" d="M101.07,57.19H89.49a4.91,4.91,0,0,0,1.29,3.17,3.92,3.92,0,0,0,2.94,1.16A3.85,3.85,0,0,0,96,60.86a9.42,9.42,0,0,0,2-2.46l3.15,1.76a12.28,12.28,0,0,1-1.54,2.14,8.14,8.14,0,0,1-1.74,1.46,7.13,7.13,0,0,1-2,.84,10.16,10.16,0,0,1-2.34.26,7.59,7.59,0,0,1-5.81-2.32,8.68,8.68,0,0,1-2.2-6.21,8.94,8.94,0,0,1,2.13-6.21A8.1,8.1,0,0,1,99,50.05a9,9,0,0,1,2.06,6.26Zm-3.83-3a3.58,3.58,0,0,0-3.77-3,3.86,3.86,0,0,0-1.28.21A3.5,3.5,0,0,0,91.1,52a4,4,0,0,0-.83.94,4.42,4.42,0,0,0-.54,1.25Z" transform="translate(0 0)"/><path class="cls-4" d="M105.16,48.23h3.73v1.49a8,8,0,0,1,1.85-1.53,4.54,4.54,0,0,1,2-.41,5,5,0,0,1,4.33,2.39,5.61,5.61,0,0,1,4.77-2.39q5.46,0,5.46,6.62v10h-3.75v-9a6.88,6.88,0,0,0-.57-3.29,2,2,0,0,0-1.91-1,2.44,2.44,0,0,0-2.25,1.16,7.52,7.52,0,0,0-.7,3.74V64.4H114.4V55.46q0-4.3-2.49-4.31a2.47,2.47,0,0,0-2.29,1.18,7.22,7.22,0,0,0-.73,3.72V64.4h-3.73Z" transform="translate(0 0)"/><path class="cls-4" d="M132.05,48.23h3.74v1.49a8,8,0,0,1,1.84-1.53,4.54,4.54,0,0,1,2-.41A5,5,0,0,1,144,50.17a5.61,5.61,0,0,1,4.76-2.39q5.46,0,5.46,6.62v10h-3.75v-9a7,7,0,0,0-.56-3.29,2,2,0,0,0-1.91-1,2.44,2.44,0,0,0-2.25,1.16,7.5,7.5,0,0,0-.71,3.74V64.4H141.3V55.46q0-4.3-2.49-4.31a2.49,2.49,0,0,0-2.3,1.18,7.34,7.34,0,0,0-.72,3.72V64.4h-3.74Z" transform="translate(0 0)"/><path class="cls-4" d="M170.87,48.23h3.75V64.4h-3.75V62.7a7.18,7.18,0,0,1-10.51-.26,9,9,0,0,1-2.18-6.18,8.75,8.75,0,0,1,2.18-6.06,7,7,0,0,1,5.44-2.42,6.89,6.89,0,0,1,5.07,2.32Zm-8.87,8a5.66,5.66,0,0,0,1.25,3.79,4.08,4.08,0,0,0,3.22,1.47,4.28,4.28,0,0,0,3.35-1.42,6.15,6.15,0,0,0,0-7.51,4.23,4.23,0,0,0-3.32-1.44,4.14,4.14,0,0,0-3.22,1.46A5.38,5.38,0,0,0,162,56.26Z" transform="translate(0 0)"/><path class="cls-4" d="M179.91,62.54a2.31,2.31,0,0,1,3.94-1.61,2.21,2.21,0,0,1,.68,1.62,2.27,2.27,0,0,1-.68,1.65,2.36,2.36,0,0,1-3.27,0A2.29,2.29,0,0,1,179.91,62.54Z" transform="translate(0 0)"/><path class="cls-4" d="M190.41,62.54a2.3,2.3,0,0,1,3.93-1.61,2.21,2.21,0,0,1,.68,1.62,2.27,2.27,0,0,1-.68,1.65,2.21,2.21,0,0,1-1.63.66,2.23,2.23,0,0,1-1.64-.66A2.28,2.28,0,0,1,190.41,62.54Z" transform="translate(0 0)"/><path class="cls-4" d="M200.9,62.54a2.32,2.32,0,0,1,2.31-2.29,2.32,2.32,0,0,1,2.3,2.3,2.23,2.23,0,0,1-.68,1.65,2.2,2.2,0,0,1-1.62.66,2.25,2.25,0,0,1-1.65-.66A2.28,2.28,0,0,1,200.9,62.54Z" transform="translate(0 0)"/><path class="cls-4" d="M225.88,48.79h11.06v-10h3.87V64.4h-3.87v-12H225.88v12H222V38.76h3.86Z" transform="translate(0 0)"/><path class="cls-4" d="M248.25,48.23l4.18,9.08,4.17-9.08h4.2l-8.4,17.28-8.34-17.28Z" transform="translate(0 0)"/><path class="cls-4" d="M274.66,48.23h3.75V64.4h-3.75V62.7a7.18,7.18,0,0,1-10.51-.26A9,9,0,0,1,262,56.26a8.75,8.75,0,0,1,2.17-6.06,7,7,0,0,1,5.45-2.42,6.86,6.86,0,0,1,5.06,2.32Zm-8.87,8A5.66,5.66,0,0,0,267,60.05a4.09,4.09,0,0,0,3.22,1.47,4.28,4.28,0,0,0,3.35-1.42,6.15,6.15,0,0,0,0-7.51,4.23,4.23,0,0,0-3.32-1.44,4.16,4.16,0,0,0-3.22,1.46A5.38,5.38,0,0,0,265.79,56.26Z" transform="translate(0 0)"/><path class="cls-4" d="M295.05,36.36h3.75v28h-3.75V62.7a7,7,0,0,1-5,2.16,7.13,7.13,0,0,1-5.51-2.42,9,9,0,0,1-2.18-6.18,8.7,8.7,0,0,1,2.18-6,7,7,0,0,1,10.51-.12Zm-8.87,19.9a5.66,5.66,0,0,0,1.25,3.79,4.08,4.08,0,0,0,3.22,1.47A4.28,4.28,0,0,0,294,60.1a6.15,6.15,0,0,0,0-7.51,4.23,4.23,0,0,0-3.32-1.44,4.14,4.14,0,0,0-3.22,1.46A5.38,5.38,0,0,0,286.18,56.26Z" transform="translate(0 0)"/><path class="cls-4" d="M329.64,64c0,.77,0,1.44-.07,2a13.71,13.71,0,0,1-.21,1.54,6.76,6.76,0,0,1-1.56,3.14,7.57,7.57,0,0,1-6,2.52,8,8,0,0,1-5.32-1.74,7.13,7.13,0,0,1-2.49-5h3.75a4.19,4.19,0,0,0,.71,1.84,4,4,0,0,0,3.39,1.52q4.1,0,4.1-5V62.59a7,7,0,0,1-5.13,2.27,6.89,6.89,0,0,1-5.41-2.39,8.84,8.84,0,0,1-2.13-6.06,9.31,9.31,0,0,1,2-6,6.84,6.84,0,0,1,5.61-2.62,6.54,6.54,0,0,1,5.08,2.27V48.23h3.73Zm-3.58-7.67a5.43,5.43,0,0,0-1.26-3.76,4.18,4.18,0,0,0-3.27-1.45,4,4,0,0,0-3.36,1.58,6.51,6.51,0,0,0,0,7.27,4,4,0,0,0,3.36,1.54A4.1,4.1,0,0,0,324.91,60,5.51,5.51,0,0,0,326.06,56.34Z" transform="translate(0 0)"/><path class="cls-4" d="M347.29,49.36l2.56-2.53,1.69,1.8-2.49,2.44a8.58,8.58,0,0,1,1.81,5.29,8.12,8.12,0,0,1-2.51,6,8.23,8.23,0,0,1-6.07,2.46,8.75,8.75,0,0,1-5.35-1.69l-2.45,2.37-1.71-1.72,2.44-2.43a8.82,8.82,0,0,1-1.61-5.11,8.12,8.12,0,0,1,2.5-6,8.43,8.43,0,0,1,6.13-2.47A8.92,8.92,0,0,1,347.29,49.36Zm-2.7,2.55a5.18,5.18,0,0,0-2.35-.51,4.62,4.62,0,0,0-3.51,1.36,5,5,0,0,0-1.32,3.62,5.46,5.46,0,0,0,.52,2.41Zm1.79,1.7-6.78,7a5.43,5.43,0,0,0,2.63.66A4.68,4.68,0,0,0,345.71,60,5,5,0,0,0,347,56.36,6.08,6.08,0,0,0,346.38,53.61Z" transform="translate(0 0)"/><path class="cls-4" d="M354.8,48.23h3.73v1.44a7.33,7.33,0,0,1,1.83-1.48,4.25,4.25,0,0,1,1.92-.41,6,6,0,0,1,3.09,1l-1.71,3.42a3.56,3.56,0,0,0-2.07-.76q-3.06,0-3.06,4.61V64.4H354.8Z" transform="translate(0 0)"/><path class="cls-4" d="M389.92,36.36h3.76v28h-3.76V62.7a7,7,0,0,1-5,2.16,7.12,7.12,0,0,1-5.51-2.42,9,9,0,0,1-2.18-6.18,8.7,8.7,0,0,1,2.18-6,7,7,0,0,1,10.5-.12Zm-8.86,19.9a5.65,5.65,0,0,0,1.24,3.79,4.1,4.1,0,0,0,3.22,1.47,4.29,4.29,0,0,0,3.36-1.42,6.15,6.15,0,0,0,0-7.51,4.23,4.23,0,0,0-3.32-1.44,4.13,4.13,0,0,0-3.22,1.46A5.33,5.33,0,0,0,381.06,56.26Z" transform="translate(0 0)"/><path class="cls-4" d="M402.13,48.23v9.28c0,2.68,1.05,4,3.17,4s3.17-1.33,3.17-4V48.23h3.73v9.36a10.44,10.44,0,0,1-.48,3.35,5.56,5.56,0,0,1-1.61,2.28,7.86,7.86,0,0,1-9.61,0,5.64,5.64,0,0,1-1.64-2.28,9.21,9.21,0,0,1-.47-3.35V48.23Z" transform="translate(0 0)"/><path class="cls-4" d="M427.41,36.36h3.74V49.57a6.43,6.43,0,0,1,4.4-1.79,5.7,5.7,0,0,1,4.38,1.77q1.4,1.55,1.39,4.94V64.4h-3.73V54.83A4.55,4.55,0,0,0,436.9,52a2.66,2.66,0,0,0-2.22-.87,3,3,0,0,0-2.75,1.21,8.31,8.31,0,0,0-.78,4.22V64.4h-3.74Z" transform="translate(0 0)"/><path class="cls-4" d="M448.06,48.23l4.19,9.08,4.16-9.08h4.2l-8.4,17.28-8.33-17.28Z" transform="translate(0 0)"/><path class="cls-4" d="M462.57,41.5a2.43,2.43,0,0,1,4.15-1.69,2.27,2.27,0,0,1,.72,1.71,2.36,2.36,0,0,1-.72,1.73A2.3,2.3,0,0,1,465,44a2.44,2.44,0,0,1-2.44-2.46Zm4.3,6.73V64.4h-3.73V48.23Z" transform="translate(0 0)"/><path class="cls-4" d="M481,51l-3.09,1.65c-.48-1-1.09-1.5-1.81-1.5a1.29,1.29,0,0,0-.88.34,1.15,1.15,0,0,0-.36.87c0,.62.72,1.24,2.16,1.85a12.88,12.88,0,0,1,4,2.35,4.07,4.07,0,0,1,1,2.91,5.1,5.1,0,0,1-1.73,3.92,6.19,6.19,0,0,1-9.81-2.48l3.19-1.47a7,7,0,0,0,1,1.47,2.31,2.31,0,0,0,1.63.63c1.26,0,1.89-.57,1.89-1.72,0-.67-.49-1.29-1.46-1.86l-1.13-.55-1.15-.55a7,7,0,0,1-2.29-1.59,4,4,0,0,1-.84-2.61,4.62,4.62,0,0,1,1.44-3.48,5,5,0,0,1,3.58-1.38A4.9,4.9,0,0,1,481,51Z" transform="translate(0 0)"/><path class="cls-4" d="M507.81,36.36h3.75v28h-3.75V62.7a7,7,0,0,1-5,2.16,7.13,7.13,0,0,1-5.51-2.42,9,9,0,0,1-2.17-6.18,8.7,8.7,0,0,1,2.17-6,7,7,0,0,1,10.51-.12ZM499,56.26a5.65,5.65,0,0,0,1.24,3.79,4.09,4.09,0,0,0,3.22,1.47,4.3,4.3,0,0,0,3.36-1.42,6.19,6.19,0,0,0,0-7.51,4.24,4.24,0,0,0-3.32-1.44,4.16,4.16,0,0,0-3.23,1.46A5.38,5.38,0,0,0,499,56.26Z" transform="translate(0 0)"/><path class="cls-4" d="M520,48.23v9.28c0,2.68,1.06,4,3.17,4s3.18-1.33,3.18-4V48.23h3.73v9.36a10.44,10.44,0,0,1-.48,3.35A5.66,5.66,0,0,1,528,63.22a7.86,7.86,0,0,1-9.61,0,5.67,5.67,0,0,1-1.65-2.28,9.24,9.24,0,0,1-.46-3.35V48.23Z" transform="translate(0 0)"/><path class="cls-4" d="M545.3,36.36H549V49.57a6.47,6.47,0,0,1,4.4-1.79,5.71,5.71,0,0,1,4.39,1.77q1.39,1.55,1.39,4.94V64.4h-3.74V54.83a4.55,4.55,0,0,0-.68-2.81,2.66,2.66,0,0,0-2.22-.87,3,3,0,0,0-2.76,1.21,8.31,8.31,0,0,0-.78,4.22V64.4H545.3Z" transform="translate(0 0)"/><path class="cls-4" d="M575.86,48.23h3.75V64.4h-3.75V62.7a7.18,7.18,0,0,1-10.51-.26,9,9,0,0,1-2.17-6.18,8.75,8.75,0,0,1,2.17-6.06,7,7,0,0,1,5.45-2.42,6.86,6.86,0,0,1,5.06,2.32Zm-8.86,8a5.65,5.65,0,0,0,1.24,3.79,4.09,4.09,0,0,0,3.22,1.47,4.3,4.3,0,0,0,3.36-1.42,6.19,6.19,0,0,0,0-7.51,4.24,4.24,0,0,0-3.32-1.44,4.16,4.16,0,0,0-3.23,1.46A5.38,5.38,0,0,0,567,56.26Z" transform="translate(0 0)"/><path class="cls-4" d="M584.33,48.23h3.73v1.44a7.33,7.33,0,0,1,1.83-1.48,4.26,4.26,0,0,1,1.93-.41,6,6,0,0,1,3.08,1l-1.71,3.42a3.53,3.53,0,0,0-2.07-.76q-3.06,0-3.06,4.61V64.4h-3.73Z" transform="translate(0 0)"/><path class="cls-4" d="M44.73,89h3.73v1.49A8,8,0,0,1,50.31,89a4.54,4.54,0,0,1,2-.41A5,5,0,0,1,56.68,91a5.61,5.61,0,0,1,4.77-2.39q5.46,0,5.46,6.62v10H63.16v-9a6.86,6.86,0,0,0-.57-3.28,2,2,0,0,0-1.91-1,2.44,2.44,0,0,0-2.25,1.16,7.49,7.49,0,0,0-.7,3.74v8.35H54V96.26Q54,92,51.48,92a2.47,2.47,0,0,0-2.29,1.18,7.22,7.22,0,0,0-.73,3.72v8.35H44.73Z" transform="translate(0 0)"/><path class="cls-4" d="M70.86,97a8,8,0,0,1,2.51-6,8.84,8.84,0,0,1,12.25,0,8.66,8.66,0,0,1,0,12.17,8.56,8.56,0,0,1-6.19,2.44,8.19,8.19,0,0,1-6.09-2.49A8.37,8.37,0,0,1,70.86,97Zm3.82.06A5.47,5.47,0,0,0,76,100.9a5,5,0,0,0,7,0,6.07,6.07,0,0,0,0-7.53A4.55,4.55,0,0,0,79.48,92,4.48,4.48,0,0,0,76,93.38,5.17,5.17,0,0,0,74.68,97.06Z" transform="translate(0 0)"/><path class="cls-4" d="M104,77.16h3.75v28H104v-1.7a7,7,0,0,1-5,2.16,7.13,7.13,0,0,1-5.51-2.42,9,9,0,0,1-2.17-6.18,8.7,8.7,0,0,1,2.17-6A7,7,0,0,1,104,90.9Zm-8.87,19.9a5.66,5.66,0,0,0,1.25,3.79,4.08,4.08,0,0,0,3.22,1.47,4.28,4.28,0,0,0,3.35-1.42,6.15,6.15,0,0,0,0-7.51A4.23,4.23,0,0,0,99.61,92a4.16,4.16,0,0,0-3.22,1.46A5.38,5.38,0,0,0,95.11,97.06Z" transform="translate(0 0)"/><path class="cls-4" d="M116.3,92.51V105.2h-3.74V92.51H111V89h1.59V83.1h3.74V89h2.9v3.48Z" transform="translate(0 0)"/><path class="cls-4" d="M134,89h3.75V105.2H134v-1.7a7.18,7.18,0,0,1-10.51-.26,9,9,0,0,1-2.17-6.18A8.75,8.75,0,0,1,123.45,91a7,7,0,0,1,5.45-2.42A6.86,6.86,0,0,1,134,90.9Zm-8.86,8a5.65,5.65,0,0,0,1.24,3.79,4.09,4.09,0,0,0,3.22,1.47,4.3,4.3,0,0,0,3.36-1.42,6.19,6.19,0,0,0,0-7.51A4.24,4.24,0,0,0,129.6,92a4.16,4.16,0,0,0-3.23,1.46A5.38,5.38,0,0,0,125.1,97.06Z" transform="translate(0 0)"/><path class="cls-4" d="M158.07,104.81c0,.77,0,1.44-.08,2a14,14,0,0,1-.21,1.54,6.72,6.72,0,0,1-1.56,3.13,7.54,7.54,0,0,1-6,2.53,8,8,0,0,1-5.33-1.74,7.13,7.13,0,0,1-2.49-5h3.75a4.19,4.19,0,0,0,.71,1.84,4,4,0,0,0,3.39,1.51c2.73,0,4.1-1.67,4.1-5v-2.25a7,7,0,0,1-5.13,2.27,6.89,6.89,0,0,1-5.41-2.39,8.86,8.86,0,0,1-2.13-6.06,9.31,9.31,0,0,1,2-6,6.87,6.87,0,0,1,5.61-2.62,6.53,6.53,0,0,1,5.08,2.27V89h3.74Zm-3.59-7.67a5.43,5.43,0,0,0-1.26-3.76A4.15,4.15,0,0,0,150,91.93a4,4,0,0,0-3.35,1.58,6.46,6.46,0,0,0,0,7.27,4,4,0,0,0,3.35,1.54,4.1,4.1,0,0,0,3.39-1.56A5.56,5.56,0,0,0,154.48,97.14Z" transform="translate(0 0)"/><path class="cls-4" d="M177.51,98H165.92a4.91,4.91,0,0,0,1.29,3.17,4,4,0,0,0,2.94,1.16,3.85,3.85,0,0,0,2.31-.66,9.23,9.23,0,0,0,2-2.46l3.16,1.76a13.27,13.27,0,0,1-1.55,2.14,8.44,8.44,0,0,1-1.74,1.46,7.13,7.13,0,0,1-2,.84,10.16,10.16,0,0,1-2.34.26,7.61,7.61,0,0,1-5.81-2.32A8.72,8.72,0,0,1,162,97.13a9,9,0,0,1,2.12-6.21,8.11,8.11,0,0,1,11.33-.07,9,9,0,0,1,2.05,6.26Zm-3.84-3a3.57,3.57,0,0,0-3.77-3,3.76,3.76,0,0,0-1.27.21,3.39,3.39,0,0,0-1.09.59,3.78,3.78,0,0,0-.84.94,4.4,4.4,0,0,0-.53,1.25Z" transform="translate(0 0)"/><path class="cls-4" d="M185.74,92.51V105.2H182V92.51h-1.6V89H182V83.1h3.73V89h2.91v3.48Z" transform="translate(0 0)"/><path class="cls-4" d="M216.4,98H204.82a4.91,4.91,0,0,0,1.29,3.17,3.93,3.93,0,0,0,2.94,1.16,3.85,3.85,0,0,0,2.31-.66,9.23,9.23,0,0,0,2-2.46l3.15,1.76A12.67,12.67,0,0,1,215,103.1a8.44,8.44,0,0,1-1.74,1.46,7.13,7.13,0,0,1-2,.84,10.16,10.16,0,0,1-2.34.26,7.59,7.59,0,0,1-5.81-2.32,8.72,8.72,0,0,1-2.19-6.21A8.93,8.93,0,0,1,203,90.92a8.1,8.1,0,0,1,11.32-.07,9,9,0,0,1,2.06,6.26Zm-3.83-3a3.58,3.58,0,0,0-3.77-3,3.86,3.86,0,0,0-1.28.21,3.34,3.34,0,0,0-1.08.59,3.78,3.78,0,0,0-.84.94,4.14,4.14,0,0,0-.53,1.25Z" transform="translate(0 0)"/><path class="cls-4" d="M224.64,92.51V105.2H220.9V92.51h-1.59V89h1.59V83.1h3.74V89h2.9v3.48Z" transform="translate(0 0)"/><path class="cls-4" d="M244.31,77.16V90.9a6.9,6.9,0,0,1,5.08-2.32A7,7,0,0,1,254.84,91a8.7,8.7,0,0,1,2.17,6,8.92,8.92,0,0,1-2.19,6.18,7.08,7.08,0,0,1-5.49,2.42,7,7,0,0,1-5-2.16v1.7h-3.73v-28Zm8.88,20.07a5.61,5.61,0,0,0-1.26-3.79,4.05,4.05,0,0,0-3.2-1.49,4.33,4.33,0,0,0-3.36,1.44,5.37,5.37,0,0,0-1.27,3.72,5.45,5.45,0,0,0,1.26,3.77,4.2,4.2,0,0,0,3.32,1.44,4.13,4.13,0,0,0,3.22-1.44A5.31,5.31,0,0,0,253.19,97.23Z" transform="translate(0 0)"/><path class="cls-4" d="M260.4,82.3a2.43,2.43,0,0,1,4.86,0,2.39,2.39,0,0,1-.71,1.73,2.33,2.33,0,0,1-1.71.71,2.38,2.38,0,0,1-1.73-.71A2.41,2.41,0,0,1,260.4,82.3ZM264.7,89V105.2H261V89Z" transform="translate(0 0)"/><path class="cls-4" d="M273.17,77.16v28h-3.74v-28Z" transform="translate(0 0)"/><path class="cls-4" d="M281.63,77.16v28H277.9v-28Z" transform="translate(0 0)"/><path class="cls-4" d="M301.09,98H289.5a4.86,4.86,0,0,0,1.3,3.17,3.91,3.91,0,0,0,2.93,1.16,3.85,3.85,0,0,0,2.31-.66,9.23,9.23,0,0,0,2-2.46l3.16,1.76a12.69,12.69,0,0,1-1.55,2.14,8.44,8.44,0,0,1-1.74,1.46,7.13,7.13,0,0,1-2,.84,10.16,10.16,0,0,1-2.34.26,7.61,7.61,0,0,1-5.81-2.32,8.72,8.72,0,0,1-2.19-6.21,8.94,8.94,0,0,1,2.13-6.21,8.1,8.1,0,0,1,11.32-.07,9,9,0,0,1,2.06,6.26Zm-3.84-3a3.57,3.57,0,0,0-3.76-3,3.82,3.82,0,0,0-1.28.21,3.5,3.5,0,0,0-1.09.59,3.78,3.78,0,0,0-.84.94,4.4,4.4,0,0,0-.53,1.25Z" transform="translate(0 0)"/><path class="cls-4" d="M317.09,77.16h3.76v28h-3.76v-1.7a7,7,0,0,1-5,2.16,7.15,7.15,0,0,1-5.52-2.42,9,9,0,0,1-2.17-6.18,8.7,8.7,0,0,1,2.17-6,7,7,0,0,1,10.51-.12Zm-8.86,19.9a5.65,5.65,0,0,0,1.24,3.79,4.1,4.1,0,0,0,3.22,1.47,4.3,4.3,0,0,0,3.36-1.42,6.15,6.15,0,0,0,0-7.51A4.24,4.24,0,0,0,312.73,92a4.13,4.13,0,0,0-3.22,1.46A5.33,5.33,0,0,0,308.23,97.06Z" transform="translate(0 0)"/><path class="cls-4" d="M340.29,98H328.7a4.91,4.91,0,0,0,1.29,3.17,4,4,0,0,0,2.94,1.16,3.85,3.85,0,0,0,2.31-.66,9.23,9.23,0,0,0,2-2.46l3.16,1.76a13.27,13.27,0,0,1-1.55,2.14,8.44,8.44,0,0,1-1.74,1.46,7.13,7.13,0,0,1-2,.84,10.16,10.16,0,0,1-2.34.26,7.61,7.61,0,0,1-5.81-2.32,8.72,8.72,0,0,1-2.19-6.21,8.93,8.93,0,0,1,2.12-6.21,8.1,8.1,0,0,1,11.32-.07,8.92,8.92,0,0,1,2.06,6.26Zm-3.84-3a3.58,3.58,0,0,0-3.77-3,3.86,3.86,0,0,0-1.28.21,3.45,3.45,0,0,0-1.08.59,3.78,3.78,0,0,0-.84.94,4.4,4.4,0,0,0-.53,1.25Z" transform="translate(0 0)"/><path class="cls-4" d="M364.26,91.78l-3.09,1.65c-.49-1-1.09-1.5-1.81-1.5a1.23,1.23,0,0,0-.88.34,1.15,1.15,0,0,0-.36.87c0,.62.71,1.24,2.15,1.85a12.76,12.76,0,0,1,4,2.35,4,4,0,0,1,1,2.91,5.09,5.09,0,0,1-1.72,3.92,6.19,6.19,0,0,1-9.81-2.48l3.18-1.47a6.87,6.87,0,0,0,1,1.47,2.29,2.29,0,0,0,1.62.63c1.26,0,1.9-.57,1.9-1.72q0-1-1.47-1.86l-1.12-.55-1.15-.55a7,7,0,0,1-2.29-1.59,4,4,0,0,1-.85-2.61A4.59,4.59,0,0,1,356.06,90a5,5,0,0,1,3.58-1.38A4.91,4.91,0,0,1,364.26,91.78Z" transform="translate(0 0)"/><path class="cls-4" d="M367.89,97a8,8,0,0,1,2.51-6,8.84,8.84,0,0,1,12.25,0,8.67,8.67,0,0,1,0,12.17,8.58,8.58,0,0,1-6.2,2.44,8.22,8.22,0,0,1-6.09-2.49A8.37,8.37,0,0,1,367.89,97Zm3.82.06a5.43,5.43,0,0,0,1.3,3.84,5,5,0,0,0,7,0,6.07,6.07,0,0,0,0-7.53,5,5,0,0,0-7,0A5.17,5.17,0,0,0,371.71,97.06Z" transform="translate(0 0)"/><path class="cls-4" d="M389.09,89h3.74v1.49A8,8,0,0,1,394.67,89a4.57,4.57,0,0,1,2-.41A5,5,0,0,1,401.05,91a5.61,5.61,0,0,1,4.76-2.39q5.46,0,5.46,6.62v10h-3.75v-9a7,7,0,0,0-.56-3.28,2,2,0,0,0-1.91-1,2.44,2.44,0,0,0-2.25,1.16,7.48,7.48,0,0,0-.71,3.74v8.35h-3.75V96.26q0-4.31-2.49-4.31a2.49,2.49,0,0,0-2.3,1.18,7.34,7.34,0,0,0-.72,3.72v8.35h-3.74Z" transform="translate(0 0)"/><path class="cls-4" d="M438.4,77.16h3.75v28H438.4v-1.7a7,7,0,0,1-5,2.16,7.13,7.13,0,0,1-5.51-2.42,9,9,0,0,1-2.17-6.18,8.7,8.7,0,0,1,2.17-6,7,7,0,0,1,10.51-.12Zm-8.86,19.9a5.65,5.65,0,0,0,1.24,3.79,4.09,4.09,0,0,0,3.22,1.47,4.28,4.28,0,0,0,3.35-1.42,6.15,6.15,0,0,0,0-7.51A4.22,4.22,0,0,0,434,92a4.16,4.16,0,0,0-3.22,1.46A5.38,5.38,0,0,0,429.54,97.06Z" transform="translate(0 0)"/><path class="cls-4" d="M450.6,89v9.28c0,2.68,1.06,4,3.17,4s3.17-1.33,3.17-4V89h3.74v9.36a10.44,10.44,0,0,1-.48,3.35,5.73,5.73,0,0,1-1.61,2.28,7.86,7.86,0,0,1-9.61,0,5.74,5.74,0,0,1-1.65-2.28,9.24,9.24,0,0,1-.46-3.35V89Z" transform="translate(0 0)"/><path class="cls-4" d="M477.9,89l4.18,9.08L486.25,89h4.2l-8.4,17.28L473.71,89Z" transform="translate(0 0)"/><path class="cls-4" d="M507.12,98H495.53a4.91,4.91,0,0,0,1.29,3.17,4,4,0,0,0,2.94,1.16,3.85,3.85,0,0,0,2.31-.66,9.23,9.23,0,0,0,2-2.46l3.15,1.76a12.67,12.67,0,0,1-1.54,2.14,8.44,8.44,0,0,1-1.74,1.46,7.13,7.13,0,0,1-2,.84,10.16,10.16,0,0,1-2.34.26,7.59,7.59,0,0,1-5.81-2.32,8.72,8.72,0,0,1-2.19-6.21,8.93,8.93,0,0,1,2.12-6.21,8.1,8.1,0,0,1,11.32-.07,8.92,8.92,0,0,1,2.06,6.26Zm-3.84-3a3.58,3.58,0,0,0-3.77-3,3.86,3.86,0,0,0-1.28.21,3.34,3.34,0,0,0-1.08.59,3.78,3.78,0,0,0-.84.94,4.4,4.4,0,0,0-.53,1.25Z" transform="translate(0 0)"/><path class="cls-4" d="M523.12,77.16h3.75v28h-3.75v-1.7a7,7,0,0,1-5,2.16,7.13,7.13,0,0,1-5.51-2.42,9,9,0,0,1-2.17-6.18,8.7,8.7,0,0,1,2.17-6,7,7,0,0,1,10.51-.12Zm-8.87,19.9a5.66,5.66,0,0,0,1.25,3.79,4.08,4.08,0,0,0,3.22,1.47,4.28,4.28,0,0,0,3.35-1.42,6.15,6.15,0,0,0,0-7.51A4.23,4.23,0,0,0,518.75,92a4.16,4.16,0,0,0-3.22,1.46A5.38,5.38,0,0,0,514.25,97.06Z" transform="translate(0 0)"/><path class="cls-4" d="M541.51,82.3a2.44,2.44,0,0,1,2.43-2.4,2.32,2.32,0,0,1,1.72.71,2.27,2.27,0,0,1,.72,1.71,2.36,2.36,0,0,1-.72,1.73,2.3,2.3,0,0,1-1.71.71,2.44,2.44,0,0,1-2.44-2.46Zm4.3,6.73V105.2h-3.73V89Z" transform="translate(0 0)"/><path class="cls-4" d="M554.28,77.16v17.1L559.54,89h5l-7,6.79,7.54,9.38h-4.85l-5.34-6.83-.6.6v6.23h-3.74v-28Z" transform="translate(0 0)"/><path class="cls-4" d="M571.21,77.16v17.1L576.48,89h5l-7,6.79L582,105.2h-4.84l-5.35-6.83-.6.6v6.23h-3.73v-28Z" transform="translate(0 0)"/><path class="cls-4" d="M598.59,98H587a4.86,4.86,0,0,0,1.3,3.17,3.92,3.92,0,0,0,2.94,1.16,3.82,3.82,0,0,0,2.3-.66,9.23,9.23,0,0,0,2-2.46l3.16,1.76a13.25,13.25,0,0,1-1.54,2.14,8.76,8.76,0,0,1-1.75,1.46,7.13,7.13,0,0,1-2,.84,10.16,10.16,0,0,1-2.34.26,7.61,7.61,0,0,1-5.81-2.32,8.72,8.72,0,0,1-2.19-6.21,8.94,8.94,0,0,1,2.13-6.21,8.1,8.1,0,0,1,11.32-.07,9,9,0,0,1,2.06,6.26Zm-3.84-3A3.57,3.57,0,0,0,591,92a3.82,3.82,0,0,0-1.28.21,3.5,3.5,0,0,0-1.09.59,3.78,3.78,0,0,0-.84.94,4.4,4.4,0,0,0-.53,1.25Z" transform="translate(0 0)"/><path class="cls-4" d="M627.89,98H616.3a4.86,4.86,0,0,0,1.3,3.17,3.92,3.92,0,0,0,2.94,1.16,3.8,3.8,0,0,0,2.3-.66,9.42,9.42,0,0,0,2-2.46L628,101a13.25,13.25,0,0,1-1.54,2.14,8.49,8.49,0,0,1-1.75,1.46,7.2,7.2,0,0,1-2,.84,10.19,10.19,0,0,1-2.35.26,7.61,7.61,0,0,1-5.81-2.32,8.72,8.72,0,0,1-2.19-6.21,8.94,8.94,0,0,1,2.13-6.21,8.1,8.1,0,0,1,11.32-.07,9,9,0,0,1,2.06,6.26Zm-3.83-3a3.58,3.58,0,0,0-3.77-3,3.82,3.82,0,0,0-1.28.21,3.5,3.5,0,0,0-1.09.59,4.22,4.22,0,0,0-.84.94,4.4,4.4,0,0,0-.53,1.25Z" transform="translate(0 0)"/><path class="cls-4" d="M632,89h3.73v1.44A7.33,7.33,0,0,1,637.54,89a4.25,4.25,0,0,1,1.92-.41,6,6,0,0,1,3.09,1L640.84,93a3.56,3.56,0,0,0-2.07-.76q-3.06,0-3.06,4.61v8.39H632Z" transform="translate(0 0)"/><path class="cls-4" d="M48.58,133.31V146H44.84V133.31H43.25v-3.48h1.59V123.9h3.74v5.93h2.9v3.48Z" transform="translate(0 0)"/><path class="cls-4" d="M53.46,123.1a2.43,2.43,0,0,1,4.15-1.69,2.26,2.26,0,0,1,.71,1.71,2.35,2.35,0,0,1-.71,1.73,2.3,2.3,0,0,1-1.71.71,2.42,2.42,0,0,1-2.44-2.46Zm4.3,6.73V146H54V129.83Z" transform="translate(0 0)"/><path class="cls-4" d="M66.23,118v28H62.49V118Z" transform="translate(0 0)"/><path class="cls-4" d="M74.81,133.31V146H71.07V133.31H69.48v-3.48h1.59V123.9h3.74v5.93h2.91v3.48Z" transform="translate(0 0)"/><path class="cls-4" d="M105.51,138.74H93.85a5.16,5.16,0,0,0,1.36,3.19,3.9,3.9,0,0,0,2.93,1.19q2.55,0,4.23-3.23l3.22,1.79a11.63,11.63,0,0,1-1.15,1.78,7.15,7.15,0,0,1-1.32,1.27A8.53,8.53,0,0,1,98,146.48a8.15,8.15,0,0,1-5.86-2.59,7.12,7.12,0,0,1-6,2.59,7.37,7.37,0,0,1-4.8-1.5,4.79,4.79,0,0,1-1.84-3.9,5,5,0,0,1,1.76-4,6.86,6.86,0,0,1,4.63-1.53,9.38,9.38,0,0,1,4.22,1.1,4.13,4.13,0,0,0-.91-3.06,4.46,4.46,0,0,0-3.12-.88,16,16,0,0,0-4.32.62v-3.47a28.08,28.08,0,0,1,4.68-.5c2.63,0,4.53.76,5.68,2.27a7.47,7.47,0,0,1,5.64-2.27,7.38,7.38,0,0,1,5.66,2.27,8.48,8.48,0,0,1,2.13,6ZM83.11,141a1.85,1.85,0,0,0,.93,1.57,4.26,4.26,0,0,0,2.36.63,4.45,4.45,0,0,0,2.47-.64,1.94,1.94,0,0,0,1-1.65,1.8,1.8,0,0,0-1-1.49,4.66,4.66,0,0,0-2.48-.63,3.92,3.92,0,0,0-2.3.65A1.87,1.87,0,0,0,83.11,141Zm18.48-5.3a3.42,3.42,0,0,0-3.64-3,3.69,3.69,0,0,0-3.85,3Z" transform="translate(0 0)"/><path class="cls-4" d="M109.52,129.83h3.76v1.49a6.11,6.11,0,0,1,4.41-1.94,5.59,5.59,0,0,1,4.4,1.77q1.36,1.51,1.36,4.93V146H119.7v-9a6,6,0,0,0-.66-3.3,2.69,2.69,0,0,0-2.36-.93A2.88,2.88,0,0,0,114,134a8.45,8.45,0,0,0-.76,4.23V146h-3.76Z" transform="translate(0 0)"/><path class="cls-4" d="M131.9,118v17.1l5.27-5.23h5l-7,6.79,7.53,9.38h-4.84l-5.35-6.83-.6.6V146h-3.73V118Z" transform="translate(0 0)"/><path class="cls-4" d="M149,133.31V146h-3.73V133.31h-1.6v-3.48h1.6V123.9H149v5.93h2.91v3.48Z" transform="translate(0 0)"/><path class="cls-4" d="M176.81,118h3.75v28h-3.75v-1.7a7,7,0,0,1-5,2.16A7.13,7.13,0,0,1,166.3,144a9,9,0,0,1-2.17-6.18,8.7,8.7,0,0,1,2.17-6,7,7,0,0,1,10.51-.12Zm-8.87,19.9a5.66,5.66,0,0,0,1.25,3.79,4.09,4.09,0,0,0,3.22,1.47,4.28,4.28,0,0,0,3.35-1.42,6.15,6.15,0,0,0,0-7.51,4.22,4.22,0,0,0-3.32-1.44,4.16,4.16,0,0,0-3.22,1.46A5.38,5.38,0,0,0,167.94,137.86Z" transform="translate(0 0)"/><path class="cls-4" d="M184.71,123.1a2.44,2.44,0,0,1,2.43-2.4,2.32,2.32,0,0,1,1.72.71,2.27,2.27,0,0,1,.72,1.71,2.36,2.36,0,0,1-.72,1.73,2.3,2.3,0,0,1-1.71.71,2.44,2.44,0,0,1-2.44-2.46Zm4.3,6.73V146h-3.73V129.83Z" transform="translate(0 0)"/><path class="cls-4" d="M209.38,145.61c0,.77,0,1.44-.07,2a14,14,0,0,1-.21,1.54,6.91,6.91,0,0,1-1.56,3.13,7.55,7.55,0,0,1-6,2.53,8,8,0,0,1-5.33-1.75,7.16,7.16,0,0,1-2.49-5h3.76a4.19,4.19,0,0,0,.71,1.84,4,4,0,0,0,3.39,1.51c2.73,0,4.1-1.67,4.1-5v-2.25a7,7,0,0,1-5.13,2.27,6.91,6.91,0,0,1-5.42-2.39A8.9,8.9,0,0,1,193,138a9.31,9.31,0,0,1,2-6,6.84,6.84,0,0,1,5.61-2.62,6.54,6.54,0,0,1,5.08,2.27v-1.82h3.73Zm-3.58-7.67a5.38,5.38,0,0,0-1.27-3.76,4.15,4.15,0,0,0-3.27-1.45,4,4,0,0,0-3.35,1.58,6.51,6.51,0,0,0,0,7.27,4,4,0,0,0,3.35,1.54,4.1,4.1,0,0,0,3.39-1.56A5.57,5.57,0,0,0,205.8,137.94Z" transform="translate(0 0)"/><path class="cls-4" d="M216.4,141.2l3.33,1.29L215,152l-2.52-1Z" transform="translate(0 0)"/><path class="cls-4" d="M234.32,137.79a8,8,0,0,1,2.5-6,8.87,8.87,0,0,1,12.26,0,8.66,8.66,0,0,1,0,12.17,8.56,8.56,0,0,1-6.19,2.44,8.23,8.23,0,0,1-6.1-2.49A8.41,8.41,0,0,1,234.32,137.79Zm3.82.07a5.47,5.47,0,0,0,1.29,3.84,5,5,0,0,0,7,0,6.07,6.07,0,0,0,0-7.53,5,5,0,0,0-7,0A5.21,5.21,0,0,0,238.14,137.86Z" transform="translate(0 0)"/><path class="cls-4" d="M271.16,145.61c0,.77,0,1.44-.08,2a14,14,0,0,1-.21,1.54,6.72,6.72,0,0,1-1.56,3.13,7.54,7.54,0,0,1-6,2.53,8,8,0,0,1-5.33-1.75,7.08,7.08,0,0,1-2.49-5h3.75a4.19,4.19,0,0,0,.71,1.84,4,4,0,0,0,3.39,1.51c2.73,0,4.1-1.67,4.1-5v-2.25a7,7,0,0,1-5.13,2.27,6.89,6.89,0,0,1-5.41-2.39,8.86,8.86,0,0,1-2.13-6.06,9.31,9.31,0,0,1,2-6,6.87,6.87,0,0,1,5.61-2.62,6.53,6.53,0,0,1,5.08,2.27v-1.82h3.74Zm-3.59-7.67a5.43,5.43,0,0,0-1.26-3.76,4.15,4.15,0,0,0-3.27-1.45,4,4,0,0,0-3.35,1.58,6.46,6.46,0,0,0,0,7.27,4,4,0,0,0,3.35,1.54,4.1,4.1,0,0,0,3.39-1.56A5.56,5.56,0,0,0,267.57,137.94Z" transform="translate(0 0)"/><path class="cls-4" d="M298.28,118H302v28h-3.76v-1.7a7,7,0,0,1-5,2.16,7.15,7.15,0,0,1-5.52-2.42,9,9,0,0,1-2.17-6.18,8.7,8.7,0,0,1,2.17-6,7,7,0,0,1,10.51-.12Zm-8.86,19.9a5.65,5.65,0,0,0,1.24,3.79,4.1,4.1,0,0,0,3.22,1.47,4.29,4.29,0,0,0,3.36-1.42,6.15,6.15,0,0,0,0-7.51,4.23,4.23,0,0,0-3.32-1.44,4.13,4.13,0,0,0-3.22,1.46A5.33,5.33,0,0,0,289.42,137.86Z" transform="translate(0 0)"/><path class="cls-4" d="M310.49,129.83v9.28c0,2.68,1.05,4,3.17,4s3.17-1.33,3.17-4v-9.28h3.73v9.36a10.44,10.44,0,0,1-.48,3.35,5.73,5.73,0,0,1-1.61,2.28,7.86,7.86,0,0,1-9.61,0,5.71,5.71,0,0,1-1.64-2.28,9.21,9.21,0,0,1-.47-3.35v-9.36Z" transform="translate(0 0)"/><path class="cls-4" d="M339.64,133.31V146h-3.75V133.31h-1.33v-3.48h1.33v-6.25c0-2,.35-3.47,1.06-4.31a5.18,5.18,0,0,1,4.25-1.76,7.29,7.29,0,0,1,2.51.58v3.82l-.39-.2a4.67,4.67,0,0,0-2-.62,1.34,1.34,0,0,0-1.34.72,6.71,6.71,0,0,0-.35,2.69v5.33h4.07v3.48Z" transform="translate(0 0)"/><path class="cls-4" d="M346,123.1a2.44,2.44,0,0,1,2.43-2.4,2.32,2.32,0,0,1,1.72.71,2.27,2.27,0,0,1,.72,1.71,2.36,2.36,0,0,1-.72,1.73,2.3,2.3,0,0,1-1.71.71A2.44,2.44,0,0,1,346,123.1Zm4.3,6.73V146h-3.73V129.83Z" transform="translate(0 0)"/><path class="cls-4" d="M355,129.83h3.76v1.49a6.11,6.11,0,0,1,4.41-1.94,5.59,5.59,0,0,1,4.4,1.77q1.36,1.51,1.36,4.93V146h-3.75v-9a6,6,0,0,0-.66-3.3,2.68,2.68,0,0,0-2.36-.93,2.88,2.88,0,0,0-2.64,1.23,8.45,8.45,0,0,0-.76,4.23V146H355Z" transform="translate(0 0)"/><path class="cls-4" d="M385.61,118h3.75v28h-3.75v-1.7a7,7,0,0,1-5,2.16A7.13,7.13,0,0,1,375.1,144a9,9,0,0,1-2.18-6.18,8.7,8.7,0,0,1,2.18-6,7,7,0,0,1,10.51-.12Zm-8.87,19.9a5.66,5.66,0,0,0,1.25,3.79,4.08,4.08,0,0,0,3.22,1.47,4.28,4.28,0,0,0,3.35-1.42,6.15,6.15,0,0,0,0-7.51,4.23,4.23,0,0,0-3.32-1.44,4.14,4.14,0,0,0-3.22,1.46A5.38,5.38,0,0,0,376.74,137.86Z" transform="translate(0 0)"/><path class="cls-4" d="M408.8,138.79H397.21a4.86,4.86,0,0,0,1.3,3.17,3.92,3.92,0,0,0,2.94,1.16,3.82,3.82,0,0,0,2.3-.66A9.42,9.42,0,0,0,405.8,140l3.15,1.76a13.25,13.25,0,0,1-1.54,2.14,8.76,8.76,0,0,1-1.75,1.46,7.13,7.13,0,0,1-2,.84,10.16,10.16,0,0,1-2.34.26,7.61,7.61,0,0,1-5.81-2.32,8.72,8.72,0,0,1-2.19-6.21,8.94,8.94,0,0,1,2.13-6.21,8.1,8.1,0,0,1,11.32-.07,9,9,0,0,1,2.06,6.26Zm-3.83-3a3.58,3.58,0,0,0-3.77-3,3.82,3.82,0,0,0-1.28.21,3.5,3.5,0,0,0-1.09.59,4,4,0,0,0-.84.94,4.4,4.4,0,0,0-.53,1.25Z" transform="translate(0 0)"/><path class="cls-4" d="M412.88,129.83h3.74v1.44a7.16,7.16,0,0,1,1.83-1.48,4.25,4.25,0,0,1,1.92-.41,6,6,0,0,1,3.09,1l-1.71,3.42a3.56,3.56,0,0,0-2.08-.76q-3,0-3.05,4.61V146h-3.74Z" transform="translate(0 0)"/><path class="cls-4" d="M439.83,129.83v9.28c0,2.68,1.06,4,3.17,4s3.17-1.33,3.17-4v-9.28h3.74v9.36a10.16,10.16,0,0,1-.49,3.35,5.63,5.63,0,0,1-1.61,2.28,7.86,7.86,0,0,1-9.61,0,5.81,5.81,0,0,1-1.64-2.28,9.21,9.21,0,0,1-.47-3.35v-9.36Z" transform="translate(0 0)"/><path class="cls-4" d="M466.54,118h3.75v28h-3.75v-1.7a7,7,0,0,1-5,2.16A7.13,7.13,0,0,1,456,144a9,9,0,0,1-2.17-6.18,8.7,8.7,0,0,1,2.17-6,7,7,0,0,1,10.51-.12Zm-8.86,19.9a5.65,5.65,0,0,0,1.24,3.79,4.09,4.09,0,0,0,3.22,1.47,4.28,4.28,0,0,0,3.35-1.42,6.15,6.15,0,0,0,0-7.51,4.22,4.22,0,0,0-3.32-1.44,4.16,4.16,0,0,0-3.22,1.46A5.38,5.38,0,0,0,457.68,137.86Z" transform="translate(0 0)"/><path class="cls-4" d="M497.42,129.83h3.75V146h-3.75v-1.7a7.18,7.18,0,0,1-10.51-.26,9,9,0,0,1-2.17-6.18,8.75,8.75,0,0,1,2.17-6.06,7,7,0,0,1,5.45-2.42,6.86,6.86,0,0,1,5.06,2.32Zm-8.87,8a5.66,5.66,0,0,0,1.25,3.79,4.08,4.08,0,0,0,3.22,1.47,4.28,4.28,0,0,0,3.35-1.42,6.15,6.15,0,0,0,0-7.51,4.23,4.23,0,0,0-3.32-1.44,4.16,4.16,0,0,0-3.22,1.46A5.38,5.38,0,0,0,488.55,137.86Z" transform="translate(0 0)"/><path class="cls-4" d="M509.75,133.31V146H506V133.31h-1.33v-3.48H506v-6.25c0-2,.36-3.47,1.06-4.31a5.21,5.21,0,0,1,4.25-1.76,7.24,7.24,0,0,1,2.51.58v3.82l-.38-.2a4.71,4.71,0,0,0-2-.62,1.35,1.35,0,0,0-1.35.72,6.9,6.9,0,0,0-.35,2.69v5.33h4.07v3.48Z" transform="translate(0 0)"/><path class="cls-4" d="M518.29,141.2l3.32,1.29L516.88,152l-2.53-1Z" transform="translate(0 0)"/><path class="cls-4" d="M548.88,129.83h3.76V146h-3.76v-1.7a7.18,7.18,0,0,1-10.51-.26,9,9,0,0,1-2.17-6.18,8.75,8.75,0,0,1,2.17-6.06,7.05,7.05,0,0,1,5.45-2.42,6.86,6.86,0,0,1,5.06,2.32Zm-8.86,8a5.65,5.65,0,0,0,1.24,3.79,4.1,4.1,0,0,0,3.22,1.47,4.29,4.29,0,0,0,3.36-1.42,6.15,6.15,0,0,0,0-7.51,4.23,4.23,0,0,0-3.32-1.44,4.13,4.13,0,0,0-3.22,1.46A5.33,5.33,0,0,0,540,137.86Z" transform="translate(0 0)"/><path class="cls-4" d="M561.2,133.31V146h-3.73V133.31h-1.6v-3.48h1.6V123.9h3.73v5.93h2.91v3.48Z" transform="translate(0 0)"/><path class="cls-4" d="M589.06,118h3.75v28h-3.75v-1.7a7,7,0,0,1-5,2.16,7.13,7.13,0,0,1-5.51-2.42,9,9,0,0,1-2.17-6.18,8.7,8.7,0,0,1,2.17-6,7,7,0,0,1,10.51-.12Zm-8.87,19.9a5.66,5.66,0,0,0,1.25,3.79,4.09,4.09,0,0,0,3.22,1.47A4.28,4.28,0,0,0,588,141.7a6.15,6.15,0,0,0,0-7.51,4.23,4.23,0,0,0-3.32-1.44,4.16,4.16,0,0,0-3.22,1.46A5.38,5.38,0,0,0,580.19,137.86Z" transform="translate(0 0)"/><path class="cls-4" d="M601.26,129.83v9.28c0,2.68,1.06,4,3.17,4s3.17-1.33,3.17-4v-9.28h3.74v9.36a10.44,10.44,0,0,1-.48,3.35,5.73,5.73,0,0,1-1.61,2.28,7.87,7.87,0,0,1-9.62,0,5.81,5.81,0,0,1-1.64-2.28,9.24,9.24,0,0,1-.46-3.35v-9.36Z" transform="translate(0 0)"/><path class="cls-4" d="M626,123.1a2.44,2.44,0,0,1,2.43-2.4,2.32,2.32,0,0,1,1.72.71,2.27,2.27,0,0,1,.72,1.71,2.36,2.36,0,0,1-.72,1.73,2.3,2.3,0,0,1-1.71.71A2.44,2.44,0,0,1,626,123.1Zm4.3,6.73V146h-3.73V129.83Z" transform="translate(0 0)"/><path class="cls-4" d="M638.75,118v17.1l5.26-5.23h5l-7,6.79,7.54,9.38h-4.85l-5.34-6.83-.6.6V146H635V118Z" transform="translate(0 0)"/><path class="cls-4" d="M655.68,118v17.1l5.26-5.23h5l-7,6.79,7.53,9.38h-4.85l-5.34-6.83-.6.6V146H652V118Z" transform="translate(0 0)"/><path class="cls-4" d="M683.06,138.79H671.47a4.91,4.91,0,0,0,1.29,3.17,4,4,0,0,0,2.94,1.16,3.85,3.85,0,0,0,2.31-.66,9.23,9.23,0,0,0,2-2.46l3.16,1.76a12.69,12.69,0,0,1-1.55,2.14,8.44,8.44,0,0,1-1.74,1.46,7.13,7.13,0,0,1-2,.84,10.16,10.16,0,0,1-2.34.26,7.61,7.61,0,0,1-5.81-2.32,8.72,8.72,0,0,1-2.19-6.21,9,9,0,0,1,2.12-6.21,8.11,8.11,0,0,1,11.33-.07,9,9,0,0,1,2.05,6.26Zm-3.84-3a3.57,3.57,0,0,0-3.77-3,3.76,3.76,0,0,0-1.27.21,3.5,3.5,0,0,0-1.09.59,3.78,3.78,0,0,0-.84.94,4.4,4.4,0,0,0-.53,1.25Z" transform="translate(0 0)"/><path class="cls-4" d="M59.45,179.59H47.87a4.91,4.91,0,0,0,1.29,3.17,3.92,3.92,0,0,0,2.94,1.16,3.85,3.85,0,0,0,2.31-.66,9.42,9.42,0,0,0,2-2.46l3.15,1.76a12.67,12.67,0,0,1-1.54,2.14,8.14,8.14,0,0,1-1.74,1.46,7.13,7.13,0,0,1-2,.84,10.16,10.16,0,0,1-2.34.26,7.59,7.59,0,0,1-5.81-2.32,8.68,8.68,0,0,1-2.2-6.21,8.94,8.94,0,0,1,2.13-6.21,7.33,7.33,0,0,1,5.68-2.34,7.26,7.26,0,0,1,5.64,2.27,9,9,0,0,1,2.06,6.26Zm-3.83-3.05a3.58,3.58,0,0,0-3.77-3,3.86,3.86,0,0,0-1.28.21,3.5,3.5,0,0,0-1.09.59,4,4,0,0,0-.83.94,4.42,4.42,0,0,0-.54,1.25Z" transform="translate(0 0)"/><path class="cls-4" d="M63.54,170.63h3.73v1.44a7.33,7.33,0,0,1,1.83-1.48,4.25,4.25,0,0,1,1.92-.41,6,6,0,0,1,3.09,1l-1.71,3.42a3.56,3.56,0,0,0-2.07-.76q-3.06,0-3.06,4.61v8.39H63.54Z" transform="translate(0 0)"/><path class="cls-4" d="M98.67,158.76h3.75v28H98.67v-1.7a7,7,0,0,1-5,2.16,7.13,7.13,0,0,1-5.51-2.42A9,9,0,0,1,86,178.66a8.72,8.72,0,0,1,2.18-6,7,7,0,0,1,10.51-.12Zm-8.87,19.9a5.66,5.66,0,0,0,1.25,3.79,4.08,4.08,0,0,0,3.22,1.47,4.28,4.28,0,0,0,3.35-1.42,6.15,6.15,0,0,0,0-7.51,4.23,4.23,0,0,0-3.32-1.44A4.14,4.14,0,0,0,91.08,175,5.4,5.4,0,0,0,89.8,178.66Z" transform="translate(0 0)"/><path class="cls-4" d="M121.86,179.59H110.27a4.86,4.86,0,0,0,1.3,3.17,3.91,3.91,0,0,0,2.93,1.16,3.85,3.85,0,0,0,2.31-.66,9.23,9.23,0,0,0,2-2.46l3.16,1.76a12.69,12.69,0,0,1-1.55,2.14,8.14,8.14,0,0,1-1.74,1.46,7.13,7.13,0,0,1-2,.84,10.16,10.16,0,0,1-2.34.26,7.61,7.61,0,0,1-5.81-2.32,8.72,8.72,0,0,1-2.19-6.21,9,9,0,0,1,2.12-6.21,8.11,8.11,0,0,1,11.33-.07,9,9,0,0,1,2.06,6.26ZM118,176.54a3.57,3.57,0,0,0-3.76-3,3.82,3.82,0,0,0-1.28.21,3.5,3.5,0,0,0-1.09.59,3.78,3.78,0,0,0-.84.94,4.4,4.4,0,0,0-.53,1.25Z" transform="translate(0 0)"/><path class="cls-4" d="M125.94,170.63h3.75v1.49a6.15,6.15,0,0,1,4.42-1.94,5.56,5.56,0,0,1,4.4,1.78c.91,1,1.36,2.65,1.36,4.93v9.91h-3.75v-9a6,6,0,0,0-.66-3.31,2.69,2.69,0,0,0-2.36-.93,2.88,2.88,0,0,0-2.64,1.23,8.43,8.43,0,0,0-.77,4.23v7.81h-3.75Z" transform="translate(0 0)"/><path class="cls-4" d="M159,174.11V186.8h-3.76V174.11h-1.32v-3.48h1.32v-6.25c0-2,.36-3.47,1.07-4.31a5.21,5.21,0,0,1,4.25-1.76,7.19,7.19,0,0,1,2.5.58v3.82l-.38-.2a4.71,4.71,0,0,0-2-.62,1.34,1.34,0,0,0-1.34.72,6.71,6.71,0,0,0-.35,2.69v5.33H163v3.48Z" transform="translate(0 0)"/><path class="cls-4" d="M178.49,171.76l2.55-2.53,1.7,1.8-2.49,2.44a8.64,8.64,0,0,1,1.81,5.29,8.12,8.12,0,0,1-2.51,6,8.25,8.25,0,0,1-6.08,2.46,8.72,8.72,0,0,1-5.34-1.69l-2.46,2.37L164,186.22l2.44-2.43a8.89,8.89,0,0,1-1.61-5.11,8.13,8.13,0,0,1,2.51-6,8.4,8.4,0,0,1,6.12-2.47A9,9,0,0,1,178.49,171.76Zm-2.71,2.55a5.11,5.11,0,0,0-2.34-.51,4.65,4.65,0,0,0-3.52,1.36,5,5,0,0,0-1.31,3.62,5.6,5.6,0,0,0,.51,2.41Zm1.79,1.7-6.77,7a5.39,5.39,0,0,0,2.62.66,4.72,4.72,0,0,0,3.49-1.34,5,5,0,0,0,1.31-3.59A6,6,0,0,0,177.57,176Z" transform="translate(0 0)"/><path class="cls-4" d="M186,170.63h3.74v1.44a7.14,7.14,0,0,1,1.82-1.48,4.29,4.29,0,0,1,1.93-.41,6.09,6.09,0,0,1,3.09,1l-1.71,3.42a3.56,3.56,0,0,0-2.08-.76c-2,0-3.05,1.54-3.05,4.61v8.39H186Z" transform="translate(0 0)"/><path class="cls-4" d="M208.1,173.38,205,175c-.49-1-1.09-1.5-1.81-1.5a1.26,1.26,0,0,0-.88.34,1.13,1.13,0,0,0-.37.87c0,.62.72,1.24,2.16,1.85a12.88,12.88,0,0,1,4,2.35,4,4,0,0,1,1,2.91,5.1,5.1,0,0,1-1.73,3.92,6.19,6.19,0,0,1-9.81-2.48l3.19-1.47a7,7,0,0,0,1,1.47,2.33,2.33,0,0,0,1.63.63c1.26,0,1.89-.57,1.89-1.72,0-.67-.49-1.29-1.46-1.86l-1.13-.55-1.14-.55a6.92,6.92,0,0,1-2.29-1.59,3.9,3.9,0,0,1-.85-2.61,4.62,4.62,0,0,1,1.44-3.48,5.07,5.07,0,0,1,3.59-1.38A4.88,4.88,0,0,1,208.1,173.38Z" transform="translate(0 0)"/><path class="cls-4" d="M216.35,174.11V186.8h-3.73V174.11H211v-3.48h1.59V164.7h3.73v5.93h2.91v3.48Z" transform="translate(0 0)"/><path class="cls-4" d="M236.82,179.59H225.24a4.91,4.91,0,0,0,1.29,3.17,3.93,3.93,0,0,0,2.94,1.16,3.85,3.85,0,0,0,2.31-.66,9.23,9.23,0,0,0,2-2.46l3.15,1.76a12.67,12.67,0,0,1-1.54,2.14,8.14,8.14,0,0,1-1.74,1.46,7.13,7.13,0,0,1-2,.84,10.16,10.16,0,0,1-2.34.26,7.59,7.59,0,0,1-5.81-2.32,8.72,8.72,0,0,1-2.19-6.21,8.93,8.93,0,0,1,2.12-6.21,8.1,8.1,0,0,1,11.32-.07,9,9,0,0,1,2.06,6.26ZM233,176.54a3.58,3.58,0,0,0-3.77-3,3.86,3.86,0,0,0-1.28.21,3.34,3.34,0,0,0-1.08.59,3.78,3.78,0,0,0-.84.94,4.14,4.14,0,0,0-.53,1.25Z" transform="translate(0 0)"/><path class="cls-4" d="M263.32,158.76h3.75v28h-3.75v-1.7a7,7,0,0,1-5,2.16,7.13,7.13,0,0,1-5.51-2.42,9,9,0,0,1-2.17-6.18,8.71,8.71,0,0,1,2.17-6,7,7,0,0,1,10.51-.12Zm-8.86,19.9a5.65,5.65,0,0,0,1.24,3.79,4.09,4.09,0,0,0,3.22,1.47,4.28,4.28,0,0,0,3.35-1.42,6.15,6.15,0,0,0,0-7.51,4.22,4.22,0,0,0-3.32-1.44,4.16,4.16,0,0,0-3.22,1.46A5.39,5.39,0,0,0,254.46,178.66Z" transform="translate(0 0)"/><path class="cls-4" d="M286.51,179.59H274.93a4.86,4.86,0,0,0,1.29,3.17,3.92,3.92,0,0,0,2.94,1.16,3.85,3.85,0,0,0,2.31-.66,9.63,9.63,0,0,0,2-2.46l3.15,1.76a12.67,12.67,0,0,1-1.54,2.14,8.14,8.14,0,0,1-1.74,1.46,7.13,7.13,0,0,1-2,.84,10.16,10.16,0,0,1-2.34.26,7.59,7.59,0,0,1-5.81-2.32,8.68,8.68,0,0,1-2.2-6.21,8.94,8.94,0,0,1,2.13-6.21,8.1,8.1,0,0,1,11.32-.07,9,9,0,0,1,2.06,6.26Zm-3.83-3.05a3.58,3.58,0,0,0-3.77-3,3.86,3.86,0,0,0-1.28.21,3.5,3.5,0,0,0-1.09.59,4,4,0,0,0-.83.94,4.42,4.42,0,0,0-.54,1.25Z" transform="translate(0 0)"/><path class="cls-4" d="M290.6,170.63h3.73v1.44a7.33,7.33,0,0,1,1.83-1.48,4.25,4.25,0,0,1,1.92-.41,6,6,0,0,1,3.09,1l-1.71,3.42a3.56,3.56,0,0,0-2.07-.76q-3.06,0-3.06,4.61v8.39H290.6Z" transform="translate(0 0)"/><path class="cls-4" d="M313.81,158.76h3.73V172a6.47,6.47,0,0,1,4.4-1.79,5.65,5.65,0,0,1,4.38,1.78c.93,1,1.4,2.67,1.4,4.93v9.91H324v-9.57a4.55,4.55,0,0,0-.69-2.81,2.64,2.64,0,0,0-2.21-.87,3,3,0,0,0-2.76,1.21,8.34,8.34,0,0,0-.78,4.22v7.82h-3.73Z" transform="translate(0 0)"/><path class="cls-4" d="M344.37,170.63h3.75V186.8h-3.75v-1.7a7.18,7.18,0,0,1-10.51-.26,9,9,0,0,1-2.17-6.18,8.75,8.75,0,0,1,2.17-6.06,7,7,0,0,1,5.45-2.42,6.86,6.86,0,0,1,5.06,2.32Zm-8.87,8a5.66,5.66,0,0,0,1.25,3.79,4.09,4.09,0,0,0,3.22,1.47,4.28,4.28,0,0,0,3.35-1.42,6.15,6.15,0,0,0,0-7.51,4.23,4.23,0,0,0-3.32-1.44,4.16,4.16,0,0,0-3.22,1.46A5.4,5.4,0,0,0,335.5,178.66Z" transform="translate(0 0)"/><path class="cls-4" d="M352.84,170.63h3.73v1.44a7.33,7.33,0,0,1,1.83-1.48,4.25,4.25,0,0,1,1.92-.41,6,6,0,0,1,3.09,1l-1.71,3.42a3.56,3.56,0,0,0-2.07-.76q-3.06,0-3.06,4.61v8.39h-3.73Z" transform="translate(0 0)"/><path class="cls-4" d="M376.05,170.63h3.73v1.49a8,8,0,0,1,1.84-1.53,4.62,4.62,0,0,1,2.05-.41,5,5,0,0,1,4.33,2.39,5.61,5.61,0,0,1,4.76-2.39q5.46,0,5.47,6.62v10h-3.76v-9a7,7,0,0,0-.56-3.29,2.06,2.06,0,0,0-1.91-1,2.44,2.44,0,0,0-2.25,1.16,7.5,7.5,0,0,0-.71,3.74v8.35h-3.75v-8.93q0-4.32-2.49-4.32a2.49,2.49,0,0,0-2.3,1.18,7.34,7.34,0,0,0-.72,3.72v8.35h-3.73Z" transform="translate(0 0)"/><path class="cls-4" d="M402.18,178.6a8,8,0,0,1,2.5-6,8.85,8.85,0,0,1,12.26,0,8.66,8.66,0,0,1,0,12.17,8.56,8.56,0,0,1-6.19,2.44,8.23,8.23,0,0,1-6.1-2.49A8.39,8.39,0,0,1,402.18,178.6Zm3.81.06a5.48,5.48,0,0,0,1.3,3.84,5,5,0,0,0,7,0,6.07,6.07,0,0,0,0-7.53,4.55,4.55,0,0,0-3.51-1.43,4.5,4.5,0,0,0-3.47,1.43A5.21,5.21,0,0,0,406,178.66Z" transform="translate(0 0)"/><path class="cls-4" d="M435.3,158.76h3.75v28H435.3v-1.7a7,7,0,0,1-5,2.16,7.13,7.13,0,0,1-5.51-2.42,9,9,0,0,1-2.18-6.18,8.72,8.72,0,0,1,2.18-6,7,7,0,0,1,10.51-.12Zm-8.87,19.9a5.66,5.66,0,0,0,1.25,3.79,4.08,4.08,0,0,0,3.22,1.47,4.28,4.28,0,0,0,3.35-1.42,6.15,6.15,0,0,0,0-7.51,4.23,4.23,0,0,0-3.32-1.44,4.14,4.14,0,0,0-3.22,1.46A5.4,5.4,0,0,0,426.43,178.66Z" transform="translate(0 0)"/><path class="cls-4" d="M447.61,174.11V186.8h-3.73V174.11h-1.59v-3.48h1.59V164.7h3.73v5.93h2.91v3.48Z" transform="translate(0 0)"/><path class="cls-4" d="M465.28,170.63H469V186.8h-3.75v-1.7a7.18,7.18,0,0,1-10.51-.26,9,9,0,0,1-2.17-6.18,8.75,8.75,0,0,1,2.17-6.06,7,7,0,0,1,5.45-2.42,6.87,6.87,0,0,1,5.06,2.32Zm-8.87,8a5.66,5.66,0,0,0,1.25,3.79,4.08,4.08,0,0,0,3.22,1.47,4.28,4.28,0,0,0,3.35-1.42,6.15,6.15,0,0,0,0-7.51,4.23,4.23,0,0,0-3.32-1.44,4.16,4.16,0,0,0-3.22,1.46A5.4,5.4,0,0,0,456.41,178.66Z" transform="translate(0 0)"/><path class="cls-4" d="M489.38,186.42c0,.76,0,1.43-.07,2a13.71,13.71,0,0,1-.21,1.54,6.76,6.76,0,0,1-1.56,3.14,7.56,7.56,0,0,1-6,2.52,8,8,0,0,1-5.33-1.74,7.13,7.13,0,0,1-2.49-5h3.75a4.19,4.19,0,0,0,.71,1.84,4,4,0,0,0,3.39,1.52q4.09,0,4.1-5V185a7,7,0,0,1-5.13,2.27,6.89,6.89,0,0,1-5.41-2.39,8.84,8.84,0,0,1-2.13-6.06,9.31,9.31,0,0,1,2-6,6.84,6.84,0,0,1,5.61-2.62,6.53,6.53,0,0,1,5.08,2.27v-1.82h3.73Zm-3.58-7.67a5.44,5.44,0,0,0-1.26-3.77,4.18,4.18,0,0,0-3.27-1.45,4,4,0,0,0-3.36,1.58,6.51,6.51,0,0,0,0,7.27,4,4,0,0,0,3.36,1.54,4.1,4.1,0,0,0,3.38-1.56A5.5,5.5,0,0,0,485.8,178.75Z" transform="translate(0 0)"/><path class="cls-4" d="M508.82,179.59H497.24a4.91,4.91,0,0,0,1.29,3.17,3.92,3.92,0,0,0,2.94,1.16,3.85,3.85,0,0,0,2.31-.66,9.42,9.42,0,0,0,2-2.46l3.15,1.76a12.67,12.67,0,0,1-1.54,2.14,8.14,8.14,0,0,1-1.74,1.46,7.13,7.13,0,0,1-2,.84,10.16,10.16,0,0,1-2.34.26,7.59,7.59,0,0,1-5.81-2.32,8.73,8.73,0,0,1-2.2-6.21,8.94,8.94,0,0,1,2.13-6.21,8.1,8.1,0,0,1,11.32-.07,9,9,0,0,1,2.06,6.26ZM505,176.54a3.58,3.58,0,0,0-3.77-3,3.86,3.86,0,0,0-1.28.21,3.5,3.5,0,0,0-1.09.59,4,4,0,0,0-.83.94,4.14,4.14,0,0,0-.53,1.25Z" transform="translate(0 0)"/><path class="cls-4" d="M517.06,174.11V186.8h-3.74V174.11h-1.59v-3.48h1.59V164.7h3.74v5.93H520v3.48Z" transform="translate(0 0)"/><path class="cls-4" d="M544.92,158.76h3.75v28h-3.75v-1.7a7,7,0,0,1-5,2.16,7.13,7.13,0,0,1-5.51-2.42,9,9,0,0,1-2.18-6.18,8.72,8.72,0,0,1,2.18-6,7,7,0,0,1,10.51-.12Zm-8.87,19.9a5.66,5.66,0,0,0,1.25,3.79,4.08,4.08,0,0,0,3.22,1.47,4.28,4.28,0,0,0,3.35-1.42,6.15,6.15,0,0,0,0-7.51,4.23,4.23,0,0,0-3.32-1.44,4.14,4.14,0,0,0-3.22,1.46A5.4,5.4,0,0,0,536.05,178.66Z" transform="translate(0 0)"/><path class="cls-4" d="M568.11,179.59H556.52a4.86,4.86,0,0,0,1.3,3.17,3.91,3.91,0,0,0,2.93,1.16,3.85,3.85,0,0,0,2.31-.66,9.23,9.23,0,0,0,2-2.46l3.16,1.76a12.69,12.69,0,0,1-1.55,2.14,8.14,8.14,0,0,1-1.74,1.46,7.13,7.13,0,0,1-2,.84,10.16,10.16,0,0,1-2.34.26,7.61,7.61,0,0,1-5.81-2.32,8.72,8.72,0,0,1-2.19-6.21,9,9,0,0,1,2.12-6.21,8.11,8.11,0,0,1,11.33-.07,9,9,0,0,1,2,6.26Zm-3.84-3.05a3.57,3.57,0,0,0-3.77-3,3.76,3.76,0,0,0-1.27.21,3.5,3.5,0,0,0-1.09.59,3.78,3.78,0,0,0-.84.94,4.4,4.4,0,0,0-.53,1.25Z" transform="translate(0 0)"/><path class="cls-4" d="M576.34,174.11V186.8h-3.73V174.11H571v-3.48h1.6V164.7h3.73v5.93h2.91v3.48Z" transform="translate(0 0)"/><path class="cls-4" d="M589.71,174.83h3.75a5.92,5.92,0,0,1-1.35,4.06,5.64,5.64,0,0,1-4.46,2,5.32,5.32,0,0,1-4-1.66,5.63,5.63,0,0,1-1.63-4.1,4.58,4.58,0,0,1,1-3.09,8.33,8.33,0,0,1,3.49-2.05,12.07,12.07,0,0,0,3.09-1.45,2.07,2.07,0,0,0,.66-1.69,2.42,2.42,0,0,0-.69-1.82,2.85,2.85,0,0,0-3.66,0,2.43,2.43,0,0,0-.68,1.81,7.46,7.46,0,0,0,.2,1.43h-3.87c0-.29,0-.54-.06-.76s0-.43,0-.6a5.85,5.85,0,0,1,1.78-4.37,6,6,0,0,1,4.44-1.74,6.24,6.24,0,0,1,4.52,1.76A5.87,5.87,0,0,1,594,167a5.62,5.62,0,0,1-1.81,4.36,11.86,11.86,0,0,1-4.32,2c-1.43.44-2.15,1.14-2.15,2.09a1.94,1.94,0,0,0,.15.76,2.22,2.22,0,0,0,.43.62,1.77,1.77,0,0,0,.62.41,1.93,1.93,0,0,0,.75.15C588.93,177.38,589.6,176.53,589.71,174.83Zm-4.24,10.11a2.31,2.31,0,0,1,4.62,0,2.27,2.27,0,0,1-.68,1.65,2.2,2.2,0,0,1-1.61.66,2.25,2.25,0,0,1-1.65-.66A2.29,2.29,0,0,1,585.47,184.94Z" transform="translate(0 0)"/></g></g></svg>
