<svg xmlns="http://www.w3.org/2000/svg" viewBox="0 0 135.56 149"><defs><style>.cls-1{fill:#202532;}.cls-2{fill:#f4912d;}.cls-3{fill:#f7931e;}.cls-4{fill:#fff;}</style></defs><title>prøv_igen_1</title><g id="Layer_2" data-name="Layer 2"><g id="Layer_1-2" data-name="Layer 1"><rect class="cls-1" x="0.5" y="0.5" width="134.56" height="148" rx="11.5" ry="11.5"/><path d="M123.56,1a11,11,0,0,1,11,11V137a11,11,0,0,1-11,11H12A11,11,0,0,1,1,137V12A11,11,0,0,1,12,1H123.56m0-1H12A12,12,0,0,0,0,12V137a12,12,0,0,0,12,12H123.56a12,12,0,0,0,12-12V12a12,12,0,0,0-12-12Z"/><rect class="cls-2" x="13.5" y="33.5" width="108.56" height="102" rx="11.5" ry="11.5"/><path class="cls-3" d="M110.56,34a11,11,0,0,1,11,11v79a11,11,0,0,1-11,11H25a11,11,0,0,1-11-11V45A11,11,0,0,1,25,34h85.56m0-1H25A12,12,0,0,0,13,45v79a12,12,0,0,0,12,12h85.56a12,12,0,0,0,12-12V45a12,12,0,0,0-12-12Z"/><path class="cls-4" d="M38.59,15.9a11.33,11.33,0,0,1,2-.16,3.34,3.34,0,0,1,2.27.67,2.21,2.21,0,0,1,.71,1.69,2.37,2.37,0,0,1-.63,1.73,3.34,3.34,0,0,1-2.47.89,3.61,3.61,0,0,1-.84-.07v3.24h-1Zm1,3.9a3.58,3.58,0,0,0,.87.08c1.26,0,2-.61,2-1.73s-.75-1.58-1.9-1.58a5.05,5.05,0,0,0-1,.08Z"/><path class="cls-4" d="M45,15.91a10.77,10.77,0,0,1,2-.17,3.31,3.31,0,0,1,2.33.66A2,2,0,0,1,50,17.94,2.13,2.13,0,0,1,48.43,20v0a2,2,0,0,1,1.18,1.63,13.58,13.58,0,0,0,.63,2.22H49.16A11,11,0,0,1,48.62,22c-.24-1.11-.67-1.53-1.62-1.57H46v3.51H45ZM46,19.59h1.06c1.12,0,1.83-.61,1.83-1.53s-.76-1.5-1.86-1.51a4.18,4.18,0,0,0-1,.09Z"/><path class="cls-4" d="M51.31,23.93l.74-1.05a4.37,4.37,0,0,1-1.06-3c0-2.55,1.61-4.22,3.73-4.22a3.39,3.39,0,0,1,2,.64l.71-1,.63.44-.74,1a4.35,4.35,0,0,1,1,3c0,2.82-1.74,4.25-3.67,4.25a3.47,3.47,0,0,1-2.05-.65l-.75,1Zm4.9-6.86a2.3,2.3,0,0,0-1.51-.56c-1.76,0-2.65,1.63-2.65,3.32a4.07,4.07,0,0,0,.6,2.17h0Zm-3,5.53a2.07,2.07,0,0,0,1.51.58c1.69,0,2.63-1.55,2.63-3.37a3.94,3.94,0,0,0-.57-2.1h0Z"/><path class="cls-4" d="M61.51,23.89,58.87,15.8H60l1.26,4c.34,1.1.64,2.08.86,3h0c.23-.94.57-2,.93-3l1.36-4h1.12l-2.89,8.09Z"/><path class="cls-4" d="M70,15.8v8.09H69V15.8Z"/><path class="cls-4" d="M78,23.53a7.71,7.71,0,0,1-2.48.44,4.14,4.14,0,0,1-3-1.07,4.14,4.14,0,0,1-1.13-3,4.05,4.05,0,0,1,4.38-4.17,4.93,4.93,0,0,1,2,.37l-.25.85a4.21,4.21,0,0,0-1.79-.35,3,3,0,0,0-3.25,3.25,3,3,0,0,0,3.12,3.27A3.35,3.35,0,0,0,77,22.89V20.48H75.33v-.84H78Z"/><path class="cls-4" d="M83.78,20.1H80.64V23h3.5v.88H79.59V15.8H84v.88H80.64v2.55h3.14Z"/><path class="cls-4" d="M85.5,23.89V15.8h1.14l2.59,4.09a23.83,23.83,0,0,1,1.45,2.63h0c-.09-1.08-.12-2.07-.12-3.33V15.8h1v8.09H90.51l-2.57-4.11a27.32,27.32,0,0,1-1.51-2.69h0c.06,1,.08,2,.08,3.33v3.46Z"/><path class="cls-4" d="M93.11,23.26a.71.71,0,1,1,.7.76A.7.7,0,0,1,93.11,23.26Z"/><path class="cls-4" d="M95.59,23.26a.71.71,0,0,1,.72-.75.7.7,0,0,1,.71.75.72.72,0,1,1-1.43,0Z"/><path class="cls-4" d="M98.07,23.26a.71.71,0,0,1,.72-.75.7.7,0,0,1,.71.75.72.72,0,1,1-1.43,0Z"/><path class="cls-4" d="M24.39,46.31a2.06,2.06,0,0,0,1,.29.9.9,0,0,0,1-.88c0-.64-.58-.91-1.18-.91h-.34v-.47h.34c.45,0,1-.23,1-.77,0-.36-.24-.68-.8-.68a1.64,1.64,0,0,0-.91.3l-.16-.45a2.1,2.1,0,0,1,1.19-.35c.89,0,1.3.53,1.3,1.08a1.15,1.15,0,0,1-.84,1.08h0a1.18,1.18,0,0,1,1,1.17c0,.73-.56,1.37-1.66,1.37a2.36,2.36,0,0,1-1.18-.31Z"/><path class="cls-4" d="M32.43,43.63c0,.24,0,.52,0,.93v2a2,2,0,0,1-.49,1.55,1.82,1.82,0,0,1-1.23.4,2.2,2.2,0,0,1-1.13-.28l.16-.47a1.88,1.88,0,0,0,1,.27c.63,0,1.09-.33,1.09-1.18v-.38h0a1.21,1.21,0,0,1-1.08.56,1.51,1.51,0,0,1-1.44-1.65,1.63,1.63,0,0,1,1.52-1.8,1.12,1.12,0,0,1,1.06.59h0l0-.51ZM31.8,45a.79.79,0,0,0,0-.28A.88.88,0,0,0,30.9,44c-.59,0-1,.49-1,1.28s.34,1.22,1,1.22a.91.91,0,0,0,.86-.64,1.19,1.19,0,0,0,.05-.32Z"/><path class="cls-4" d="M36.49,45.3a1.66,1.66,0,0,1-1.68,1.8,1.62,1.62,0,0,1-1.63-1.75,1.66,1.66,0,0,1,1.68-1.8A1.61,1.61,0,0,1,36.49,45.3Zm-2.69,0c0,.74.43,1.3,1,1.3s1-.55,1-1.31c0-.58-.28-1.31-1-1.31S33.8,44.69,33.8,45.33Z"/><path class="cls-4" d="M40.2,42.05v4.09c0,.3,0,.65,0,.88h-.55l0-.59h0a1.25,1.25,0,0,1-1.16.67A1.55,1.55,0,0,1,37,45.37a1.63,1.63,0,0,1,1.52-1.82,1.16,1.16,0,0,1,1,.52h0v-2Zm-.62,3a1.15,1.15,0,0,0,0-.26.91.91,0,0,0-.89-.71c-.64,0-1,.56-1,1.3s.33,1.26,1,1.26a.92.92,0,0,0,.9-.74,1.09,1.09,0,0,0,0-.26Z"/><path class="cls-4" d="M41.56,45.44a1.08,1.08,0,0,0,1.16,1.17,2.22,2.22,0,0,0,.94-.17l.11.44a2.74,2.74,0,0,1-1.13.21A1.58,1.58,0,0,1,41,45.38a1.65,1.65,0,0,1,1.59-1.83,1.44,1.44,0,0,1,1.4,1.6,2.07,2.07,0,0,1,0,.29ZM43.37,45a.88.88,0,0,0-.86-1,1,1,0,0,0-.94,1Z"/><path class="cls-4" d="M46.21,44.69c0-.4,0-.75,0-1.06h.54l0,.66h0a1,1,0,0,1,.94-.74l.17,0v.58l-.21,0a.88.88,0,0,0-.83.79,2.64,2.64,0,0,0,0,.29V47h-.61Z"/><path class="cls-4" d="M50.34,47l-.05-.43h0a1.27,1.27,0,0,1-1,.51,1,1,0,0,1-1-1c0-.82.73-1.27,2-1.26v-.07a.69.69,0,0,0-.77-.78,1.64,1.64,0,0,0-.88.25l-.14-.41a2.13,2.13,0,0,1,1.11-.3c1,0,1.29.71,1.29,1.39v1.27a5,5,0,0,0,.06.81Zm-.09-1.73c-.68,0-1.44.1-1.44.76a.55.55,0,0,0,.58.59.85.85,0,0,0,.82-.57.65.65,0,0,0,0-.19Zm-1.33-2.67a.67.67,0,0,1,.72-.67.65.65,0,0,1,.69.66.71.71,0,0,1-1.41,0Zm1.07,0a.37.37,0,0,0-.37-.39.36.36,0,0,0-.34.4.37.37,0,0,0,.34.38A.37.37,0,0,0,50,42.61Z"/><path class="cls-4" d="M54.76,42.05v4.09c0,.3,0,.65,0,.88h-.55l0-.59h0A1.27,1.27,0,0,1,53,47.1a1.55,1.55,0,0,1-1.45-1.73,1.62,1.62,0,0,1,1.52-1.82,1.13,1.13,0,0,1,1,.52h0v-2Zm-.61,3a1.15,1.15,0,0,0,0-.26.91.91,0,0,0-.89-.71c-.64,0-1,.56-1,1.3s.34,1.26,1,1.26a.92.92,0,0,0,.91-.74,1.09,1.09,0,0,0,0-.26Z"/><path class="cls-4" d="M60.33,45.3a1.65,1.65,0,0,1-1.68,1.8A1.62,1.62,0,0,1,57,45.35a1.66,1.66,0,0,1,1.68-1.8A1.6,1.6,0,0,1,60.33,45.3Zm-2.68,0c0,.74.42,1.3,1,1.3s1-.55,1-1.31c0-.58-.28-1.31-1-1.31S57.65,44.69,57.65,45.33Z"/><path class="cls-4" d="M61.11,44.55c0-.35,0-.64,0-.92h.54l0,.54h0a1.16,1.16,0,0,1,1.06-.62,1,1,0,0,1,1,.68h0a1.38,1.38,0,0,1,.38-.44,1.16,1.16,0,0,1,.75-.24c.44,0,1.11.3,1.11,1.47v2h-.6V45.1c0-.65-.24-1-.74-1a.79.79,0,0,0-.73.56.9.9,0,0,0-.05.3V47h-.6V45c0-.54-.24-.93-.71-.93a.84.84,0,0,0-.76.61,1,1,0,0,0,0,.3V47h-.6Z"/><path class="cls-4" d="M68.4,47c0-.23,0-.58,0-.88V42.05H69v2.12h0a1.28,1.28,0,0,1,1.16-.62,1.52,1.52,0,0,1,1.43,1.73,1.62,1.62,0,0,1-1.52,1.82A1.22,1.22,0,0,1,69,46.46h0l0,.56ZM69,45.66a.78.78,0,0,0,0,.22,1,1,0,0,0,.92.73c.65,0,1-.53,1-1.31S70.67,44,70,44a1,1,0,0,0-.93.76.87.87,0,0,0,0,.25Z"/><path class="cls-4" d="M73.1,42.68a.38.38,0,0,1-.76,0,.38.38,0,0,1,.38-.39A.37.37,0,0,1,73.1,42.68ZM72.41,47V43.63H73V47Z"/><path class="cls-4" d="M74.05,42.05h.62v5h-.62Z"/><path class="cls-4" d="M75.7,42.05h.62v5H75.7Z"/><path class="cls-4" d="M77.7,45.44a1.08,1.08,0,0,0,1.16,1.17,2.22,2.22,0,0,0,.94-.17l.11.44a2.74,2.74,0,0,1-1.13.21,1.58,1.58,0,0,1-1.67-1.71,1.65,1.65,0,0,1,1.59-1.83,1.44,1.44,0,0,1,1.4,1.6,2.07,2.07,0,0,1,0,.29ZM79.51,45a.89.89,0,0,0-.86-1,1,1,0,0,0-.94,1Z"/><path class="cls-4" d="M83.79,42.05v4.09c0,.3,0,.65,0,.88h-.55l0-.59h0a1.25,1.25,0,0,1-1.15.67,1.55,1.55,0,0,1-1.45-1.73,1.62,1.62,0,0,1,1.52-1.82,1.13,1.13,0,0,1,1,.52h0v-2Zm-.62,3a1.14,1.14,0,0,0,0-.26.92.92,0,0,0-.89-.71c-.64,0-1,.56-1,1.3s.34,1.26,1,1.26a.93.93,0,0,0,.91-.74,1.1,1.1,0,0,0,0-.26Z"/><path class="cls-4" d="M85.15,45.44a1.09,1.09,0,0,0,1.17,1.17,2.25,2.25,0,0,0,.94-.17l.1.44a2.74,2.74,0,0,1-1.13.21,1.57,1.57,0,0,1-1.66-1.71,1.65,1.65,0,0,1,1.59-1.83,1.44,1.44,0,0,1,1.4,1.6c0,.12,0,.22,0,.29ZM87,45a.87.87,0,0,0-.85-1,1,1,0,0,0-1,1Z"/><path class="cls-4" d="M91.25,42.05v4.09c0,.3,0,.65,0,.88h-.55l0-.59h0a1.25,1.25,0,0,1-1.16.67,1.55,1.55,0,0,1-1.45-1.73,1.63,1.63,0,0,1,1.52-1.82,1.16,1.16,0,0,1,1,.52h0v-2Zm-.62,3a1.15,1.15,0,0,0,0-.26.91.91,0,0,0-.89-.71c-.64,0-1,.56-1,1.3s.33,1.26,1,1.26a.92.92,0,0,0,.9-.74,1.09,1.09,0,0,0,0-.26Z"/><path class="cls-4" d="M92.61,45.44a1.08,1.08,0,0,0,1.16,1.17,2.22,2.22,0,0,0,.94-.17l.11.44a2.74,2.74,0,0,1-1.13.21A1.58,1.58,0,0,1,92,45.38a1.65,1.65,0,0,1,1.59-1.83,1.44,1.44,0,0,1,1.4,1.6,2.07,2.07,0,0,1,0,.29ZM94.42,45a.89.89,0,0,0-.86-1,1,1,0,0,0-.94,1Z"/><path class="cls-4" d="M95.77,42.05h.62v5h-.62Z"/><path class="cls-4" d="M98.11,42.68a.38.38,0,0,1-.76,0,.38.38,0,0,1,.38-.39A.37.37,0,0,1,98.11,42.68ZM97.43,47V43.63H98V47Z"/><path class="cls-4" d="M99.06,44.55c0-.35,0-.64,0-.92h.54l0,.56h0a1.25,1.25,0,0,1,1.12-.64c.47,0,1.2.28,1.2,1.44v2h-.62v-2c0-.54-.2-1-.78-1a.9.9,0,0,0-.87.92v2h-.62Z"/><path class="cls-4" d="M105.87,43.63c0,.24,0,.52,0,.93v2a2,2,0,0,1-.48,1.55,1.85,1.85,0,0,1-1.24.4A2.19,2.19,0,0,1,103,48.2l.15-.47a2,2,0,0,0,1,.27c.63,0,1.09-.33,1.09-1.18v-.38h0a1.2,1.2,0,0,1-1.07.56,1.51,1.51,0,0,1-1.45-1.65,1.63,1.63,0,0,1,1.53-1.8,1.13,1.13,0,0,1,1.06.59h0l0-.51ZM105.23,45a1.14,1.14,0,0,0,0-.28.9.9,0,0,0-.87-.65c-.58,0-1,.49-1,1.28s.33,1.22,1,1.22a.94.94,0,0,0,.9-1Z"/><path class="cls-4" d="M106.61,46.65a.42.42,0,1,1,.41.45A.42.42,0,0,1,106.61,46.65Z"/><path class="cls-4" d="M108.06,46.65a.42.42,0,1,1,.41.45A.42.42,0,0,1,108.06,46.65Z"/><path class="cls-4" d="M109.51,46.65a.42.42,0,1,1,.41.45A.42.42,0,0,1,109.51,46.65Z"/><path class="cls-4" d="M25.34,59.21h0l-.68.37-.1-.4.85-.46h.45v3.9h-.51Z"/><path class="cls-4" d="M27.32,62.31a.35.35,0,0,1,.36-.38.34.34,0,0,1,.35.38.36.36,0,1,1-.71,0Z"/><path class="cls-4" d="M30.5,58.58v1.69h2V58.58H33v4h-.53v-1.9h-2v1.9H30v-4Z"/><path class="cls-4" d="M36.3,61.83c0,.3,0,.56,0,.79h-.47l0-.47h0a1.09,1.09,0,0,1-1,.53c-.45,0-1-.25-1-1.27V59.72h.53v1.6c0,.56.17.93.65.93a.76.76,0,0,0,.69-.48.81.81,0,0,0,.05-.27V59.72h.53Z"/><path class="cls-4" d="M37.1,62.08a1.41,1.41,0,0,0,.7.21c.38,0,.56-.19.56-.43s-.15-.39-.54-.54-.77-.47-.77-.82a.9.9,0,0,1,1-.85,1.4,1.4,0,0,1,.71.18l-.13.38a1.2,1.2,0,0,0-.6-.16c-.31,0-.48.18-.48.39s.17.35.55.49.76.45.76.88-.39.87-1.08.87a1.65,1.65,0,0,1-.82-.2Z"/><path class="cls-4" d="M40.07,61.05h0l.26-.33.85-1h.64l-1.12,1.19L42,62.62h-.65l-1-1.39-.27.3v1.09h-.52V58.36h.52Z"/><path class="cls-4" d="M45.24,62.62l0-.37h0a1.06,1.06,0,0,1-.88.43.83.83,0,0,1-.89-.83c0-.7.62-1.08,1.74-1.08v-.06a.59.59,0,0,0-.66-.67,1.35,1.35,0,0,0-.75.22l-.12-.35a1.77,1.77,0,0,1,1-.26c.89,0,1.11.61,1.11,1.19v1.08a5,5,0,0,0,0,.7Zm-.07-1.48c-.58,0-1.23.09-1.23.65a.46.46,0,0,0,.49.5.73.73,0,0,0,.71-.48,1,1,0,0,0,0-.17Z"/><path class="cls-4" d="M47.14,58.88v.84h.76v.4h-.76v1.56c0,.36.1.57.4.57a1,1,0,0,0,.3,0l0,.4a1.41,1.41,0,0,1-.47.07.73.73,0,0,1-.57-.22,1.1,1.1,0,0,1-.21-.76V60.12h-.45v-.4h.45V59Z"/><path class="cls-4" d="M49.69,62.08a1.41,1.41,0,0,0,.7.21c.38,0,.56-.19.56-.43s-.15-.39-.54-.54-.77-.47-.77-.82a.89.89,0,0,1,1-.85,1.41,1.41,0,0,1,.72.18l-.13.38a1.2,1.2,0,0,0-.6-.16c-.31,0-.48.18-.48.39s.17.35.55.49.76.45.76.88-.4.87-1.09.87a1.64,1.64,0,0,1-.81-.2Z"/><path class="cls-4" d="M52.14,60.66c0-.37,0-.67,0-.94h.48l0,.49h0a1.16,1.16,0,0,1,1-.56c.7,0,1.22.59,1.22,1.48a1.36,1.36,0,0,1-1.31,1.55,1,1,0,0,1-.9-.45h0v1.58h-.52Zm.52.78a1.25,1.25,0,0,0,0,.21.82.82,0,0,0,.8.62c.55,0,.88-.46.88-1.12s-.31-1.08-.87-1.08a.83.83,0,0,0-.79.65.85.85,0,0,0,0,.22Z"/><path class="cls-4" d="M57.51,59.86l.25-.36.23.16-.25.37a1.51,1.51,0,0,1,.44,1.11,1.41,1.41,0,0,1-1.42,1.54,1.33,1.33,0,0,1-.74-.2l-.26.37-.22-.18.25-.36a1.51,1.51,0,0,1-.45-1.12,1.42,1.42,0,0,1,1.43-1.54A1.38,1.38,0,0,1,57.51,59.86Zm-.24.36a.77.77,0,0,0-.51-.17c-.65,0-.91.6-.91,1.12a1.26,1.26,0,0,0,.22.73h0Zm-1,1.9a.73.73,0,0,0,.49.17c.55,0,.91-.48.91-1.13a1.26,1.26,0,0,0-.2-.71h0Z"/><path class="cls-4" d="M58.85,60.62c0-.34,0-.63,0-.9h.46l0,.57h0a.87.87,0,0,1,.8-.64l.15,0v.5a.5.5,0,0,0-.18,0,.74.74,0,0,0-.71.68,1.66,1.66,0,0,0,0,.24v1.55h-.52Z"/><path class="cls-4" d="M63.26,59.72c0,.21,0,.44,0,.79V62.2a1.63,1.63,0,0,1-.42,1.32,1.5,1.5,0,0,1-1,.35,1.86,1.86,0,0,1-1-.24l.13-.4a1.69,1.69,0,0,0,.86.23c.54,0,.93-.28.93-1v-.32h0a1,1,0,0,1-.92.49,1.3,1.3,0,0,1-1.24-1.42,1.39,1.39,0,0,1,1.31-1.54,1,1,0,0,1,.9.5h0l0-.43Zm-.54,1.14a.88.88,0,0,0,0-.24.78.78,0,0,0-.74-.56c-.51,0-.87.43-.87,1.1s.29,1.05.86,1.05a.77.77,0,0,0,.73-.54,1,1,0,0,0,0-.29Z"/><path class="cls-4" d="M64.41,61.26a.93.93,0,0,0,1,1,1.85,1.85,0,0,0,.81-.15l.09.38a2.47,2.47,0,0,1-1,.18,1.35,1.35,0,0,1-1.43-1.46,1.41,1.41,0,0,1,1.37-1.57A1.23,1.23,0,0,1,66.47,61c0,.11,0,.19,0,.24ZM66,60.89a.76.76,0,0,0-.74-.86.88.88,0,0,0-.81.86Z"/><path class="cls-4" d="M66.71,63.36a9.47,9.47,0,0,0,.36-1.44l.58-.06a6.73,6.73,0,0,1-.57,1.46Z"/><path class="cls-4" d="M69.62,62.62v-2.5h-.41v-.4h.41v-.14a1.41,1.41,0,0,1,.33-1,1,1,0,0,1,.71-.27,1.27,1.27,0,0,1,.45.09l-.07.41a.75.75,0,0,0-.34-.07c-.45,0-.56.4-.56.84v.16h.7v.4h-.7v2.5Z"/><path class="cls-4" d="M73.19,59.86l.25-.36.24.16-.26.37a1.48,1.48,0,0,1,.44,1.11,1.41,1.41,0,0,1-1.41,1.54,1.36,1.36,0,0,1-.75-.2l-.25.37-.23-.18.26-.36A1.47,1.47,0,0,1,71,61.19a1.41,1.41,0,0,1,1.42-1.54A1.36,1.36,0,0,1,73.19,59.86Zm-.24.36a.77.77,0,0,0-.51-.17c-.65,0-.9.6-.9,1.12a1.25,1.25,0,0,0,.21.73h0Zm-1,1.9a.73.73,0,0,0,.49.17c.55,0,.92-.48.92-1.13a1.28,1.28,0,0,0-.21-.71h0Z"/><path class="cls-4" d="M74.53,60.62c0-.34,0-.63,0-.9H75l0,.57h0a.87.87,0,0,1,.8-.64l.15,0v.5a.5.5,0,0,0-.18,0,.73.73,0,0,0-.7.68.88.88,0,0,0,0,.24v1.55h-.52Z"/><path class="cls-4" d="M80.27,58.36v3.51c0,.26,0,.55,0,.75h-.47l0-.51h0a1.06,1.06,0,0,1-1,.57,1.32,1.32,0,0,1-1.24-1.47,1.39,1.39,0,0,1,1.3-1.56,1,1,0,0,1,.88.44h0V58.36Zm-.53,2.54a.8.8,0,0,0-.78-.84c-.55,0-.87.48-.87,1.13s.29,1.07.85,1.07a.8.8,0,0,0,.78-.63.82.82,0,0,0,0-.23Z"/><path class="cls-4" d="M83.58,61.83c0,.3,0,.56,0,.79h-.47l0-.47h0a1.09,1.09,0,0,1-1,.53c-.46,0-1-.25-1-1.27V59.72h.53v1.6c0,.56.16.93.64.93a.77.77,0,0,0,.7-.48.81.81,0,0,0,0-.27V59.72h.53Z"/><path class="cls-4" d="M88.23,58.36v3.51c0,.26,0,.55,0,.75h-.47l0-.51h0a1.08,1.08,0,0,1-1,.57,1.32,1.32,0,0,1-1.24-1.47,1.39,1.39,0,0,1,1.31-1.56,1,1,0,0,1,.87.44h0V58.36ZM87.7,60.9a.8.8,0,0,0-.78-.84c-.55,0-.87.48-.87,1.13s.29,1.07.86,1.07a.8.8,0,0,0,.77-.63.82.82,0,0,0,0-.23Z"/><path class="cls-4" d="M89.4,61.26a.93.93,0,0,0,1,1,1.83,1.83,0,0,0,.8-.15l.09.38a2.41,2.41,0,0,1-1,.18,1.35,1.35,0,0,1-1.43-1.46,1.41,1.41,0,0,1,1.36-1.57A1.23,1.23,0,0,1,91.46,61a1.25,1.25,0,0,1,0,.24ZM91,60.89a.75.75,0,0,0-.73-.86.87.87,0,0,0-.81.86Z"/><path class="cls-4" d="M92.11,58.36h.53v4.26h-.53Z"/><path class="cls-4" d="M93.82,61.26a.93.93,0,0,0,1,1,1.8,1.8,0,0,0,.8-.15l.09.38a2.37,2.37,0,0,1-1,.18,1.35,1.35,0,0,1-1.43-1.46,1.41,1.41,0,0,1,1.36-1.57A1.23,1.23,0,0,1,95.88,61a1.25,1.25,0,0,1,0,.24Zm1.55-.37a.75.75,0,0,0-.73-.86.88.88,0,0,0-.81.86Z"/><path class="cls-4" d="M96.54,60.62c0-.34,0-.63,0-.9H97l0,.57h0a.86.86,0,0,1,.8-.64l.15,0v.5a.5.5,0,0,0-.18,0,.74.74,0,0,0-.71.68,1.66,1.66,0,0,0,0,.24v1.55h-.52Z"/><path class="cls-4" d="M24.2,77v-.33l.41-.4c1-.94,1.45-1.45,1.45-2a.69.69,0,0,0-.77-.76,1.32,1.32,0,0,0-.83.33l-.17-.37a1.72,1.72,0,0,1,1.11-.4,1.1,1.1,0,0,1,1.19,1.14c0,.72-.52,1.3-1.34,2.09l-.32.29h1.76V77Z"/><path class="cls-4" d="M27.32,76.71a.35.35,0,0,1,.36-.38.34.34,0,0,1,.35.38.36.36,0,1,1-.71,0Z"/><path class="cls-4" d="M30,73A7.31,7.31,0,0,1,31.08,73a2.31,2.31,0,0,1,1.64.5,1.86,1.86,0,0,1,.57,1.45,2.12,2.12,0,0,1-.58,1.57,2.48,2.48,0,0,1-1.79.58,8.77,8.77,0,0,1-1,0Zm.53,3.57a2.64,2.64,0,0,0,.52,0,1.55,1.55,0,0,0,1.72-1.71,1.44,1.44,0,0,0-1.63-1.56,2.94,2.94,0,0,0-.61,0Z"/><path class="cls-4" d="M34.27,75.66a.93.93,0,0,0,1,1,2,2,0,0,0,.8-.15l.09.38a2.43,2.43,0,0,1-1,.18,1.34,1.34,0,0,1-1.42-1.46,1.41,1.41,0,0,1,1.36-1.57,1.23,1.23,0,0,1,1.2,1.37c0,.11,0,.19,0,.24Zm1.55-.37c0-.34-.14-.86-.73-.86a.87.87,0,0,0-.81.86Z"/><path class="cls-4" d="M37,72.76h.53V77H37Z"/><path class="cls-4" d="M40.19,75.45h0l.26-.33.85-1H42l-1.12,1.19L42.1,77h-.64l-1-1.39-.27.3V77h-.52V72.76h.52Z"/><path class="cls-4" d="M44.94,76.23c0,.3,0,.56,0,.79h-.47l0-.48h0a1.08,1.08,0,0,1-1,.54c-.45,0-1-.25-1-1.27V74.12H43v1.6c0,.55.17.93.65.93a.76.76,0,0,0,.69-.48.81.81,0,0,0,0-.27V74.12h.53Z"/><path class="cls-4" d="M45.81,74.9c0-.3,0-.54,0-.78h.47l0,.48h0a1.06,1.06,0,0,1,1-.55c.4,0,1,.24,1,1.24V77h-.52V75.35c0-.47-.18-.86-.67-.86a.74.74,0,0,0-.71.54.57.57,0,0,0,0,.24V77h-.53Z"/><path class="cls-4" d="M50.39,77c0-.2,0-.49,0-.75V72.76h.52v1.82h0a1.09,1.09,0,0,1,1-.53,1.3,1.3,0,0,1,1.22,1.48,1.37,1.37,0,0,1-1.3,1.55,1,1,0,0,1-1-.54h0l0,.48Zm.55-1.17a1.23,1.23,0,0,0,0,.2.81.81,0,0,0,.79.61c.56,0,.89-.45.89-1.11s-.3-1.08-.87-1.08a.84.84,0,0,0-.8.65,1.18,1.18,0,0,0,0,.21Z"/><path class="cls-4" d="M54.42,73.3a.33.33,0,0,1-.66,0,.32.32,0,0,1,.33-.33A.31.31,0,0,1,54.42,73.3ZM53.83,77v-2.9h.53V77Z"/><path class="cls-4" d="M55.23,72.76h.53V77h-.53Z"/><path class="cls-4" d="M56.65,72.76h.53V77h-.53Z"/><path class="cls-4" d="M58.36,75.66a.93.93,0,0,0,1,1,2,2,0,0,0,.8-.15l.09.38a2.43,2.43,0,0,1-1,.18,1.34,1.34,0,0,1-1.42-1.46,1.41,1.41,0,0,1,1.36-1.57,1.23,1.23,0,0,1,1.2,1.37c0,.11,0,.19,0,.24Zm1.55-.37c0-.34-.14-.86-.73-.86a.87.87,0,0,0-.81.86Z"/><path class="cls-4" d="M63.58,72.76v3.51c0,.26,0,.55,0,.75h-.47l0-.51h0a1.06,1.06,0,0,1-1,.57,1.32,1.32,0,0,1-1.24-1.47,1.39,1.39,0,0,1,1.3-1.56,1,1,0,0,1,.88.44h0V72.76Zm-.53,2.54a1.5,1.5,0,0,0,0-.22.78.78,0,0,0-.76-.62c-.55,0-.87.48-.87,1.13s.28,1.07.85,1.07A.8.8,0,0,0,63,76a1.52,1.52,0,0,0,0-.23Z"/><path class="cls-4" d="M64.75,75.66a.93.93,0,0,0,1,1,2,2,0,0,0,.8-.15l.09.38a2.47,2.47,0,0,1-1,.18,1.34,1.34,0,0,1-1.42-1.46,1.41,1.41,0,0,1,1.36-1.57,1.23,1.23,0,0,1,1.2,1.37c0,.11,0,.19,0,.24Zm1.55-.37c0-.34-.14-.86-.73-.86a.87.87,0,0,0-.81.86Z"/><path class="cls-4" d="M67.46,75c0-.34,0-.63,0-.9h.46l0,.57h0a.87.87,0,0,1,.81-.64l.15,0v.5a.55.55,0,0,0-.19,0,.73.73,0,0,0-.7.68,1.57,1.57,0,0,0,0,.24V77h-.52Z"/><path class="cls-4" d="M73.32,75.54a1.41,1.41,0,0,1-1.44,1.54,1.37,1.37,0,0,1-1.39-1.49,1.41,1.41,0,0,1,1.43-1.54A1.37,1.37,0,0,1,73.32,75.54Zm-2.3,0c0,.64.36,1.12.88,1.12s.88-.48.88-1.13c0-.49-.24-1.11-.87-1.11S71,75,71,75.57Z"/><path class="cls-4" d="M76.49,74.12c0,.21,0,.44,0,.79V76.6a1.67,1.67,0,0,1-.42,1.32,1.5,1.5,0,0,1-1,.35A1.86,1.86,0,0,1,74,78l.13-.4a1.68,1.68,0,0,0,.85.23c.54,0,.94-.28.94-1v-.32h0A1,1,0,0,1,75,77a1.29,1.29,0,0,1-1.23-1.42,1.39,1.39,0,0,1,1.31-1.54,1,1,0,0,1,.9.5h0l0-.43Zm-.55,1.14a.61.61,0,0,0,0-.24.76.76,0,0,0-.73-.56c-.51,0-.87.43-.87,1.1s.29,1,.86,1a.76.76,0,0,0,.73-.54.86.86,0,0,0,0-.28Z"/><path class="cls-4" d="M78.67,77v-2.5h-.41v-.4h.41V74a1.16,1.16,0,0,1,1.26-1.27,1.44,1.44,0,0,1,.74.2l-.15.4a1.08,1.08,0,0,0-.61-.17c-.56,0-.72.39-.72.85v.15h1.69V77h-.53v-2.5H79.19V77Z"/><path class="cls-4" d="M81.75,72.76h.53V77h-.53Z"/><path class="cls-4" d="M83.17,74.9c0-.3,0-.54,0-.78h.47l0,.46h0a1,1,0,0,1,.91-.53.86.86,0,0,1,.82.58h0a1.24,1.24,0,0,1,.33-.38,1,1,0,0,1,.64-.2c.38,0,1,.25,1,1.26V77H86.8V75.38c0-.56-.21-.9-.63-.9a.69.69,0,0,0-.63.48,1,1,0,0,0,0,.27V77H85V75.28c0-.46-.21-.8-.61-.8a.72.72,0,0,0-.65.53.75.75,0,0,0,0,.26V77h-.51Z"/><path class="cls-4" d="M91.05,77l0-.37h0a1.07,1.07,0,0,1-.89.43.82.82,0,0,1-.88-.83c0-.7.62-1.08,1.74-1.08v-.06a.6.6,0,0,0-.66-.67,1.35,1.35,0,0,0-.75.22l-.12-.35a1.74,1.74,0,0,1,.95-.26c.89,0,1.1.61,1.1,1.19v1.08a3.78,3.78,0,0,0,0,.7ZM91,75.54c-.57,0-1.23.09-1.23.65a.47.47,0,0,0,.5.5.7.7,0,0,0,.7-.48A.47.47,0,0,0,91,76Z"/><path class="cls-4" d="M92.39,77v-2.5H92v-.4h.41V74a1.41,1.41,0,0,1,.33-1,1,1,0,0,1,.71-.27,1.22,1.22,0,0,1,.45.09l-.07.41a.75.75,0,0,0-.34-.07c-.45,0-.56.4-.56.84v.16h.7v.4h-.7V77Z"/><path class="cls-4" d="M97.87,72.76v3.51c0,.26,0,.55,0,.75h-.47l0-.51h0a1.07,1.07,0,0,1-1,.57,1.32,1.32,0,0,1-1.24-1.47,1.38,1.38,0,0,1,1.3-1.56,1,1,0,0,1,.88.44h0V72.76Zm-.53,2.54a.78.78,0,0,0,0-.22.77.77,0,0,0-.76-.62c-.54,0-.87.48-.87,1.13s.29,1.07.86,1.07a.86.86,0,0,0,.8-.86Z"/><path class="cls-4" d="M99.33,73.3a.33.33,0,0,1-.65,0,.33.33,0,1,1,.65,0ZM98.74,77v-2.9h.53V77Z"/><path class="cls-4" d="M102.65,74.12c0,.21,0,.44,0,.79V76.6a1.67,1.67,0,0,1-.41,1.32,1.51,1.51,0,0,1-1.06.35,1.82,1.82,0,0,1-1-.24l.13-.4a1.62,1.62,0,0,0,.85.23c.54,0,.94-.28.94-1v-.32h0a1.06,1.06,0,0,1-.93.49,1.29,1.29,0,0,1-1.23-1.42,1.39,1.39,0,0,1,1.3-1.54,1,1,0,0,1,.91.5h0l0-.43Zm-.55,1.14a.61.61,0,0,0,0-.24.76.76,0,0,0-.74-.56c-.5,0-.86.43-.86,1.1s.29,1,.86,1a.76.76,0,0,0,.73-.54.86.86,0,0,0,0-.28Z"/><path class="cls-4" d="M24.29,83.68a1.41,1.41,0,0,0,.7.21c.38,0,.56-.19.56-.43s-.15-.39-.54-.54-.77-.47-.77-.82a.9.9,0,0,1,1-.85,1.4,1.4,0,0,1,.71.18l-.13.38a1.2,1.2,0,0,0-.6-.16c-.31,0-.48.18-.48.39s.17.35.55.49.76.45.76.88-.39.87-1.08.87a1.65,1.65,0,0,1-.82-.2Z"/><path class="cls-4" d="M27,82.86a.93.93,0,0,0,1,1,1.77,1.77,0,0,0,.8-.15l.09.38a2.37,2.37,0,0,1-1,.18,1.35,1.35,0,0,1-1.43-1.46,1.41,1.41,0,0,1,1.36-1.57,1.23,1.23,0,0,1,1.2,1.37,1.25,1.25,0,0,1,0,.24Zm1.55-.37a.75.75,0,0,0-.73-.86.88.88,0,0,0-.81.86Z"/><path class="cls-4" d="M29.75,80h.52v4.26h-.52Z"/><path class="cls-4" d="M31.37,81.32,31.94,83c.09.26.17.5.23.74h0c.06-.24.15-.48.24-.74L33,81.32h.55l-1.14,2.9h-.5l-1.11-2.9Z"/><path class="cls-4" d="M33.47,85a8.42,8.42,0,0,0,.36-1.44l.59-.06a7.29,7.29,0,0,1-.57,1.46Z"/><path class="cls-4" d="M36.26,83.68a1.37,1.37,0,0,0,.69.21c.39,0,.57-.19.57-.43s-.15-.39-.54-.54-.77-.47-.77-.82a.89.89,0,0,1,1-.85,1.4,1.4,0,0,1,.71.18l-.13.38a1.13,1.13,0,0,0-.59-.16c-.31,0-.49.18-.49.39s.18.35.55.49.76.45.76.88-.39.87-1.08.87a1.68,1.68,0,0,1-.82-.2Z"/><path class="cls-4" d="M41.33,82.74a1.41,1.41,0,0,1-1.44,1.54,1.38,1.38,0,0,1-1.4-1.49,1.42,1.42,0,0,1,1.44-1.54A1.37,1.37,0,0,1,41.33,82.74Zm-2.3,0c0,.64.36,1.12.88,1.12s.88-.47.88-1.13c0-.49-.25-1.11-.87-1.11S39,82.22,39,82.77Z"/><path class="cls-4" d="M42,82.1c0-.3,0-.54,0-.78h.47l0,.46h0a1,1,0,0,1,.91-.53.87.87,0,0,1,.82.58h0a1.24,1.24,0,0,1,.33-.38,1,1,0,0,1,.64-.2c.38,0,1,.25,1,1.26v1.71h-.51V82.58c0-.56-.21-.9-.63-.9a.69.69,0,0,0-.63.48,1,1,0,0,0,0,.27v1.79h-.52V82.48c0-.46-.2-.8-.6-.8a.72.72,0,0,0-.65.53.75.75,0,0,0-.05.26v1.75H42Z"/><path class="cls-4" d="M49.88,84.22l0-.37h0a1.07,1.07,0,0,1-.89.43.82.82,0,0,1-.88-.83c0-.7.62-1.08,1.74-1.08v-.06a.59.59,0,0,0-.66-.67,1.35,1.35,0,0,0-.75.22l-.12-.35a1.74,1.74,0,0,1,1-.26c.89,0,1.1.61,1.1,1.19v1.08a3.78,3.78,0,0,0,0,.7Zm-.08-1.48c-.57,0-1.23.09-1.23.65a.47.47,0,0,0,.5.51.71.71,0,0,0,.7-.49.47.47,0,0,0,0-.17Z"/><path class="cls-4" d="M51.17,80h.52v4.26h-.52Z"/><path class="cls-4" d="M52.58,80h.53v4.26h-.53Z"/><path class="cls-4" d="M54.29,82.86a.93.93,0,0,0,1,1,1.8,1.8,0,0,0,.8-.15l.09.38a2.41,2.41,0,0,1-1,.18,1.35,1.35,0,0,1-1.43-1.46,1.41,1.41,0,0,1,1.36-1.57,1.23,1.23,0,0,1,1.2,1.37,1.25,1.25,0,0,1,0,.24Zm1.55-.37c0-.34-.14-.86-.73-.86a.87.87,0,0,0-.81.86Z"/><path class="cls-4" d="M58.28,82.1c0-.3,0-.54,0-.78h.46l0,.46h0a1,1,0,0,1,.91-.53.87.87,0,0,1,.82.58h0a1.22,1.22,0,0,1,.32-.38,1,1,0,0,1,.65-.2c.38,0,1,.25,1,1.26v1.71H61.9V82.58c0-.56-.2-.9-.63-.9a.68.68,0,0,0-.62.48,1,1,0,0,0,0,.27v1.79h-.52V82.48c0-.46-.2-.8-.6-.8a.78.78,0,0,0-.7.79v1.75h-.51Z"/><path class="cls-4" d="M64.89,84.22l0-.37h0a1.08,1.08,0,0,1-.89.43.83.83,0,0,1-.89-.83c0-.7.63-1.08,1.75-1.08v-.06a.6.6,0,0,0-.66-.67,1.41,1.41,0,0,0-.76.22l-.12-.35a1.77,1.77,0,0,1,.95-.26c.89,0,1.11.61,1.11,1.19v1.08a3.78,3.78,0,0,0,.05.7Zm-.08-1.48c-.58,0-1.23.09-1.23.65a.47.47,0,0,0,.5.51.72.72,0,0,0,.7-.49.47.47,0,0,0,0-.17Zm-1.13-2.29a.56.56,0,0,1,.61-.57.56.56,0,0,1,.59.57.57.57,0,0,1-.6.55A.56.56,0,0,1,63.68,80.45Zm.91,0a.31.31,0,1,0-.61,0,.31.31,0,1,0,.61,0Z"/><path class="cls-4" d="M67.37,83.68a1.41,1.41,0,0,0,.7.21c.38,0,.56-.19.56-.43s-.15-.39-.54-.54-.77-.47-.77-.82a.9.9,0,0,1,1-.85,1.4,1.4,0,0,1,.71.18l-.13.38a1.2,1.2,0,0,0-.6-.16c-.31,0-.48.18-.48.39s.17.35.55.49.76.45.76.88-.39.87-1.08.87a1.65,1.65,0,0,1-.82-.2Z"/><path class="cls-4" d="M70.11,82.86a.93.93,0,0,0,1,1,1.8,1.8,0,0,0,.8-.15l.09.38a2.37,2.37,0,0,1-1,.18,1.35,1.35,0,0,1-1.43-1.46A1.41,1.41,0,0,1,71,81.25a1.23,1.23,0,0,1,1.2,1.37,1.25,1.25,0,0,1,0,.24Zm1.55-.37a.75.75,0,0,0-.73-.86.88.88,0,0,0-.81.86Z"/><path class="cls-4" d="M76.48,82.52v.36H73.84v-.36Z"/><path class="cls-4" d="M81,82.74a1.42,1.42,0,0,1-1.45,1.54,1.37,1.37,0,0,1-1.39-1.49,1.41,1.41,0,0,1,1.44-1.54A1.38,1.38,0,0,1,81,82.74Zm-2.31,0c0,.64.37,1.12.88,1.12s.89-.47.89-1.13c0-.49-.25-1.11-.87-1.11S78.69,82.22,78.69,82.77Z"/><path class="cls-4" d="M84.16,81.32c0,.21,0,.44,0,.79V83.8a1.67,1.67,0,0,1-.41,1.32,1.53,1.53,0,0,1-1.06.35,1.86,1.86,0,0,1-1-.24l.14-.4a1.62,1.62,0,0,0,.85.23c.54,0,.93-.28.93-1v-.32h0a1,1,0,0,1-.92.49,1.3,1.3,0,0,1-1.24-1.42,1.39,1.39,0,0,1,1.31-1.54,1,1,0,0,1,.91.5h0l0-.43Zm-.54,1.14a.88.88,0,0,0,0-.24.78.78,0,0,0-.74-.56c-.5,0-.86.43-.86,1.1s.28,1,.85,1a.79.79,0,0,0,.74-.54,1,1,0,0,0,0-.29Z"/><path class="cls-4" d="M84.94,83.68a1.45,1.45,0,0,0,.7.21c.38,0,.56-.19.56-.43s-.15-.39-.54-.54-.76-.47-.76-.82a.89.89,0,0,1,1-.85,1.4,1.4,0,0,1,.71.18l-.13.38a1.13,1.13,0,0,0-.59-.16c-.32,0-.49.18-.49.39s.17.35.55.49.76.45.76.88-.39.87-1.08.87a1.68,1.68,0,0,1-.82-.2Z"/><path class="cls-4" d="M89,84.22l0-.37h0a1.08,1.08,0,0,1-.89.43.83.83,0,0,1-.89-.83c0-.7.63-1.08,1.75-1.08v-.06a.6.6,0,0,0-.66-.67,1.41,1.41,0,0,0-.76.22l-.12-.35a1.78,1.78,0,0,1,1-.26c.88,0,1.1.61,1.1,1.19v1.08a3.78,3.78,0,0,0,0,.7Zm-.08-1.48c-.57,0-1.23.09-1.23.65a.47.47,0,0,0,.5.51.71.71,0,0,0,.7-.49.47.47,0,0,0,0-.17Zm-1.13-2.29a.56.56,0,0,1,.61-.57.56.56,0,1,1-.61.57Zm.91,0a.31.31,0,1,0-.61,0,.31.31,0,1,0,.61,0Z"/><path class="cls-4" d="M94.06,80v3.51c0,.26,0,.55,0,.75h-.48l0-.51h0a1.08,1.08,0,0,1-1,.57,1.32,1.32,0,0,1-1.25-1.47,1.39,1.39,0,0,1,1.31-1.56,1,1,0,0,1,.87.44h0V80Zm-.53,2.54a.8.8,0,0,0-.78-.84c-.55,0-.87.48-.87,1.13s.29,1.07.86,1.07a.8.8,0,0,0,.77-.63.82.82,0,0,0,0-.23Z"/><path class="cls-4" d="M95.53,80.5a.32.32,0,0,1-.34.32.31.31,0,0,1-.32-.32.32.32,0,0,1,.33-.33A.31.31,0,0,1,95.53,80.5Zm-.59,3.72v-2.9h.53v2.9Z"/><path class="cls-4" d="M96.34,82.1c0-.3,0-.54,0-.78h.47l0,.48h0a1.06,1.06,0,0,1,1-.55c.4,0,1,.24,1,1.24v1.73h-.52V82.55c0-.47-.18-.86-.68-.86a.74.74,0,0,0-.7.54.57.57,0,0,0,0,.24v1.75h-.53Z"/><path class="cls-4" d="M24.36,89.3c0-.3,0-.54,0-.78h.46l0,.46h0a1,1,0,0,1,.92-.53.87.87,0,0,1,.82.58h0a1.22,1.22,0,0,1,.32-.38,1,1,0,0,1,.64-.2c.39,0,1,.25,1,1.26v1.71H28V89.78c0-.56-.2-.9-.63-.9a.68.68,0,0,0-.62.48,1,1,0,0,0,0,.27v1.79h-.52V89.68c0-.46-.2-.8-.6-.8a.78.78,0,0,0-.7.79v1.75h-.52Z"/><path class="cls-4" d="M32,89.94a1.42,1.42,0,0,1-1.45,1.54A1.37,1.37,0,0,1,29.16,90a1.41,1.41,0,0,1,1.44-1.54A1.38,1.38,0,0,1,32,89.94Zm-2.31,0c0,.64.37,1.12.88,1.12s.89-.47.89-1.13c0-.49-.25-1.11-.87-1.11S29.69,89.42,29.69,90Z"/><path class="cls-4" d="M32.66,89.42c0-.34,0-.63,0-.9h.46l0,.57h0a.87.87,0,0,1,.81-.64l.15,0V89a.52.52,0,0,0-.18,0,.73.73,0,0,0-.71.68,1.57,1.57,0,0,0,0,.24v1.55h-.52Z"/><path class="cls-4" d="M34.65,89.3c0-.3,0-.54,0-.78h.47l0,.46h0a1,1,0,0,1,.91-.53.86.86,0,0,1,.82.58h0a1.24,1.24,0,0,1,.33-.38,1,1,0,0,1,.64-.2c.38,0,.95.25.95,1.26v1.71h-.51V89.78c0-.56-.21-.9-.63-.9a.69.69,0,0,0-.63.48,1,1,0,0,0,0,.27v1.79h-.51V89.68c0-.46-.21-.8-.61-.8a.72.72,0,0,0-.65.53.75.75,0,0,0-.05.26v1.75h-.51Z"/><path class="cls-4" d="M42.28,89.94a1.41,1.41,0,0,1-1.45,1.54A1.38,1.38,0,0,1,39.44,90a1.42,1.42,0,0,1,1.44-1.54A1.38,1.38,0,0,1,42.28,89.94ZM40,90c0,.64.36,1.12.88,1.12s.88-.47.88-1.13c0-.49-.25-1.11-.87-1.11S40,89.42,40,90Z"/><path class="cls-4" d="M43,89.42c0-.34,0-.63,0-.9h.46l0,.57h0a.87.87,0,0,1,.8-.64l.15,0V89a.5.5,0,0,0-.18,0,.74.74,0,0,0-.71.68,1.66,1.66,0,0,0,0,.24v1.55H43Z"/><path class="cls-4" d="M44.46,91.11a.36.36,0,1,1,.72,0,.35.35,0,0,1-.36.37A.35.35,0,0,1,44.46,91.11Z"/><path class="cls-4" d="M24.32,105.21a1.73,1.73,0,0,0,.87.25.77.77,0,0,0,.88-.76c0-.54-.5-.78-1-.78h-.29v-.39h.29c.38,0,.87-.2.87-.66s-.2-.59-.68-.59a1.39,1.39,0,0,0-.78.26l-.14-.39a1.84,1.84,0,0,1,1-.3c.77,0,1.11.46,1.11.93a1,1,0,0,1-.72.92h0a1,1,0,0,1,.87,1c0,.62-.48,1.16-1.42,1.16a1.92,1.92,0,0,1-1-.26Z"/><path class="cls-4" d="M27.32,105.51a.36.36,0,0,1,.36-.38.38.38,0,1,1-.36.38Z"/><path class="cls-4" d="M30.5,101.78v1.69h2v-1.69H33v4h-.53v-1.9h-2v1.9H30v-4Z"/><path class="cls-4" d="M34.13,102.92l.57,1.63c.09.26.17.5.23.74h0c.06-.24.15-.48.24-.74l.57-1.63h.55l-1.14,2.9h-.5l-1.11-2.9Z"/><path class="cls-4" d="M37.4,102.1a.32.32,0,0,1-.34.32.31.31,0,0,1-.32-.32.33.33,0,0,1,.33-.33A.32.32,0,0,1,37.4,102.1Zm-.59,3.72v-2.9h.53v2.9Z"/><path class="cls-4" d="M38.14,105.28a1.41,1.41,0,0,0,.7.21c.38,0,.56-.19.56-.43s-.15-.39-.54-.54-.77-.47-.77-.82a.89.89,0,0,1,1-.85,1.41,1.41,0,0,1,.72.18l-.14.38a1.13,1.13,0,0,0-.59-.16c-.31,0-.48.18-.48.39s.17.35.55.49.76.45.76.88-.4.87-1.09.87a1.64,1.64,0,0,1-.81-.2Z"/><path class="cls-4" d="M44.37,101.56v3.51c0,.26,0,.55,0,.75h-.47l0-.51h0a1.07,1.07,0,0,1-1,.57,1.32,1.32,0,0,1-1.24-1.47,1.38,1.38,0,0,1,1.3-1.56,1,1,0,0,1,.88.44h0v-1.73Zm-.53,2.54a.78.78,0,0,0,0-.22.77.77,0,0,0-.76-.62c-.54,0-.87.48-.87,1.13s.29,1.07.86,1.07a.78.78,0,0,0,.77-.63.8.8,0,0,0,0-.23Z"/><path class="cls-4" d="M47.67,105c0,.3,0,.56,0,.79h-.47l0-.47h0a1.11,1.11,0,0,1-1,.53c-.46,0-1-.25-1-1.27v-1.69h.52v1.6c0,.56.17.93.65.93a.78.78,0,0,0,.7-.48.8.8,0,0,0,0-.27v-1.78h.53Z"/><path class="cls-4" d="M49.82,103.7c0-.3,0-.54,0-.78h.46l0,.46h0a1,1,0,0,1,.91-.53.85.85,0,0,1,.82.58h0a1.22,1.22,0,0,1,.32-.38,1,1,0,0,1,.64-.2c.39,0,1,.25,1,1.26v1.71h-.52v-1.64c0-.56-.2-.9-.63-.9a.68.68,0,0,0-.62.48.72.72,0,0,0-.05.27v1.79h-.51v-1.74c0-.46-.21-.8-.61-.8a.72.72,0,0,0-.65.53.75.75,0,0,0,0,.26v1.75h-.52Z"/><path class="cls-4" d="M57.45,104.34A1.41,1.41,0,0,1,56,105.88a1.37,1.37,0,0,1-1.39-1.49,1.41,1.41,0,0,1,1.43-1.54A1.37,1.37,0,0,1,57.45,104.34Zm-2.3,0c0,.64.37,1.12.88,1.12s.88-.47.88-1.13c0-.49-.24-1.11-.87-1.11S55.15,103.82,55.15,104.37Z"/><path class="cls-4" d="M60.63,101.56v3.51c0,.26,0,.55,0,.75h-.47l0-.51h0a1.07,1.07,0,0,1-1,.57,1.32,1.32,0,0,1-1.24-1.47,1.38,1.38,0,0,1,1.3-1.56,1,1,0,0,1,.88.44h0v-1.73Zm-.53,2.54a.78.78,0,0,0,0-.22.77.77,0,0,0-.76-.62c-.54,0-.87.48-.87,1.13s.29,1.07.86,1.07a.78.78,0,0,0,.77-.63.8.8,0,0,0,0-.23Z"/><path class="cls-4" d="M62.14,102.08v.84h.75v.4h-.75v1.56c0,.36.1.57.39.57a1.11,1.11,0,0,0,.31,0l0,.4a1.3,1.3,0,0,1-.46.07.73.73,0,0,1-.57-.22,1.1,1.1,0,0,1-.21-.76v-1.58h-.45v-.4h.45v-.7Z"/><path class="cls-4" d="M65.1,105.82l0-.37h0a1.1,1.1,0,0,1-.89.43.83.83,0,0,1-.89-.83c0-.7.62-1.08,1.75-1.08v-.06a.6.6,0,0,0-.66-.67,1.38,1.38,0,0,0-.76.22l-.12-.35a1.77,1.77,0,0,1,1-.26c.89,0,1.11.61,1.11,1.19v1.08a3.71,3.71,0,0,0,0,.7ZM65,104.34c-.58,0-1.23.09-1.23.65a.47.47,0,0,0,.5.51A.73.73,0,0,0,65,105a.47.47,0,0,0,0-.17Z"/><path class="cls-4" d="M68.88,102.92c0,.21,0,.44,0,.79v1.69a1.63,1.63,0,0,1-.42,1.32,1.5,1.5,0,0,1-1,.35,1.86,1.86,0,0,1-1-.24l.14-.4a1.62,1.62,0,0,0,.85.23c.54,0,.93-.28.93-1v-.33h0a1,1,0,0,1-.92.49,1.3,1.3,0,0,1-1.24-1.42,1.39,1.39,0,0,1,1.31-1.54,1,1,0,0,1,.9.5h0l0-.43Zm-.54,1.14a.88.88,0,0,0,0-.24.78.78,0,0,0-.74-.56c-.51,0-.86.43-.86,1.1s.28,1,.85,1a.77.77,0,0,0,.73-.54,1,1,0,0,0,0-.29Z"/><path class="cls-4" d="M70,104.46a.93.93,0,0,0,1,1,1.85,1.85,0,0,0,.81-.15l.09.38a2.47,2.47,0,0,1-1,.18,1.34,1.34,0,0,1-1.42-1.46,1.41,1.41,0,0,1,1.36-1.57,1.23,1.23,0,0,1,1.2,1.37c0,.11,0,.19,0,.24Zm1.55-.37a.76.76,0,0,0-.74-.86.87.87,0,0,0-.8.86Z"/><path class="cls-4" d="M72.74,103.82c0-.34,0-.63,0-.9h.46l0,.57h0a.87.87,0,0,1,.8-.64l.15,0v.5a.44.44,0,0,0-.17,0,.73.73,0,0,0-.71.68,1.57,1.57,0,0,0,0,.24v1.55h-.52Z"/><path class="cls-4" d="M76.27,104.46a.93.93,0,0,0,1,1,1.85,1.85,0,0,0,.81-.15l.09.38a2.47,2.47,0,0,1-1,.18,1.35,1.35,0,0,1-1.43-1.46,1.41,1.41,0,0,1,1.37-1.57,1.23,1.23,0,0,1,1.2,1.37c0,.11,0,.19,0,.24Zm1.55-.37a.76.76,0,0,0-.74-.86.88.88,0,0,0-.81.86Z"/><path class="cls-4" d="M79.62,102.08v.84h.75v.4h-.75v1.56c0,.36.1.57.39.57a1.11,1.11,0,0,0,.31,0l0,.4a1.33,1.33,0,0,1-.47.07.76.76,0,0,1-.57-.22,1.1,1.1,0,0,1-.2-.76v-1.58h-.45v-.4h.45v-.7Z"/><path class="cls-4" d="M82.21,105.82c0-.2,0-.49,0-.75v-3.51h.52v1.82h0a1.09,1.09,0,0,1,1-.53A1.31,1.31,0,0,1,85,104.33a1.38,1.38,0,0,1-1.31,1.55,1,1,0,0,1-1-.54h0l0,.48Zm.55-1.16a1.23,1.23,0,0,0,0,.19.83.83,0,0,0,.8.61c.55,0,.88-.44.88-1.11s-.3-1.08-.87-1.08a.84.84,0,0,0-.8.65,1.18,1.18,0,0,0,0,.21Z"/><path class="cls-4" d="M86.24,102.1a.33.33,0,0,1-.65,0,.33.33,0,1,1,.65,0Zm-.59,3.72v-2.9h.53v2.9Z"/><path class="cls-4" d="M87.06,101.56h.52v4.26h-.52Z"/><path class="cls-4" d="M88.47,101.56H89v4.26h-.53Z"/><path class="cls-4" d="M90.18,104.46a.93.93,0,0,0,1,1,1.8,1.8,0,0,0,.8-.15l.09.38a2.37,2.37,0,0,1-1,.18,1.35,1.35,0,0,1-1.43-1.46A1.41,1.41,0,0,1,91,102.85a1.23,1.23,0,0,1,1.2,1.37,1.25,1.25,0,0,1,0,.24Zm1.55-.37a.75.75,0,0,0-.73-.86.87.87,0,0,0-.81.86Z"/><path class="cls-4" d="M95.4,101.56v3.51c0,.26,0,.55,0,.75H95l0-.51h0a1.08,1.08,0,0,1-1,.57,1.32,1.32,0,0,1-1.25-1.47A1.39,1.39,0,0,1,94,102.85a1,1,0,0,1,.87.44h0v-1.73Zm-.53,2.54a.8.8,0,0,0-.78-.84c-.55,0-.87.48-.87,1.13s.29,1.07.86,1.07a.79.79,0,0,0,.77-.63.82.82,0,0,0,0-.23Z"/><path class="cls-4" d="M96.57,104.46a.93.93,0,0,0,1,1,1.8,1.8,0,0,0,.8-.15l.09.38a2.37,2.37,0,0,1-1,.18,1.35,1.35,0,0,1-1.43-1.46,1.41,1.41,0,0,1,1.36-1.57,1.23,1.23,0,0,1,1.2,1.37,1.25,1.25,0,0,1,0,.24Zm1.55-.37a.75.75,0,0,0-.73-.86.87.87,0,0,0-.81.86Z"/><path class="cls-4" d="M103.06,101.56v3.51c0,.26,0,.55,0,.75h-.48l0-.51h0a1.07,1.07,0,0,1-1,.57,1.32,1.32,0,0,1-1.24-1.47,1.38,1.38,0,0,1,1.3-1.56,1,1,0,0,1,.87.44h0v-1.73Zm-.52,2.54a.84.84,0,0,0-.79-.84c-.55,0-.87.48-.87,1.13s.29,1.07.86,1.07a.78.78,0,0,0,.77-.63.8.8,0,0,0,0-.23Z"/><path class="cls-4" d="M104.23,104.46a.93.93,0,0,0,1,1,1.8,1.8,0,0,0,.8-.15l.09.38a2.37,2.37,0,0,1-1,.18,1.35,1.35,0,0,1-1.43-1.46,1.41,1.41,0,0,1,1.36-1.57,1.23,1.23,0,0,1,1.2,1.37,1.25,1.25,0,0,1,0,.24Zm1.55-.37a.75.75,0,0,0-.73-.86.88.88,0,0,0-.81.86Z"/><path class="cls-4" d="M107,103.82c0-.34,0-.63,0-.9h.46l0,.57h0a.87.87,0,0,1,.8-.64l.15,0v.5a.5.5,0,0,0-.18,0,.74.74,0,0,0-.71.68,1.66,1.66,0,0,0,0,.24v1.55H107Z"/><path class="cls-4" d="M25,109.3a.3.3,0,0,1-.33.32.31.31,0,0,1-.32-.32.32.32,0,0,1,.33-.33A.31.31,0,0,1,25,109.3ZM24.36,113v-2.9h.53V113Z"/><path class="cls-4" d="M26.29,111.45h0c.07-.1.18-.23.26-.33l.85-1h.64l-1.12,1.19L28.2,113h-.64l-1-1.39-.27.3V113h-.52v-4.26h.52Z"/><path class="cls-4" d="M29.21,111.45h0a3.75,3.75,0,0,1,.26-.33l.85-1H31l-1.12,1.19L31.12,113h-.64l-1-1.39-.27.3V113h-.53v-4.26h.53Z"/><path class="cls-4" d="M31.79,111.66a.93.93,0,0,0,1,1,2,2,0,0,0,.8-.15l.09.38a2.37,2.37,0,0,1-1,.18,1.35,1.35,0,0,1-1.43-1.46,1.41,1.41,0,0,1,1.36-1.57,1.23,1.23,0,0,1,1.2,1.37,1.25,1.25,0,0,1,0,.24Zm1.55-.37a.75.75,0,0,0-.73-.86.87.87,0,0,0-.81.86Z"/><path class="cls-4" d="M36.07,111.66a.93.93,0,0,0,1,1,2,2,0,0,0,.8-.15l.09.38a2.43,2.43,0,0,1-1,.18,1.34,1.34,0,0,1-1.42-1.46,1.41,1.41,0,0,1,1.36-1.57,1.23,1.23,0,0,1,1.2,1.37c0,.11,0,.19,0,.24Zm1.55-.37c0-.34-.14-.86-.73-.86a.87.87,0,0,0-.81.86Z"/><path class="cls-4" d="M38.78,111c0-.34,0-.63,0-.9h.46l0,.57h0a.87.87,0,0,1,.81-.64l.15,0v.5a.52.52,0,0,0-.18,0,.73.73,0,0,0-.71.68,1.57,1.57,0,0,0,0,.24V113h-.52Z"/><path class="cls-4" d="M42.65,109.28v.84h.76v.4h-.76v1.56c0,.36.1.57.4.57a1,1,0,0,0,.3,0l0,.4a1.37,1.37,0,0,1-.47.07.74.74,0,0,1-.57-.22,1.1,1.1,0,0,1-.2-.76v-1.58h-.45v-.4h.45v-.7Z"/><path class="cls-4" d="M44.59,109.3a.33.33,0,0,1-.65,0,.33.33,0,1,1,.65,0ZM44,113v-2.9h.53V113Z"/><path class="cls-4" d="M45.41,108.76h.52V113h-.52Z"/><path class="cls-4" d="M47.46,109.28v.84h.75v.4h-.75v1.56c0,.36.1.57.39.57a1.11,1.11,0,0,0,.31,0l0,.4a1.33,1.33,0,0,1-.47.07.72.72,0,0,1-.56-.22,1.1,1.1,0,0,1-.21-.76v-1.58h-.45v-.4h.45v-.7Z"/><path class="cls-4" d="M50.83,111.62a.91.91,0,0,0,.92,1.06,1.65,1.65,0,0,0,.79-.17l.1.37a2,2,0,0,1-1,.2,1.15,1.15,0,0,1-1.11-.64h0a1.14,1.14,0,0,1-1.08.64.82.82,0,0,1-.9-.82c0-.67.62-1.06,1.75-1.05v-.12a.64.64,0,0,0-.68-.65,1.38,1.38,0,0,0-.74.22l-.13-.35a1.87,1.87,0,0,1,.9-.26.89.89,0,0,1,.94.62h0a1.1,1.1,0,0,1,1-.62c.88,0,1.13.86,1.13,1.34a1.3,1.3,0,0,1,0,.23Zm-.49-.06c-.56,0-1.23.09-1.23.65a.46.46,0,0,0,.5.48.7.7,0,0,0,.7-.49.51.51,0,0,0,0-.21Zm1.94-.32a.72.72,0,0,0-.68-.81.82.82,0,0,0-.78.81Z"/><path class="cls-4" d="M53.45,110.9c0-.3,0-.54,0-.78h.47l0,.48h0a1.07,1.07,0,0,1,1-.55c.4,0,1,.24,1,1.24V113h-.53v-1.67c0-.47-.18-.86-.67-.86A.74.74,0,0,0,54,111a.8.8,0,0,0,0,.24V113h-.52Z"/><path class="cls-4" d="M57.3,111.45h0a3.75,3.75,0,0,1,.26-.33l.85-1h.63l-1.12,1.19L59.21,113h-.64l-1-1.39-.27.3V113h-.52v-4.26h.52Z"/><path class="cls-4" d="M60.23,109.28v.84H61v.4h-.75v1.56c0,.36.1.57.39.57a1.11,1.11,0,0,0,.31,0l0,.4a1.33,1.33,0,0,1-.47.07.76.76,0,0,1-.57-.22,1.1,1.1,0,0,1-.2-.76v-1.58h-.45v-.4h.45v-.7Z"/><path class="cls-4" d="M65.35,108.76v3.51c0,.26,0,.55,0,.75H64.9l0-.51h0a1.07,1.07,0,0,1-1,.57,1.32,1.32,0,0,1-1.24-1.47,1.38,1.38,0,0,1,1.3-1.56,1,1,0,0,1,.87.44h0v-1.73Zm-.52,2.54a.84.84,0,0,0-.79-.84c-.54,0-.87.48-.87,1.13s.29,1.07.86,1.07a.86.86,0,0,0,.8-.86Z"/><path class="cls-4" d="M66.82,109.3a.32.32,0,0,1-.34.32.31.31,0,0,1-.31-.32.33.33,0,1,1,.65,0ZM66.23,113v-2.9h.53V113Z"/><path class="cls-4" d="M70.14,110.12c0,.21,0,.44,0,.79v1.69a1.67,1.67,0,0,1-.41,1.32,1.51,1.51,0,0,1-1.06.35,1.8,1.8,0,0,1-1-.24l.13-.4a1.62,1.62,0,0,0,.85.23c.54,0,.94-.28.94-1v-.32h0a1,1,0,0,1-.92.49,1.29,1.29,0,0,1-1.23-1.42,1.39,1.39,0,0,1,1.3-1.54,1,1,0,0,1,.91.5h0l0-.43Zm-.55,1.14a.88.88,0,0,0,0-.24.77.77,0,0,0-.74-.56c-.5,0-.86.43-.86,1.1s.29,1,.86,1a.77.77,0,0,0,.73-.54.86.86,0,0,0,0-.28Z"/><path class="cls-4" d="M70.56,113.76a9.47,9.47,0,0,0,.36-1.44l.58-.06a6.73,6.73,0,0,1-.57,1.46Z"/><path class="cls-4" d="M73.34,112.48a1.41,1.41,0,0,0,.7.21c.38,0,.56-.19.56-.43s-.15-.39-.54-.54-.77-.47-.77-.82a.89.89,0,0,1,1-.85,1.41,1.41,0,0,1,.72.18l-.13.38a1.2,1.2,0,0,0-.6-.16c-.31,0-.48.18-.48.39s.17.35.55.49.76.45.76.88-.4.87-1.09.87a1.64,1.64,0,0,1-.81-.2Z"/><path class="cls-4" d="M77.4,113l-.05-.37h0a1.1,1.1,0,0,1-.89.43.83.83,0,0,1-.89-.83c0-.7.62-1.08,1.75-1.08v-.06a.6.6,0,0,0-.66-.67,1.38,1.38,0,0,0-.76.22l-.12-.35a1.77,1.77,0,0,1,1-.26c.89,0,1.11.61,1.11,1.19v1.08a3.78,3.78,0,0,0,0,.7Zm-.08-1.48c-.58,0-1.23.09-1.23.65a.47.47,0,0,0,.5.5.72.72,0,0,0,.7-.48.47.47,0,0,0,0-.17Zm-1.14-2.29a.57.57,0,0,1,.62-.57.56.56,0,0,1,.59.57.61.61,0,0,1-1.21,0Zm.92,0a.31.31,0,1,0-.61,0,.31.31,0,1,0,.61,0Z"/><path class="cls-4" d="M79.88,112.48a1.41,1.41,0,0,0,.7.21c.38,0,.56-.19.56-.43s-.15-.39-.54-.54-.77-.47-.77-.82a.89.89,0,0,1,1-.85,1.44,1.44,0,0,1,.72.18l-.13.38a1.2,1.2,0,0,0-.6-.16c-.31,0-.49.18-.49.39s.18.35.56.49.76.45.76.88-.4.87-1.09.87a1.64,1.64,0,0,1-.81-.2Z"/><path class="cls-4" d="M82.33,108.76h.53V113h-.53Z"/><path class="cls-4" d="M84,111.66a.92.92,0,0,0,1,1,2,2,0,0,0,.81-.15l.09.38a2.47,2.47,0,0,1-1,.18,1.35,1.35,0,0,1-1.43-1.46,1.41,1.41,0,0,1,1.36-1.57,1.23,1.23,0,0,1,1.2,1.37c0,.11,0,.19,0,.24Zm1.54-.37a.74.74,0,0,0-.73-.86.88.88,0,0,0-.81.86Z"/><path class="cls-4" d="M87.38,109.28v.84h.76v.4h-.76v1.56c0,.36.11.57.4.57a1.11,1.11,0,0,0,.31,0l0,.4a1.33,1.33,0,0,1-.47.07.76.76,0,0,1-.57-.22,1.1,1.1,0,0,1-.2-.76v-1.58h-.45v-.4h.45v-.7Z"/><path class="cls-4" d="M90,113c0-.2,0-.49,0-.75v-3.51h.52v1.82h0a1.09,1.09,0,0,1,1-.53,1.3,1.3,0,0,1,1.22,1.48,1.37,1.37,0,0,1-1.3,1.55,1,1,0,0,1-1-.54h0l0,.48Zm.55-1.17a1.23,1.23,0,0,0,0,.2.81.81,0,0,0,.79.61c.56,0,.89-.45.89-1.11s-.3-1.08-.87-1.08a.84.84,0,0,0-.8.65,1.18,1.18,0,0,0,0,.21Z"/><path class="cls-4" d="M94,109.3a.32.32,0,0,1-.34.32.31.31,0,0,1-.31-.32.33.33,0,1,1,.65,0ZM93.42,113v-2.9H94V113Z"/><path class="cls-4" d="M94.83,108.76h.52V113h-.52Z"/><path class="cls-4" d="M96.24,108.76h.53V113h-.53Z"/><path class="cls-4" d="M98,111.66a.93.93,0,0,0,1,1,2,2,0,0,0,.8-.15l.09.38a2.41,2.41,0,0,1-1,.18,1.35,1.35,0,0,1-1.43-1.46,1.41,1.41,0,0,1,1.36-1.57,1.23,1.23,0,0,1,1.2,1.37,1.25,1.25,0,0,1,0,.24Zm1.55-.37c0-.34-.14-.86-.73-.86a.87.87,0,0,0-.81.86Z"/><path class="cls-4" d="M103.17,108.76v3.51c0,.26,0,.55,0,.75h-.47l0-.51h0a1.06,1.06,0,0,1-1,.57,1.32,1.32,0,0,1-1.24-1.47,1.39,1.39,0,0,1,1.3-1.56,1,1,0,0,1,.88.44h0v-1.73Zm-.53,2.54a.8.8,0,0,0-.78-.84c-.55,0-.87.48-.87,1.13s.29,1.07.85,1.07a.8.8,0,0,0,.78-.63.82.82,0,0,0,0-.23Z"/><path class="cls-4" d="M104.34,111.66a.93.93,0,0,0,1,1,2,2,0,0,0,.8-.15l.09.38a2.43,2.43,0,0,1-1,.18,1.34,1.34,0,0,1-1.42-1.46,1.41,1.41,0,0,1,1.36-1.57,1.23,1.23,0,0,1,1.2,1.37,1.25,1.25,0,0,1,0,.24Zm1.55-.37c0-.34-.14-.86-.73-.86a.87.87,0,0,0-.81.86Z"/><path class="cls-4" d="M107.69,109.28v.84h.75v.4h-.75v1.56c0,.36.1.57.39.57a1.11,1.11,0,0,0,.31,0l0,.4a1.3,1.3,0,0,1-.46.07.73.73,0,0,1-.57-.22,1.1,1.1,0,0,1-.21-.76v-1.58h-.45v-.4h.45v-.7Z"/><path class="cls-4" d="M24.42,120.22v-2.5H24v-.4h.41v-.14a1.37,1.37,0,0,1,.33-1,1,1,0,0,1,.71-.27,1.25,1.25,0,0,1,.45.08l-.07.41a.75.75,0,0,0-.34-.07c-.45,0-.56.4-.56.84v.16h.7v.4h-.7v2.5Z"/><path class="cls-4" d="M26.12,118.22c0-.34,0-.63,0-.9h.46l0,.57h0a.87.87,0,0,1,.8-.64l.15,0v.5a.5.5,0,0,0-.18,0,.74.74,0,0,0-.71.68,1.66,1.66,0,0,0,0,.24v1.55h-.52Z"/><path class="cls-4" d="M29.66,120.22l-.05-.37h0a1.1,1.1,0,0,1-.89.43.83.83,0,0,1-.89-.83c0-.7.62-1.08,1.75-1.08v-.06a.6.6,0,0,0-.66-.67,1.38,1.38,0,0,0-.76.22l-.12-.35a1.77,1.77,0,0,1,.95-.26c.89,0,1.11.61,1.11,1.19v1.08a3.78,3.78,0,0,0,.05.7Zm-.08-1.48c-.58,0-1.23.09-1.23.65a.47.47,0,0,0,.5.51.73.73,0,0,0,.7-.49.47.47,0,0,0,0-.17Z"/><path class="cls-4" d="M34.72,116v3.51c0,.26,0,.55,0,.75h-.47l0-.51h0a1.06,1.06,0,0,1-1,.57A1.32,1.32,0,0,1,32,118.81a1.39,1.39,0,0,1,1.3-1.56,1,1,0,0,1,.88.44h0V116Zm-.53,2.54a.8.8,0,0,0-.78-.84c-.55,0-.87.48-.87,1.13s.28,1.07.85,1.07a.8.8,0,0,0,.78-.63.82.82,0,0,0,0-.23Z"/><path class="cls-4" d="M36.18,116.5a.3.3,0,0,1-.33.32.31.31,0,0,1-.32-.32.32.32,0,0,1,.33-.33A.31.31,0,0,1,36.18,116.5Zm-.58,3.72v-2.9h.52v2.9Z"/><path class="cls-4" d="M37,118.1c0-.3,0-.54,0-.78h.46l0,.48h0a1.06,1.06,0,0,1,1-.55c.4,0,1,.24,1,1.24v1.73h-.53v-1.67c0-.47-.17-.86-.67-.86a.74.74,0,0,0-.71.54.83.83,0,0,0,0,.24v1.75H37Z"/><path class="cls-4" d="M42.24,116.48v.84H43v.4h-.75v1.56c0,.36.1.57.39.57a1.11,1.11,0,0,0,.31,0l0,.4a1.3,1.3,0,0,1-.46.07.73.73,0,0,1-.57-.22,1.1,1.1,0,0,1-.21-.76v-1.58h-.45v-.4h.45v-.7Z"/><path class="cls-4" d="M43.85,118.86a.92.92,0,0,0,1,1,1.85,1.85,0,0,0,.81-.15l.08.38a2.37,2.37,0,0,1-1,.18,1.35,1.35,0,0,1-1.43-1.46,1.41,1.41,0,0,1,1.36-1.57,1.23,1.23,0,0,1,1.2,1.37,1.25,1.25,0,0,1,0,.24Zm1.54-.37a.75.75,0,0,0-.73-.86.88.88,0,0,0-.81.86Z"/><path class="cls-4" d="M46.56,116h.53v4.26h-.53Z"/><path class="cls-4" d="M48.27,118.86a.93.93,0,0,0,1,1,1.85,1.85,0,0,0,.81-.15l.09.38a2.47,2.47,0,0,1-1,.18,1.35,1.35,0,0,1-1.43-1.46,1.41,1.41,0,0,1,1.37-1.57,1.23,1.23,0,0,1,1.19,1.37c0,.11,0,.19,0,.24Zm1.54-.37a.74.74,0,0,0-.73-.86.88.88,0,0,0-.81.86Z"/><path class="cls-4" d="M51,120.22v-2.5h-.4v-.4H51v-.14a1.34,1.34,0,0,1,.34-1,1,1,0,0,1,.71-.27,1.34,1.34,0,0,1,.45.08l-.07.41a.75.75,0,0,0-.34-.07c-.45,0-.56.4-.56.84v.16h.7v.4h-.7v2.5Z"/><path class="cls-4" d="M55.28,118.74a1.41,1.41,0,0,1-1.45,1.54,1.38,1.38,0,0,1-1.39-1.49,1.42,1.42,0,0,1,1.44-1.54A1.37,1.37,0,0,1,55.28,118.74Zm-2.3,0c0,.64.36,1.12.88,1.12s.88-.47.88-1.13c0-.49-.25-1.11-.87-1.11S53,118.22,53,118.77Z"/><path class="cls-4" d="M56,118.1c0-.3,0-.54,0-.78h.47l0,.48h0a1.07,1.07,0,0,1,1-.55c.4,0,1,.24,1,1.24v1.73h-.53v-1.67c0-.47-.17-.86-.67-.86a.74.74,0,0,0-.71.54.83.83,0,0,0,0,.24v1.75H56Z"/></g></g></svg>
