<svg id="bar" xmlns="http://www.w3.org/2000/svg" viewBox="0 0 1396.43655 571.02222">
  <defs>
    <style>
      .cls-1 {
        fill: #6a4c1c;
      }

      .cls-2 {
        fill: #493618;
      }

      .cls-3 {
        fill: none;
        stroke: #000;
        stroke-miterlimit: 10;
      }

      .cls-4 {
        fill: #f26527;
      }

      .cls-5 {
        fill: #114900;
      }

      .cls-6 {
        fill: #f26c50;
      }
    </style>
  </defs>
  <title>bar</title>
  <g>
    <g>
      <polygon class="cls-1" points="1395.937 181.444 1349.579 181.444 41.848 181.444 0.5 181.444 0.5 120.593 1395.937 120.593 1395.937 181.444"/>
      <rect class="cls-2" x="41.84827" y="181.44392" width="1307.73044" height="389.0783"/>
    </g>
    <g>
      <polyline class="cls-3" points="1349.579 181.444 1349.579 570.522 41.848 570.522 41.848 181.444"/>
      <polygon class="cls-3" points="41.848 181.444 0.5 181.444 0.5 120.593 1395.937 120.593 1395.937 181.444 1349.579 181.444 41.848 181.444"/>
    </g>
  </g>
  <g>
    <g>
      <path d="M1361.37076,73.00166c.41,2.76.7,4.5,0,4.85-.77.39-1.75-1.41-4.59-2.86a14.86892,14.86892,0,0,0-4.11-1.36,53.80137,53.80137,0,0,0,.09-15.88c1.68-2.71,3.18-4.63,4.2-4.31.6.18.79,1.08,1.03,2.25C1359.77076,64.05166,1360.66076,68.22166,1361.37076,73.00166Z"/>
      <path class="cls-4" d="M1351.63076,52.39166a45.41181,45.41181,0,0,1,1.13,5.36c-.88,1.42-1.8,3.05-2.73,4.69-1.02,1.82-2.18,3.87-3.12,5.75a19.55012,19.55012,0,0,1-.78-5.92A15.28115,15.28115,0,0,1,1351.63076,52.39166Z"/>
      <path class="cls-4" d="M1346.61076,96.58166c-.45,1.29,1.09,3.51.22,5.16-.67,1.26-2.61,1.9-4.6,2a72.62714,72.62714,0,0,0,3.86-7.4Z"/>
      <path d="M1349.25076,73.52166c-2.53.29-3.31,1.27-3.89.78-.83-.7.11-3.21,1.55-6.11.94-1.88,2.1-3.93,3.12-5.75.93-1.64,1.85-3.27,2.73-4.69a53.80137,53.80137,0,0,1-.09,15.88A12.03047,12.03047,0,0,0,1349.25076,73.52166Z"/>
      <path class="cls-5" d="M1339.73076,12.67166c1.19.26,4.9,1.09,7.17.55a40.58955,40.58955,0,0,0-3.1,4.99,32.9876,32.9876,0,0,0-3.81,11.51l.05.35c-.23.03-.49.06-.76.08-.48.04-1.02.07-1.63.09-3.52.12-5.29.17-6.23-.35-.56-.3-1.97-.99-2.36-1.24-.06-.04-.11-.07-.11-.07s-.41-.28-.79-.6a9.143,9.143,0,0,1-1.41-1.81,29.807,29.807,0,0,1,.77-10.9,28.78538,28.78538,0,0,1,3.75-7.43C1332.33076,9.48166,1335.11076,11.64166,1339.73076,12.67166Z"/>
      <path d="M1366.13076,94.12166c-1.68,5.51-12.11,11.14-23.63,13.59-1.1.23-2.24.48-3.41.69a53.29221,53.29221,0,0,0,3.14-4.66c1.99-.1,3.93-.74,4.6-2,.87-1.65-.67-3.87-.22-5.16a1.11625,1.11625,0,0,1,.3-.47c.63-.59,1.67-.37,2.43-.26,6.08.94,13.99-1.52,16.44-4.67.21-.26.72-.97.96-.87C1367.23076,90.53166,1366.18076,93.97166,1366.13076,94.12166Z"/>
      <path class="cls-5" d="M1339.73076,12.67166c-4.62-1.03-7.4-3.19-8.46-4.83a3.6388,3.6388,0,0,1-.37-.74,2.54284,2.54284,0,0,1-.17-1.1c.1-1.57,1.68-2.62,2.16-2.94,3.12-2.07,10.08-.37,13.76,4.15.64.79,2.74,3.36,1.91,4.94a2.341,2.341,0,0,1-1.66,1.07C1344.63076,13.76166,1340.92076,12.93166,1339.73076,12.67166Z"/>
      <path class="cls-6" d="M1339.09076,108.40166c-3.87,5.14-8.21,8.66-12.43,9.01a12.38114,12.38114,0,0,1-3.76-.32,9.97394,9.97394,0,0,1-1-.29c-4.2-1.54-6.08-5.89-9-11.5a40.74841,40.74841,0,0,0,10.9,3.36A40.30863,40.30863,0,0,0,1339.09076,108.40166Z"/>
      <polygon points="1337.311 88.842 1329.041 88.842 1331.511 78.802 1337.311 88.842"/>
      <path class="cls-4" d="M1365.78076,91.18166c-2.45,3.15-10.36,5.61-16.44,4.67-.76-.11-1.8-.33-2.43.26a1.11625,1.11625,0,0,0-.3.47l-.52-.24a76.48338,76.48338,0,0,0,4.37-12.35,97.815,97.815,0,0,0,2.21-10.36,14.86892,14.86892,0,0,1,4.11,1.36c2.84,1.45,3.82,3.25,4.59,2.86.7-.35.41-2.09,0-4.85-.71-4.78-1.6-8.95-3.38-17.31-.24-1.17-.43-2.07-1.03-2.25-1.02-.32-2.52,1.6-4.2,4.31a46.95639,46.95639,0,0,0-3.16-11.24,57.11738,57.11738,0,0,0-10.32-16.36c.27-.02.53-.05.76-.08a8.1516,8.1516,0,0,0,2.72-.78c1.03-.51,1.14-.82,1.9-1.21,2.31-1.18,5.05-.25,6.5.26,14.26,5.03,21.12,12.29,21.12,12.29,14.21,15.03,13.55,35.59,13.41,38.6-.28,6.09-1.14,24.44-15.23,34.97-10.4,7.78-23.02,7.58-24.67,7.53a65.82448,65.82448,0,0,1-16.19-2.59c-1-.32-5.47-1.78-6.7-2.05a12.38114,12.38114,0,0,0,3.76.32c4.22-.35,8.56-3.87,12.43-9.01,1.17-.21,2.31-.46,3.41-.69,11.52-2.45,21.95-8.08,23.63-13.59.05-.15,1.1-3.59.61-3.81C1366.50076,90.21166,1365.99076,90.92166,1365.78076,91.18166Z"/>
      <path class="cls-4" d="M1315.48076,46.24166a18.52615,18.52615,0,0,1,4.43,5.9c2.68,5.67,1.51,11.83,1.12,13.51l-.31.12c-.94-2.55-3.97-7.43-7.53-12.71.24-.74.49-1.51.74-2.31C1314.45076,49.11166,1314.96076,47.62166,1315.48076,46.24166Z"/>
      <path d="M1337.05076,102.09166c.48,1.17,2.86,1.78,5.18,1.65a53.29221,53.29221,0,0,1-3.14,4.66,40.30863,40.30863,0,0,1-15.29.26,40.74841,40.74841,0,0,1-10.9-3.36c-.05-.12-.12-.24-.18-.36a41.18507,41.18507,0,0,1-2.38-5.5l2.2-.66c.03.09.06.19.1.28,1.4,3.33,8.7,4.73,10.64,2.42,1.41-1.67-.43-4.8.96-5.71.8-.54,1.77.28,3.63.86,5.31,1.66,10.21-1.02,10.65.09.1.25-.16.4-.61,1.3C1337.83076,98.18166,1336.53076,100.84166,1337.05076,102.09166Z"/>
      <path d="M1310.34076,99.44166a42.48259,42.48259,0,0,1-1.96-8.41,10.55528,10.55528,0,0,0,3.91.97.94834.94834,0,0,1,.61.13c1.21.8-.99,4.4-.36,6.65Z"/>
      <path class="cls-6" d="M1329.04076,88.84166h8.27l-5.8-10.04Zm16.32-14.54c.58.49,1.36-.49,3.89-.78a12.03047,12.03047,0,0,1,3.42.11,97.815,97.815,0,0,1-2.21,10.36,76.48338,76.48338,0,0,1-4.37,12.35,72.62714,72.62714,0,0,1-3.86,7.4c-2.32.13-4.7-.48-5.18-1.65-.52-1.25.78-3.91.86-4.07.45-.9.71-1.05.61-1.3-.44-1.11-5.34,1.57-10.65-.09-1.86-.58-2.83-1.4-3.63-.86-1.39.91.45,4.04-.96,5.71-1.94,2.31-9.24.91-10.64-2.42-.04-.09-.07-.19-.1-.28-.63-2.25,1.57-5.85.36-6.65a.94834.94834,0,0,0-.61-.13,10.55528,10.55528,0,0,1-3.91-.97,78.78511,78.78511,0,0,1,.01-16.56,63.06351,63.06351,0,0,1,.9-6.93,14.48208,14.48208,0,0,1,1.87-.34,27.42327,27.42327,0,0,1,8.57.26c.63.15.93.25,1.13.09.28-.23.21-.85-.14-1.78l.31-.12c.39-1.68,1.56-7.84-1.12-13.51a18.52615,18.52615,0,0,0-4.43-5.9,35.41182,35.41182,0,0,1,5.99-10.81,45.0011,45.0011,0,0,1,7.48-6.85s.05.03.11.07c.39.25,1.8.94,2.36,1.24.94.52,2.71.47,6.23.35.61-.02,1.15-.05,1.63-.09a57.11738,57.11738,0,0,1,10.32,16.36,45.11216,45.11216,0,0,1,2.03,5.88,15.28115,15.28115,0,0,0-5.5,9.88,19.55012,19.55012,0,0,0,.78,5.92C1345.47076,71.09166,1344.53076,73.60166,1345.36076,74.30166Z"/>
      <path d="M1309.29076,67.54166a119.65269,119.65269,0,0,1,3.9-14.48c3.56,5.28,6.59,10.16,7.53,12.71.35.93.42,1.55.14,1.78-.2.16-.5.06-1.13-.09a27.42327,27.42327,0,0,0-8.57-.26A14.48208,14.48208,0,0,0,1309.29076,67.54166Z"/>
      <path d="M1308.57076,46.34166c1.56,2.22,3.14,4.5,4.62,6.72a119.65269,119.65269,0,0,0-3.9,14.48c-3.46.85-5.56,2.62-6,2-.27-.37.31-1.21.43-1.39C1305.03076,66.20166,1306.68076,60.61166,1308.57076,46.34166Z"/>
      <path d="M1296.71076,82.52166a54.01284,54.01284,0,0,0,6.4,5.63,30.41167,30.41167,0,0,0,5.27,2.88,42.48259,42.48259,0,0,0,1.96,8.41,41.18507,41.18507,0,0,0,2.38,5.5c.06.12.13.24.18.36a31.40283,31.40283,0,0,1-9.01-6.5c-3.12-3.27-4.97-7.32-8.65-15.41-.36-.8-1.02-2.29-.7-2.51S1295.95076,81.77166,1296.71076,82.52166Z"/>
      <path class="cls-6" d="M1309.29076,67.54166a63.06351,63.06351,0,0,0-.9,6.93,78.78511,78.78511,0,0,0-.01,16.56,30.41167,30.41167,0,0,1-5.27-2.88,54.01284,54.01284,0,0,1-6.4-5.63c-.76-.75-1.85-1.86-2.17-1.64s.34,1.71.7,2.51c3.68,8.09,5.53,12.14,8.65,15.41a31.40283,31.40283,0,0,0,9.01,6.5c2.92,5.61,4.8,9.96,9,11.5a9.97394,9.97394,0,0,0,1,.29c-.19-.04-.3-.05-.31-.03-.03.08,1.06.34,1.11.83.12,1.13-5.37,2.58-6.37,2.83-11.12,2.72-21.37-5.39-26.18-9.2-3.4-2.69-13.46-10.89-17.34-25.47-6.57-24.71,10.77-44.62,13.98-48.3,6.53-7.49,15.58-14.54,23.52-14.5,2.22.01,3.75-.06,11.71,1.02.66.09,3.38,1.3,3.73,1.9a9.143,9.143,0,0,0,1.41,1.81c.38.32.79.6.79.6a45.0011,45.0011,0,0,0-7.48,6.85,35.41182,35.41182,0,0,0-5.99,10.81c-.52,1.38-1.03,2.87-1.55,4.51-.25.8-.5,1.57-.74,2.31-1.48-2.22-3.06-4.5-4.62-6.72-1.89,14.27-3.54,19.86-4.85,21.81-.12.18-.7,1.02-.43,1.39C1303.73076,70.16166,1305.83076,68.39166,1309.29076,67.54166Z"/>
    </g>
    <g>
      <path class="cls-3" d="M1326.75076,26.17166c-.35-.6-3.07-1.81-3.73-1.9-7.96-1.08-9.49-1.01-11.71-1.02-7.94-.04-16.99,7.01-23.52,14.5-3.21,3.68-20.55,23.59-13.98,48.3,3.88,14.58,13.94,22.78,17.34,25.47,4.81,3.81,15.06,11.92,26.18,9.2,1-.25,6.49-1.7,6.37-2.83-.05-.49-1.14-.75-1.11-.83.01-.02.12-.01.31.03,1.23.27,5.7,1.73,6.7,2.05a65.82448,65.82448,0,0,0,16.19,2.59c1.65.05,14.27.25,24.67-7.53,14.09-10.53,14.95-28.88,15.23-34.97.14-3.01.8-23.57-13.41-38.6,0,0-6.86-7.26-21.12-12.29-1.45-.51-4.19-1.44-6.5-.26-.76.39-.87.7-1.9,1.21a8.1516,8.1516,0,0,1-2.72.78c-.23.03-.49.06-.76.08-.48.04-1.02.07-1.63.09-3.52.12-5.29.17-6.23-.35-.56-.3-1.97-.99-2.36-1.24-.06-.04-.11-.07-.11-.07s-.41-.28-.79-.6A9.143,9.143,0,0,1,1326.75076,26.17166Z"/>
      <path class="cls-3" d="M1328.95076,28.58166a45.0011,45.0011,0,0,0-7.48,6.85,35.41182,35.41182,0,0,0-5.99,10.81c-.52,1.38-1.03,2.87-1.55,4.51-.25.8-.5,1.57-.74,2.31a119.65269,119.65269,0,0,0-3.9,14.48,63.06351,63.06351,0,0,0-.9,6.93,78.78511,78.78511,0,0,0-.01,16.56,42.48259,42.48259,0,0,0,1.96,8.41,41.18507,41.18507,0,0,0,2.38,5.5c.06.12.13.24.18.36,2.92,5.61,4.8,9.96,9,11.5a9.97394,9.97394,0,0,0,1,.29,12.38114,12.38114,0,0,0,3.76.32c4.22-.35,8.56-3.87,12.43-9.01a53.29221,53.29221,0,0,0,3.14-4.66,72.62714,72.62714,0,0,0,3.86-7.4,76.48338,76.48338,0,0,0,4.37-12.35,97.815,97.815,0,0,0,2.21-10.36,53.80137,53.80137,0,0,0,.09-15.88,46.95639,46.95639,0,0,0-3.16-11.24,57.11738,57.11738,0,0,0-10.32-16.36"/>
      <path class="cls-3" d="M1309.29076,67.54166a14.48208,14.48208,0,0,1,1.87-.34,27.42327,27.42327,0,0,1,8.57.26c.63.15.93.25,1.13.09.28-.23.21-.85-.14-1.78-.94-2.55-3.97-7.43-7.53-12.71-1.48-2.22-3.06-4.5-4.62-6.72-1.89,14.27-3.54,19.86-4.85,21.81-.12.18-.7,1.02-.43,1.39C1303.73076,70.16166,1305.83076,68.39166,1309.29076,67.54166Z"/>
      <path class="cls-3" d="M1352.67076,73.63166a14.86892,14.86892,0,0,1,4.11,1.36c2.84,1.45,3.82,3.25,4.59,2.86.7-.35.41-2.09,0-4.85-.71-4.78-1.6-8.95-3.38-17.31-.24-1.17-.43-2.07-1.03-2.25-1.02-.32-2.52,1.6-4.2,4.31-.88,1.42-1.8,3.05-2.73,4.69-1.02,1.82-2.18,3.87-3.12,5.75-1.44,2.9-2.38,5.41-1.55,6.11.58.49,1.36-.49,3.89-.78A12.03047,12.03047,0,0,1,1352.67076,73.63166Z"/>
      <path class="cls-3" d="M1321.03076,65.65166c.39-1.68,1.56-7.84-1.12-13.51a18.52615,18.52615,0,0,0-4.43-5.9,20.97114,20.97114,0,0,0-7.86-4.4"/>
      <path class="cls-3" d="M1346.91076,68.19166a19.55012,19.55012,0,0,1-.78-5.92,15.28115,15.28115,0,0,1,5.5-9.88,23.534,23.534,0,0,1,5.07-3.45"/>
      <path class="cls-3" d="M1312.90076,105.30166a31.40283,31.40283,0,0,1-9.01-6.5c-3.12-3.27-4.97-7.32-8.65-15.41-.36-.8-1.02-2.29-.7-2.51s1.41.89,2.17,1.64a54.01284,54.01284,0,0,0,6.4,5.63,30.41167,30.41167,0,0,0,5.27,2.88,10.55528,10.55528,0,0,0,3.91.97.94834.94834,0,0,1,.61.13c1.21.8-.99,4.4-.36,6.65.03.09.06.19.1.28,1.4,3.33,8.7,4.73,10.64,2.42,1.41-1.67-.43-4.8.96-5.71.8-.54,1.77.28,3.63.86,5.31,1.66,10.21-1.02,10.65.09.1.25-.16.4-.61,1.3-.08.16-1.38,2.82-.86,4.07.48,1.17,2.86,1.78,5.18,1.65,1.99-.1,3.93-.74,4.6-2,.87-1.65-.67-3.87-.22-5.16a1.11625,1.11625,0,0,1,.3-.47c.63-.59,1.67-.37,2.43-.26,6.08.94,13.99-1.52,16.44-4.67.21-.26.72-.97.96-.87.49.22-.56,3.66-.61,3.81-1.68,5.51-12.11,11.14-23.63,13.59-1.1.23-2.24.48-3.41.69a40.30863,40.30863,0,0,1-15.29.26A40.74841,40.74841,0,0,1,1312.90076,105.30166Z"/>
      <polygon class="cls-3" points="1331.511 78.802 1329.041 88.842 1337.311 88.842 1331.511 78.802"/>
      <path class="cls-3" d="M1346.90076,13.22166a2.341,2.341,0,0,0,1.66-1.07c.83-1.58-1.27-4.15-1.91-4.94-3.68-4.52-10.64-6.22-13.76-4.15-.48.32-2.06,1.37-2.16,2.94a2.54284,2.54284,0,0,0,.17,1.1,3.6388,3.6388,0,0,0,.37.74c1.06,1.64,3.84,3.8,8.46,4.83C1340.92076,12.93166,1344.63076,13.76166,1346.90076,13.22166Z"/>
      <path class="cls-3" d="M1326.75076,26.17166a29.807,29.807,0,0,1,.77-10.9,28.78538,28.78538,0,0,1,3.75-7.43"/>
      <path class="cls-3" d="M1346.91076,13.21166l-.01.01a40.58955,40.58955,0,0,0-3.1,4.99,32.9876,32.9876,0,0,0-3.81,11.51"/>
      <path class="cls-3" d="M1342.76076,7.82166c-.46-.38-3.68-2.94-6.67-1.82-.16.06-1.83.71-1.81,1.56.02,1.14,3.04,1.99,4.93,2.25,1.43.2,3.47.23,3.55-.17.05-.3-.93-.9-5.45-2.25"/>
    </g>
  </g>
  <g>
    <g>
      <path d="M93.1961,71.31319c.41,2.76.7,4.5,0,4.85-.77.39-1.75-1.41-4.59-2.86a14.86892,14.86892,0,0,0-4.11-1.36,53.80137,53.80137,0,0,0,.09-15.88c1.68-2.71,3.18-4.63,4.2-4.31.6.18.79,1.08,1.03,2.25C91.5961,62.36319,92.4861,66.53319,93.1961,71.31319Z"/>
      <path class="cls-4" d="M83.4561,50.70319a45.41181,45.41181,0,0,1,1.13,5.36c-.88,1.42-1.8,3.05-2.73,4.69-1.02,1.82-2.18,3.87-3.12,5.75a19.55012,19.55012,0,0,1-.78-5.92A15.28115,15.28115,0,0,1,83.4561,50.70319Z"/>
      <path class="cls-4" d="M78.4361,94.89319c-.45,1.29,1.09,3.51.22,5.16-.67,1.26-2.61,1.9-4.6,2a72.62714,72.62714,0,0,0,3.86-7.4Z"/>
      <path d="M81.0761,71.83319c-2.53.29-3.31,1.27-3.89.78-.83-.7.11-3.21,1.55-6.11.94-1.88,2.1-3.93,3.12-5.75.93-1.64,1.85-3.27,2.73-4.69a53.80137,53.80137,0,0,1-.09,15.88A12.03047,12.03047,0,0,0,81.0761,71.83319Z"/>
      <path class="cls-5" d="M71.5561,10.98319c1.19.26,4.9,1.09,7.17.55a40.58955,40.58955,0,0,0-3.1,4.99,32.9876,32.9876,0,0,0-3.81,11.51l.05.35c-.23.03-.49.06-.76.08-.48.04-1.02.07-1.63.09-3.52.12-5.29.17-6.23-.35-.56-.3-1.97-.99-2.36-1.24-.06-.04-.11-.07-.11-.07s-.41-.28-.79-.6a9.143,9.143,0,0,1-1.41-1.81,29.807,29.807,0,0,1,.77-10.9,28.78538,28.78538,0,0,1,3.75-7.43C64.1561,7.79319,66.9361,9.95319,71.5561,10.98319Z"/>
      <path d="M97.6061,89.49319c.21-.26.72-.97.96-.87.49.22-.56,3.66-.61,3.81-1.68,5.51-12.11,11.14-23.63,13.59-1.1.23-2.24.48-3.41.69a53.29221,53.29221,0,0,0,3.14-4.66c1.99-.1,3.93-.74,4.6-2,.87-1.65-.67-3.87-.22-5.16a1.11625,1.11625,0,0,1,.3-.47c.63-.59,1.67-.37,2.43-.26C87.2461,95.10319,95.1561,92.64319,97.6061,89.49319Z"/>
      <path class="cls-5" d="M71.5561,10.98319c-4.62-1.03-7.4-3.19-8.46-4.83a3.6388,3.6388,0,0,1-.37-.74,2.54284,2.54284,0,0,1-.17-1.1c.1-1.57,1.68-2.62,2.16-2.94,3.12-2.07,10.08-.37,13.76,4.15.64.79,2.74,3.36,1.91,4.94a2.341,2.341,0,0,1-1.66,1.07C76.4561,12.07319,72.7461,11.24319,71.5561,10.98319Z"/>
      <path class="cls-6" d="M70.9161,106.71319c-3.87,5.14-8.21,8.66-12.43,9.01a12.38114,12.38114,0,0,1-3.76-.32,9.97394,9.97394,0,0,1-1-.29c-4.2-1.54-6.08-5.89-9-11.5a40.74841,40.74841,0,0,0,10.9,3.36A40.30863,40.30863,0,0,0,70.9161,106.71319Z"/>
      <polygon points="60.866 87.153 63.336 77.113 69.136 87.153 60.866 87.153"/>
      <path class="cls-4" d="M58.4861,115.72319c4.22-.35,8.56-3.87,12.43-9.01,1.17-.21,2.31-.46,3.41-.69,11.52-2.45,21.95-8.08,23.63-13.59.05-.15,1.1-3.59.61-3.81-.24-.1-.75.61-.96.87-2.45,3.15-10.36,5.61-16.44,4.67-.76-.11-1.8-.33-2.43.26a1.11625,1.11625,0,0,0-.3.47l-.52-.24a76.48338,76.48338,0,0,0,4.37-12.35,97.815,97.815,0,0,0,2.21-10.36,14.86892,14.86892,0,0,1,4.11,1.36c2.84,1.45,3.82,3.25,4.59,2.86.7-.35.41-2.09,0-4.85-.71-4.78-1.6-8.95-3.38-17.31-.24-1.17-.43-2.07-1.03-2.25-1.02-.32-2.52,1.6-4.2,4.31a46.95639,46.95639,0,0,0-3.16-11.24,57.11738,57.11738,0,0,0-10.32-16.36c.27-.02.53-.05.76-.08a8.1516,8.1516,0,0,0,2.72-.78c1.03-.51,1.14-.82,1.9-1.21,2.31-1.18,5.05-.25,6.5.26,14.26,5.03,21.12,12.29,21.12,12.29,14.21,15.03,13.55,35.59,13.41,38.6-.28,6.09-1.14,24.44-15.23,34.97-10.4,7.78-23.02,7.58-24.67,7.53a65.82448,65.82448,0,0,1-16.19-2.59c-1-.32-5.47-1.78-6.7-2.05A12.38114,12.38114,0,0,0,58.4861,115.72319Z"/>
      <path class="cls-4" d="M47.3061,44.55319a18.52615,18.52615,0,0,1,4.43,5.9c2.68,5.67,1.51,11.83,1.12,13.51l-.31.12c-.94-2.55-3.97-7.43-7.53-12.71.24-.74.49-1.51.74-2.31C46.2761,47.42319,46.7861,45.93319,47.3061,44.55319Z"/>
      <path d="M70.9161,106.71319a40.30863,40.30863,0,0,1-15.29.26,40.74841,40.74841,0,0,1-10.9-3.36c-.05-.12-.12-.24-.18-.36a41.18507,41.18507,0,0,1-2.38-5.5l2.2-.66c.03.09.06.19.1.28,1.4,3.33,8.7,4.73,10.64,2.42,1.41-1.67-.43-4.8.96-5.71.8-.54,1.77.28,3.63.86,5.31,1.66,10.21-1.02,10.65.09.1.25-.16.4-.61,1.3-.08.16-1.38,2.82-.86,4.07.48,1.17,2.86,1.78,5.18,1.65A53.29221,53.29221,0,0,1,70.9161,106.71319Z"/>
      <path d="M44.7261,90.44319c1.21.8-.99,4.4-.36,6.65l-2.2.66a42.48259,42.48259,0,0,1-1.96-8.41,10.55528,10.55528,0,0,0,3.91.97A.94834.94834,0,0,1,44.7261,90.44319Z"/>
      <path class="cls-6" d="M63.3361,77.11319l-2.47,10.04h8.27Zm-10.48-13.15c.39-1.68,1.56-7.84-1.12-13.51a18.52615,18.52615,0,0,0-4.43-5.9,35.41182,35.41182,0,0,1,5.99-10.81,45.0011,45.0011,0,0,1,7.48-6.85s.05.03.11.07c.39.25,1.8.94,2.36,1.24.94.52,2.71.47,6.23.35.61-.02,1.15-.05,1.63-.09a57.11738,57.11738,0,0,1,10.32,16.36,45.11216,45.11216,0,0,1,2.03,5.88,15.28115,15.28115,0,0,0-5.5,9.88,19.55012,19.55012,0,0,0,.78,5.92c-1.44,2.9-2.38,5.41-1.55,6.11.58.49,1.36-.49,3.89-.78a12.03047,12.03047,0,0,1,3.42.11,97.815,97.815,0,0,1-2.21,10.36,76.48338,76.48338,0,0,1-4.37,12.35,72.62714,72.62714,0,0,1-3.86,7.4c-2.32.13-4.7-.48-5.18-1.65-.52-1.25.78-3.91.86-4.07.45-.9.71-1.05.61-1.3-.44-1.11-5.34,1.57-10.65-.09-1.86-.58-2.83-1.4-3.63-.86-1.39.91.45,4.04-.96,5.71-1.94,2.31-9.24.91-10.64-2.42-.04-.09-.07-.19-.1-.28-.63-2.25,1.57-5.85.36-6.65a.94834.94834,0,0,0-.61-.13,10.55528,10.55528,0,0,1-3.91-.97,78.78511,78.78511,0,0,1,.01-16.56,63.06351,63.06351,0,0,1,.9-6.93,14.48208,14.48208,0,0,1,1.87-.34,27.42327,27.42327,0,0,1,8.57.26c.63.15.93.25,1.13.09.28-.23.21-.85-.14-1.78Z"/>
      <path d="M52.5461,64.08319c.35.93.42,1.55.14,1.78-.2.16-.5.06-1.13-.09a27.42327,27.42327,0,0,0-8.57-.26,14.48208,14.48208,0,0,0-1.87.34,119.65269,119.65269,0,0,1,3.9-14.48C48.5761,56.65319,51.6061,61.53319,52.5461,64.08319Z"/>
      <path d="M40.3961,44.65319c1.56,2.22,3.14,4.5,4.62,6.72a119.65269,119.65269,0,0,0-3.9,14.48c-3.46.85-5.56,2.62-6,2-.27-.37.31-1.21.43-1.39C36.8561,64.51319,38.5061,58.92319,40.3961,44.65319Z"/>
      <path d="M35.7161,97.11319c-3.12-3.27-4.97-7.32-8.65-15.41-.36-.8-1.02-2.29-.7-2.51s1.41.89,2.17,1.64a54.01284,54.01284,0,0,0,6.4,5.63,30.41167,30.41167,0,0,0,5.27,2.88,42.48259,42.48259,0,0,0,1.96,8.41,41.18507,41.18507,0,0,0,2.38,5.5c.06.12.13.24.18.36A31.40283,31.40283,0,0,1,35.7161,97.11319Z"/>
      <path class="cls-6" d="M53.7261,115.11319a9.97394,9.97394,0,0,0,1,.29c-.19-.04-.3-.05-.31-.03-.03.08,1.06.34,1.11.83.12,1.13-5.37,2.58-6.37,2.83-11.12,2.72-21.37-5.39-26.18-9.2-3.4-2.69-13.46-10.89-17.34-25.47-6.57-24.71,10.77-44.62,13.98-48.3,6.53-7.49,15.58-14.54,23.52-14.5,2.22.01,3.75-.06,11.71,1.02.66.09,3.38,1.3,3.73,1.9a9.143,9.143,0,0,0,1.41,1.81c.38.32.79.6.79.6a45.0011,45.0011,0,0,0-7.48,6.85,35.41182,35.41182,0,0,0-5.99,10.81c-.52,1.38-1.03,2.87-1.55,4.51-.25.8-.5,1.57-.74,2.31-1.48-2.22-3.06-4.5-4.62-6.72-1.89,14.27-3.54,19.86-4.85,21.81-.12.18-.7,1.02-.43,1.39.44.62,2.54-1.15,6-2a63.06351,63.06351,0,0,0-.9,6.93,78.78511,78.78511,0,0,0-.01,16.56,30.41167,30.41167,0,0,1-5.27-2.88,54.01284,54.01284,0,0,1-6.4-5.63c-.76-.75-1.85-1.86-2.17-1.64s.34,1.71.7,2.51c3.68,8.09,5.53,12.14,8.65,15.41a31.40283,31.40283,0,0,0,9.01,6.5C47.6461,109.22319,49.5261,113.57319,53.7261,115.11319Z"/>
    </g>
    <g>
      <path class="cls-3" d="M58.5761,24.48319c-.35-.6-3.07-1.81-3.73-1.9-7.96-1.08-9.49-1.01-11.71-1.02-7.94-.04-16.99,7.01-23.52,14.5-3.21,3.68-20.55,23.59-13.98,48.3,3.88,14.58,13.94,22.78,17.34,25.47,4.81,3.81,15.06,11.92,26.18,9.2,1-.25,6.49-1.7,6.37-2.83-.05-.49-1.14-.75-1.11-.83.01-.02.12-.01.31.03,1.23.27,5.7,1.73,6.7,2.05a65.82448,65.82448,0,0,0,16.19,2.59c1.65.05,14.27.25,24.67-7.53,14.09-10.53,14.95-28.88,15.23-34.97.14-3.01.8-23.57-13.41-38.6,0,0-6.86-7.26-21.12-12.29-1.45-.51-4.19-1.44-6.5-.26-.76.39-.87.7-1.9,1.21a8.1516,8.1516,0,0,1-2.72.78c-.23.03-.49.06-.76.08-.48.04-1.02.07-1.63.09-3.52.12-5.29.17-6.23-.35-.56-.3-1.97-.99-2.36-1.24-.06-.04-.11-.07-.11-.07s-.41-.28-.79-.6A9.143,9.143,0,0,1,58.5761,24.48319Z"/>
      <path class="cls-3" d="M60.7761,26.89319a45.0011,45.0011,0,0,0-7.48,6.85,35.41182,35.41182,0,0,0-5.99,10.81c-.52,1.38-1.03,2.87-1.55,4.51-.25.8-.5,1.57-.74,2.31a119.65269,119.65269,0,0,0-3.9,14.48,63.06351,63.06351,0,0,0-.9,6.93,78.78511,78.78511,0,0,0-.01,16.56,42.48259,42.48259,0,0,0,1.96,8.41,41.18507,41.18507,0,0,0,2.38,5.5c.06.12.13.24.18.36,2.92,5.61,4.8,9.96,9,11.5a9.97394,9.97394,0,0,0,1,.29,12.38114,12.38114,0,0,0,3.76.32c4.22-.35,8.56-3.87,12.43-9.01a53.29221,53.29221,0,0,0,3.14-4.66,72.62714,72.62714,0,0,0,3.86-7.4,76.48338,76.48338,0,0,0,4.37-12.35,97.815,97.815,0,0,0,2.21-10.36,53.80137,53.80137,0,0,0,.09-15.88,46.95639,46.95639,0,0,0-3.16-11.24,57.11738,57.11738,0,0,0-10.32-16.36"/>
      <path class="cls-3" d="M41.1161,65.85319a14.48208,14.48208,0,0,1,1.87-.34,27.42327,27.42327,0,0,1,8.57.26c.63.15.93.25,1.13.09.28-.23.21-.85-.14-1.78-.94-2.55-3.97-7.43-7.53-12.71-1.48-2.22-3.06-4.5-4.62-6.72-1.89,14.27-3.54,19.86-4.85,21.81-.12.18-.7,1.02-.43,1.39C35.5561,68.47319,37.6561,66.70319,41.1161,65.85319Z"/>
      <path class="cls-3" d="M84.4961,71.94319a14.86892,14.86892,0,0,1,4.11,1.36c2.84,1.45,3.82,3.25,4.59,2.86.7-.35.41-2.09,0-4.85-.71-4.78-1.6-8.95-3.38-17.31-.24-1.17-.43-2.07-1.03-2.25-1.02-.32-2.52,1.6-4.2,4.31-.88,1.42-1.8,3.05-2.73,4.69-1.02,1.82-2.18,3.87-3.12,5.75-1.44,2.9-2.38,5.41-1.55,6.11.58.49,1.36-.49,3.89-.78A12.03047,12.03047,0,0,1,84.4961,71.94319Z"/>
      <path class="cls-3" d="M52.8561,63.96319c.39-1.68,1.56-7.84-1.12-13.51a18.52615,18.52615,0,0,0-4.43-5.9,20.97114,20.97114,0,0,0-7.86-4.4"/>
      <path class="cls-3" d="M78.7361,66.50319a19.55012,19.55012,0,0,1-.78-5.92,15.28115,15.28115,0,0,1,5.5-9.88,23.534,23.534,0,0,1,5.07-3.45"/>
      <path class="cls-3" d="M44.7261,103.61319a31.40283,31.40283,0,0,1-9.01-6.5c-3.12-3.27-4.97-7.32-8.65-15.41-.36-.8-1.02-2.29-.7-2.51s1.41.89,2.17,1.64a54.01284,54.01284,0,0,0,6.4,5.63,30.41167,30.41167,0,0,0,5.27,2.88,10.55528,10.55528,0,0,0,3.91.97.94834.94834,0,0,1,.61.13c1.21.8-.99,4.4-.36,6.65.03.09.06.19.1.28,1.4,3.33,8.7,4.73,10.64,2.42,1.41-1.67-.43-4.8.96-5.71.8-.54,1.77.28,3.63.86,5.31,1.66,10.21-1.02,10.65.09.1.25-.16.4-.61,1.3-.08.16-1.38,2.82-.86,4.07.48,1.17,2.86,1.78,5.18,1.65,1.99-.1,3.93-.74,4.6-2,.87-1.65-.67-3.87-.22-5.16a1.11625,1.11625,0,0,1,.3-.47c.63-.59,1.67-.37,2.43-.26,6.08.94,13.99-1.52,16.44-4.67.21-.26.72-.97.96-.87.49.22-.56,3.66-.61,3.81-1.68,5.51-12.11,11.14-23.63,13.59-1.1.23-2.24.48-3.41.69a40.30863,40.30863,0,0,1-15.29.26A40.74841,40.74841,0,0,1,44.7261,103.61319Z"/>
      <polygon class="cls-3" points="63.336 77.113 60.866 87.153 69.136 87.153 63.336 77.113"/>
      <path class="cls-3" d="M78.7261,11.53319a2.341,2.341,0,0,0,1.66-1.07c.83-1.58-1.27-4.15-1.91-4.94-3.68-4.52-10.64-6.22-13.76-4.15-.48.32-2.06,1.37-2.16,2.94a2.54284,2.54284,0,0,0,.17,1.1,3.6388,3.6388,0,0,0,.37.74c1.06,1.64,3.84,3.8,8.46,4.83C72.7461,11.24319,76.4561,12.07319,78.7261,11.53319Z"/>
      <path class="cls-3" d="M58.5761,24.48319a29.807,29.807,0,0,1,.77-10.9,28.78538,28.78538,0,0,1,3.75-7.43"/>
      <path class="cls-3" d="M78.7361,11.52319l-.01.01a40.58955,40.58955,0,0,0-3.1,4.99,32.9876,32.9876,0,0,0-3.81,11.51"/>
      <path class="cls-3" d="M74.5861,6.13319c-.46-.38-3.68-2.94-6.67-1.82-.16.06-1.83.71-1.81,1.56.02,1.14,3.04,1.99,4.93,2.25,1.43.2,3.47.23,3.55-.17.05-.3-.93-.9-5.45-2.25"/>
    </g>
  </g>
</svg>
