<?xml version="1.0" encoding="utf-8"?>
<!-- Generator: Adobe Illustrator 22.1.0, SVG Export Plug-In . SVG Version: 6.00 Build 0)  -->
<svg version="1.1" id="bar" xmlns="http://www.w3.org/2000/svg" xmlns:xlink="http://www.w3.org/1999/xlink" x="0px" y="0px"
	 viewBox="0 0 1920 1080" style="enable-background:new 0 0 1920 1080;" xml:space="preserve">
<style type="text/css">
	.st0{fill:#6A4C1C;}
	.st1{fill:#493618;}
	.st2{fill:none;stroke:#000000;stroke-miterlimit:10;}
	.st3{fill:#F26527;}
	.st4{fill:#114900;}
	.st5{fill:#F26C50;}
</style>
<g id="bar_1_">
	<g>
		<polygon class="st0" points="1658.3,508.7 1612,508.7 304.3,508.7 262.9,508.7 262.9,447.9 1658.3,447.9 		"/>
		<rect x="304.3" y="508.7" class="st1" width="1307.7" height="389.1"/>
	</g>
	<g>
		<polyline class="st2" points="1612,508.7 1612,897.8 304.3,897.8 304.3,508.7 		"/>
		<polygon class="st2" points="304.3,508.7 262.9,508.7 262.9,447.9 1658.3,447.9 1658.3,508.7 1612,508.7 		"/>
	</g>
</g>
<g id="græskar1">
	<g>
		<path d="M1623.8,400.3c0.4,2.8,0.7,4.5,0,4.9c-0.8,0.4-1.8-1.4-4.6-2.9c-0.7-0.4-2.2-1-4.1-1.4c0.7-4.7,1-10.1,0.1-15.9
			c1.7-2.7,3.2-4.6,4.2-4.3c0.6,0.2,0.8,1.1,1,2.3C1622.2,391.3,1623.1,395.5,1623.8,400.3z"/>
		<path class="st3" d="M1614,379.7c0.5,1.8,0.9,3.6,1.1,5.4c-0.9,1.4-1.8,3.1-2.7,4.7c-1,1.8-2.2,3.9-3.1,5.8
			c-0.6-2-0.9-4.6-0.8-5.9C1608.9,385.2,1611.5,381.9,1614,379.7z"/>
		<path class="st3" d="M1609,423.9c-0.4,1.3,1.1,3.5,0.2,5.2c-0.7,1.3-2.6,1.9-4.6,2c1.4-2.3,2.7-4.8,3.9-7.4L1609,423.9z"/>
		<path d="M1611.7,400.8c-2.5,0.3-3.3,1.3-3.9,0.8c-0.8-0.7,0.1-3.2,1.6-6.1c0.9-1.9,2.1-3.9,3.1-5.8c0.9-1.6,1.8-3.3,2.7-4.7
			c0.9,5.8,0.6,11.2-0.1,15.9C1614,400.7,1612.9,400.7,1611.7,400.8z"/>
		<path class="st4" d="M1602.1,339.9c1.2,0.3,4.9,1.1,7.2,0.5c-1,1.2-2.1,3.3-3.1,5c-2.4,4.2-3.4,8.7-3.8,11.5l0.1,0.4
			c-0.2,0-0.5,0.1-0.8,0.1c-0.5,0-1,0.1-1.6,0.1c-3.5,0.1-5.3,0.2-6.2-0.4c-0.6-0.3-2-1-2.4-1.2c-0.1,0-0.1-0.1-0.1-0.1
			s-0.4-0.3-0.8-0.6c-0.6-0.5-1.4-1.8-1.4-1.8c-0.2-2.1-0.4-6.9,0.8-10.9c0.9-3,2.7-5.9,3.8-7.4
			C1594.7,336.8,1597.5,338.9,1602.1,339.9z"/>
		<path d="M1628.5,421.4c-1.7,5.5-12.1,11.1-23.6,13.6c-1.1,0.2-2.2,0.5-3.4,0.7c1.1-1.4,2.1-3,3.1-4.7c2-0.1,3.9-0.7,4.6-2
			c0.9-1.7-0.7-3.9-0.2-5.2c0.1-0.2,0.2-0.3,0.3-0.5c0.6-0.6,1.7-0.4,2.4-0.3c6.1,0.9,14-1.5,16.4-4.7c0.2-0.3,0.7-1,1-0.9
			C1629.6,417.8,1628.6,421.2,1628.5,421.4z"/>
		<path class="st4" d="M1602.1,339.9c-4.6-1-7.4-3.2-8.5-4.8c-0.2-0.3-0.3-0.5-0.4-0.7c-0.1-0.2-0.2-0.6-0.2-1.1
			c0.1-1.6,1.7-2.6,2.2-2.9c3.1-2.1,10.1-0.4,13.8,4.2c0.6,0.8,2.7,3.4,1.9,4.9c-0.3,0.6-0.9,0.9-1.7,1.1
			C1607,341,1603.3,340.2,1602.1,339.9z"/>
		<path class="st5" d="M1601.5,435.7c-3.9,5.1-8.2,8.7-12.4,9c-1.5,0.1-2.9-0.1-3.8-0.3c-0.6-0.1-1-0.3-1-0.3
			c-4.2-1.5-6.1-5.9-9-11.5c4.6,2.2,8.8,3,10.9,3.4C1592.2,437,1597.2,436.5,1601.5,435.7z"/>
		<polygon points="1599.7,416.1 1591.4,416.1 1593.9,406.1 		"/>
		<path class="st3" d="M1628.2,418.5c-2.5,3.1-10.4,5.6-16.4,4.7c-0.8-0.1-1.8-0.3-2.4,0.3c-0.1,0.1-0.2,0.3-0.3,0.5l-0.5-0.2
			c1.8-4,3.3-8.3,4.4-12.3c0.7-2.7,1.6-6.3,2.2-10.4c1.9,0.3,3.4,1,4.1,1.4c2.8,1.4,3.8,3.3,4.6,2.9c0.7-0.4,0.4-2.1,0-4.9
			c-0.7-4.8-1.6-8.9-3.4-17.3c-0.2-1.2-0.4-2.1-1-2.3c-1-0.3-2.5,1.6-4.2,4.3c-0.3-1.8-0.6-3.5-1.1-5.4c-0.5-1.9-1.2-3.9-2-5.9
			c-3-7.1-7.3-13.2-10.3-16.4c0.3,0,0.5,0,0.8-0.1c1.3-0.2,2-0.4,2.7-0.8c1-0.5,1.1-0.8,1.9-1.2c2.3-1.2,5-0.3,6.5,0.3
			c14.3,5,21.1,12.3,21.1,12.3c14.2,15,13.5,35.6,13.4,38.6c-0.3,6.1-1.1,24.4-15.2,35c-10.4,7.8-23,7.6-24.7,7.5
			c-8.8-0.3-16.2-2.6-16.2-2.6c-1-0.3-5.5-1.8-6.7-2.1c0.9,0.2,2.3,0.4,3.8,0.3c4.2-0.4,8.6-3.9,12.4-9c1.2-0.2,2.3-0.5,3.4-0.7
			c11.5-2.5,21.9-8.1,23.6-13.6c0-0.1,1.1-3.6,0.6-3.8C1628.9,417.5,1628.4,418.2,1628.2,418.5z"/>
		<path class="st3" d="M1577.9,373.5c1.7,1.5,3.2,3.4,4.4,5.9c2.7,5.7,1.5,11.8,1.1,13.5l-0.3,0.1c-0.9-2.6-4-7.4-7.5-12.7
			c0.2-0.7,0.5-1.5,0.7-2.3C1576.9,376.4,1577.4,374.9,1577.9,373.5z"/>
		<path d="M1599.5,429.4c0.5,1.2,2.9,1.8,5.2,1.7c-1,1.7-2.1,3.2-3.1,4.7c-4.3,0.8-9.3,1.4-15.3,0.3c-2.1-0.4-6.3-1.1-10.9-3.4
			c-0.1-0.1-0.1-0.2-0.2-0.4c-1-1.9-1.8-3.7-2.4-5.5l2.2-0.7c0,0.1,0.1,0.2,0.1,0.3c1.4,3.3,8.7,4.7,10.6,2.4c1.4-1.7-0.4-4.8,1-5.7
			c0.8-0.5,1.8,0.3,3.6,0.9c5.3,1.7,10.2-1,10.7,0.1c0.1,0.3-0.2,0.4-0.6,1.3C1600.2,425.5,1598.9,428.1,1599.5,429.4z"/>
		<path d="M1572.7,426.7c-1-2.9-1.6-5.7-2-8.4c1.4,0.6,2.8,1,3.9,1c0.1,0,0.4,0,0.6,0.1c1.2,0.8-1,4.4-0.4,6.6L1572.7,426.7z"/>
		<path class="st5" d="M1591.4,416.1h8.3l-5.8-10L1591.4,416.1z M1607.8,401.6c0.6,0.5,1.4-0.5,3.9-0.8c1.2-0.1,2.4-0.1,3.4,0.1
			c-0.6,4.1-1.5,7.6-2.2,10.4c-1,4.1-2.5,8.3-4.4,12.3c-1.2,2.6-2.5,5.1-3.9,7.4c-2.3,0.1-4.7-0.5-5.2-1.7c-0.5-1.3,0.8-3.9,0.9-4.1
			c0.4-0.9,0.7-1.1,0.6-1.3c-0.4-1.1-5.3,1.6-10.7-0.1c-1.9-0.6-2.8-1.4-3.6-0.9c-1.4,0.9,0.4,4-1,5.7c-1.9,2.3-9.2,0.9-10.6-2.4
			c0-0.1-0.1-0.2-0.1-0.3c-0.6-2.3,1.6-5.8,0.4-6.6c-0.2-0.1-0.5-0.1-0.6-0.1c-1.1,0-2.5-0.4-3.9-1c-0.8-6-0.4-11.6,0-16.6
			c0.2-2.5,0.5-4.7,0.9-6.9c0.6-0.1,1.2-0.3,1.9-0.3c5.1-0.6,8.6,0.3,8.6,0.3c0.6,0.1,0.9,0.3,1.1,0.1c0.3-0.2,0.2-0.9-0.1-1.8
			l0.3-0.1c0.4-1.7,1.6-7.8-1.1-13.5c-1.2-2.5-2.8-4.4-4.4-5.9c1.6-4.3,3.3-7.6,6-10.8c2.4-2.9,5.8-5.6,7.5-6.9c0,0,0.1,0,0.1,0.1
			c0.4,0.3,1.8,0.9,2.4,1.2c0.9,0.5,2.7,0.5,6.2,0.4c0.6,0,1.2-0.1,1.6-0.1c3,3.1,7.3,9.2,10.3,16.4c0.8,2,1.5,4,2,5.9
			c-2.5,2.2-5.1,5.5-5.5,9.9c-0.1,1.3,0.2,3.9,0.8,5.9C1607.9,398.4,1606.9,400.9,1607.8,401.6z"/>
		<path d="M1571.7,394.8c0.8-4.5,2.1-8.8,3.9-14.5c3.6,5.3,6.6,10.2,7.5,12.7c0.3,0.9,0.4,1.5,0.1,1.8c-0.2,0.2-0.5,0.1-1.1-0.1
			c0,0-3.5-0.8-8.6-0.3C1572.9,394.6,1572.3,394.7,1571.7,394.8z"/>
		<path d="M1571,373.6c1.6,2.2,3.1,4.5,4.6,6.7c-1.8,5.7-3.1,10-3.9,14.5c-3.5,0.9-5.6,2.6-6,2c-0.3-0.4,0.3-1.2,0.4-1.4
			C1567.4,393.5,1569.1,387.9,1571,373.6z"/>
		<path d="M1559.1,409.8c1.4,1.4,4,4,6.4,5.6c1.3,0.9,3.3,2.1,5.3,2.9c0.4,2.7,1,5.6,2,8.4c0.6,1.8,1.4,3.6,2.4,5.5
			c0.1,0.1,0.1,0.2,0.2,0.4c-3-1.5-6.2-3.5-9-6.5c-3.1-3.3-5-7.3-8.7-15.4c-0.4-0.8-1-2.3-0.7-2.5
			C1557.3,407.9,1558.4,409,1559.1,409.8z"/>
		<path class="st5" d="M1571.7,394.8c-0.4,2.2-0.7,4.4-0.9,6.9c-0.4,4.9-0.8,10.6,0,16.6c-2-0.8-4-2-5.3-2.9c-2.4-1.6-5-4.2-6.4-5.6
			c-0.8-0.8-1.8-1.9-2.2-1.6c-0.3,0.2,0.3,1.7,0.7,2.5c3.7,8.1,5.5,12.1,8.7,15.4c2.9,3,6,5,9,6.5c2.9,5.6,4.8,10,9,11.5
			c0,0,0.4,0.1,1,0.3c-0.2,0-0.3,0-0.3,0c0,0.1,1.1,0.3,1.1,0.8c0.1,1.1-5.4,2.6-6.4,2.8c-11.1,2.7-21.4-5.4-26.2-9.2
			c-3.4-2.7-13.5-10.9-17.3-25.5c-6.6-24.7,10.8-44.6,14-48.3c6.5-7.5,15.6-14.5,23.5-14.5c2.2,0,3.8-0.1,11.7,1
			c0.7,0.1,3.4,1.3,3.7,1.9c0,0,0.8,1.3,1.4,1.8c0.4,0.3,0.8,0.6,0.8,0.6c-1.7,1.3-5.1,4-7.5,6.9c-2.7,3.2-4.4,6.5-6,10.8
			c-0.5,1.4-1,2.9-1.6,4.5c-0.3,0.8-0.5,1.6-0.7,2.3c-1.5-2.2-3.1-4.5-4.6-6.7c-1.9,14.3-3.5,19.9-4.8,21.8c-0.1,0.2-0.7,1-0.4,1.4
			C1566.1,397.4,1568.2,395.7,1571.7,394.8z"/>
	</g>
	<g>
		<path class="st2" d="M1589.2,353.4c-0.3-0.6-3.1-1.8-3.7-1.9c-8-1.1-9.5-1-11.7-1c-7.9,0-17,7-23.5,14.5
			c-3.2,3.7-20.6,23.6-14,48.3c3.9,14.6,13.9,22.8,17.3,25.5c4.8,3.8,15.1,11.9,26.2,9.2c1-0.3,6.5-1.7,6.4-2.8
			c0-0.5-1.1-0.8-1.1-0.8c0,0,0.1,0,0.3,0c1.2,0.3,5.7,1.7,6.7,2.1c0,0,7.4,2.3,16.2,2.6c1.6,0,14.3,0.3,24.7-7.5
			c14.1-10.5,15-28.9,15.2-35c0.1-3,0.8-23.6-13.4-38.6c0,0-6.9-7.3-21.1-12.3c-1.5-0.5-4.2-1.4-6.5-0.3c-0.8,0.4-0.9,0.7-1.9,1.2
			c-0.7,0.4-1.5,0.6-2.7,0.8c-0.2,0-0.5,0.1-0.8,0.1c-0.5,0-1,0.1-1.6,0.1c-3.5,0.1-5.3,0.2-6.2-0.4c-0.6-0.3-2-1-2.4-1.2
			c-0.1,0-0.1-0.1-0.1-0.1s-0.4-0.3-0.8-0.6C1589.9,354.7,1589.2,353.4,1589.2,353.4z"/>
		<path class="st2" d="M1591.4,355.9c-1.7,1.3-5.1,4-7.5,6.9c-2.7,3.2-4.4,6.5-6,10.8c-0.5,1.4-1,2.9-1.6,4.5
			c-0.3,0.8-0.5,1.6-0.7,2.3c-1.8,5.7-3.1,10-3.9,14.5c-0.4,2.2-0.7,4.4-0.9,6.9c-0.4,4.9-0.8,10.6,0,16.6c0.4,2.7,1,5.6,2,8.4
			c0.6,1.8,1.4,3.6,2.4,5.5c0.1,0.1,0.1,0.2,0.2,0.4c2.9,5.6,4.8,10,9,11.5c0,0,0.4,0.1,1,0.3c0.9,0.2,2.3,0.4,3.8,0.3
			c4.2-0.4,8.6-3.9,12.4-9c1.1-1.4,2.1-3,3.1-4.7c1.4-2.3,2.7-4.8,3.9-7.4c1.8-4,3.3-8.3,4.4-12.3c0.7-2.7,1.6-6.3,2.2-10.4
			c0.7-4.7,1-10.1,0.1-15.9c-0.3-1.8-0.6-3.5-1.1-5.4c-0.5-1.9-1.2-3.9-2-5.9c-3-7.1-7.3-13.2-10.3-16.4"/>
		<path class="st2" d="M1571.7,394.8c0.6-0.1,1.2-0.3,1.9-0.3c5.1-0.6,8.6,0.3,8.6,0.3c0.6,0.1,0.9,0.3,1.1,0.1
			c0.3-0.2,0.2-0.9-0.1-1.8c-0.9-2.6-4-7.4-7.5-12.7c-1.5-2.2-3.1-4.5-4.6-6.7c-1.9,14.3-3.5,19.9-4.8,21.8c-0.1,0.2-0.7,1-0.4,1.4
			C1566.1,397.4,1568.2,395.7,1571.7,394.8z"/>
		<path class="st2" d="M1615.1,400.9c1.9,0.3,3.4,1,4.1,1.4c2.8,1.4,3.8,3.3,4.6,2.9c0.7-0.4,0.4-2.1,0-4.9
			c-0.7-4.8-1.6-8.9-3.4-17.3c-0.2-1.2-0.4-2.1-1-2.3c-1-0.3-2.5,1.6-4.2,4.3c-0.9,1.4-1.8,3.1-2.7,4.7c-1,1.8-2.2,3.9-3.1,5.8
			c-1.4,2.9-2.4,5.4-1.6,6.1c0.6,0.5,1.4-0.5,3.9-0.8C1612.9,400.7,1614,400.7,1615.1,400.9z"/>
		<path class="st2" d="M1583.4,392.9c0.4-1.7,1.6-7.8-1.1-13.5c-1.2-2.5-2.8-4.4-4.4-5.9c-3.4-3.1-7.1-4.2-7.9-4.4"/>
		<path class="st2" d="M1609.3,395.5c-0.6-2-0.9-4.6-0.8-5.9c0.4-4.4,3-7.7,5.5-9.9c2.3-2.1,4.6-3.2,5.1-3.5"/>
		<path class="st2" d="M1575.3,432.6c-3-1.5-6.2-3.5-9-6.5c-3.1-3.3-5-7.3-8.7-15.4c-0.4-0.8-1-2.3-0.7-2.5c0.3-0.2,1.4,0.9,2.2,1.6
			c1.4,1.4,4,4,6.4,5.6c1.3,0.9,3.3,2.1,5.3,2.9c1.4,0.6,2.8,1,3.9,1c0.1,0,0.4,0,0.6,0.1c1.2,0.8-1,4.4-0.4,6.6
			c0,0.1,0.1,0.2,0.1,0.3c1.4,3.3,8.7,4.7,10.6,2.4c1.4-1.7-0.4-4.8,1-5.7c0.8-0.5,1.8,0.3,3.6,0.9c5.3,1.7,10.2-1,10.7,0.1
			c0.1,0.3-0.2,0.4-0.6,1.3c-0.1,0.2-1.4,2.8-0.9,4.1c0.5,1.2,2.9,1.8,5.2,1.7c2-0.1,3.9-0.7,4.6-2c0.9-1.7-0.7-3.9-0.2-5.2
			c0.1-0.2,0.2-0.3,0.3-0.5c0.6-0.6,1.7-0.4,2.4-0.3c6.1,0.9,14-1.5,16.4-4.7c0.2-0.3,0.7-1,1-0.9c0.5,0.2-0.6,3.7-0.6,3.8
			c-1.7,5.5-12.1,11.1-23.6,13.6c-1.1,0.2-2.2,0.5-3.4,0.7c-4.3,0.8-9.3,1.4-15.3,0.3C1584.1,435.6,1579.9,434.8,1575.3,432.6z"/>
		<polygon class="st2" points="1593.9,406.1 1591.4,416.1 1599.7,416.1 		"/>
		<path class="st2" d="M1609.3,340.5c0.8-0.2,1.4-0.5,1.7-1.1c0.8-1.6-1.3-4.1-1.9-4.9c-3.7-4.5-10.6-6.2-13.8-4.2
			c-0.5,0.3-2.1,1.4-2.2,2.9c0,0.5,0.1,0.9,0.2,1.1c0.1,0.2,0.2,0.5,0.4,0.7c1.1,1.6,3.8,3.8,8.5,4.8
			C1603.3,340.2,1607,341,1609.3,340.5z"/>
		<path class="st2" d="M1589.2,353.4c-0.2-2.1-0.4-6.9,0.8-10.9c0.9-3,2.7-5.9,3.8-7.4"/>
		<path class="st2" d="M1609.3,340.5L1609.3,340.5c-1,1.2-2.1,3.3-3.1,5c-2.4,4.2-3.4,8.7-3.8,11.5"/>
		<path class="st2" d="M1605.2,335.1c-0.5-0.4-3.7-2.9-6.7-1.8c-0.2,0.1-1.8,0.7-1.8,1.6c0,1.1,3,2,4.9,2.3c1.4,0.2,3.5,0.2,3.6-0.2
			c0-0.3-0.9-0.9-5.5-2.3"/>
	</g>
</g>
<g id="græskar">
	<g>
		<path d="M355.6,398.6c0.4,2.8,0.7,4.5,0,4.9c-0.8,0.4-1.8-1.4-4.6-2.9c-0.7-0.4-2.2-1-4.1-1.4c0.7-4.7,1-10.1,0.1-15.9
			c1.7-2.7,3.2-4.6,4.2-4.3c0.6,0.2,0.8,1.1,1,2.3C354,389.6,354.9,393.8,355.6,398.6z"/>
		<path class="st3" d="M345.9,378c0.5,1.8,0.9,3.6,1.1,5.4c-0.9,1.4-1.8,3.1-2.7,4.7c-1,1.8-2.2,3.9-3.1,5.8c-0.6-2-0.9-4.6-0.8-5.9
			C340.8,383.5,343.3,380.2,345.9,378z"/>
		<path class="st3" d="M340.8,422.2c-0.5,1.3,1.1,3.5,0.2,5.2c-0.7,1.3-2.6,1.9-4.6,2c1.4-2.3,2.7-4.8,3.9-7.4L340.8,422.2z"/>
		<path d="M343.5,399.1c-2.5,0.3-3.3,1.3-3.9,0.8c-0.8-0.7,0.1-3.2,1.5-6.1c0.9-1.9,2.1-3.9,3.1-5.8c0.9-1.6,1.9-3.3,2.7-4.7
			c0.9,5.8,0.6,11.2-0.1,15.9C345.9,399,344.7,399,343.5,399.1z"/>
		<path class="st4" d="M334,338.3c1.2,0.3,4.9,1.1,7.2,0.5c-1,1.2-2.1,3.3-3.1,5c-2.4,4.2-3.4,8.7-3.8,11.5l0,0.4
			c-0.2,0-0.5,0.1-0.8,0.1c-0.5,0-1,0.1-1.6,0.1c-3.5,0.1-5.3,0.2-6.2-0.4c-0.6-0.3-2-1-2.4-1.2c-0.1,0-0.1-0.1-0.1-0.1
			s-0.4-0.3-0.8-0.6c-0.6-0.5-1.4-1.8-1.4-1.8c-0.2-2.1-0.4-6.9,0.8-10.9c0.9-3,2.7-5.9,3.8-7.4C326.6,335.1,329.3,337.2,334,338.3z
			"/>
		<path d="M360,416.8c0.2-0.3,0.7-1,1-0.9c0.5,0.2-0.6,3.7-0.6,3.8c-1.7,5.5-12.1,11.1-23.6,13.6c-1.1,0.2-2.2,0.5-3.4,0.7
			c1.1-1.4,2.1-3,3.1-4.7c2-0.1,3.9-0.7,4.6-2c0.9-1.7-0.7-3.9-0.2-5.2c0.1-0.2,0.2-0.3,0.3-0.5c0.6-0.6,1.7-0.4,2.4-0.3
			C349.7,422.4,357.6,419.9,360,416.8z"/>
		<path class="st4" d="M334,338.3c-4.6-1-7.4-3.2-8.5-4.8c-0.2-0.3-0.3-0.5-0.4-0.7c-0.1-0.2-0.2-0.6-0.2-1.1
			c0.1-1.6,1.7-2.6,2.2-2.9c3.1-2.1,10.1-0.4,13.8,4.2c0.6,0.8,2.7,3.4,1.9,4.9c-0.3,0.6-0.9,0.9-1.7,1.1
			C338.9,339.3,335.2,338.5,334,338.3z"/>
		<path class="st5" d="M333.3,434c-3.9,5.1-8.2,8.7-12.4,9c-1.5,0.1-2.9-0.1-3.8-0.3c-0.6-0.1-1-0.3-1-0.3c-4.2-1.5-6.1-5.9-9-11.5
			c4.6,2.2,8.8,3,10.9,3.4C324.1,435.3,329,434.8,333.3,434z"/>
		<polygon points="323.3,414.4 325.7,404.4 331.5,414.4 		"/>
		<path class="st3" d="M320.9,443c4.2-0.4,8.6-3.9,12.4-9c1.2-0.2,2.3-0.5,3.4-0.7c11.5-2.5,22-8.1,23.6-13.6
			c0.1-0.1,1.1-3.6,0.6-3.8c-0.2-0.1-0.8,0.6-1,0.9c-2.4,3.1-10.4,5.6-16.4,4.7c-0.8-0.1-1.8-0.3-2.4,0.3c-0.1,0.1-0.2,0.3-0.3,0.5
			l-0.5-0.2c1.8-4,3.3-8.3,4.4-12.3c0.7-2.7,1.6-6.3,2.2-10.4c1.9,0.3,3.4,1,4.1,1.4c2.8,1.4,3.8,3.3,4.6,2.9c0.7-0.4,0.4-2.1,0-4.9
			c-0.7-4.8-1.6-8.9-3.4-17.3c-0.2-1.2-0.4-2.1-1-2.3c-1-0.3-2.5,1.6-4.2,4.3c-0.3-1.8-0.6-3.5-1.1-5.4c-0.5-1.9-1.2-3.9-2-5.9
			c-3-7.1-7.3-13.2-10.3-16.4c0.3,0,0.5-0.1,0.8-0.1c1.3-0.2,2-0.4,2.7-0.8c1-0.5,1.1-0.8,1.9-1.2c2.3-1.2,5.1-0.3,6.5,0.3
			c14.3,5,21.1,12.3,21.1,12.3c14.2,15,13.6,35.6,13.4,38.6c-0.3,6.1-1.1,24.4-15.2,35c-10.4,7.8-23,7.6-24.7,7.5
			c-8.8-0.3-16.2-2.6-16.2-2.6c-1-0.3-5.5-1.8-6.7-2.1C318,442.9,319.4,443.1,320.9,443z"/>
		<path class="st3" d="M309.7,371.8c1.6,1.5,3.2,3.4,4.4,5.9c2.7,5.7,1.5,11.8,1.1,13.5l-0.3,0.1c-0.9-2.6-4-7.4-7.5-12.7
			c0.2-0.7,0.5-1.5,0.7-2.3C308.7,374.7,309.2,373.2,309.7,371.8z"/>
		<path d="M333.3,434c-4.3,0.8-9.3,1.3-15.3,0.3c-2.1-0.4-6.3-1.1-10.9-3.4c-0.1-0.1-0.1-0.2-0.2-0.4c-1-1.9-1.8-3.7-2.4-5.5
			l2.2-0.7c0,0.1,0.1,0.2,0.1,0.3c1.4,3.3,8.7,4.7,10.6,2.4c1.4-1.7-0.4-4.8,1-5.7c0.8-0.5,1.8,0.3,3.6,0.9c5.3,1.7,10.2-1,10.6,0.1
			c0.1,0.3-0.2,0.4-0.6,1.3c-0.1,0.2-1.4,2.8-0.9,4.1c0.5,1.2,2.9,1.8,5.2,1.7C335.5,431,334.4,432.5,333.3,434z"/>
		<path d="M307.1,417.7c1.2,0.8-1,4.4-0.4,6.6l-2.2,0.7c-1-2.9-1.6-5.7-2-8.4c1.4,0.6,2.8,1,3.9,1
			C306.7,417.6,306.9,417.6,307.1,417.7z"/>
		<path class="st5" d="M325.7,404.4l-2.5,10h8.3L325.7,404.4z M315.3,391.2c0.4-1.7,1.6-7.8-1.1-13.5c-1.2-2.5-2.8-4.4-4.4-5.9
			c1.6-4.3,3.3-7.6,6-10.8c2.4-2.9,5.8-5.6,7.5-6.9c0,0,0,0,0.1,0.1c0.4,0.3,1.8,0.9,2.4,1.2c0.9,0.5,2.7,0.5,6.2,0.4
			c0.6,0,1.1-0.1,1.6-0.1c3,3.1,7.3,9.2,10.3,16.4c0.8,2,1.5,4,2,5.9c-2.5,2.2-5.1,5.5-5.5,9.9c-0.1,1.3,0.2,3.9,0.8,5.9
			c-1.4,2.9-2.4,5.4-1.5,6.1c0.6,0.5,1.4-0.5,3.9-0.8c1.2-0.1,2.4-0.1,3.4,0.1c-0.6,4.1-1.5,7.6-2.2,10.4c-1.1,4.1-2.6,8.3-4.4,12.3
			c-1.2,2.6-2.5,5.1-3.9,7.4c-2.3,0.1-4.7-0.5-5.2-1.7c-0.5-1.3,0.8-3.9,0.9-4.1c0.5-0.9,0.7-1.1,0.6-1.3c-0.4-1.1-5.3,1.6-10.6-0.1
			c-1.9-0.6-2.8-1.4-3.6-0.9c-1.4,0.9,0.4,4-1,5.7c-1.9,2.3-9.2,0.9-10.6-2.4c0-0.1-0.1-0.2-0.1-0.3c-0.6-2.3,1.6-5.8,0.4-6.6
			c-0.2-0.1-0.5-0.1-0.6-0.1c-1.1,0-2.5-0.4-3.9-1c-0.8-6-0.4-11.6,0-16.6c0.2-2.5,0.5-4.7,0.9-6.9c0.6-0.1,1.2-0.3,1.9-0.3
			c5.1-0.6,8.6,0.3,8.6,0.3c0.6,0.1,0.9,0.3,1.1,0.1c0.3-0.2,0.2-0.9-0.1-1.8L315.3,391.2z"/>
		<path d="M315,391.4c0.4,0.9,0.4,1.5,0.1,1.8c-0.2,0.2-0.5,0.1-1.1-0.1c0,0-3.5-0.8-8.6-0.3c-0.7,0.1-1.3,0.2-1.9,0.3
			c0.8-4.5,2.1-8.8,3.9-14.5C311,383.9,314,388.8,315,391.4z"/>
		<path d="M302.8,371.9c1.6,2.2,3.1,4.5,4.6,6.7c-1.8,5.7-3.1,10-3.9,14.5c-3.5,0.9-5.6,2.6-6,2c-0.3-0.4,0.3-1.2,0.4-1.4
			C299.3,391.8,300.9,386.2,302.8,371.9z"/>
		<path d="M298.1,424.4c-3.1-3.3-5-7.3-8.6-15.4c-0.4-0.8-1-2.3-0.7-2.5s1.4,0.9,2.2,1.6c1.4,1.4,4,4,6.4,5.6
			c1.3,0.9,3.3,2.1,5.3,2.9c0.4,2.7,1,5.6,2,8.4c0.6,1.8,1.4,3.6,2.4,5.5c0.1,0.1,0.1,0.2,0.2,0.4
			C304.1,429.4,301,427.4,298.1,424.4z"/>
		<path class="st5" d="M316.1,442.4c0,0,0.4,0.1,1,0.3c-0.2,0-0.3,0-0.3,0c0,0.1,1.1,0.3,1.1,0.8c0.1,1.1-5.4,2.6-6.4,2.8
			c-11.1,2.7-21.4-5.4-26.2-9.2c-3.4-2.7-13.5-10.9-17.3-25.5c-6.6-24.7,10.8-44.6,14-48.3c6.5-7.5,15.6-14.5,23.5-14.5
			c2.2,0,3.8-0.1,11.7,1c0.7,0.1,3.4,1.3,3.7,1.9c0,0,0.8,1.3,1.4,1.8c0.4,0.3,0.8,0.6,0.8,0.6c-1.7,1.3-5.1,4-7.5,6.9
			c-2.6,3.2-4.4,6.5-6,10.8c-0.5,1.4-1,2.9-1.5,4.5c-0.3,0.8-0.5,1.6-0.7,2.3c-1.5-2.2-3.1-4.5-4.6-6.7c-1.9,14.3-3.5,19.9-4.9,21.8
			c-0.1,0.2-0.7,1-0.4,1.4c0.4,0.6,2.5-1.1,6-2c-0.4,2.2-0.7,4.4-0.9,6.9c-0.4,4.9-0.8,10.6,0,16.6c-1.9-0.8-4-2-5.3-2.9
			c-2.4-1.7-5-4.2-6.4-5.6c-0.8-0.8-1.9-1.9-2.2-1.6s0.3,1.7,0.7,2.5c3.7,8.1,5.5,12.1,8.6,15.4c2.9,3,6,5,9,6.5
			C310.1,436.5,311.9,440.8,316.1,442.4z"/>
	</g>
	<g>
		<path class="st2" d="M321,351.8c-0.3-0.6-3.1-1.8-3.7-1.9c-8-1.1-9.5-1-11.7-1c-7.9,0-17,7-23.5,14.5c-3.2,3.7-20.5,23.6-14,48.3
			c3.9,14.6,13.9,22.8,17.3,25.5c4.8,3.8,15.1,11.9,26.2,9.2c1-0.3,6.5-1.7,6.4-2.8c0-0.5-1.1-0.8-1.1-0.8c0,0,0.1,0,0.3,0
			c1.2,0.3,5.7,1.7,6.7,2.1c0,0,7.4,2.3,16.2,2.6c1.6,0,14.3,0.3,24.7-7.5c14.1-10.5,14.9-28.9,15.2-35c0.1-3,0.8-23.6-13.4-38.6
			c0,0-6.9-7.3-21.1-12.3c-1.4-0.5-4.2-1.4-6.5-0.3c-0.8,0.4-0.9,0.7-1.9,1.2c-0.7,0.4-1.5,0.6-2.7,0.8c-0.2,0-0.5,0.1-0.8,0.1
			c-0.5,0-1,0.1-1.6,0.1c-3.5,0.1-5.3,0.2-6.2-0.4c-0.6-0.3-2-1-2.4-1.2c-0.1,0-0.1-0.1-0.1-0.1s-0.4-0.3-0.8-0.6
			C321.8,353,321,351.8,321,351.8z"/>
		<path class="st2" d="M323.2,354.2c-1.7,1.3-5.1,4-7.5,6.9c-2.6,3.2-4.4,6.5-6,10.8c-0.5,1.4-1,2.9-1.5,4.5
			c-0.3,0.8-0.5,1.6-0.7,2.3c-1.8,5.7-3.1,10-3.9,14.5c-0.4,2.2-0.7,4.4-0.9,6.9c-0.4,4.9-0.8,10.6,0,16.6c0.4,2.7,1,5.6,2,8.4
			c0.6,1.8,1.4,3.6,2.4,5.5c0.1,0.1,0.1,0.2,0.2,0.4c2.9,5.6,4.8,10,9,11.5c0,0,0.4,0.1,1,0.3c0.9,0.2,2.3,0.4,3.8,0.3
			c4.2-0.4,8.6-3.9,12.4-9c1.1-1.4,2.1-3,3.1-4.7c1.4-2.3,2.7-4.8,3.9-7.4c1.8-4,3.3-8.3,4.4-12.3c0.7-2.7,1.6-6.3,2.2-10.4
			c0.7-4.7,1-10.1,0.1-15.9c-0.3-1.8-0.6-3.5-1.1-5.4c-0.5-1.9-1.2-3.9-2-5.9c-3-7.1-7.3-13.2-10.3-16.4"/>
		<path class="st2" d="M303.5,393.1c0.6-0.1,1.2-0.3,1.9-0.3c5.1-0.6,8.6,0.3,8.6,0.3c0.6,0.1,0.9,0.3,1.1,0.1
			c0.3-0.2,0.2-0.9-0.1-1.8c-0.9-2.6-4-7.4-7.5-12.7c-1.5-2.2-3.1-4.5-4.6-6.7c-1.9,14.3-3.5,19.9-4.9,21.8c-0.1,0.2-0.7,1-0.4,1.4
			C298,395.7,300.1,394,303.5,393.1z"/>
		<path class="st2" d="M346.9,399.2c1.9,0.3,3.4,1,4.1,1.4c2.8,1.4,3.8,3.3,4.6,2.9c0.7-0.4,0.4-2.1,0-4.9
			c-0.7-4.8-1.6-8.9-3.4-17.3c-0.2-1.2-0.4-2.1-1-2.3c-1-0.3-2.5,1.6-4.2,4.3c-0.9,1.4-1.8,3.1-2.7,4.7c-1,1.8-2.2,3.9-3.1,5.8
			c-1.4,2.9-2.4,5.4-1.5,6.1c0.6,0.5,1.4-0.5,3.9-0.8C344.7,399,345.9,399,346.9,399.2z"/>
		<path class="st2" d="M315.3,391.2c0.4-1.7,1.6-7.8-1.1-13.5c-1.2-2.5-2.8-4.4-4.4-5.9c-3.4-3.1-7-4.2-7.9-4.4"/>
		<path class="st2" d="M341.1,393.8c-0.6-2-0.9-4.6-0.8-5.9c0.4-4.4,3-7.7,5.5-9.9c2.3-2.1,4.6-3.2,5.1-3.5"/>
		<path class="st2" d="M307.1,430.9c-3-1.5-6.2-3.5-9-6.5c-3.1-3.3-5-7.3-8.6-15.4c-0.4-0.8-1-2.3-0.7-2.5s1.4,0.9,2.2,1.6
			c1.4,1.4,4,4,6.4,5.6c1.3,0.9,3.3,2.1,5.3,2.9c1.4,0.6,2.8,1,3.9,1c0.1,0,0.4,0,0.6,0.1c1.2,0.8-1,4.4-0.4,6.6
			c0,0.1,0.1,0.2,0.1,0.3c1.4,3.3,8.7,4.7,10.6,2.4c1.4-1.7-0.4-4.8,1-5.7c0.8-0.5,1.8,0.3,3.6,0.9c5.3,1.7,10.2-1,10.6,0.1
			c0.1,0.3-0.2,0.4-0.6,1.3c-0.1,0.2-1.4,2.8-0.9,4.1c0.5,1.2,2.9,1.8,5.2,1.7c2-0.1,3.9-0.7,4.6-2c0.9-1.7-0.7-3.9-0.2-5.2
			c0.1-0.2,0.2-0.3,0.3-0.5c0.6-0.6,1.7-0.4,2.4-0.3c6.1,0.9,14-1.5,16.4-4.7c0.2-0.3,0.7-1,1-0.9c0.5,0.2-0.6,3.7-0.6,3.8
			c-1.7,5.5-12.1,11.1-23.6,13.6c-1.1,0.2-2.2,0.5-3.4,0.7c-4.3,0.8-9.3,1.3-15.3,0.3C315.9,433.9,311.7,433.1,307.1,430.9z"/>
		<polygon class="st2" points="325.7,404.4 323.3,414.4 331.5,414.4 		"/>
		<path class="st2" d="M341.1,338.8c0.8-0.2,1.4-0.5,1.7-1.1c0.8-1.6-1.3-4.2-1.9-4.9c-3.7-4.5-10.6-6.2-13.8-4.2
			c-0.5,0.3-2.1,1.4-2.2,2.9c0,0.5,0.1,0.9,0.2,1.1c0.1,0.2,0.2,0.5,0.4,0.7c1.1,1.6,3.8,3.8,8.5,4.8
			C335.2,338.5,338.9,339.3,341.1,338.8z"/>
		<path class="st2" d="M321,351.8c-0.2-2.1-0.4-6.9,0.8-10.9c0.9-3,2.7-5.9,3.8-7.4"/>
		<path class="st2" d="M341.1,338.8L341.1,338.8c-1,1.2-2.1,3.3-3.1,5c-2.4,4.2-3.4,8.7-3.8,11.5"/>
		<path class="st2" d="M337,333.4c-0.5-0.4-3.7-2.9-6.7-1.8c-0.2,0.1-1.8,0.7-1.8,1.6c0,1.1,3,2,4.9,2.3c1.4,0.2,3.5,0.2,3.5-0.2
			c0-0.3-0.9-0.9-5.5-2.3"/>
	</g>
</g>
</svg>
