<svg id="fuld_øl_4" data-name="fuld øl 4" xmlns="http://www.w3.org/2000/svg" viewBox="0 0 45.48342 73.92122">
  <defs>
    <style>
      .cls-1 {
        fill: none;
      }

      .cls-1, .cls-3 {
        stroke: #000;
        stroke-miterlimit: 10;
      }

      .cls-2, .cls-3 {
        fill: #dabf5d;
      }

      .cls-4 {
        fill: #fff;
      }
    </style>
  </defs>
  <title>fuld øl 4</title>
  <g id="tom4">
    <path class="cls-1" d="M32.5244,18.609l.25087,7.25254q.81738,23.63265,1.63458,47.26526L4.86,73.41651Q3.65025,46.23519,2.44037,19.0539h0l-.18763-4.21554c.39807-.00461,14.43323-.16657,14.8393-.17124l.11664-.00134L32.382,14.49073Z"/>
    <g>
      <g>
        <path class="cls-2" d="M28.84317,58.64747h.01a.15979.15979,0,0,1-.05.1A.188.188,0,0,0,28.84317,58.64747Z"/>
        <path class="cls-2" d="M28.29317,56.64747c-.27-.55-.4-.85-.45-.97A10.32455,10.32455,0,0,1,28.29317,56.64747Z"/>
      </g>
      <path class="cls-1" d="M33.04317,24.67747a19.474,19.474,0,0,1,6.06,3.09c6.62,4.76,7.34,15.98,3.71,23.29-2.47,4.97-7.38,9.01-8.46,8.35a1.8122,1.8122,0,0,1-.17-2.09,1.55852,1.55852,0,0,1,.87-.58c1.31-.38,4.67-4.32,6.2-9.79.64-2.3,3.2-11.48-2.21-16.92a13.61453,13.61453,0,0,0-6.11-3.28"/>
    </g>
  </g>
  <g id="fuld4">
    <path class="cls-3" d="M20.81948,18.43549l-17.66225.44489h-.715Q3.65208,46.06169,4.86192,73.243l29.54981-.28971q-.8172-23.63264-1.63458-47.26526l-.25087-7.25253Z"/>
    <g>
      <path class="cls-4" d="M17.21274,14.49362h-.12c-.4,0-14.44.17-14.84.17-.15-.13-2.06-1.78-1.71-3.98.28-1.79,1.87-2.69,2.93-3.29a7.58765,7.58765,0,0,1,5.63-.72c.9.3,1.9.89,1.94.81,0-.07-.71-.34-1.04-.99a2.67611,2.67611,0,0,1,.14-2.12,5.57422,5.57422,0,0,1,2.79-3.37,5.38679,5.38679,0,0,1,4.96.22,7.58769,7.58769,0,0,1,3.11,4.19c.18.62.19.97.49,1.13.98.49,2.37-2.3,4.73-2.35a4.04835,4.04835,0,0,1,2.98,1.54,3.73749,3.73749,0,0,1,.67,3.51c-.36.89-1.19,1.45-1.12,1.53.06.07.66-.38.76-.45,1.75-1.24,8.5-.44,9.46,3.88.72,3.18-2.07,6.65-5.13,7.25-2.12.42-5.02-.43-5.45-1.8-.1-.3-.13-.78-.32-.81-.28-.05-.41.93-.99,1.48-1.2,1.17-4.57.78-5.54-1.08a3.55867,3.55867,0,0,1-.23-2.61c.13-.38.4-.9.32-.95-.05-.03-.2.17-.36.31a2.46112,2.46112,0,0,1-1.9.5C18.08274,16.31362,17.25274,14.58362,17.21274,14.49362Z"/>
      <g>
        <line class="cls-1" x1="17.21274" y1="14.49362" x2="17.31274" y2="14.49362"/>
        <path class="cls-1" d="M17.21274,14.49362h-.12c-.4,0-14.44.17-14.84.17"/>
        <path class="cls-1" d="M17.21274,14.49362c.04.09.87,1.82,2.16,2a2.46112,2.46112,0,0,0,1.9-.5c.16-.14.31-.34.36-.31.08.05-.19.57-.32.95a3.55867,3.55867,0,0,0,.23,2.61c.97,1.86,4.34,2.25,5.54,1.08.58-.55.71-1.53.99-1.48.19.03.22.51.32.81.43,1.37,3.33,2.22,5.45,1.8,3.06-.6,5.85-4.07,5.13-7.25-.96-4.32-7.71-5.12-9.46-3.88-.1.07-.7.52-.76.45-.07-.08.76-.64,1.12-1.53a3.73749,3.73749,0,0,0-.67-3.51,4.04835,4.04835,0,0,0-2.98-1.54c-2.36.05-3.75,2.84-4.73,2.35-.3-.16-.31-.51-.49-1.13a7.58769,7.58769,0,0,0-3.11-4.19,5.38679,5.38679,0,0,0-4.96-.22,5.57422,5.57422,0,0,0-2.79,3.37,2.67611,2.67611,0,0,0-.14,2.12c.33.65,1.04.92,1.04.99-.04.08-1.04-.51-1.94-.81a7.58765,7.58765,0,0,0-5.63.72c-1.06.6-2.65,1.5-2.93,3.29-.35,2.2,1.56,3.85,1.71,3.98"/>
      </g>
    </g>
  </g>
</svg>
