<?xml version="1.0" encoding="utf-8"?>
<!-- Generator: Adobe Illustrator 22.1.0, SVG Export Plug-In . SVG Version: 6.00 Build 0)  -->
<svg version="1.1" id="fuld_øl_3" xmlns="http://www.w3.org/2000/svg" xmlns:xlink="http://www.w3.org/1999/xlink" x="0px" y="0px"
	 viewBox="0 0 425.2 425.2" style="enable-background:new 0 0 425.2 425.2;" xml:space="preserve">
<style type="text/css">
	.st0{fill:#FFFFFF;}
	.st1{fill:#DABF5D;}
	.st2{fill:none;stroke:#000000;stroke-miterlimit:10;}
</style>
<g id="XMLID_6_">
	<g>
		<path class="st0" d="M221.7,197.3c-0.1-2.4-0.2-4.8-0.3-7.3c-0.4,0-13,0.1-14.9,0.2c-0.1,0-0.2,0-0.2,0h-0.1
			c-0.4,0-14.4,0.2-14.8,0.2c-0.1-0.1-2.1-1.8-1.7-4c0.3-1.8,1.9-2.7,2.9-3.3c0.3-0.1,2.9-1.6,5.6-0.7c0.9,0.3,1.9,0.9,1.9,0.8
			c0-0.1-0.7-0.3-1-1c-0.4-0.7-0.1-1.5,0.1-2.1c0.3-0.7,0.9-2.5,2.8-3.4c1.8-0.9,3.7-0.5,5,0.2c1.4,0.8,2.6,2.5,3.1,4.2
			c0.2,0.6,0.2,1,0.5,1.1c1,0.5,2.4-2.3,4.7-2.3c1.7,0,2.9,1.4,3,1.5c0.7,0.9,1.1,2.4,0.7,3.5c-0.4,0.9-1.2,1.4-1.1,1.5
			c0.1,0.1,0.7-0.4,0.8-0.5c1.8-1.2,8.5-0.4,9.5,3.9c0.7,3.2-2.1,6.6-5.1,7.3C222.5,197.3,222.1,197.3,221.7,197.3z"/>
		<path class="st0" d="M228.1,203.4c6.6,4.8,7.3,16,3.7,23.3c-2.5,5-7.4,9-8.5,8.4c-0.3-0.2-0.4-0.7-0.4-1.2c0-0.3,0.1-0.7,0.3-0.9
			c0.3-0.4,0.8-0.6,0.9-0.6c1.3-0.4,4.7-4.3,6.2-9.8c0.6-2.3,3.2-11.5-2.2-16.9c-1.9-1.9-4.6-2.9-6.1-3.3h-0.1c0-0.3,0-0.6,0-0.9
			c0-0.4,0-0.8,0-1.2l0.2,0C223.4,200.5,226.1,201.9,228.1,203.4z"/>
		<path class="st1" d="M217.4,195.4c0.4,1.1,2.4,1.9,4.2,1.9c0,1,0.1,1.9,0.1,2.9c0,0.4,0,0.8,0,1.2c0,0.3,0,0.6,0,0.9
			c0.4,10.5,0.7,21,1.1,31.5c0.2,5,0.4,9.9,0.5,14.9l-29.6,0.3c-0.8-18.1-1.6-36.2-2.4-54.3l0.5,0h0.2l17.7-0.5l0.4-0.1
			c0.1,0.4,0.2,0.7,0.3,0.9c1,1.9,4.3,2.3,5.5,1.1c0.6-0.5,0.7-1.5,1-1.5C217.3,194.6,217.3,195.1,217.4,195.4z"/>
		<path class="st0" d="M206.5,190.3c1.9,0,14.6-0.2,14.9-0.2c0.1,2.4,0.2,4.8,0.3,7.3c-1.9,0-3.9-0.8-4.2-1.9
			c-0.1-0.3-0.1-0.8-0.3-0.8c-0.3-0.1-0.4,0.9-1,1.5c-1.2,1.2-4.6,0.8-5.5-1.1c-0.1-0.2-0.2-0.5-0.3-0.9c-0.1-0.5-0.1-1.1,0.1-1.7
			c0.1-0.4,0.4-0.9,0.3-1c-0.1,0-0.2,0.2-0.4,0.3c-0.7,0.7-1.8,0.5-1.9,0.5c-1.3-0.2-1.9-1.4-1.9-1.5V190.3z"/>
		<path class="st0" d="M209.9,194.2l-17.7,0.5H192l-0.5,0c-0.1-1.4-0.1-2.8-0.2-4.2c0.4,0,14.4-0.2,14.8-0.2h0.1c0,0,0.1,0,0.2,0
			v0.5c0,0.1,0.6,1.3,1.9,1.5c0.1,0,1.2,0.2,1.9-0.5c0.2-0.1,0.3-0.3,0.4-0.3c0.1,0.1-0.2,0.6-0.3,1c-0.2,0.6-0.2,1.2-0.1,1.7
			L209.9,194.2z"/>
	</g>
	<g>
		<path class="st2" d="M221.7,197.3c-0.1-2.4-0.2-4.8-0.3-7.3c-0.4,0-13,0.1-14.9,0.2c-0.1,0-0.2,0-0.2,0h-0.1
			c-0.4,0-14.4,0.2-14.8,0.2c0.1,1.4,0.1,2.8,0.2,4.2c0.8,18.1,1.6,36.2,2.4,54.3l29.6-0.3c-0.2-5-0.4-9.9-0.5-14.9
			c-0.4-10.5-0.7-21-1.1-31.5c0-0.3,0-0.6,0-0.9c0-0.4,0-0.8,0-1.2C221.7,199.3,221.7,198.3,221.7,197.3z"/>
		<path class="st2" d="M222,200.2c1.4,0.2,4.1,1.6,6.2,3.1c6.6,4.8,7.3,16,3.7,23.3c-2.5,5-7.4,9-8.5,8.4c-0.3-0.2-0.4-0.7-0.4-1.2
			c0-0.3,0.1-0.7,0.3-0.9c0.3-0.4,0.8-0.6,0.9-0.6c1.3-0.4,4.7-4.3,6.2-9.8c0.6-2.3,3.2-11.5-2.2-16.9c-1.9-1.9-4.6-2.9-6.1-3.3"/>
		<path class="st2" d="M206.5,190.8c0,0.1,0.6,1.3,1.9,1.5c0.1,0,1.2,0.2,1.9-0.5c0.2-0.1,0.3-0.3,0.4-0.3c0.1,0.1-0.2,0.6-0.3,1
			c-0.2,0.6-0.2,1.2-0.1,1.7c0.1,0.4,0.2,0.7,0.3,0.9c1,1.9,4.3,2.3,5.5,1.1c0.6-0.5,0.7-1.5,1-1.5c0.2,0,0.2,0.5,0.3,0.8
			c0.4,1.1,2.4,1.9,4.2,1.9c0.4,0,0.8,0,1.2-0.1c3.1-0.6,5.9-4.1,5.1-7.3c-1-4.3-7.7-5.1-9.5-3.9c-0.1,0.1-0.7,0.5-0.8,0.5
			c-0.1-0.1,0.8-0.6,1.1-1.5c0.5-1.1,0.1-2.6-0.7-3.5c-0.1-0.1-1.3-1.6-3-1.5c-2.4,0.1-3.8,2.8-4.7,2.3c-0.3-0.2-0.3-0.5-0.5-1.1
			c-0.5-1.7-1.7-3.4-3.1-4.2c-1.3-0.7-3.2-1.1-5-0.2c-1.9,0.9-2.5,2.7-2.8,3.4c-0.2,0.6-0.5,1.4-0.1,2.1c0.3,0.6,1,0.9,1,1
			c0,0.1-1-0.5-1.9-0.8c-2.7-0.9-5.4,0.6-5.6,0.7c-1.1,0.6-2.6,1.5-2.9,3.3c-0.4,2.2,1.6,3.9,1.7,4"/>
		<polyline class="st2" points="192,194.7 192.2,194.7 209.9,194.2 		"/>
	</g>
</g>
</svg>
