<?xml version="1.0" encoding="utf-8"?>
<!-- Generator: Adobe Illustrator 22.1.0, SVG Export Plug-In . SVG Version: 6.00 Build 0)  -->
<svg version="1.1" id="fuld_øl_1" xmlns="http://www.w3.org/2000/svg" xmlns:xlink="http://www.w3.org/1999/xlink" x="0px" y="0px"
	 viewBox="0 0 425.2 425.2" style="enable-background:new 0 0 425.2 425.2;" xml:space="preserve">
<style type="text/css">
	.st0{fill:#FFFFFF;}
	.st1{fill:#EDAB41;}
	.st2{fill:none;stroke:#000000;stroke-miterlimit:10;}
</style>
<g id="øl">
	<g>
		<path class="st0" d="M230.6,171.7c0.2,2.5,0.3,4.9,0.3,7.2h-0.3l-10.4,0.3l-4.2,0.1c0.9-0.2,1.8-0.7,2.5-1.5
			c0.9-1.1,1.6-2.8,0.8-3.8c-1.1-1.3-1.1-1.2-1.1-1.3c4-0.1,8-0.3,12-0.4C230.3,172,230.5,171.9,230.6,171.7z"/>
		<path class="st1" d="M203.6,186.5c0.1,0.9,0.8,1.9,1.8,2c0.9,0.1,1.7-0.8,2-1.5c0.6-1.5-0.3-3.1,0-3.3c0.2-0.1,0.5,0.6,1.1,1
			c1.1,0.7,3,0.5,4.1-0.6c1.5-1.5,0.7-4,0.6-4.4c-0.3-1-1-1.8-0.9-1.9c0.1-0.1,0.6,0.8,1.6,1.2c0.6,0.3,1.4,0.3,2.1,0.2h0l4.2-0.1
			l10.4-0.3h0.3c0,5.4-0.4,10.1-0.8,14.3c-0.9,11.6-1.3,17.7-4,25c-0.6,1.6-1.5,3.8-2,7c-0.8,5.2,0,9.4,1,14
			c1.2,5.6,2.8,12.1,4.8,19.3c0,0.4-0.1,0.8-0.3,1.2c-0.9,1.6-3.3,2.4-5,3c-7.2,2.4-12.8,2.2-15,2c-0.7-0.1-7.8-1.1-8-3
			c0-0.3,0-0.9,0-1c1-4,3.9-16.4,4.6-19.5c1-4.6,1.8-8.8,1-14c-0.5-3.2-1.4-5.4-2-7c-2.7-7.3-3.1-13.4-4-25
			c-0.3-3.5-0.3-6.3-0.4-7.9c0.8,0,1.4-0.2,1.7-0.6c0.1-0.2,0.2-0.4,0.6-1c0.3-0.4,0.6-0.9,0.7-0.8
			C204,184.8,203.5,185.6,203.6,186.5z"/>
		<path class="st0" d="M203.8,184.8c-0.1,0-0.4,0.4-0.7,0.8c-0.4,0.6-0.5,0.8-0.6,1c-0.3,0.4-0.9,0.6-1.7,0.6c0-0.3,0-0.6,0-0.8
			c-0.1-3.5,0-6.7,0.2-9.6c0.1-1.3,0.1-2.6,0.2-3.7c5.7-0.2,11.3-0.4,17-0.6c0.1,0.2,0,0,1.1,1.3c0.8,1,0.1,2.7-0.8,3.8
			c-0.7,0.8-1.6,1.3-2.5,1.5h0c-0.8,0.2-1.5,0.1-2.1-0.2c-0.9-0.4-1.4-1.3-1.6-1.2c-0.1,0.1,0.5,0.9,0.9,1.9
			c0.1,0.4,0.9,2.9-0.6,4.4c-1.1,1.1-3,1.3-4.1,0.6c-0.7-0.4-0.9-1.1-1.1-1c-0.3,0.1,0.6,1.8,0,3.3c-0.3,0.7-1.1,1.6-2,1.5
			c-1-0.1-1.7-1.1-1.8-2C203.5,185.6,204,184.8,203.8,184.8z"/>
		<path class="st0" d="M200.6,169.7c1.1-0.2,1.9,0.2,2,0c0.1-0.1-0.1-0.4-1-1c-0.1-0.4-0.2-1.2,0-2c0.4-1.7,1.6-2.7,2-3
			c1.4-1.1,3.3-1.5,5-1c0.8,0.3,2.1,0.9,3,2c0.4,0.5,0.8,1.1,1,1c0.2-0.1,0-0.6,0-1c-0.1-1.5,1.4-3.3,3-4c2.2-1,4.6-0.2,6,1
			c1.7,1.5,2,3.7,2,4c0.2,1.5-0.3,2.9,0,3c0.2,0.1,0.5-0.5,1-1c1.4-1.3,4.7-1.7,6,0c0.8,1.1,0.8,2.9,0,4c-0.1,0.2-0.3,0.4-0.4,0.5
			c-4,0.1-8,0.3-12,0.4c-5.7,0.2-11.3,0.4-17,0.6c-0.1,1.1-0.2,2.4-0.2,3.7l-1,0c0-0.4-0.1-0.8-0.3-1.2c-0.3-0.5-0.5-0.4-1-1
			c-0.4-0.4-1-1.1-1-2c0-1,0.7-1.7,1-2C199.4,169.9,200.3,169.7,200.6,169.7z"/>
		<path class="st0" d="M201,176.9c-0.1,2.8-0.2,6-0.2,9.6c0,0.2,0,0.5,0,0.8c-0.9,0-2.1-0.3-2.9-0.9c-0.6-0.4-1-0.9-1.5-1.6
			c-1.1-1.5-2-2.7-1.8-4.1c0.4-1.8,2.5-3.3,4-3c0.3,0.1,0.7,0.2,1,0c0.2-0.2,0.3-0.5,0.3-0.8L201,176.9z"/>
	</g>
	<g>
		<path class="st2" d="M230.6,171.7c0.2,2.5,0.3,4.9,0.3,7.2c0,5.4-0.4,10.1-0.8,14.3c-0.9,11.6-1.3,17.7-4,25c-0.6,1.6-1.5,3.8-2,7
			c-0.8,5.2,0,9.4,1,14c1.2,5.6,2.8,12.1,4.8,19.3c0.1,0.2,0.1,0.5,0.2,0.7"/>
		<path class="st2" d="M216.1,179.2c0.9-0.2,1.8-0.7,2.5-1.5c0.9-1.1,1.6-2.8,0.8-3.8c-1.1-1.3-1.1-1.2-1.1-1.3"/>
		<path class="st2" d="M229.6,256.7c0.2,0.5,0.3,1.1,0.3,1.8c0,0.4-0.1,0.8-0.3,1.2c-0.9,1.6-3.3,2.4-5,3c-7.2,2.4-12.8,2.2-15,2
			c-0.7-0.1-7.8-1.1-8-3c0-0.3,0-0.9,0-1c1-4,3.9-16.4,4.6-19.5c1-4.6,1.8-8.8,1-14c-0.5-3.2-1.4-5.4-2-7c-2.7-7.3-3.1-13.4-4-25
			c-0.3-3.5-0.3-6.3-0.4-7.9c0-0.3,0-0.6,0-0.8c-0.1-3.5,0-6.7,0.2-9.6c0.1-1.3,0.1-2.6,0.2-3.7c5.7-0.2,11.3-0.4,17-0.6
			c4-0.1,8-0.3,12-0.4c0.1-0.1,0.3-0.3,0.4-0.5c0.8-1.1,0.8-2.9,0-4c-1.3-1.7-4.6-1.3-6,0c-0.5,0.5-0.8,1.1-1,1
			c-0.3-0.1,0.2-1.5,0-3c0-0.3-0.3-2.5-2-4c-1.4-1.2-3.8-2-6-1c-1.6,0.7-3.1,2.5-3,4c0,0.4,0.2,0.9,0,1c-0.2,0.1-0.6-0.5-1-1
			c-0.9-1.1-2.2-1.8-3-2c-1.7-0.5-3.6-0.1-5,1c-0.4,0.3-1.6,1.3-2,3c-0.2,0.8-0.1,1.6,0,2c0.9,0.6,1.1,0.9,1,1c-0.1,0.2-0.9-0.2-2,0
			c-0.4,0.1-1.3,0.3-2,1c-0.3,0.3-1,1-1,2c0,0.9,0.6,1.6,1,2c0.5,0.6,0.7,0.5,1,1c0.2,0.4,0.3,0.8,0.3,1.2c0,0.4-0.1,0.7-0.3,0.8
			c-0.3,0.2-0.7,0.1-1,0c-1.5-0.3-3.6,1.3-4,3c-0.3,1.4,0.6,2.6,1.8,4.1c0.5,0.7,0.9,1.1,1.5,1.6c0.9,0.6,2,0.9,2.9,0.9"/>
		<path class="st2" d="M200.8,187.2c0.8,0,1.4-0.2,1.7-0.6c0.1-0.2,0.2-0.4,0.6-1c0.3-0.4,0.6-0.9,0.7-0.8c0.1,0.1-0.4,0.8-0.3,1.7
			c0.1,0.9,0.8,1.9,1.8,2c0.9,0.1,1.7-0.8,2-1.5c0.6-1.5-0.3-3.1,0-3.3c0.2-0.1,0.5,0.6,1.1,1c1.1,0.7,3,0.5,4.1-0.6
			c1.5-1.5,0.7-4,0.6-4.4c-0.3-1-1-1.8-0.9-1.9c0.1-0.1,0.6,0.8,1.6,1.2c0.6,0.3,1.4,0.3,2.1,0.2h0l4.2-0.1l10.4-0.3"/>
	</g>
</g>
</svg>
