<svg id="fuld_øl_2" data-name="fuld øl 2" xmlns="http://www.w3.org/2000/svg" viewBox="0 0 39.05094 70.25232">
  <defs>
    <style>
      .cls-1 {
        fill: none;
        stroke: #000;
        stroke-miterlimit: 10;
      }

      .cls-2 {
        fill: #fde883;
      }

      .cls-3 {
        fill: #fff;
      }
    </style>
  </defs>
  <title>fuld øl 2</title>
  <g id="tom2">
    <g>
      <path class="cls-1" d="M5.43888,69.20452h.01a13.51806,13.51806,0,0,0,6.83-2.25c1.46-.98,4.57-3.06,4.95-6.62.48-4.45-3.64-7.8-4.88-8.44-.02-.02-.32-.17-.72-.37a26.41077,26.41077,0,0,0-2.99-1.23c-1.94-.7-5.56-4.74-6.33-5.83-2.8-3.97-2.86-18.48,3.57-36.52"/>
      <path class="cls-1" d="M5.47888,7.94452h26.41c6.44,18.04,6.37,32.55,3.57,36.52-.77,1.09-4.38,5.13-6.33,5.83a25.84029,25.84029,0,0,0-2.98,1.23c-.41.2-.71.35-.73.37-1.23.64-5.36,3.99-4.88,8.44.39,3.56,3.5,5.64,4.95,6.62a13.68222,13.68222,0,0,0,6.8,2.25h.04"/>
      <line class="cls-1" x1="5.47888" y1="69.57452" x2="32.25888" y2="69.57452"/>
    </g>
  </g>
  <g id="fuld2">
    <g id="øl">
      <path class="cls-2" d="M25.48533,67.13232a13.68222,13.68222,0,0,0,6.8,2.25l-.03.37h-26.78l-.03-.37a13.51806,13.51806,0,0,0,6.83-2.25c1.46-.98,4.57-3.06,4.95-6.62.48-4.45-3.64-7.8-4.88-8.44-.02-.02-.32-.17-.72-.37a26.41077,26.41077,0,0,0-2.99-1.23c-1.94-.7-5.56-4.74-6.33-5.83-2.43-3.45-2.8-14.84,1.36-29.6h30.44c4.15,14.76,3.78,26.15,1.35,29.6-.77,1.09-4.38,5.13-6.33,5.83a25.84029,25.84029,0,0,0-2.98,1.23c-.41.2-.71.35-.73.37-1.23.64-5.36,3.99-4.88,8.44C20.92533,64.07232,24.03533,66.15232,25.48533,67.13232Z"/>
      <g>
        <path class="cls-1" d="M5.43533,69.38232h.01a13.51806,13.51806,0,0,0,6.83-2.25c1.46-.98,4.57-3.06,4.95-6.62.48-4.45-3.64-7.8-4.88-8.44-.02-.02-.32-.17-.72-.37a26.41077,26.41077,0,0,0-2.99-1.23c-1.94-.7-5.56-4.74-6.33-5.83-2.43-3.45-2.8-14.84,1.36-29.6.02-.06.03-.11.05-.17"/>
        <path class="cls-1" d="M34.10533,15.04232c4.15,14.76,3.78,26.15,1.35,29.6-.77,1.09-4.38,5.13-6.33,5.83a25.84029,25.84029,0,0,0-2.98,1.23c-.41.2-.71.35-.73.37-1.23.64-5.36,3.99-4.88,8.44.39,3.56,3.5,5.64,4.95,6.62a13.68222,13.68222,0,0,0,6.8,2.25h.04"/>
        <line class="cls-1" x1="5.47533" y1="69.75232" x2="32.25533" y2="69.75232"/>
        <line class="cls-1" x1="34.10533" y1="15.04232" x2="3.66533" y2="15.04232"/>
      </g>
    </g>
    <g id="øl-2" data-name="øl">
      <path class="cls-3" d="M37.37082,16.8595c-.13,1.64-1.71,3.54-3.33,3.66-2.14.17-2.38-2.9-6.5-5.16-2.67-1.47-3.73-.82-5.33-2.5-1.5-1.57-1.65-3.26-3-3.5-.84-.15-1.23.4-2.5,1-2.35,1.09-6.01,1.51-7.5-.17a3.12569,3.12569,0,0,1-.67-3c.91-2.32,5.13-.98,7.83-4.17.84-.98,1.12-1.91,2-2,1.26-.12,1.63,1.7,3.17,2,1.95.39,2.73-2.24,5.5-2.5a5.22893,5.22893,0,0,1,4.67,2c.66,1.06.24,1.8,1.16,3.17a8.19838,8.19838,0,0,0,2,1.83c2.59,1.97,3.56,2.01,3.67,2.84.15,1.06-1.41,1.46-1.83,3.16C36.36082,14.9395,37.49082,15.4395,37.37082,16.8595Z"/>
      <g>
        <line class="cls-1" x1="5.49082" y1="69.5795" x2="32.27082" y2="69.5795"/>
        <path class="cls-1" d="M8.54082,7.1895c.91-2.32,5.13-.98,7.83-4.17.84-.98,1.12-1.91,2-2,1.26-.12,1.63,1.7,3.17,2,1.95.39,2.73-2.24,5.5-2.5a5.22893,5.22893,0,0,1,4.67,2c.66,1.06.24,1.8,1.16,3.17a8.19838,8.19838,0,0,0,2,1.83c2.59,1.97,3.56,2.01,3.67,2.84.15,1.06-1.41,1.46-1.83,3.16-.35,1.42.78,1.92.66,3.34-.13,1.64-1.71,3.54-3.33,3.66-2.14.17-2.38-2.9-6.5-5.16-2.67-1.47-3.73-.82-5.33-2.5-1.5-1.57-1.65-3.26-3-3.5-.84-.15-1.23.4-2.5,1-2.35,1.09-6.01,1.51-7.5-.17A3.12569,3.12569,0,0,1,8.54082,7.1895Z"/>
      </g>
    </g>
  </g>
</svg>
