<?xml version="1.0" encoding="utf-8"?>
<!-- Generator: Adobe Illustrator 22.1.0, SVG Export Plug-In . SVG Version: 6.00 Build 0)  -->
<svg version="1.1" id="fuld_øl_2" xmlns="http://www.w3.org/2000/svg" xmlns:xlink="http://www.w3.org/1999/xlink" x="0px" y="0px"
	 viewBox="0 0 425.2 425.2" style="enable-background:new 0 0 425.2 425.2;" xml:space="preserve">
<style type="text/css">
	.st0{fill:#FFFFFF;}
	.st1{fill:#FDE883;}
	.st2{fill:none;stroke:#000000;stroke-miterlimit:10;}
</style>
<g id="øl">
	<g>
		<path class="st0" d="M230.1,191.1c-0.3,1.4,0.8,1.9,0.7,3.3c-0.1,1.2-0.9,2.4-2,3.1c-0.8-3.8-2-7.8-3.5-12.1l1.5-1.6
			c0.3,0.3,0.8,0.7,1.4,1.2c2.6,2,3.6,2,3.7,2.8C232.1,189,230.5,189.4,230.1,191.1z"/>
		<path class="st0" d="M228.8,197.6c-0.4,0.3-0.9,0.5-1.4,0.5c-2.1,0.2-2.4-2.9-6.5-5.2c-1.2-0.6-2-0.9-2.8-1.1
			c-0.9-0.3-1.7-0.5-2.6-1.4c-1.5-1.6-1.6-3.3-3-3.5c-0.1,0-0.2,0-0.3,0v-1.4h13C226.8,189.8,228,193.9,228.8,197.6z"/>
		<path class="st0" d="M201.8,185.6h10.6v1.4c-0.7,0-1.1,0.5-2.2,1c-2.3,1.1-6,1.5-7.5-0.2C202.1,187.3,201.8,186.4,201.8,185.6z"/>
		<path class="st0" d="M226.3,183.3c0.2,0.2,0.3,0.4,0.6,0.6l-1.5,1.6h-13h-10.6c0-0.3,0.1-0.5,0.1-0.8c0.9-2.3,5.1-1,7.8-4.2
			c0.8-1,1.1-1.9,2-2c1.3-0.1,1.6,1.7,3.2,2c1.9,0.4,2.7-2.2,5.5-2.5c1.7-0.2,3.8,0.6,4.7,2C225.8,181.2,225.3,181.9,226.3,183.3z"
			/>
		<path class="st0" d="M215.6,190.5c0.9,0.9,1.6,1.1,2.6,1.4l-0.1,0.6h-21c0.6-2.2,1.3-4.6,2.2-6.9h2.5c0,0.9,0.3,1.7,0.8,2.2
			c1.5,1.7,5.2,1.3,7.5,0.2c1.1-0.5,1.6-1,2.2-1c0.1,0,0.2,0,0.3,0C214,187.2,214.1,188.9,215.6,190.5z"/>
		<path class="st1" d="M227.4,198.1c0.5,0,0.9-0.2,1.4-0.5c2.8,12.2,2.2,21.4,0.1,24.5c-0.8,1.1-4.4,5.1-6.3,5.8
			c-0.2,0.1-1.4,0.5-3,1.2c-0.4,0.2-0.7,0.4-0.7,0.4c-1.2,0.6-5.4,4-4.9,8.4c0.4,3.6,3.5,5.6,4.9,6.6c2.7,1.8,5.4,2.2,6.8,2.3l0,0.4
			h-26.8l0-0.4c1.4-0.1,4.1-0.4,6.8-2.3c1.5-1,4.6-3.1,4.9-6.6c0.5-4.4-3.6-7.8-4.9-8.4c0,0-0.3-0.2-0.7-0.4c-1.6-0.8-2.8-1.2-3-1.2
			c-1.9-0.7-5.6-4.7-6.3-5.8c-2.4-3.4-2.8-14.9,1.4-29.6h21l0.1-0.6c0.7,0.2,1.6,0.4,2.8,1.1C225.1,195.2,225.3,198.3,227.4,198.1z"
			/>
	</g>
	<g>
		<path class="st2" d="M198.8,246.8L198.8,246.8c1.4-0.1,4.1-0.4,6.8-2.3c1.5-1,4.6-3.1,4.9-6.6c0.5-4.4-3.6-7.8-4.9-8.4
			c0,0-0.3-0.2-0.7-0.4c-1.6-0.8-2.8-1.2-3-1.2c-1.9-0.7-5.6-4.7-6.3-5.8c-2.4-3.4-2.8-14.9,1.4-29.6c0.6-2.2,1.3-4.6,2.2-6.9"/>
		<path class="st2" d="M198.9,185.6h0.4h2.5h10.6h13c1.5,4.3,2.7,8.3,3.5,12.1c2.8,12.2,2.2,21.4,0.1,24.5c-0.8,1.1-4.4,5.1-6.3,5.8
			c-0.2,0.1-1.4,0.5-3,1.2c-0.4,0.2-0.7,0.4-0.7,0.4c-1.2,0.6-5.4,4-4.9,8.4c0.4,3.6,3.5,5.6,4.9,6.6c2.7,1.8,5.4,2.2,6.8,2.3
			c0,0,0,0,0,0"/>
		<line class="st2" x1="198.9" y1="247.2" x2="225.7" y2="247.2"/>
		<path class="st2" d="M201.8,185.6c0-0.3,0.1-0.5,0.1-0.8c0.9-2.3,5.1-1,7.8-4.2c0.8-1,1.1-1.9,2-2c1.3-0.1,1.6,1.7,3.2,2
			c1.9,0.4,2.7-2.2,5.5-2.5c1.7-0.2,3.8,0.6,4.7,2c0.7,1.1,0.2,1.8,1.2,3.2c0.2,0.2,0.3,0.4,0.6,0.6c0.3,0.3,0.8,0.7,1.4,1.2
			c2.6,2,3.6,2,3.7,2.8c0.2,1.1-1.4,1.5-1.8,3.2c-0.3,1.4,0.8,1.9,0.7,3.3c-0.1,1.2-0.9,2.4-2,3.1c-0.4,0.3-0.9,0.5-1.4,0.5
			c-2.1,0.2-2.4-2.9-6.5-5.2c-1.2-0.6-2-0.9-2.8-1.1c-0.9-0.3-1.7-0.5-2.6-1.4c-1.5-1.6-1.6-3.3-3-3.5c-0.1,0-0.2,0-0.3,0
			c-0.7,0-1.1,0.5-2.2,1c-2.3,1.1-6,1.5-7.5-0.2C202.1,187.3,201.8,186.4,201.8,185.6z"/>
		<polyline class="st2" points="218.1,192.5 197.1,192.5 197.1,192.5 		"/>
	</g>
</g>
</svg>
