<svg id="fuld_øl_1" data-name="fuld øl 1" xmlns="http://www.w3.org/2000/svg" viewBox="0 0 39.65096 105.52725">
  <defs>
    <style>
      .cls-1 {
        fill: none;
      }

      .cls-1, .cls-2, .cls-3 {
        stroke: #000;
        stroke-miterlimit: 10;
      }

      .cls-2 {
        fill: #edab41;
      }

      .cls-3 {
        fill: #fff;
      }
    </style>
  </defs>
  <title>fuld øl 1</title>
  <path id="tom1" class="cls-1" d="M9.3397,13.43845c.03,1.64-.25,18.48,0,22,.85,11.59,1.3,17.72,4,25a32.06254,32.06254,0,0,1,2,7c.83,5.24.02,9.36-1,14-.68,3.11-3.56,15.5-4.56,19.5a6.54105,6.54105,0,0,0,0,1c.2,1.86,7.3,2.95,8,3a38.90092,38.90092,0,0,0,15-2c1.74-.57,4.15-1.4,5-3a2.64057,2.64057,0,0,0,.3-1.21,4.69857,4.69857,0,0,0-.3-1.79l.5,2.5c-.07-.24-.13-.47-.2-.71-2-7.19-3.57-13.67-4.8-19.29-1.02-4.64-1.82-8.76-1-14a32.6373,32.6373,0,0,1,2-7c2.7-7.28,3.15-13.41,4-25,.31-4.22.74-15.6.75-21Z"/>
  <g id="fuld1">
    <path class="cls-2" d="M9.11466,20.47127c.03,1.64.09533,11.44718.34533,14.96718.85,11.59,1.3,17.72,4,25a32.06254,32.06254,0,0,1,2,7c.83,5.24.02,9.36-1,14-.68,3.11-3.56,15.5-4.56,19.5a6.54105,6.54105,0,0,0,0,1c.2,1.86,7.3,2.95,8,3a38.90092,38.90092,0,0,0,15-2c1.74-.57,4.15-1.4,5-3a2.64057,2.64057,0,0,0,.3-1.21,4.69857,4.69857,0,0,0-.3-1.79l.5,2.5c-.07-.24-.13-.47-.2-.71-2-7.19-3.57-13.67-4.8-19.29-1.02-4.64-1.82-8.76-1-14a32.6373,32.6373,0,0,1,2-7c2.7-7.28,3.15-13.41,4-25,.31-4.22.74-8.91.75-14.31Z"/>
    <path class="cls-3" d="M22.00359,19.50572h-.03a3.54484,3.54484,0,0,1-2.11-.16c-.92-.41-1.44-1.29-1.56-1.19-.12.09.54.88.87,1.93.12.36.92,2.86-.62,4.38a3.58187,3.58187,0,0,1-4.12.56c-.66-.41-.94-1.08-1.13-1-.31.14.64,1.79,0,3.25a2.30169,2.30169,0,0,1-2,1.5,2.27374,2.27374,0,0,1-1.81-2c-.12-.87.37-1.63.25-1.69-.1-.04-.42.42-.69.82-.42.62-.49.82-.62,1a2.15512,2.15512,0,0,1-1.69.61,5.49429,5.49429,0,0,1-2.94-.86,5.784,5.784,0,0,1-1.5-1.57c-1.11-1.48-2.04-2.72-1.75-4.12.36-1.75,2.53-3.28,4-3,.28.05.7.22,1,0a1.0229,1.0229,0,0,0,.31-.83,2.46661,2.46661,0,0,0-.31-1.17c-.27-.48-.49-.42-1-1a3.20531,3.20531,0,0,1-1-2,2.82,2.82,0,0,1,1-2,3.74712,3.74712,0,0,1,2-1c1.11-.18,1.9.21,2,0,.05-.11-.11-.37-1-1a4.88009,4.88009,0,0,1,0-2,5.18057,5.18057,0,0,1,2-3,5.68454,5.68454,0,0,1,5-1,6.84608,6.84608,0,0,1,3,2c.4.46.81,1.09,1,1,.17-.07.03-.63,0-1-.11-1.51,1.4-3.26,3-4a5.69847,5.69847,0,0,1,6,1,6.47976,6.47976,0,0,1,2,4c.17,1.54-.32,2.88,0,3,.22.08.5-.53,1-1,1.4-1.32,4.69-1.73,6,0a3.65233,3.65233,0,0,1,0,4,3.31089,3.31089,0,0,1-.43.5l-12.02.41a16.07827,16.07827,0,0,0,1.14,1.34c.82.97.13,2.72-.75,3.81a4.34528,4.34528,0,0,1-2.49,1.48"/>
  </g>
</svg>
