<?xml version="1.0" encoding="utf-8"?>
<!-- Generator: Adobe Illustrator 22.1.0, SVG Export Plug-In . SVG Version: 6.00 Build 0)  -->
<svg version="1.1" id="fuld_øl_3" xmlns="http://www.w3.org/2000/svg" xmlns:xlink="http://www.w3.org/1999/xlink" x="0px" y="0px"
	 viewBox="0 0 425.2 425.2" style="enable-background:new 0 0 425.2 425.2;" xml:space="preserve">
<style type="text/css">
	.st0{fill:#FFFFFF;}
	.st1{fill:#947613;}
	.st2{fill:none;stroke:#000000;stroke-miterlimit:10;}
</style>
<g id="øl">
	<g>
		<path d="M221.8,188.4l1,0C222.4,188.5,222,188.4,221.8,188.4z"/>
		<path d="M219.8,188.5l2-0.1C221.4,188.5,220.8,188.5,219.8,188.5z"/>
		<path class="st0" d="M213.7,190.8c0.2-0.3,0.4-1,0.6-1.5l10.3-0.4l-0.1,2.3l-11.4,0.4c0.1,0,0.1-0.1,0.2-0.2
			C213.4,191.1,213.6,190.9,213.7,190.8z"/>
		<path class="st0" d="M208.8,192c-0.8-0.6-1.1-1.6-1.4-1.6l0-0.9l6.9-0.3c-0.2,0.6-0.4,1.2-0.6,1.5c-0.1,0.2-0.2,0.3-0.4,0.5
			c-0.1,0.1-0.1,0.1-0.2,0.2C211.9,192.6,209.9,192.8,208.8,192z"/>
		<path class="st1" d="M208.8,192c1.1,0.8,3.1,0.6,4.3-0.6l11.4-0.4L222,244h-15.3l-4-48.2c1.3,0.1,2.6-0.6,3.2-1.4
			c0.4-0.5,0.9-1.6,1.1-2.7c0.1-0.6,0.1-1.1,0.3-1.2c0,0,0,0,0,0C207.7,190.4,207.9,191.4,208.8,192z"/>
		<path class="st0" d="M202.3,189.7l5.1-0.2l0,0.9c0,0,0,0,0,0c-0.2,0.1-0.2,0.6-0.3,1.2c-0.2,1.2-0.7,2.2-1.1,2.7
			c-0.6,0.8-1.9,1.6-3.2,1.4l-0.4-5.3V189.7z"/>
		<path class="st0" d="M206.3,244.5l-4.1-48.8c0.2,0.1,0.3,0.1,0.5,0.1l4,48.2H222l2.4-52.9l0.1-2.3l-10.3,0.4
			c0.1-0.2,0.1-0.4,0.2-0.5l5.4-0.2c1,0,1.6,0,2-0.1c0,0,0,0,0,0c0.1,0,0.5,0.1,1,0h0l2.3-0.1l-2.6,56.2H206.3z"/>
		<path class="st0" d="M201.8,190.5v-1.3l12.3-0.5c0,0,0,0,0,0l0.4,0c0,0.1-0.1,0.3-0.2,0.5l-6.9,0.3l-5.1,0.2v0.8l0.4,5.3
			c-0.2,0-0.3,0-0.5-0.1L201.8,190.5z"/>
		<path class="st0" d="M199.6,191.7c0-1.8,1.2-3.7,2.3-3.8c0.2,0,0.5,0,0.6-0.2c0.1-0.2-0.3-0.5-0.6-0.8c-0.7-0.7-0.9-2.2-0.4-3.3
			c0.6-1.1,2-1.5,3.1-1.4c1.8,0.2,3,2,3.3,1.8c0.2-0.2-0.6-0.9-0.4-1.8c0.3-1.1,2.3-1.5,2.8-1.6c0.5-0.1,2.9-0.6,3.7,0.6
			c0.6,0.8,0.2,1.9,0.9,2.3c0.1,0,0.3,0.2,0.6,0.1c0.4-0.1,0.6-0.4,0.7-0.5c0.5-0.8,2.1-1.4,3.3-1.3c1.3,0.2,2.4,1.3,2.2,2
			c-0.1,0.4-0.6,0.6-0.5,0.8c0.1,0.2,0.4,0.1,0.8,0.2c0.4,0,1.7,0.1,2.1,0.8c0.3,0.6,0,1.3-0.1,1.4c-0.4,0.7-1,1.2-1.3,1.3h0l-1,0
			c0,0,0,0,0,0l-2,0.1c-1.2,0-3,0.1-5.4,0.2c-0.1,0-0.2,0-0.4,0c0,0,0,0,0,0l-12.3,0.5v1.3l0.4,5.2c-0.1,0-0.2-0.1-0.3-0.1
			C200.2,195,199.6,193,199.6,191.7z"/>
	</g>
	<g>
		<polyline class="st2" points="214,188.7 201.8,189.3 201.8,190.5 202.2,195.7 206.3,244.5 222.5,244.5 225.1,188.3 222.8,188.4 		
			"/>
		<polyline class="st2" points="221.8,188.4 219.8,188.5 214.4,188.7 214.1,188.7 		"/>
		<line class="st2" x1="222.8" y1="188.4" x2="221.8" y2="188.4"/>
		<path class="st2" d="M214.5,188.4c0,0.1,0,0.2-0.1,0.3c0,0,0,0,0,0c0,0.1-0.1,0.3-0.2,0.5c-0.2,0.6-0.4,1.2-0.6,1.5
			c-0.1,0.2-0.2,0.3-0.4,0.5c-0.1,0.1-0.1,0.1-0.2,0.2c-1.2,1.2-3.2,1.3-4.3,0.6c-0.8-0.6-1.1-1.6-1.4-1.6c0,0,0,0,0,0
			c-0.2,0.1-0.2,0.6-0.3,1.2c-0.2,1.2-0.7,2.2-1.1,2.7c-0.6,0.8-1.9,1.6-3.2,1.4c-0.2,0-0.3,0-0.5-0.1c-0.1,0-0.2-0.1-0.3-0.1
			c-1.7-0.6-2.3-2.6-2.3-3.9c0-1.8,1.2-3.7,2.3-3.8c0.2,0,0.5,0,0.6-0.2c0.1-0.2-0.3-0.5-0.6-0.8c-0.7-0.7-0.9-2.2-0.4-3.3
			c0.6-1.1,2-1.5,3.1-1.4c1.8,0.2,3,2,3.3,1.8c0.2-0.2-0.6-0.9-0.4-1.8c0.3-1.1,2.3-1.5,2.8-1.6c0.5-0.1,2.9-0.6,3.7,0.6
			c0.6,0.8,0.2,1.9,0.9,2.3c0.1,0,0.3,0.2,0.6,0.1c0.4-0.1,0.6-0.4,0.7-0.5c0.5-0.8,2.1-1.4,3.3-1.3c1.3,0.2,2.4,1.3,2.2,2
			c-0.1,0.4-0.6,0.6-0.5,0.8c0.1,0.2,0.4,0.1,0.8,0.2c0.4,0,1.7,0.1,2.1,0.8c0.3,0.6,0,1.3-0.1,1.4c-0.4,0.7-1,1.2-1.3,1.3h0
			c-0.4,0.1-0.9,0-1,0c0,0,0,0,0,0c-0.4,0.1-1.1,0.1-2,0.1c-1.2,0-3,0.1-5.4,0.2c-0.1,0-0.2,0-0.4,0c0,0,0,0,0,0"/>
		<polyline class="st2" points="212.6,191.4 213.1,191.4 224.5,191.1 224.5,191.1 		"/>
	</g>
</g>
</svg>
