<svg id="fuld_øl_3" data-name="fuld øl 3" xmlns="http://www.w3.org/2000/svg" viewBox="0 0 26.45775 65.60667">
  <defs>
    <style>
      .cls-1 {
        fill: #947613;
      }

      .cls-2 {
        fill: none;
        stroke: #000;
        stroke-miterlimit: 10;
      }

      .cls-3 {
        fill: #fff;
      }
    </style>
  </defs>
  <title>fuld øl 3</title>
  <g id="tom3">
    <path d="M23.81078,65.60667H6.64916l-4.52-54.41944-.002-1.77636L26.45775,8.38206Zm-16.2417-1H22.8557L25.408,9.427l-22.28077.94287v.77588Z"/>
  </g>
  <g id="fuld3">
    <g id="øl">
      <g>
        <polygon class="cls-1" points="25.846 11.675 22.896 64.605 7.606 64.605 3.196 12.065 25.846 11.675"/>
        <polygon class="cls-1" points="25.846 11.675 3.196 12.065 3.166 11.675 25.846 11.675"/>
      </g>
      <g>
        <polyline class="cls-2" points="2.746 12.075 7.146 65.105 23.376 65.105 25.846 11.675"/>
        <polyline class="cls-2" points="2.746 12.075 3.196 12.065 25.846 11.675"/>
      </g>
    </g>
    <g id="øl-2" data-name="øl">
      <path class="cls-3" d="M15.2905,8.694a12.405,12.405,0,0,1-.77,2.04,3.62782,3.62782,0,0,1-4.89,1.25c-.87-.58-1.09-1.64-1.43-1.55-.22.06-.22.55-.32,1.15a6.75711,6.75711,0,0,1-1.07,2.74,3.72938,3.72938,0,0,1-4.05,1.27c-1.7-.62-2.28-2.57-2.26-3.89.03-1.81,1.22-3.67,2.26-3.81.17-.02.54-.02.6-.2.08-.2-.34-.48-.6-.75a3.0146,3.0146,0,0,1-.35-3.25,3.12986,3.12986,0,0,1,3.05-1.39c1.83.19,3.02,2.02,3.3,1.78.2-.16-.58-.94-.36-1.78.3-1.15,2.25-1.53,2.78-1.63.51-.1,2.88-.56,3.73.6.58.78.17,1.93.91,2.34a.969.969,0,0,0,.64.12,1.19343,1.19343,0,0,0,.67-.52,3.98834,3.98834,0,0,1,3.29-1.27c1.26.18,2.37,1.34,2.23,1.98-.09.37-.56.56-.48.76.06.15.39.13.75.16.38.02,1.69.11,2.11.79a1.64685,1.64685,0,0,1-.08,1.43,3.03545,3.03545,0,0,1-1.27,1.29,2.94676,2.94676,0,0,1-1,.04C21.7605,8.514,19.6405,8.424,15.2905,8.694Z"/>
      <g>
        <path class="cls-2" d="M15.2905,8.694l-.39.03"/>
        <path class="cls-2" d="M15.2905,8.694a12.405,12.405,0,0,1-.77,2.04,3.62782,3.62782,0,0,1-4.89,1.25c-.87-.58-1.09-1.64-1.43-1.55-.22.06-.22.55-.32,1.15a6.75711,6.75711,0,0,1-1.07,2.74,3.72938,3.72938,0,0,1-4.05,1.27c-1.7-.62-2.28-2.57-2.26-3.89.03-1.81,1.22-3.67,2.26-3.81.17-.02.54-.02.6-.2.08-.2-.34-.48-.6-.75a3.0146,3.0146,0,0,1-.35-3.25,3.12986,3.12986,0,0,1,3.05-1.39c1.83.19,3.02,2.02,3.3,1.78.2-.16-.58-.94-.36-1.78.3-1.15,2.25-1.53,2.78-1.63.51-.1,2.88-.56,3.73.6.58.78.17,1.93.91,2.34a.969.969,0,0,0,.64.12,1.19343,1.19343,0,0,0,.67-.52,3.98834,3.98834,0,0,1,3.29-1.27c1.26.18,2.37,1.34,2.23,1.98-.09.37-.56.56-.48.76.06.15.39.13.75.16.38.02,1.69.11,2.11.79a1.64685,1.64685,0,0,1-.08,1.43,3.03545,3.03545,0,0,1-1.27,1.29,2.94676,2.94676,0,0,1-1,.04C21.7605,8.514,19.6405,8.424,15.2905,8.694Z"/>
        <path class="cls-2" d="M15.3805,8.384a2.06933,2.06933,0,0,1-.09.31"/>
      </g>
    </g>
  </g>
</svg>
