<?xml version="1.0" encoding="utf-8"?>
<!-- Generator: Adobe Illustrator 22.1.0, SVG Export Plug-In . SVG Version: 6.00 Build 0)  -->
<svg version="1.1" id="hyldeVenster" xmlns="http://www.w3.org/2000/svg" xmlns:xlink="http://www.w3.org/1999/xlink" x="0px"
	 y="0px" viewBox="0 0 425.2 425.2" style="enable-background:new 0 0 425.2 425.2;" xml:space="preserve">
<style type="text/css">
	.st0{fill:#6A4C1C;}
	.st1{fill:#493618;}
	.st2{fill:none;stroke:#000000;stroke-miterlimit:10;}
	.st3{fill:#F3F1E7;}
	.st4{fill:#EFEBDB;}
	.st5{fill:#FFF205;}
	.st6{fill:#F7F3E1;}
	.st7{fill:#F8F8F8;}
</style>
<g id="hylder">
	<g>
		<polygon class="st0" points="32.2,171.8 32.2,191.5 85.6,191.5 332.5,191.5 385.7,191.5 385.7,171.8 		"/>
		<circle class="st1" cx="85.6" cy="200.8" r="9.4"/>
		<circle class="st1" cx="332.5" cy="200.8" r="9.4"/>
	</g>
	<g>
		<circle class="st2" cx="85.6" cy="200.8" r="9.4"/>
		<circle class="st2" cx="332.5" cy="200.8" r="9.4"/>
		<polygon class="st2" points="332.5,191.5 385.7,191.5 385.7,171.8 32.2,171.8 32.2,191.5 85.6,191.5 		"/>
	</g>
</g>
<g id="lys">
	<g>
		<path class="st3" d="M233.6,238.8c0.5,0,0.9,0.1,0.9,0.1c0,0,0.3,0.1,0.5,0.3c0.1,0.1,0.3,0.4,0,2.4c-0.2,1.2-0.4,2.1-0.5,2.4
			c-0.2,1.1-0.3,2-0.5,3.3c-0.1,0.7-0.2,2.2,0,6.2c0.3,5.4,0.4,8.1,1.4,9.5c0.2,0.3,0.7,0.9,1,1.9c0.3,1.1,0.1,2,0,2.9s-0.1,2,0,4.3
			c0.1,4,0.8,4.8,0.5,7.6c-0.1,1.1-0.2,1.7-0.5,2.4c-1.5,4.1-7.2,5.9-11,6.2c-3.5,0.2-8-0.1-8.6-1.9c-0.2-0.6,0.2-0.8,0.7-3.1
			c0-0.1,0.3-1.6,0.5-3.3c0.1-1.4,0-2,0-3.8c-0.1-3.6,0.1-3.8,0-6.2c-0.1-2.2-0.3-3.7-0.5-4.8c-0.7-5.4-0.1-6.9-0.5-14.3
			c-0.1-2-0.4-5.4-1-12.4c-0.3-3.9-0.6-7.3,0.5-7.6c0.1,0.2,1.2,1.5,1.4,1.9c0,0,0.3,0.6,0.7,1.2c1.4,2.4,2.1,3.6,2.9,4.3
			c0.4,0.4,1.6,1.6,3.3,2.3c0.9,0.4,1.8,0.6,2.9,0.5c0.8,0,2.1-0.1,3.3-1c0.2-0.2,0.7-0.8,1.6-1.2c0,0,0,0,0,0
			c0.2-0.1,0.4-0.1,0.4-0.1C233.3,238.9,233.4,238.9,233.6,238.8L233.6,238.8z"/>
		<path class="st4" d="M232,238.6c0.1,0,0.3,0.1,0.5,0.2c0.2,0.1,0.3,0.2,0.4,0.3c0,0,0,0,0,0c-0.9,0.4-1.4,1.1-1.6,1.2
			c-1.2,0.8-2.6,0.9-3.3,1c-1.1,0.1-2.1-0.2-2.9-0.5l1.2-0.7c-0.2-0.2-0.4-0.5-0.5-1c-0.1-0.6-0.1-1,0-1.4c0-0.1,0-0.2,0.1-0.3
			c0.3,0.1,0.6,0.2,0.9,0.3c1.1,0.4,2.3,0.8,3.8,1c0.2,0,0.2,0,0.4,0C231.4,238.6,231.7,238.6,232,238.6z"/>
		<path class="st3" d="M229.1,218.6C229.1,218.6,229.1,218.6,229.1,218.6C228.8,217.9,228.8,217.7,229.1,218.6z"/>
		<path class="st5" d="M226.2,233.4c-1.6-0.3-2.7-1.9-2.9-3.3c-0.1-1,0.3-2,0.5-2.4c0.2-0.4,0.3-0.7,0.5-1c0.3-0.6,0.6-0.9,1.4-1.9
			c1.1-1.3,1.2-1.5,1.4-1.9c0.3-0.6,0.1-0.5,0.5-1.4c0.5-1.4,1.2-2.5,1.4-2.8c0.5,1.7,2,6.5,2.4,8.5c0.3,1.7,0.4,2.5,0,3.3
			c-0.7,1.4-2.2,2.1-2.9,2.4c-0.8,0.3-1.4,0.6-2.3,0.5C226.3,233.4,226.3,233.4,226.2,233.4z"/>
		<path class="st4" d="M219.1,232.4c2.2,1.7,2.3,2.3,3.8,3.3c1,0.7,2,1.2,2.9,1.6c0,0.1,0,0.2-0.1,0.3c-0.1,0.4-0.1,0.9,0,1.4
			c0.1,0.4,0.3,0.7,0.5,1l-1.2,0.7c-1.7-0.7-2.9-1.9-3.3-2.3c-0.7-0.7-1.4-1.9-2.9-4.3c-0.4-0.6-0.7-1.2-0.7-1.2
			c-0.2-0.4-1.3-1.6-1.4-1.9C217.1,230.8,217.8,231.4,219.1,232.4z"/>
	</g>
	<g>
		<path class="st2" d="M216.7,231c0.1,0.2,1.2,1.5,1.4,1.9c0,0,0.3,0.6,0.7,1.2c1.4,2.4,2.1,3.6,2.9,4.3c0.4,0.4,1.6,1.6,3.3,2.3
			c0.9,0.4,1.8,0.6,2.9,0.5c0.8,0,2.1-0.1,3.3-1c0.2-0.2,0.7-0.8,1.6-1.2c0,0,0,0,0,0c0.2-0.1,0.4-0.1,0.4-0.1
			c0.1,0,0.2-0.1,0.4-0.1h0c0.5,0,0.9,0.1,0.9,0.1c0,0,0.3,0.1,0.5,0.3c0.1,0.1,0.3,0.4,0,2.4c-0.2,1.2-0.4,2.1-0.5,2.4
			c-0.2,1.1-0.3,2-0.5,3.3c-0.1,0.7-0.2,2.2,0,6.2c0.3,5.4,0.4,8.1,1.4,9.5c0.2,0.3,0.7,0.9,1,1.9c0.3,1.1,0.1,2,0,2.9s-0.1,2,0,4.3
			c0.1,4,0.8,4.8,0.5,7.6c-0.1,1.1-0.2,1.7-0.5,2.4c-1.5,4.1-7.2,5.9-11,6.2c-3.5,0.2-8-0.1-8.6-1.9c-0.2-0.6,0.2-0.8,0.7-3.1
			c0-0.1,0.3-1.6,0.5-3.3c0.1-1.4,0-2,0-3.8c-0.1-3.6,0.1-3.8,0-6.2c-0.1-2.2-0.3-3.7-0.5-4.8c-0.7-5.4-0.1-6.9-0.5-14.3
			c-0.1-2-0.4-5.4-1-12.4C215.9,234.7,215.6,231.4,216.7,231c0.4-0.1,1.1,0.4,2.4,1.4c2.2,1.7,2.3,2.3,3.8,3.3c1,0.7,2,1.2,2.9,1.6
			c0.3,0.1,0.6,0.2,0.9,0.3c1.1,0.4,2.3,0.8,3.8,1c0.2,0,0.2,0,0.4,0c0.5,0,0.7,0,1,0c0.1,0,0.3,0.1,0.5,0.2
			c0.2,0.1,0.3,0.2,0.4,0.3c0,0,0,0,0,0"/>
		<path class="st2" d="M229.1,218.6C228.8,217.9,228.8,217.7,229.1,218.6C229.1,218.6,229.1,218.6,229.1,218.6z"/>
		<path class="st2" d="M229.1,218.6c-0.2,0.3-0.9,1.4-1.4,2.8c-0.3,0.9-0.2,0.9-0.5,1.4c-0.2,0.4-0.3,0.6-1.4,1.9
			c-0.8,1-1.1,1.3-1.4,1.9c-0.1,0.2-0.3,0.5-0.5,1c-0.2,0.4-0.6,1.4-0.5,2.4c0.1,1.4,1.3,3,2.9,3.3c0,0,0.1,0,0.1,0
			c0.8,0.1,1.5-0.2,2.3-0.5c0.6-0.3,2.2-0.9,2.9-2.4c0.4-0.8,0.3-1.6,0-3.3C231.1,225.1,229.6,220.3,229.1,218.6"/>
		<path class="st2" d="M226.2,240c-0.2-0.2-0.4-0.5-0.5-1c-0.1-0.6-0.1-1,0-1.4c0-0.1,0-0.2,0.1-0.3c0.2-1,0.4-1.7,0.4-2
			c0.1-0.5,0.2-1.1,0.1-1.9c0-0.3-0.1-0.6-0.1-1"/>
	</g>
</g>
<g id="lys_1_">
	<g>
		<path class="st3" d="M332.4,251.3c-0.5,0-0.9,0.1-0.9,0.1c0,0-0.3,0.1-0.5,0.3c-0.1,0.1-0.3,0.3,0,1.8c0.2,0.9,0.4,1.6,0.5,1.8
			c0.3,0.9,0.3,1.5,0.5,2.5c0.1,0.5,0.2,1.6,0,4.6c-0.3,4-0.4,6.1-1.4,7.1c-0.2,0.2-0.7,0.7-1,1.4c-0.3,0.8-0.1,1.5,0,2.1
			c0.1,0.7,0.1,1.5,0,3.2c-0.1,3-0.8,3.6-0.5,5.7c0.1,0.8,0.2,1.2,0.5,1.8c1.6,3.1,7.2,4.4,11,4.6c3.5,0.2,8.1-0.1,8.6-1.4
			c0.2-0.4-0.2-0.6-0.7-2.3c0-0.1-0.3-1.2-0.5-2.5c-0.1-1,0-1.5,0-2.9c0.1-2.7-0.1-2.8,0-4.6c0.1-1.7,0.3-2.8,0.5-3.6
			c0.7-4,0.1-5.2,0.5-10.7c0.1-1.5,0.4-4.1,1-9.3c0.3-2.9,0.6-5.4-0.5-5.7c-0.1,0.2-1.2,1.1-1.4,1.4c0,0-0.3,0.5-0.7,0.9
			c-1.4,1.8-2.1,2.7-2.9,3.2c-0.4,0.3-1.6,1.2-3.3,1.7c-0.9,0.3-1.8,0.4-2.9,0.4c-0.8,0-2.1-0.1-3.3-0.7c-0.2-0.1-0.7-0.6-1.6-0.9
			c0,0,0,0,0,0c-0.2-0.1-0.3-0.1-0.3-0.1C332.7,251.4,332.6,251.3,332.4,251.3C332.4,251.3,332.4,251.3,332.4,251.3z"/>
		<path class="st4" d="M334,251.2c-0.1,0-0.3,0-0.5,0.1c-0.2,0.1-0.3,0.1-0.4,0.2c0,0,0,0,0,0c0.9,0.3,1.4,0.8,1.6,0.9
			c1.2,0.6,2.6,0.7,3.3,0.7c1.1,0,2.1-0.1,2.9-0.4l-1.2-0.5c0.2-0.1,0.4-0.4,0.5-0.7c0.2-0.4,0.1-0.8,0-1.1c0-0.1,0-0.2-0.1-0.3
			c-0.3,0.1-0.6,0.2-0.9,0.3c-1.1,0.3-2.3,0.6-3.8,0.7c-0.2,0-0.2,0-0.4,0C334.6,251.1,334.3,251.1,334,251.2z"/>
		<path class="st3" d="M336.9,236.2C336.9,236.2,336.9,236.2,336.9,236.2C337.1,235.7,337.2,235.5,336.9,236.2z"/>
		<path class="st5" d="M339.6,247.2c0,0,0.1,0,0.1,0c1.6-0.2,2.7-1.4,2.9-2.5c0.1-0.7-0.3-1.5-0.5-1.8c-0.2-0.3-0.3-0.5-0.5-0.7
			c-0.3-0.4-0.6-0.7-1.4-1.4c-1.1-1-1.2-1.1-1.4-1.4c-0.3-0.4-0.1-0.4-0.5-1.1c-0.5-1-1.2-1.9-1.4-2.1c-0.5,1.3-2,4.8-2.4,6.4
			c-0.3,1.3-0.4,1.9,0,2.5c0.7,1.1,2.2,1.6,2.9,1.8C338.1,247.1,338.8,247.3,339.6,247.2z"/>
		<path class="st4" d="M340.2,250.4c0.1,0.3,0.2,0.7,0,1.1c-0.1,0.3-0.3,0.6-0.5,0.7l1.2,0.5c1.7-0.5,2.9-1.4,3.3-1.7
			c0.7-0.5,1.4-1.4,2.9-3.2c0.4-0.5,0.7-0.9,0.7-0.9c0.2-0.3,1.3-1.2,1.4-1.4c-0.4-0.1-1.1,0.3-2.4,1.1c-2.2,1.3-2.3,1.7-3.8,2.5
			c-1,0.6-2,0.9-2.9,1.2C340.2,250.3,340.2,250.4,340.2,250.4z"/>
	</g>
	<g>
		<path class="st2" d="M349.3,245.4c-0.1,0.2-1.2,1.1-1.4,1.4c0,0-0.3,0.5-0.7,0.9c-1.4,1.8-2.1,2.7-2.9,3.2
			c-0.4,0.3-1.6,1.2-3.3,1.7c-0.9,0.3-1.8,0.4-2.9,0.4c-0.8,0-2.1-0.1-3.3-0.7c-0.2-0.1-0.7-0.6-1.6-0.9c0,0,0,0,0,0
			c-0.2-0.1-0.3-0.1-0.3-0.1c-0.1,0-0.2,0-0.4-0.1c0,0,0,0,0,0c-0.5,0-0.9,0.1-0.9,0.1c0,0-0.3,0.1-0.5,0.3c-0.1,0.1-0.3,0.3,0,1.8
			c0.2,0.9,0.4,1.6,0.5,1.8c0.3,0.9,0.3,1.5,0.5,2.5c0.1,0.5,0.2,1.6,0,4.6c-0.3,4-0.4,6.1-1.4,7.1c-0.2,0.2-0.7,0.7-1,1.4
			c-0.3,0.8-0.1,1.5,0,2.1c0.1,0.7,0.1,1.5,0,3.2c-0.1,3-0.8,3.6-0.5,5.7c0.1,0.8,0.2,1.2,0.5,1.8c1.6,3.1,7.2,4.4,11,4.6
			c3.5,0.2,8.1-0.1,8.6-1.4c0.2-0.4-0.2-0.6-0.7-2.3c0-0.1-0.3-1.2-0.5-2.5c-0.1-1,0-1.5,0-2.9c0.1-2.7-0.1-2.8,0-4.6
			c0.1-1.7,0.3-2.8,0.5-3.6c0.7-4,0.1-5.2,0.5-10.7c0.1-1.5,0.4-4.1,1-9.3C350.1,248.2,350.4,245.7,349.3,245.4
			c-0.4-0.1-1.1,0.3-2.4,1.1c-2.2,1.3-2.3,1.7-3.8,2.5c-1,0.6-2,0.9-2.9,1.2c-0.3,0.1-0.6,0.2-0.9,0.3c-1.1,0.3-2.3,0.6-3.8,0.7
			c-0.2,0-0.2,0-0.4,0c-0.5,0-0.7,0-1,0c-0.1,0-0.3,0-0.5,0.1c-0.2,0.1-0.3,0.1-0.4,0.2c0,0,0,0,0,0"/>
		<path class="st2" d="M336.9,236.2C337.1,235.7,337.2,235.5,336.9,236.2C336.9,236.2,336.9,236.2,336.9,236.2z"/>
		<path class="st2" d="M336.9,236.2c0.2,0.2,0.9,1.1,1.4,2.1c0.3,0.7,0.2,0.7,0.5,1.1c0.2,0.3,0.3,0.4,1.4,1.4
			c0.8,0.8,1.1,1,1.4,1.4c0.1,0.2,0.3,0.4,0.5,0.7c0.2,0.3,0.6,1,0.5,1.8c-0.1,1.1-1.3,2.3-2.9,2.5c0,0-0.1,0-0.1,0
			c-0.8,0.1-1.5-0.1-2.3-0.4c-0.6-0.2-2.2-0.7-2.9-1.8c-0.4-0.6-0.3-1.2,0-2.5C334.9,241.1,336.4,237.5,336.9,236.2"/>
		<path class="st2" d="M339.7,252.2c0.2-0.1,0.4-0.4,0.5-0.7c0.2-0.4,0.1-0.8,0-1.1c0-0.1,0-0.2-0.1-0.3c-0.2-0.8-0.4-1.3-0.4-1.5
			c-0.1-0.4-0.2-0.8-0.1-1.4c0-0.2,0.1-0.5,0.1-0.7"/>
	</g>
</g>
<g id="skull">
	<g>
		<path d="M71.9,267.1c-0.7,1.2-1.2,2.7-0.8,4.2c0.4,1.3,1.5,2.6,3,3c1.8,0.5,3.6-0.6,4.9-2.1c0.5-0.6,0.9-1.3,1.1-1.9
			c0.8-2,0.3-3.8,0-5c-0.5-1.9-1.4-3.2-2-4c-1.5,0.7-3.5,1.9-5,4C72.7,265.8,72.3,266.4,71.9,267.1z"/>
		<path class="st6" d="M74.1,284.3c0.8-0.4,1-1.8,1-2.8c0-0.1,0-0.1,0-0.2c0-0.3,0-0.8,0-0.9c0,0.2,0,0.6,0,1.1
			c0.1,1.9,1.1,3.8,2,3.8c0.3,0,0.5-0.2,1-1c1.4-2.1,1.8-4,2-4c0.3,0-1.4,4.3,0,5c0.8,0.4,2.2,1,3,0c1.7-2.2,1.8-5,2-5l-0.4-2.7
			c-0.6,0.1-1.1,0-1.6-0.3c-0.6-0.3-0.9-0.8-1-1c-0.3-0.5-0.3-1.3-0.1-2c-0.4-0.1-1-0.6-1.9-1c-0.7-0.2-1-0.9-1-1l-0.1-0.1
			c-1.2,1.5-3,2.6-4.9,2.1c-1.5-0.4-2.6-1.7-3-3c-0.5-1.5,0-2.9,0.8-4.2c-0.8-0.6-2.2-1.2-2.8-1.8c-3.7-4.1-5.3-8.7-6-12l-0.2-0.1
			c-1.8,6.2-0.6,12.7,1.7,17.6c0.7,1.6,3.5,2.5,7,7c0.6,0.8,0.5,1.5,0.5,1.5c0.7,2.8,0.1,4.5,1,5C73.4,284.4,73.9,284.4,74.1,284.3z
			"/>
		<path class="st6" d="M75.1,280.3c0,0.2,0,0.6,0,0.9c0,0.1,0,0.1,0,0.2C75.2,280.9,75.1,280.5,75.1,280.3z"/>
		<path d="M88.2,276c-1.8-0.6-3.8-1-6.1-1.7c0,0-0.1,0-0.1,0c-0.2,0.8-0.2,1.5,0.1,2c0.1,0.2,0.4,0.7,1,1c0.5,0.3,1,0.3,1.6,0.3
			c0.4,0,0.9-0.1,1.4-0.3c1-0.2,1.7-0.4,2-1C88.2,276.2,88.2,276.1,88.2,276z"/>
		<path d="M88.1,275.3c-0.8-2.6,0.2-6.6-1-7c-1.2-0.5-4.4,3.2-5.1,6c0,0,0.1,0,0.1,0c2.3,0.7,4.3,1.1,6.1,1.7
			C88.2,275.7,88.2,275.4,88.1,275.3z"/>
		<path class="st6" d="M85.1,280.3c0.3,0-0.6,4,1,5c0.6,0.4,1.4,0.3,2,0c1.7-0.9,1.7-4,2-4c0.3,0-0.3,4.4,1,5c0.6,0.3,1.6-0.3,2-1
			c0.3-0.6-0.1-1.1,0-2c0.1-1.5,1.2-2.8,1.8-3l-0.8,0c-1.1-1.6-2.2-2.5-3-3c-0.9-0.6-1.8-1-2.9-1.3c0,0.1,0,0.2-0.1,0.3
			c-0.3,0.6-1,0.8-2,1c-0.5,0.1-1,0.2-1.4,0.3L85.1,280.3z"/>
		<path d="M92.4,264.3c-0.3,1.2-0.8,3,0,5c0.9,2.2,3.4,4.6,6,4c1.5-0.4,2.6-1.7,3-3c0.7-2.3-0.9-4.5-2-6c-1.5-2.1-3.5-3.3-5-4
			C93.8,261,92.9,262.4,92.4,264.3z"/>
		<path class="st7" d="M95.1,280.3c0.9,0.3-0.6,6.1,0.5,6.5c0.5,0.2,1.4-1.2,2-2c1.6-2.1,1.2-3.5,3-6c0.7-0.9,1.3-1.5,2-2
			c1-0.7,1.8-0.9,2-1c2.3-0.9,5.6-9,4-18c-0.5-2.7-1.6-8.9-7-14c-7.1-6.6-16.1-6.1-18-6c-2.3,0.1-9.3,0.6-15,6
			c-3,2.8-4.8,6.1-5.7,9.4l0.2,0.1c0.8,3.3,2.3,7.9,6,12c0.6,0.7,2,1.3,2.8,1.8c0.4-0.7,0.8-1.3,1.2-1.8c1.5-2.1,3.5-3.3,5-4
			c0.6,0.8,1.5,2.1,2,4c0.3,1.2,0.8,3,0,5c-0.3,0.6-0.7,1.3-1.1,1.9l0.1,0.1c0,0.1,0.3,0.8,1,1c0.9,0.3,1.5,0.8,1.9,1
			c0.7-2.8,3.9-6.4,5.1-6c1.2,0.4,0.2,4.4,1,7c0,0.1,0.1,0.4,0.1,0.7c1.1,0.4,2,0.8,2.9,1.3c0.8,0.5,1.9,1.4,3,3l0.8,0
			C95,280.3,95.1,280.2,95.1,280.3z M92.4,269.3c-0.8-2-0.3-3.8,0-5c0.5-1.9,1.4-3.2,2-4c1.5,0.7,3.5,1.9,5,4c1.1,1.5,2.7,3.7,2,6
			c-0.4,1.3-1.5,2.6-3,3C95.8,273.9,93.3,271.5,92.4,269.3z"/>
	</g>
	<g>
		<path class="st2" d="M75.1,280.3C75.1,280.3,75.1,280.3,75.1,280.3C75.1,280.3,75.1,280.3,75.1,280.3c0,0.2,0,0.7,0,1.2
			c0,1-0.2,2.4-1,2.8c-0.3,0.1-0.7,0.2-1,0c-0.9-0.5-0.3-2.2-1-5c0,0,0.1-0.7-0.5-1.5c-3.5-4.5-6.3-5.4-7-7
			c-2.3-4.9-3.5-11.4-1.7-17.6c0.9-3.3,2.8-6.6,5.7-9.4c5.7-5.4,12.7-5.9,15-6c1.9-0.1,10.9-0.6,18,6c5.4,5.1,6.5,11.3,7,14
			c1.6,9-1.7,17.1-4,18c-0.2,0.1-1,0.3-2,1c-0.7,0.5-1.3,1.1-2,2c-1.8,2.5-1.4,3.9-3,6c-0.6,0.8-1.5,2.2-2,2
			c-1.1-0.4,0.4-6.2-0.5-6.5c-0.1,0-0.1,0-0.2,0c-0.6,0.2-1.7,1.5-1.8,3c-0.1,0.9,0.3,1.4,0,2c-0.4,0.7-1.4,1.3-2,1
			c-1.3-0.6-0.7-5-1-5c-0.3,0-0.3,3.1-2,4c-0.6,0.3-1.4,0.4-2,0c-1.6-1-0.7-5-1-5c-0.2,0-0.3,2.8-2,5c-0.8,1-2.3,0.4-3,0
			c-1.4-0.7,0.3-5,0-5c-0.2,0-0.6,1.9-2,4c-0.5,0.8-0.7,1-1,1c-0.8,0-1.9-1.9-2-3.8c0-0.1,0-0.1,0-0.2
			C75.1,281,75.1,280.5,75.1,280.3"/>
		<path class="st2" d="M82,274.2c0.7-2.8,3.9-6.4,5.1-6c1.2,0.4,0.2,4.4,1,7c0,0.1,0.1,0.4,0.1,0.7c0,0.1,0,0.2-0.1,0.3
			c-0.3,0.6-1,0.8-2,1c-0.5,0.1-1,0.2-1.4,0.3c-0.6,0.1-1.1,0-1.6-0.3c-0.6-0.3-0.9-0.8-1-1C81.8,275.7,81.8,275,82,274.2z"/>
		<path class="st2" d="M71.9,267.1c0.4-0.7,0.8-1.3,1.2-1.8c1.5-2.1,3.5-3.3,5-4c0.6,0.8,1.5,2.1,2,4c0.3,1.2,0.8,3,0,5
			c-0.3,0.6-0.7,1.3-1.1,1.9c-1.2,1.5-3,2.6-4.9,2.1c-1.5-0.4-2.6-1.7-3-3C70.7,269.8,71.2,268.3,71.9,267.1z"/>
		<path class="st2" d="M94.4,260.3c-0.6,0.8-1.5,2.1-2,4c-0.3,1.2-0.8,3,0,5c0.9,2.2,3.4,4.6,6,4c1.5-0.4,2.6-1.7,3-3
			c0.7-2.3-0.9-4.5-2-6C97.8,262.2,95.9,261,94.4,260.3z"/>
	</g>
</g>
<g id="hylde">
	<g>
		<polygon class="st0" points="39.2,286.8 39.2,306.5 92.6,306.5 339.5,306.5 392.7,306.5 392.7,286.8 		"/>
		<path class="st1" d="M92.6,306.5c-5.2,0-9.4,4.2-9.4,9.4c0,5.2,4.2,9.4,9.4,9.4c5.2,0,9.4-4.2,9.4-9.4
			C101.9,310.7,97.7,306.5,92.6,306.5z"/>
		<path class="st1" d="M339.5,306.5c-5.2,0-9.4,4.2-9.4,9.4c0,5.2,4.2,9.4,9.4,9.4c5.2,0,9.4-4.2,9.4-9.4
			C348.9,310.7,344.7,306.5,339.5,306.5z"/>
	</g>
	<g>
		<path class="st2" d="M83.2,315.8c0,5.2,4.2,9.4,9.4,9.4c5.2,0,9.4-4.2,9.4-9.4c0-5.2-4.2-9.4-9.4-9.4
			C87.4,306.5,83.2,310.7,83.2,315.8z"/>
		<path class="st2" d="M330.1,315.8c0,5.2,4.2,9.4,9.4,9.4c5.2,0,9.4-4.2,9.4-9.4c0-5.2-4.2-9.4-9.4-9.4
			C334.3,306.5,330.1,310.7,330.1,315.8z"/>
		<polygon class="st2" points="339.5,306.5 392.7,306.5 392.7,286.8 39.2,286.8 39.2,306.5 92.6,306.5 		"/>
	</g>
</g>
<g id="lys_2_">
	<g>
		<path class="st3" d="M273.6,122.3c-0.2-0.1-0.3-0.1-0.3-0.1c-0.1,0-0.2-0.1-0.4-0.1c0,0,0,0,0,0c-0.5,0-0.9,0.1-0.9,0.1
			c0,0-0.3,0.1-0.5,0.3c-0.1,0.1-0.3,0.4,0,2.4c0.2,1.2,0.4,2.1,0.5,2.4c0.3,1.1,0.3,2,0.5,3.3c0.1,0.7,0.2,2.2,0,6.2
			c-0.3,5.4-0.4,8.1-1.4,9.5c-0.2,0.3-0.7,0.9-1,1.9c-0.3,1.1-0.1,2,0,2.9c0.1,0.9,0.1,2,0,4.3c-0.1,4-0.8,4.8-0.5,7.6
			c0.1,1.1,0.2,1.7,0.5,2.4c1.6,4.1,7.2,5.9,11,6.2c3.5,0.2,8.1-0.1,8.6-1.9c0.2-0.6-0.2-0.8-0.7-3.1c0-0.1-0.3-1.6-0.5-3.3
			c-0.1-1.4,0-2,0-3.8c0.1-3.6-0.1-3.8,0-6.2c0.1-2.2,0.3-3.7,0.5-4.8c0.7-5.4,0.1-6.9,0.5-14.3c0.1-2,0.4-5.4,1-12.4
			c0.3-3.9,0.6-7.3-0.5-7.6c-0.1,0.2-1.2,1.5-1.4,1.9c0,0-0.3,0.6-0.7,1.2c-1.4,2.4-2.1,3.6-2.9,4.3c-0.4,0.4-1.6,1.6-3.3,2.3
			c-0.9,0.4-1.8,0.6-2.9,0.5c-0.8,0-2.1-0.1-3.3-1C274.9,123.4,274.5,122.7,273.6,122.3C273.6,122.3,273.6,122.3,273.6,122.3z"/>
		<path class="st4" d="M274.5,121.9c-0.1,0-0.3,0.1-0.5,0.2c-0.2,0.1-0.3,0.2-0.4,0.3c0,0,0,0,0,0c0.9,0.4,1.4,1.1,1.6,1.2
			c1.2,0.8,2.6,0.9,3.3,1c1.1,0.1,2.1-0.2,2.9-0.5l-1.2-0.7c0.2-0.2,0.4-0.5,0.5-1c0.2-0.6,0.1-1,0-1.4c0-0.1,0-0.2-0.1-0.3
			c-0.3,0.1-0.6,0.2-0.9,0.3c-1.1,0.4-2.3,0.8-3.8,1c-0.2,0-0.2,0-0.4,0C275,121.8,274.8,121.8,274.5,121.9z"/>
		<path class="st3" d="M277.3,101.9C277.3,101.9,277.4,101.9,277.3,101.9C277.6,101.2,277.6,101,277.3,101.9z"/>
		<path class="st5" d="M280.1,116.7c0,0,0.1,0,0.1,0c1.6-0.3,2.7-1.9,2.9-3.3c0.1-1-0.3-2-0.5-2.4c-0.2-0.4-0.3-0.7-0.5-1
			c-0.3-0.6-0.6-0.9-1.4-1.9c-1.1-1.3-1.2-1.5-1.4-1.9c-0.3-0.6-0.1-0.5-0.5-1.4c-0.5-1.4-1.2-2.5-1.4-2.8c-0.5,1.7-2,6.5-2.4,8.5
			c-0.3,1.7-0.4,2.5,0,3.3c0.7,1.5,2.2,2.1,2.9,2.4C278.6,116.5,279.3,116.8,280.1,116.7z"/>
		<path class="st4" d="M280.7,120.9c0.1,0.4,0.2,0.9,0,1.4c-0.1,0.4-0.3,0.8-0.5,1l1.2,0.7c1.7-0.7,2.9-1.9,3.3-2.3
			c0.7-0.7,1.4-1.9,2.9-4.3c0.4-0.6,0.7-1.2,0.7-1.2c0.2-0.4,1.3-1.6,1.4-1.9c-0.4-0.1-1.1,0.4-2.4,1.4c-2.2,1.7-2.3,2.3-3.8,3.3
			c-1,0.7-2,1.2-2.9,1.6C280.6,120.7,280.7,120.8,280.7,120.9z"/>
	</g>
	<g>
		<path class="st2" d="M289.7,114.3c-0.1,0.2-1.2,1.5-1.4,1.9c0,0-0.3,0.6-0.7,1.2c-1.4,2.4-2.1,3.6-2.9,4.3
			c-0.4,0.4-1.6,1.6-3.3,2.3c-0.9,0.4-1.8,0.6-2.9,0.5c-0.8,0-2.1-0.1-3.3-1c-0.2-0.2-0.7-0.8-1.6-1.2c0,0,0,0,0,0
			c-0.2-0.1-0.3-0.1-0.3-0.1c-0.1,0-0.2-0.1-0.4-0.1c0,0,0,0,0,0c-0.5,0-0.9,0.1-0.9,0.1c0,0-0.3,0.1-0.5,0.3
			c-0.1,0.1-0.3,0.4,0,2.4c0.2,1.2,0.4,2.1,0.5,2.4c0.3,1.1,0.3,2,0.5,3.3c0.1,0.7,0.2,2.2,0,6.2c-0.3,5.4-0.4,8.1-1.4,9.5
			c-0.2,0.3-0.7,0.9-1,1.9c-0.3,1.1-0.1,2,0,2.9c0.1,0.9,0.1,2,0,4.3c-0.1,4-0.8,4.8-0.5,7.6c0.1,1.1,0.2,1.7,0.5,2.4
			c1.6,4.1,7.2,5.9,11,6.2c3.5,0.2,8.1-0.1,8.6-1.9c0.2-0.6-0.2-0.8-0.7-3.1c0-0.1-0.3-1.6-0.5-3.3c-0.1-1.4,0-2,0-3.8
			c0.1-3.6-0.1-3.8,0-6.2c0.1-2.2,0.3-3.7,0.5-4.8c0.7-5.4,0.1-6.9,0.5-14.3c0.1-2,0.4-5.4,1-12.4
			C290.5,118,290.8,114.6,289.7,114.3c-0.4-0.1-1.1,0.4-2.4,1.4c-2.2,1.7-2.3,2.3-3.8,3.3c-1,0.7-2,1.2-2.9,1.6
			c-0.3,0.1-0.6,0.2-0.9,0.3c-1.1,0.4-2.3,0.8-3.8,1c-0.2,0-0.2,0-0.4,0c-0.5,0-0.7,0-1,0c-0.1,0-0.3,0.1-0.5,0.2
			c-0.2,0.1-0.3,0.2-0.4,0.3c0,0,0,0,0,0"/>
		<path class="st2" d="M277.4,101.9C277.6,101.2,277.6,101,277.4,101.9C277.3,101.9,277.4,101.9,277.4,101.9z"/>
		<path class="st2" d="M277.4,101.9c0.2,0.3,0.9,1.4,1.4,2.8c0.3,0.9,0.2,0.9,0.5,1.4c0.2,0.4,0.3,0.6,1.4,1.9
			c0.8,1,1.1,1.3,1.4,1.9c0.1,0.2,0.3,0.5,0.5,1c0.2,0.4,0.6,1.4,0.5,2.4c-0.1,1.4-1.3,3-2.9,3.3c0,0-0.1,0-0.1,0
			c-0.8,0.1-1.5-0.2-2.3-0.5c-0.6-0.3-2.2-0.9-2.9-2.4c-0.4-0.8-0.3-1.6,0-3.3C275.3,108.4,276.9,103.6,277.4,101.9"/>
		<path class="st2" d="M280.2,123.3c0.2-0.2,0.4-0.5,0.5-1c0.2-0.6,0.1-1,0-1.4c0-0.1,0-0.2-0.1-0.3c-0.2-1-0.4-1.7-0.4-2
			c-0.1-0.5-0.2-1.1-0.1-1.9c0-0.3,0.1-0.6,0.1-1"/>
	</g>
</g>
<g id="lys_3_">
	<g>
		<path class="st3" d="M134.6,137.6c0.5,0,0.9,0.1,0.9,0.1c0,0,0.3,0.1,0.5,0.2c0.1,0.1,0.3,0.3,0,1.6c-0.2,0.8-0.4,1.5-0.5,1.6
			c-0.2,0.8-0.3,1.4-0.5,2.3c-0.1,0.5-0.2,1.5,0,4.3c0.3,3.7,0.4,5.6,1.4,6.6c0.2,0.2,0.7,0.6,1,1.3c0.3,0.8,0.1,1.4,0,2
			c-0.1,0.6-0.1,1.4,0,3c0.1,2.7,0.8,3.3,0.5,5.2c-0.1,0.7-0.2,1.1-0.5,1.6c-1.5,2.8-7.2,4.1-11,4.3c-3.5,0.2-8-0.1-8.6-1.3
			c-0.2-0.4,0.2-0.5,0.7-2.1c0-0.1,0.3-1.1,0.5-2.3c0.1-0.9,0-1.4,0-2.6c-0.1-2.5,0.1-2.6,0-4.3c-0.1-1.5-0.3-2.6-0.5-3.3
			c-0.7-3.7-0.1-4.8-0.5-9.8c-0.1-1.4-0.4-3.7-1-8.5c-0.3-2.7-0.6-5,0.5-5.2c0.1,0.2,1.2,1,1.4,1.3c0,0,0.3,0.4,0.7,0.9
			c1.4,1.6,2.1,2.5,2.9,3c0.4,0.3,1.6,1.1,3.3,1.6c0.9,0.2,1.8,0.4,2.9,0.4c0.8,0,2.1-0.1,3.3-0.7c0.2-0.1,0.7-0.6,1.6-0.8
			c0,0,0,0,0,0c0.2-0.1,0.3-0.1,0.3-0.1C134.3,137.7,134.4,137.7,134.6,137.6L134.6,137.6z"/>
		<path class="st4" d="M131.9,137.5c0.5,0,0.7,0,1,0c0.1,0,0.3,0,0.5,0.1c0.2,0.1,0.3,0.1,0.4,0.2c0,0,0,0,0,0
			c-0.9,0.3-1.4,0.7-1.6,0.8c-1.2,0.6-2.6,0.6-3.3,0.7c-1.1,0-2.1-0.1-2.9-0.4l1.2-0.4c-0.2-0.1-0.4-0.4-0.5-0.7
			c-0.1-0.4-0.1-0.7,0-1c0-0.1,0-0.2,0.1-0.2c0.3,0.1,0.6,0.2,0.9,0.2c1.1,0.3,2.3,0.6,3.8,0.7C131.7,137.5,131.8,137.5,131.9,137.5
			z"/>
		<path class="st3" d="M130.1,123.7C130.1,123.7,130.1,123.7,130.1,123.7c-0.1-0.2-0.2-0.4-0.2-0.4
			C129.9,123.4,130,123.5,130.1,123.7z"/>
		<path class="st5" d="M127.4,133.9c0,0-0.1,0-0.1,0c-1.6-0.2-2.7-1.3-2.9-2.3c-0.1-0.7,0.3-1.4,0.5-1.6c0.2-0.3,0.3-0.5,0.5-0.7
			c0.3-0.4,0.6-0.6,1.4-1.3c1.1-0.9,1.2-1,1.4-1.3c0.3-0.4,0.1-0.4,0.5-1c0.5-0.9,1.2-1.7,1.4-1.9c0.5,1.2,2,4.5,2.4,5.9
			c0.3,1.2,0.4,1.7,0,2.3c-0.7,1-2.2,1.5-2.9,1.6C128.9,133.8,128.2,134,127.4,133.9z"/>
		<path class="st4" d="M119.1,133.5c-0.2-0.3-1.3-1.1-1.4-1.3c0.4-0.1,1.1,0.3,2.4,1c2.2,1.2,2.3,1.6,3.8,2.3c1,0.5,2,0.8,2.9,1.1
			c0,0.1,0,0.2-0.1,0.2c-0.1,0.3-0.1,0.6,0,1c0.1,0.3,0.3,0.5,0.5,0.7l-1.2,0.4c-1.7-0.5-2.9-1.3-3.3-1.6c-0.7-0.5-1.4-1.3-2.9-3
			C119.5,133.9,119.1,133.5,119.1,133.5z"/>
	</g>
	<g>
		<path class="st2" d="M117.7,132.2c0.1,0.2,1.2,1,1.4,1.3c0,0,0.3,0.4,0.7,0.9c1.4,1.6,2.1,2.5,2.9,3c0.4,0.3,1.6,1.1,3.3,1.6
			c0.9,0.2,1.8,0.4,2.9,0.4c0.8,0,2.1-0.1,3.3-0.7c0.2-0.1,0.7-0.6,1.6-0.8c0,0,0,0,0,0c0.2-0.1,0.3-0.1,0.3-0.1c0.1,0,0.2,0,0.4,0
			h0c0.5,0,0.9,0.1,0.9,0.1c0,0,0.3,0.1,0.5,0.2c0.1,0.1,0.3,0.3,0,1.6c-0.2,0.8-0.4,1.5-0.5,1.6c-0.2,0.8-0.3,1.4-0.5,2.3
			c-0.1,0.5-0.2,1.5,0,4.3c0.3,3.7,0.4,5.6,1.4,6.6c0.2,0.2,0.7,0.6,1,1.3c0.3,0.8,0.1,1.4,0,2c-0.1,0.6-0.1,1.4,0,3
			c0.1,2.7,0.8,3.3,0.5,5.2c-0.1,0.7-0.2,1.1-0.5,1.6c-1.5,2.8-7.2,4.1-11,4.3c-3.5,0.2-8-0.1-8.6-1.3c-0.2-0.4,0.2-0.5,0.7-2.1
			c0-0.1,0.3-1.1,0.5-2.3c0.1-0.9,0-1.4,0-2.6c-0.1-2.5,0.1-2.6,0-4.3c-0.1-1.5-0.3-2.6-0.5-3.3c-0.7-3.7-0.1-4.8-0.5-9.8
			c-0.1-1.4-0.4-3.7-1-8.5C116.9,134.8,116.6,132.5,117.7,132.2c0.4-0.1,1.1,0.3,2.4,1c2.2,1.2,2.3,1.6,3.8,2.3c1,0.5,2,0.8,2.9,1.1
			c0.3,0.1,0.6,0.2,0.9,0.2c1.1,0.3,2.3,0.6,3.8,0.7c0.2,0,0.2,0,0.4,0c0.5,0,0.7,0,1,0c0.1,0,0.3,0,0.5,0.1
			c0.2,0.1,0.3,0.1,0.4,0.2c0,0,0,0,0,0"/>
		<path class="st2" d="M129.9,123.3C129.9,123.3,129.9,123.3,129.9,123.3c0,0,0.1,0.1,0.2,0.4c0,0,0,0,0,0c-0.2,0.2-0.9,1-1.4,1.9
			c-0.3,0.6-0.2,0.6-0.5,1c-0.2,0.3-0.3,0.4-1.4,1.3c-0.8,0.7-1.1,0.9-1.4,1.3c-0.1,0.2-0.3,0.4-0.5,0.7c-0.2,0.3-0.6,1-0.5,1.6
			c0.1,1,1.3,2.1,2.9,2.3c0,0,0.1,0,0.1,0c0.8,0.1,1.5-0.1,2.3-0.3c0.6-0.2,2.2-0.6,2.9-1.6c0.4-0.6,0.3-1.1,0-2.3
			c-0.4-1.4-1.9-4.7-2.4-5.9C130,123.5,129.9,123.3,129.9,123.3"/>
		<path class="st2" d="M127.2,138.5c-0.2-0.1-0.4-0.4-0.5-0.7c-0.1-0.4-0.1-0.7,0-1c0-0.1,0-0.2,0.1-0.2c0.2-0.7,0.4-1.2,0.4-1.4
			c0.1-0.3,0.2-0.8,0.1-1.3c0-0.2-0.1-0.4-0.1-0.7"/>
	</g>
</g>
</svg>
