<?xml version="1.0" encoding="utf-8"?>
<!-- Generator: Adobe Illustrator 22.1.0, SVG Export Plug-In . SVG Version: 6.00 Build 0)  -->
<svg version="1.1" id="hyldeHøjre" xmlns="http://www.w3.org/2000/svg" xmlns:xlink="http://www.w3.org/1999/xlink" x="0px"
	 y="0px" viewBox="0 0 425.2 425.2" style="enable-background:new 0 0 425.2 425.2;" xml:space="preserve">
<style type="text/css">
	.st0{fill:#6A4C1C;}
	.st1{fill:#493618;}
	.st2{fill:none;stroke:#000000;stroke-miterlimit:10;}
	.st3{fill:#F3F1E7;}
	.st4{fill:#EFEBDB;}
	.st5{fill:#FFF205;}
	.st6{fill:#F7F3E1;}
	.st7{fill:#F8F8F8;}
</style>
<g id="hylder">
	<g>
		<polygon class="st0" points="392.7,171.8 392.7,191.5 339.3,191.5 92.4,191.5 39.2,191.5 39.2,171.8 		"/>
		<circle class="st1" cx="339.3" cy="200.8" r="9.4"/>
		<circle class="st1" cx="92.4" cy="200.8" r="9.4"/>
	</g>
	<g>
		<circle class="st2" cx="339.3" cy="200.8" r="9.4"/>
		<circle class="st2" cx="92.4" cy="200.8" r="9.4"/>
		<polygon class="st2" points="92.4,191.5 39.2,191.5 39.2,171.8 392.7,171.8 392.7,191.5 339.3,191.5 		"/>
	</g>
</g>
<g id="lys">
	<g>
		<path class="st3" d="M191.2,238.8c-0.5,0-0.9,0.1-0.9,0.1c0,0-0.3,0.1-0.5,0.3c-0.1,0.1-0.3,0.4,0,2.4c0.2,1.2,0.4,2.1,0.5,2.4
			c0.2,1.1,0.3,2,0.5,3.3c0.1,0.7,0.2,2.2,0,6.2c-0.3,5.4-0.4,8.1-1.4,9.5c-0.2,0.3-0.7,0.9-1,1.9c-0.3,1.1-0.1,2,0,2.9s0.1,2,0,4.3
			c-0.1,4-0.8,4.8-0.5,7.6c0.1,1.1,0.2,1.7,0.5,2.4c1.5,4.1,7.2,5.9,11,6.2c3.5,0.2,8-0.1,8.6-1.9c0.2-0.6-0.2-0.8-0.7-3.1
			c0-0.1-0.3-1.6-0.5-3.3c-0.1-1.4,0-2,0-3.8c0.1-3.6-0.1-3.8,0-6.2c0.1-2.2,0.3-3.7,0.5-4.8c0.7-5.4,0.1-6.9,0.5-14.3
			c0.1-2,0.4-5.4,1-12.4c0.3-3.9,0.6-7.3-0.5-7.6c-0.1,0.2-1.2,1.5-1.4,1.9c0,0-0.3,0.6-0.7,1.2c-1.4,2.4-2.1,3.6-2.9,4.3
			c-0.4,0.4-1.6,1.6-3.3,2.3c-0.9,0.4-1.8,0.6-2.9,0.5c-0.8,0-2.1-0.1-3.3-1c-0.2-0.2-0.7-0.8-1.6-1.2c0,0,0,0,0,0
			c-0.2-0.1-0.4-0.1-0.4-0.1C191.6,238.9,191.5,238.9,191.2,238.8L191.2,238.8z"/>
		<path class="st4" d="M192.9,238.6c-0.1,0-0.3,0.1-0.5,0.2c-0.2,0.1-0.3,0.2-0.4,0.3c0,0,0,0,0,0c0.9,0.4,1.4,1.1,1.6,1.2
			c1.2,0.8,2.6,0.9,3.3,1c1.1,0.1,2.1-0.2,2.9-0.5l-1.2-0.7c0.2-0.2,0.4-0.5,0.5-1c0.1-0.6,0.1-1,0-1.4c0-0.1,0-0.2-0.1-0.3
			c-0.3,0.1-0.6,0.2-0.9,0.3c-1.1,0.4-2.3,0.8-3.8,1c-0.2,0-0.2,0-0.4,0C193.5,238.6,193.2,238.6,192.9,238.6z"/>
		<path class="st3" d="M195.8,218.6C195.8,218.6,195.8,218.6,195.8,218.6C196,217.9,196.1,217.7,195.8,218.6z"/>
		<path class="st5" d="M198.6,233.4c1.6-0.3,2.7-1.9,2.9-3.3c0.1-1-0.3-2-0.5-2.4c-0.2-0.4-0.3-0.7-0.5-1c-0.3-0.6-0.6-0.9-1.4-1.9
			c-1.1-1.3-1.2-1.5-1.4-1.9c-0.3-0.6-0.1-0.5-0.5-1.4c-0.5-1.4-1.2-2.5-1.4-2.8c-0.5,1.7-2,6.5-2.4,8.5c-0.3,1.7-0.4,2.5,0,3.3
			c0.7,1.4,2.2,2.1,2.9,2.4c0.8,0.3,1.4,0.6,2.3,0.5C198.6,233.4,198.6,233.4,198.6,233.4z"/>
		<path class="st4" d="M205.8,232.4c-2.2,1.7-2.3,2.3-3.8,3.3c-1,0.7-2,1.2-2.9,1.6c0,0.1,0,0.2,0.1,0.3c0.1,0.4,0.1,0.9,0,1.4
			c-0.1,0.4-0.3,0.7-0.5,1l1.2,0.7c1.7-0.7,2.9-1.9,3.3-2.3c0.7-0.7,1.4-1.9,2.9-4.3c0.4-0.6,0.7-1.2,0.7-1.2
			c0.2-0.4,1.3-1.6,1.4-1.9C207.8,230.8,207.1,231.4,205.8,232.4z"/>
	</g>
	<g>
		<path class="st2" d="M208.2,231c-0.1,0.2-1.2,1.5-1.4,1.9c0,0-0.3,0.6-0.7,1.2c-1.4,2.4-2.1,3.6-2.9,4.3c-0.4,0.4-1.6,1.6-3.3,2.3
			c-0.9,0.4-1.8,0.6-2.9,0.5c-0.8,0-2.1-0.1-3.3-1c-0.2-0.2-0.7-0.8-1.6-1.2c0,0,0,0,0,0c-0.2-0.1-0.4-0.1-0.4-0.1
			c-0.1,0-0.2-0.1-0.4-0.1h0c-0.5,0-0.9,0.1-0.9,0.1c0,0-0.3,0.1-0.5,0.3c-0.1,0.1-0.3,0.4,0,2.4c0.2,1.2,0.4,2.1,0.5,2.4
			c0.2,1.1,0.3,2,0.5,3.3c0.1,0.7,0.2,2.2,0,6.2c-0.3,5.4-0.4,8.1-1.4,9.5c-0.2,0.3-0.7,0.9-1,1.9c-0.3,1.1-0.1,2,0,2.9s0.1,2,0,4.3
			c-0.1,4-0.8,4.8-0.5,7.6c0.1,1.1,0.2,1.7,0.5,2.4c1.5,4.1,7.2,5.9,11,6.2c3.5,0.2,8-0.1,8.6-1.9c0.2-0.6-0.2-0.8-0.7-3.1
			c0-0.1-0.3-1.6-0.5-3.3c-0.1-1.4,0-2,0-3.8c0.1-3.6-0.1-3.8,0-6.2c0.1-2.2,0.3-3.7,0.5-4.8c0.7-5.4,0.1-6.9,0.5-14.3
			c0.1-2,0.4-5.4,1-12.4C209,234.7,209.2,231.4,208.2,231c-0.4-0.1-1.1,0.4-2.4,1.4c-2.2,1.7-2.3,2.3-3.8,3.3c-1,0.7-2,1.2-2.9,1.6
			c-0.3,0.1-0.6,0.2-0.9,0.3c-1.1,0.4-2.3,0.8-3.8,1c-0.2,0-0.2,0-0.4,0c-0.5,0-0.7,0-1,0c-0.1,0-0.3,0.1-0.5,0.2
			c-0.2,0.1-0.3,0.2-0.4,0.3c0,0,0,0,0,0"/>
		<path class="st2" d="M195.8,218.6C196,217.9,196.1,217.7,195.8,218.6C195.8,218.6,195.8,218.6,195.8,218.6z"/>
		<path class="st2" d="M195.8,218.6c0.2,0.3,0.9,1.4,1.4,2.8c0.3,0.9,0.2,0.9,0.5,1.4c0.2,0.4,0.3,0.6,1.4,1.9
			c0.8,1,1.1,1.3,1.4,1.9c0.1,0.2,0.3,0.5,0.5,1c0.2,0.4,0.6,1.4,0.5,2.4c-0.1,1.4-1.3,3-2.9,3.3c0,0-0.1,0-0.1,0
			c-0.8,0.1-1.5-0.2-2.3-0.5c-0.6-0.3-2.2-0.9-2.9-2.4c-0.4-0.8-0.3-1.6,0-3.3C193.8,225.1,195.3,220.3,195.8,218.6"/>
		<path class="st2" d="M198.6,240c0.2-0.2,0.4-0.5,0.5-1c0.1-0.6,0.1-1,0-1.4c0-0.1,0-0.2-0.1-0.3c-0.2-1-0.4-1.7-0.4-2
			c-0.1-0.5-0.2-1.1-0.1-1.9c0-0.3,0.1-0.6,0.1-1"/>
	</g>
</g>
<g id="lys_1_">
	<g>
		<path class="st3" d="M92.5,251.3c0.5,0,0.9,0.1,0.9,0.1c0,0,0.3,0.1,0.5,0.3c0.1,0.1,0.3,0.3,0,1.8c-0.2,0.9-0.4,1.6-0.5,1.8
			c-0.3,0.9-0.3,1.5-0.5,2.5c-0.1,0.5-0.2,1.6,0,4.6c0.3,4,0.4,6.1,1.4,7.1c0.2,0.2,0.7,0.7,1,1.4c0.3,0.8,0.1,1.5,0,2.1
			c-0.1,0.7-0.1,1.5,0,3.2c0.1,3,0.8,3.6,0.5,5.7c-0.1,0.8-0.2,1.2-0.5,1.8c-1.6,3.1-7.2,4.4-11,4.6c-3.5,0.2-8.1-0.1-8.6-1.4
			c-0.2-0.4,0.2-0.6,0.7-2.3c0-0.1,0.3-1.2,0.5-2.5c0.1-1,0-1.5,0-2.9c-0.1-2.7,0.1-2.8,0-4.6c-0.1-1.7-0.3-2.8-0.5-3.6
			c-0.7-4-0.1-5.2-0.5-10.7c-0.1-1.5-0.4-4.1-1-9.3c-0.3-2.9-0.6-5.4,0.5-5.7c0.1,0.2,1.2,1.1,1.4,1.4c0,0,0.3,0.5,0.7,0.9
			c1.4,1.8,2.1,2.7,2.9,3.2c0.4,0.3,1.6,1.2,3.3,1.7c0.9,0.3,1.8,0.4,2.9,0.4c0.8,0,2.1-0.1,3.3-0.7c0.2-0.1,0.7-0.6,1.6-0.9
			c0,0,0,0,0,0c0.2-0.1,0.3-0.1,0.3-0.1C92.2,251.4,92.3,251.3,92.5,251.3C92.5,251.3,92.5,251.3,92.5,251.3z"/>
		<path class="st4" d="M90.9,251.2c0.1,0,0.3,0,0.5,0.1c0.2,0.1,0.3,0.1,0.4,0.2c0,0,0,0,0,0c-0.9,0.3-1.4,0.8-1.6,0.9
			c-1.2,0.6-2.6,0.7-3.3,0.7c-1.1,0-2.1-0.1-2.9-0.4l1.2-0.5c-0.2-0.1-0.4-0.4-0.5-0.7c-0.2-0.4-0.1-0.8,0-1.1c0-0.1,0-0.2,0.1-0.3
			c0.3,0.1,0.6,0.2,0.9,0.3c1.1,0.3,2.3,0.6,3.8,0.7c0.2,0,0.2,0,0.4,0C90.3,251.1,90.6,251.1,90.9,251.2z"/>
		<path class="st3" d="M88,236.2C88,236.2,88,236.2,88,236.2C87.7,235.7,87.7,235.5,88,236.2z"/>
		<path class="st5" d="M85.2,247.2c0,0-0.1,0-0.1,0c-1.6-0.2-2.7-1.4-2.9-2.5c-0.1-0.7,0.3-1.5,0.5-1.8c0.2-0.3,0.3-0.5,0.5-0.7
			c0.3-0.4,0.6-0.7,1.4-1.4c1.1-1,1.2-1.1,1.4-1.4c0.3-0.4,0.1-0.4,0.5-1.1c0.5-1,1.2-1.9,1.4-2.1c0.5,1.3,2,4.8,2.4,6.4
			c0.3,1.3,0.4,1.9,0,2.5c-0.7,1.1-2.2,1.6-2.9,1.8C86.7,247.1,86.1,247.3,85.2,247.2z"/>
		<path class="st4" d="M84.7,250.4c-0.1,0.3-0.2,0.7,0,1.1c0.1,0.3,0.3,0.6,0.5,0.7l-1.2,0.5c-1.7-0.5-2.9-1.4-3.3-1.7
			c-0.7-0.5-1.4-1.4-2.9-3.2c-0.4-0.5-0.7-0.9-0.7-0.9c-0.2-0.3-1.3-1.2-1.4-1.4c0.4-0.1,1.1,0.3,2.4,1.1c2.2,1.3,2.3,1.7,3.8,2.5
			c1,0.6,2,0.9,2.9,1.2C84.7,250.3,84.7,250.4,84.7,250.4z"/>
	</g>
	<g>
		<path class="st2" d="M75.6,245.4c0.1,0.2,1.2,1.1,1.4,1.4c0,0,0.3,0.5,0.7,0.9c1.4,1.8,2.1,2.7,2.9,3.2c0.4,0.3,1.6,1.2,3.3,1.7
			c0.9,0.3,1.8,0.4,2.9,0.4c0.8,0,2.1-0.1,3.3-0.7c0.2-0.1,0.7-0.6,1.6-0.9c0,0,0,0,0,0c0.2-0.1,0.3-0.1,0.3-0.1
			c0.1,0,0.2,0,0.4-0.1c0,0,0,0,0,0c0.5,0,0.9,0.1,0.9,0.1c0,0,0.3,0.1,0.5,0.3c0.1,0.1,0.3,0.3,0,1.8c-0.2,0.9-0.4,1.6-0.5,1.8
			c-0.3,0.9-0.3,1.5-0.5,2.5c-0.1,0.5-0.2,1.6,0,4.6c0.3,4,0.4,6.1,1.4,7.1c0.2,0.2,0.7,0.7,1,1.4c0.3,0.8,0.1,1.5,0,2.1
			c-0.1,0.7-0.1,1.5,0,3.2c0.1,3,0.8,3.6,0.5,5.7c-0.1,0.8-0.2,1.2-0.5,1.8c-1.6,3.1-7.2,4.4-11,4.6c-3.5,0.2-8.1-0.1-8.6-1.4
			c-0.2-0.4,0.2-0.6,0.7-2.3c0-0.1,0.3-1.2,0.5-2.5c0.1-1,0-1.5,0-2.9c-0.1-2.7,0.1-2.8,0-4.6c-0.1-1.7-0.3-2.8-0.5-3.6
			c-0.7-4-0.1-5.2-0.5-10.7c-0.1-1.5-0.4-4.1-1-9.3C74.8,248.2,74.5,245.7,75.6,245.4c0.4-0.1,1.1,0.3,2.4,1.1
			c2.2,1.3,2.3,1.7,3.8,2.5c1,0.6,2,0.9,2.9,1.2c0.3,0.1,0.6,0.2,0.9,0.3c1.1,0.3,2.3,0.6,3.8,0.7c0.2,0,0.2,0,0.4,0
			c0.5,0,0.7,0,1,0c0.1,0,0.3,0,0.5,0.1c0.2,0.1,0.3,0.1,0.4,0.2c0,0,0,0,0,0"/>
		<path class="st2" d="M87.9,236.2C87.7,235.7,87.7,235.5,87.9,236.2C88,236.2,88,236.2,87.9,236.2z"/>
		<path class="st2" d="M87.9,236.2c-0.2,0.2-0.9,1.1-1.4,2.1c-0.3,0.7-0.2,0.7-0.5,1.1c-0.2,0.3-0.3,0.4-1.4,1.4
			c-0.8,0.8-1.1,1-1.4,1.4c-0.1,0.2-0.3,0.4-0.5,0.7c-0.2,0.3-0.6,1-0.5,1.8c0.1,1.1,1.3,2.3,2.9,2.5c0,0,0.1,0,0.1,0
			c0.8,0.1,1.5-0.1,2.3-0.4c0.6-0.2,2.2-0.7,2.9-1.8c0.4-0.6,0.3-1.2,0-2.5C90,241.1,88.5,237.5,87.9,236.2"/>
		<path class="st2" d="M85.1,252.2c-0.2-0.1-0.4-0.4-0.5-0.7c-0.2-0.4-0.1-0.8,0-1.1c0-0.1,0-0.2,0.1-0.3c0.2-0.8,0.4-1.3,0.4-1.5
			c0.1-0.4,0.2-0.8,0.1-1.4c0-0.2-0.1-0.5-0.1-0.7"/>
	</g>
</g>
<g id="skull">
	<g>
		<path d="M353,267.1c0.7,1.2,1.2,2.7,0.8,4.2c-0.4,1.3-1.5,2.6-3,3c-1.8,0.5-3.6-0.6-4.9-2.1c-0.5-0.6-0.9-1.3-1.1-1.9
			c-0.8-2-0.3-3.8,0-5c0.5-1.9,1.4-3.2,2-4c1.5,0.7,3.5,1.9,5,4C352.2,265.8,352.6,266.4,353,267.1z"/>
		<path class="st6" d="M350.8,284.3c-0.8-0.4-1-1.8-1-2.8c0-0.1,0-0.1,0-0.2c0-0.3,0-0.8,0-0.9c0,0.2,0,0.6,0,1.1
			c-0.1,1.9-1.1,3.8-2,3.8c-0.3,0-0.5-0.2-1-1c-1.4-2.1-1.8-4-2-4c-0.3,0,1.4,4.3,0,5c-0.8,0.4-2.2,1-3,0c-1.7-2.2-1.8-5-2-5
			l0.4-2.7c0.6,0.1,1.1,0,1.6-0.3c0.6-0.3,0.9-0.8,1-1c0.3-0.5,0.3-1.3,0.1-2c0.4-0.1,1-0.6,1.9-1c0.7-0.2,1-0.9,1-1l0.1-0.1
			c1.2,1.5,3,2.6,4.9,2.1c1.5-0.4,2.6-1.7,3-3c0.5-1.5,0-2.9-0.8-4.2c0.8-0.6,2.2-1.2,2.8-1.8c3.6-4.1,5.3-8.7,6-12l0.2-0.1
			c1.8,6.2,0.6,12.7-1.7,17.6c-0.7,1.6-3.5,2.5-7,7c-0.6,0.8-0.5,1.5-0.5,1.5c-0.7,2.8-0.1,4.5-1,5
			C351.4,284.4,351,284.4,350.8,284.3z"/>
		<path class="st6" d="M349.8,280.3c0,0.2,0,0.6,0,0.9c0,0.1,0,0.1,0,0.2C349.7,280.9,349.7,280.5,349.8,280.3z"/>
		<path d="M336.7,276c1.8-0.6,3.8-1,6.1-1.7c0,0,0.1,0,0.1,0c0.2,0.8,0.2,1.5-0.1,2c-0.1,0.2-0.4,0.7-1,1c-0.5,0.3-1,0.3-1.6,0.3
			c-0.4,0-0.9-0.1-1.4-0.3c-1-0.2-1.7-0.4-2-1C336.7,276.2,336.7,276.1,336.7,276z"/>
		<path d="M336.8,275.3c0.8-2.6-0.1-6.6,1-7c1.2-0.5,4.4,3.2,5.1,6c0,0-0.1,0-0.1,0c-2.3,0.7-4.3,1.1-6.1,1.7
			C336.6,275.7,336.7,275.4,336.8,275.3z"/>
		<path class="st6" d="M339.8,280.3c-0.3,0,0.6,4-1,5c-0.6,0.4-1.4,0.3-2,0c-1.7-0.9-1.7-4-2-4c-0.4,0,0.4,4.4-1,5
			c-0.6,0.3-1.6-0.3-2-1c-0.3-0.6,0.1-1.1,0-2c-0.1-1.5-1.2-2.8-1.8-3l0.8,0c1.1-1.6,2.2-2.5,3-3c0.9-0.6,1.8-1,2.9-1.3
			c0,0.1,0,0.2,0.1,0.3c0.3,0.6,1,0.8,2,1c0.5,0.1,1,0.2,1.4,0.3L339.8,280.3z"/>
		<path d="M332.5,264.3c0.3,1.2,0.8,3,0,5c-0.9,2.2-3.4,4.6-6,4c-1.5-0.4-2.6-1.7-3-3c-0.7-2.3,0.9-4.5,2-6c1.5-2.1,3.5-3.3,5-4
			C331.1,261,332,262.4,332.5,264.3z"/>
		<path class="st7" d="M329.8,280.3c-0.9,0.3,0.6,6.1-0.5,6.5c-0.5,0.2-1.4-1.2-2-2c-1.6-2.1-1.2-3.5-3-6c-0.6-0.9-1.3-1.5-2-2
			c-1-0.7-1.8-0.9-2-1c-2.3-0.9-5.6-9-4-18c0.5-2.7,1.6-8.9,7-14c7.1-6.6,16.1-6.1,18-6c2.3,0.1,9.4,0.6,15,6c3,2.8,4.8,6.1,5.7,9.4
			l-0.2,0.1c-0.8,3.3-2.4,7.9-6,12c-0.6,0.7-2,1.3-2.8,1.8c-0.4-0.7-0.8-1.3-1.2-1.8c-1.5-2.1-3.5-3.3-5-4c-0.6,0.8-1.5,2.1-2,4
			c-0.3,1.2-0.8,3,0,5c0.3,0.6,0.6,1.3,1.1,1.9l-0.1,0.1c0,0.1-0.3,0.8-1,1c-0.9,0.3-1.5,0.8-1.9,1c-0.7-2.8-3.9-6.4-5.1-6
			c-1.1,0.4-0.2,4.4-1,7c0,0.1-0.1,0.4-0.1,0.7c-1.1,0.4-2.1,0.8-2.9,1.3c-0.8,0.5-1.9,1.4-3,3l-0.8,0
			C329.9,280.3,329.8,280.2,329.8,280.3z M332.5,269.3c0.8-2,0.3-3.8,0-5c-0.5-1.9-1.4-3.2-2-4c-1.5,0.7-3.5,1.9-5,4
			c-1.1,1.5-2.7,3.7-2,6c0.4,1.3,1.5,2.6,3,3C329.1,273.9,331.6,271.5,332.5,269.3z"/>
	</g>
	<g>
		<path class="st2" d="M349.8,280.3C349.8,280.3,349.8,280.3,349.8,280.3C349.8,280.3,349.8,280.3,349.8,280.3c0,0.2,0,0.7,0,1.2
			c0,1,0.2,2.4,1,2.8c0.3,0.1,0.7,0.2,1,0c0.9-0.5,0.3-2.2,1-5c0,0-0.1-0.7,0.5-1.5c3.5-4.5,6.3-5.4,7-7c2.3-4.9,3.5-11.4,1.7-17.6
			c-1-3.3-2.8-6.6-5.7-9.4c-5.6-5.4-12.7-5.9-15-6c-1.9-0.1-10.9-0.6-18,6c-5.4,5.1-6.5,11.3-7,14c-1.6,9,1.7,17.1,4,18
			c0.2,0.1,1,0.3,2,1c0.7,0.5,1.4,1.1,2,2c1.8,2.5,1.4,3.9,3,6c0.6,0.8,1.5,2.2,2,2c1.1-0.4-0.4-6.2,0.5-6.5c0.1,0,0.1,0,0.2,0
			c0.6,0.2,1.7,1.5,1.8,3c0.1,0.9-0.3,1.4,0,2c0.4,0.7,1.4,1.3,2,1c1.4-0.6,0.6-5,1-5c0.3,0,0.3,3.1,2,4c0.6,0.3,1.4,0.4,2,0
			c1.6-1,0.7-5,1-5c0.2,0,0.3,2.8,2,5c0.8,1,2.3,0.4,3,0c1.4-0.7-0.3-5,0-5c0.2,0,0.6,1.9,2,4c0.5,0.8,0.7,1,1,1
			c0.9,0,1.9-1.9,2-3.8c0-0.1,0-0.1,0-0.2C349.8,281,349.8,280.5,349.8,280.3"/>
		<path class="st2" d="M342.8,274.2c-0.7-2.8-3.9-6.4-5.1-6c-1.1,0.4-0.2,4.4-1,7c0,0.1-0.1,0.4-0.1,0.7c0,0.1,0,0.2,0.1,0.3
			c0.3,0.6,1,0.8,2,1c0.5,0.1,1,0.2,1.4,0.3c0.6,0.1,1.1,0,1.6-0.3c0.6-0.3,0.9-0.8,1-1C343,275.7,343,275,342.8,274.2z"/>
		<path class="st2" d="M353,267.1c-0.4-0.7-0.8-1.3-1.2-1.8c-1.5-2.1-3.5-3.3-5-4c-0.6,0.8-1.5,2.1-2,4c-0.3,1.2-0.8,3,0,5
			c0.3,0.6,0.6,1.3,1.1,1.9c1.2,1.5,3,2.6,4.9,2.1c1.5-0.4,2.6-1.7,3-3C354.2,269.8,353.7,268.3,353,267.1z"/>
		<path class="st2" d="M330.5,260.3c0.6,0.8,1.5,2.1,2,4c0.3,1.2,0.8,3,0,5c-0.9,2.2-3.4,4.6-6,4c-1.5-0.4-2.6-1.7-3-3
			c-0.7-2.3,0.9-4.5,2-6C327,262.2,329,261,330.5,260.3z"/>
	</g>
</g>
<g id="hylde">
	<g>
		<polygon class="st0" points="385.7,286.8 385.7,306.5 332.3,306.5 85.4,306.5 32.2,306.5 32.2,286.8 		"/>
		<path class="st1" d="M332.3,306.5c5.2,0,9.4,4.2,9.4,9.4c0,5.2-4.2,9.4-9.4,9.4c-5.2,0-9.4-4.2-9.4-9.4
			C322.9,310.7,327.1,306.5,332.3,306.5z"/>
		<path class="st1" d="M85.4,306.5c5.2,0,9.4,4.2,9.4,9.4c0,5.2-4.2,9.4-9.4,9.4c-5.2,0-9.4-4.2-9.4-9.4
			C76,310.7,80.2,306.5,85.4,306.5z"/>
	</g>
	<g>
		<path class="st2" d="M341.7,315.8c0,5.2-4.2,9.4-9.4,9.4c-5.2,0-9.4-4.2-9.4-9.4c0-5.2,4.2-9.4,9.4-9.4
			C337.5,306.5,341.7,310.7,341.7,315.8z"/>
		<path class="st2" d="M94.8,315.8c0,5.2-4.2,9.4-9.4,9.4c-5.2,0-9.4-4.2-9.4-9.4c0-5.2,4.2-9.4,9.4-9.4
			C90.6,306.5,94.8,310.7,94.8,315.8z"/>
		<polygon class="st2" points="85.4,306.5 32.2,306.5 32.2,286.8 385.7,286.8 385.7,306.5 332.3,306.5 		"/>
	</g>
</g>
<g id="lys_2_">
	<g>
		<path class="st3" d="M151.3,122.3c0.2-0.1,0.3-0.1,0.3-0.1c0.1,0,0.2-0.1,0.4-0.1c0,0,0,0,0,0c0.5,0,0.9,0.1,0.9,0.1
			c0,0,0.3,0.1,0.5,0.3c0.1,0.1,0.3,0.4,0,2.4c-0.2,1.2-0.4,2.1-0.5,2.4c-0.3,1.1-0.3,2-0.5,3.3c-0.1,0.7-0.2,2.2,0,6.2
			c0.3,5.4,0.4,8.1,1.4,9.5c0.2,0.3,0.7,0.9,1,1.9c0.3,1.1,0.1,2,0,2.9c-0.1,0.9-0.1,2,0,4.3c0.1,4,0.8,4.8,0.5,7.6
			c-0.1,1.1-0.2,1.7-0.5,2.4c-1.6,4.1-7.2,5.9-11,6.2c-3.5,0.2-8.1-0.1-8.6-1.9c-0.2-0.6,0.2-0.8,0.7-3.1c0-0.1,0.3-1.6,0.5-3.3
			c0.1-1.4,0-2,0-3.8c-0.1-3.6,0.1-3.8,0-6.2c-0.1-2.2-0.3-3.7-0.5-4.8c-0.7-5.4-0.1-6.9-0.5-14.3c-0.1-2-0.4-5.4-1-12.4
			c-0.3-3.9-0.6-7.3,0.5-7.6c0.1,0.2,1.2,1.5,1.4,1.9c0,0,0.3,0.6,0.7,1.2c1.4,2.4,2.1,3.6,2.9,4.3c0.4,0.4,1.6,1.6,3.3,2.3
			c0.9,0.4,1.8,0.6,2.9,0.5c0.8,0,2.1-0.1,3.3-1C149.9,123.4,150.4,122.7,151.3,122.3C151.3,122.3,151.3,122.3,151.3,122.3z"/>
		<path class="st4" d="M150.4,121.9c0.1,0,0.3,0.1,0.5,0.2c0.2,0.1,0.3,0.2,0.4,0.3c0,0,0,0,0,0c-0.9,0.4-1.4,1.1-1.6,1.2
			c-1.2,0.8-2.6,0.9-3.3,1c-1.1,0.1-2.1-0.2-2.9-0.5l1.2-0.7c-0.2-0.2-0.4-0.5-0.5-1c-0.2-0.6-0.1-1,0-1.4c0-0.1,0-0.2,0.1-0.3
			c0.3,0.1,0.6,0.2,0.9,0.3c1.1,0.4,2.3,0.8,3.8,1c0.2,0,0.2,0,0.4,0C149.9,121.8,150.1,121.8,150.4,121.9z"/>
		<path class="st3" d="M147.5,101.9C147.5,101.9,147.5,101.9,147.5,101.9C147.3,101.2,147.2,101,147.5,101.9z"/>
		<path class="st5" d="M144.8,116.7c0,0-0.1,0-0.1,0c-1.6-0.3-2.7-1.9-2.9-3.3c-0.1-1,0.3-2,0.5-2.4c0.2-0.4,0.3-0.7,0.5-1
			c0.3-0.6,0.6-0.9,1.4-1.9c1.1-1.3,1.2-1.5,1.4-1.9c0.3-0.6,0.1-0.5,0.5-1.4c0.5-1.4,1.2-2.5,1.4-2.8c0.5,1.7,2,6.5,2.4,8.5
			c0.3,1.7,0.4,2.5,0,3.3c-0.7,1.5-2.2,2.1-2.9,2.4C146.3,116.5,145.6,116.8,144.8,116.7z"/>
		<path class="st4" d="M144.2,120.9c-0.1,0.4-0.2,0.9,0,1.4c0.1,0.4,0.3,0.8,0.5,1l-1.2,0.7c-1.7-0.7-2.9-1.9-3.3-2.3
			c-0.7-0.7-1.4-1.9-2.9-4.3c-0.4-0.6-0.7-1.2-0.7-1.2c-0.2-0.4-1.3-1.6-1.4-1.9c0.4-0.1,1.1,0.4,2.4,1.4c2.2,1.7,2.3,2.3,3.8,3.3
			c1,0.7,2,1.2,2.9,1.6C144.2,120.7,144.2,120.8,144.2,120.9z"/>
	</g>
	<g>
		<path class="st2" d="M135.1,114.3c0.1,0.2,1.2,1.5,1.4,1.9c0,0,0.3,0.6,0.7,1.2c1.4,2.4,2.1,3.6,2.9,4.3c0.4,0.4,1.6,1.6,3.3,2.3
			c0.9,0.4,1.8,0.6,2.9,0.5c0.8,0,2.1-0.1,3.3-1c0.2-0.2,0.7-0.8,1.6-1.2c0,0,0,0,0,0c0.2-0.1,0.3-0.1,0.3-0.1
			c0.1,0,0.2-0.1,0.4-0.1c0,0,0,0,0,0c0.5,0,0.9,0.1,0.9,0.1c0,0,0.3,0.1,0.5,0.3c0.1,0.1,0.3,0.4,0,2.4c-0.2,1.2-0.4,2.1-0.5,2.4
			c-0.3,1.1-0.3,2-0.5,3.3c-0.1,0.7-0.2,2.2,0,6.2c0.3,5.4,0.4,8.1,1.4,9.5c0.2,0.3,0.7,0.9,1,1.9c0.3,1.1,0.1,2,0,2.9
			c-0.1,0.9-0.1,2,0,4.3c0.1,4,0.8,4.8,0.5,7.6c-0.1,1.1-0.2,1.7-0.5,2.4c-1.6,4.1-7.2,5.9-11,6.2c-3.5,0.2-8.1-0.1-8.6-1.9
			c-0.2-0.6,0.2-0.8,0.7-3.1c0-0.1,0.3-1.6,0.5-3.3c0.1-1.4,0-2,0-3.8c-0.1-3.6,0.1-3.8,0-6.2c-0.1-2.2-0.3-3.7-0.5-4.8
			c-0.7-5.4-0.1-6.9-0.5-14.3c-0.1-2-0.4-5.4-1-12.4C134.3,118,134.1,114.6,135.1,114.3c0.4-0.1,1.1,0.4,2.4,1.4
			c2.2,1.7,2.3,2.3,3.8,3.3c1,0.7,2,1.2,2.9,1.6c0.3,0.1,0.6,0.2,0.9,0.3c1.1,0.4,2.3,0.8,3.8,1c0.2,0,0.2,0,0.4,0c0.5,0,0.7,0,1,0
			c0.1,0,0.3,0.1,0.5,0.2c0.2,0.1,0.3,0.2,0.4,0.3c0,0,0,0,0,0"/>
		<path class="st2" d="M147.5,101.9C147.3,101.2,147.2,101,147.5,101.9C147.5,101.9,147.5,101.9,147.5,101.9z"/>
		<path class="st2" d="M147.5,101.9c-0.2,0.3-0.9,1.4-1.4,2.8c-0.3,0.9-0.2,0.9-0.5,1.4c-0.2,0.4-0.3,0.6-1.4,1.9
			c-0.8,1-1.1,1.3-1.4,1.9c-0.1,0.2-0.3,0.5-0.5,1c-0.2,0.4-0.6,1.4-0.5,2.4c0.1,1.4,1.3,3,2.9,3.3c0,0,0.1,0,0.1,0
			c0.8,0.1,1.5-0.2,2.3-0.5c0.6-0.3,2.2-0.9,2.9-2.4c0.4-0.8,0.3-1.6,0-3.3C149.5,108.4,148,103.6,147.5,101.9"/>
		<path class="st2" d="M144.7,123.3c-0.2-0.2-0.4-0.5-0.5-1c-0.2-0.6-0.1-1,0-1.4c0-0.1,0-0.2,0.1-0.3c0.2-1,0.4-1.7,0.4-2
			c0.1-0.5,0.2-1.1,0.1-1.9c0-0.3-0.1-0.6-0.1-1"/>
	</g>
</g>
<g id="lys_3_">
	<g>
		<path class="st3" d="M290.2,137.6c-0.5,0-0.9,0.1-0.9,0.1c0,0-0.3,0.1-0.5,0.2c-0.1,0.1-0.3,0.3,0,1.6c0.2,0.8,0.4,1.5,0.5,1.6
			c0.2,0.8,0.3,1.4,0.5,2.3c0.1,0.5,0.2,1.5,0,4.3c-0.3,3.7-0.4,5.6-1.4,6.6c-0.2,0.2-0.7,0.6-1,1.3c-0.3,0.8-0.1,1.4,0,2
			c0.1,0.6,0.1,1.4,0,3c-0.1,2.7-0.8,3.3-0.5,5.2c0.1,0.7,0.2,1.1,0.5,1.6c1.5,2.8,7.2,4.1,11,4.3c3.5,0.2,8-0.1,8.6-1.3
			c0.2-0.4-0.2-0.5-0.7-2.1c0-0.1-0.3-1.1-0.5-2.3c-0.1-0.9,0-1.4,0-2.6c0.1-2.5-0.1-2.6,0-4.3c0.1-1.5,0.3-2.6,0.5-3.3
			c0.7-3.7,0.1-4.8,0.5-9.8c0.1-1.4,0.4-3.7,1-8.5c0.3-2.7,0.6-5-0.5-5.2c-0.1,0.2-1.2,1-1.4,1.3c0,0-0.3,0.4-0.7,0.9
			c-1.4,1.6-2.1,2.5-2.9,3c-0.4,0.3-1.6,1.1-3.3,1.6c-0.9,0.2-1.8,0.4-2.9,0.4c-0.8,0-2.1-0.1-3.3-0.7c-0.2-0.1-0.7-0.6-1.6-0.8
			c0,0,0,0,0,0c-0.2-0.1-0.3-0.1-0.3-0.1C290.6,137.7,290.5,137.7,290.2,137.6L290.2,137.6z"/>
		<path class="st4" d="M292.9,137.5c-0.5,0-0.7,0-1,0c-0.1,0-0.3,0-0.5,0.1c-0.2,0.1-0.3,0.1-0.4,0.2c0,0,0,0,0,0
			c0.9,0.3,1.4,0.7,1.6,0.8c1.2,0.6,2.6,0.6,3.3,0.7c1.1,0,2.1-0.1,2.9-0.4l-1.2-0.4c0.2-0.1,0.4-0.4,0.5-0.7c0.1-0.4,0.1-0.7,0-1
			c0-0.1,0-0.2-0.1-0.2c-0.3,0.1-0.6,0.2-0.9,0.2c-1.1,0.3-2.3,0.6-3.8,0.7C293.2,137.5,293.1,137.5,292.9,137.5z"/>
		<path class="st3" d="M294.8,123.7C294.8,123.7,294.8,123.7,294.8,123.7c0.1-0.2,0.2-0.4,0.2-0.4
			C295,123.4,294.9,123.5,294.8,123.7z"/>
		<path class="st5" d="M297.5,133.9c0,0,0.1,0,0.1,0c1.6-0.2,2.7-1.3,2.9-2.3c0.1-0.7-0.3-1.4-0.5-1.6c-0.2-0.3-0.3-0.5-0.5-0.7
			c-0.3-0.4-0.6-0.6-1.4-1.3c-1.1-0.9-1.2-1-1.4-1.3c-0.3-0.4-0.1-0.4-0.5-1c-0.5-0.9-1.2-1.7-1.4-1.9c-0.5,1.2-2,4.5-2.4,5.9
			c-0.3,1.2-0.4,1.7,0,2.3c0.7,1,2.2,1.5,2.9,1.6C296,133.8,296.7,134,297.5,133.9z"/>
		<path class="st4" d="M305.7,133.5c0.2-0.3,1.3-1.1,1.4-1.3c-0.4-0.1-1.1,0.3-2.4,1c-2.2,1.2-2.3,1.6-3.8,2.3c-1,0.5-2,0.8-2.9,1.1
			c0,0.1,0,0.2,0.1,0.2c0.1,0.3,0.1,0.6,0,1c-0.1,0.3-0.3,0.5-0.5,0.7l1.2,0.4c1.7-0.5,2.9-1.3,3.3-1.6c0.7-0.5,1.4-1.3,2.9-3
			C305.4,133.9,305.7,133.5,305.7,133.5z"/>
	</g>
	<g>
		<path class="st2" d="M307.2,132.2c-0.1,0.2-1.2,1-1.4,1.3c0,0-0.3,0.4-0.7,0.9c-1.4,1.6-2.1,2.5-2.9,3c-0.4,0.3-1.6,1.1-3.3,1.6
			c-0.9,0.2-1.8,0.4-2.9,0.4c-0.8,0-2.1-0.1-3.3-0.7c-0.2-0.1-0.7-0.6-1.6-0.8c0,0,0,0,0,0c-0.2-0.1-0.3-0.1-0.3-0.1
			c-0.1,0-0.2,0-0.4,0h0c-0.5,0-0.9,0.1-0.9,0.1c0,0-0.3,0.1-0.5,0.2c-0.1,0.1-0.3,0.3,0,1.6c0.2,0.8,0.4,1.5,0.5,1.6
			c0.2,0.8,0.3,1.4,0.5,2.3c0.1,0.5,0.2,1.5,0,4.3c-0.3,3.7-0.4,5.6-1.4,6.6c-0.2,0.2-0.7,0.6-1,1.3c-0.3,0.8-0.1,1.4,0,2
			c0.1,0.6,0.1,1.4,0,3c-0.1,2.7-0.8,3.3-0.5,5.2c0.1,0.7,0.2,1.1,0.5,1.6c1.5,2.8,7.2,4.1,11,4.3c3.5,0.2,8-0.1,8.6-1.3
			c0.2-0.4-0.2-0.5-0.7-2.1c0-0.1-0.3-1.1-0.5-2.3c-0.1-0.9,0-1.4,0-2.6c0.1-2.5-0.1-2.6,0-4.3c0.1-1.5,0.3-2.6,0.5-3.3
			c0.7-3.7,0.1-4.8,0.5-9.8c0.1-1.4,0.4-3.7,1-8.5C308,134.8,308.3,132.5,307.2,132.2c-0.4-0.1-1.1,0.3-2.4,1
			c-2.2,1.2-2.3,1.6-3.8,2.3c-1,0.5-2,0.8-2.9,1.1c-0.3,0.1-0.6,0.2-0.9,0.2c-1.1,0.3-2.3,0.6-3.8,0.7c-0.2,0-0.2,0-0.4,0
			c-0.5,0-0.7,0-1,0c-0.1,0-0.3,0-0.5,0.1c-0.2,0.1-0.3,0.1-0.4,0.2c0,0,0,0,0,0"/>
		<path class="st2" d="M295,123.3C295,123.3,295,123.3,295,123.3c0,0-0.1,0.1-0.2,0.4c0,0,0,0,0,0c0.2,0.2,0.9,1,1.4,1.9
			c0.3,0.6,0.2,0.6,0.5,1c0.2,0.3,0.3,0.4,1.4,1.3c0.8,0.7,1.1,0.9,1.4,1.3c0.1,0.2,0.3,0.4,0.5,0.7c0.2,0.3,0.6,1,0.5,1.6
			c-0.1,1-1.3,2.1-2.9,2.3c0,0-0.1,0-0.1,0c-0.8,0.1-1.5-0.1-2.3-0.3c-0.6-0.2-2.2-0.6-2.9-1.6c-0.4-0.6-0.3-1.1,0-2.3
			c0.4-1.4,1.9-4.7,2.4-5.9C294.9,123.5,295,123.3,295,123.3"/>
		<path class="st2" d="M297.6,138.5c0.2-0.1,0.4-0.4,0.5-0.7c0.1-0.4,0.1-0.7,0-1c0-0.1,0-0.2-0.1-0.2c-0.2-0.7-0.4-1.2-0.4-1.4
			c-0.1-0.3-0.2-0.8-0.1-1.3c0-0.2,0.1-0.4,0.1-0.7"/>
	</g>
</g>
</svg>
