<?xml version="1.0" encoding="utf-8"?>
<!-- Generator: Adobe Illustrator 22.1.0, SVG Export Plug-In . SVG Version: 6.00 Build 0)  -->
<svg version="1.1" id="Layer_1" xmlns="http://www.w3.org/2000/svg" xmlns:xlink="http://www.w3.org/1999/xlink" x="0px" y="0px"
	 viewBox="0 0 425.2 425.2" style="enable-background:new 0 0 425.2 425.2;" xml:space="preserve">
<style type="text/css">
	.st0{fill:#493618;}
	.st1{fill:#807A79;}
	.st2{fill:none;stroke:#000000;stroke-miterlimit:10;}
</style>
<path class="st0" d="M365.1,254.2H65.6c-27.6,0-49.9-22.3-49.9-49.9v0c0-27.6,22.3-49.9,49.9-49.9h299.5c27.6,0,49.9,22.3,49.9,49.9
	v0C415,231.8,392.6,254.2,365.1,254.2z"/>
<g id="søm_1_">
	<g>
		<path class="st1" d="M45.1,199.6c0.7,2.8-1,6-3.9,6.8c-2.4,0.7-5.3-0.2-6.5-2.5c-1.5-2.8,0.6-5.8,0.7-6c0.3-0.5,2.1-2.7,4.8-2.5
			C42.6,195.6,44.5,197.5,45.1,199.6z"/>
	</g>
	<g>
		<path class="st2" d="M40.2,195.4c-2.8-0.2-4.5,2.1-4.8,2.5c-0.2,0.2-2.2,3.2-0.7,6c1.2,2.3,4.1,3.3,6.5,2.5c2.9-0.9,4.6-4,3.9-6.8
			C44.5,197.5,42.6,195.6,40.2,195.4z"/>
		<polyline class="st2" points="41.3,198.4 38.9,201.1 36.6,203.7 		"/>
		<polyline class="st2" points="36.6,199.2 38.9,201.1 41.3,203.1 42.2,203.7 		"/>
	</g>
</g>
<g id="søm">
	<g>
		<path class="st1" d="M399,200.6c0.7,2.8-1,6-3.9,6.8c-2.4,0.7-5.3-0.2-6.5-2.5c-1.5-2.8,0.6-5.8,0.7-6c0.3-0.5,2.1-2.7,4.8-2.5
			C396.5,196.5,398.4,198.4,399,200.6z"/>
	</g>
	<g>
		<path class="st2" d="M394.1,196.4c-2.8-0.2-4.5,2.1-4.8,2.5c-0.2,0.2-2.2,3.2-0.7,6c1.2,2.3,4.1,3.3,6.5,2.5
			c2.9-0.9,4.6-4,3.9-6.8C398.4,198.4,396.5,196.5,394.1,196.4z"/>
		<polyline class="st2" points="395.2,199.3 392.8,202 390.6,204.7 		"/>
		<polyline class="st2" points="390.6,200.1 392.8,202 395.2,204 396.1,204.7 		"/>
	</g>
</g>
</svg>
