<svg id="Layer_1" data-name="Layer 1" xmlns="http://www.w3.org/2000/svg" viewBox="0 0 399.30327 99.78312">
  <defs>
    <style>
      .cls-1 {
        fill: #493618;
      }

      .cls-2 {
        fill: #807a79;
      }

      .cls-3 {
        fill: none;
        stroke: #000;
        stroke-miterlimit: 10;
      }
    </style>
  </defs>
  <title>skilt</title>
  <rect class="cls-1" width="399.30327" height="99.78312" rx="49.89151" ry="49.89151"/>
  <g>
    <path class="cls-2" d="M29.38969,45.25536A5.848,5.848,0,0,1,25.501,52.08814a5.6239,5.6239,0,0,1-6.51983-2.5268c-1.49521-2.82236.57375-5.76063.736-5.98665a5.84231,5.84231,0,0,1,4.83336-2.521A5.53439,5.53439,0,0,1,29.38969,45.25536Z"/>
    <g>
      <path class="cls-3" d="M24.55052,41.05369a5.84231,5.84231,0,0,0-4.83336,2.521c-.16227.226-2.23123,3.16429-.736,5.98665a5.6239,5.6239,0,0,0,6.51983,2.5268,5.848,5.848,0,0,0,3.88872-6.83278A5.53439,5.53439,0,0,0,24.55052,41.05369Z"/>
      <polyline class="cls-3" points="25.605 43.992 23.241 46.733 20.981 49.353"/>
      <polyline class="cls-3" points="20.981 44.832 23.241 46.733 25.605 48.721 26.55 49.353"/>
    </g>
  </g>
  <g>
    <path class="cls-2" d="M383.30321,46.1696a5.848,5.848,0,0,1-3.88871,6.83278,5.62389,5.62389,0,0,1-6.51983-2.5268c-1.49522-2.82236.57374-5.76063.736-5.98665a5.84233,5.84233,0,0,1,4.83337-2.521A5.53441,5.53441,0,0,1,383.30321,46.1696Z"/>
    <g>
      <path class="cls-3" d="M378.46405,41.96793a5.84233,5.84233,0,0,0-4.83337,2.521c-.16227.226-2.23123,3.16429-.736,5.98665a5.62389,5.62389,0,0,0,6.51983,2.5268,5.848,5.848,0,0,0,3.88871-6.83278A5.53441,5.53441,0,0,0,378.46405,41.96793Z"/>
      <polyline class="cls-3" points="379.519 44.906 377.154 47.647 374.894 50.267"/>
      <polyline class="cls-3" points="374.894 45.747 377.154 47.647 379.519 49.635 380.463 50.267"/>
    </g>
  </g>
</svg>
