<?xml version="1.0" encoding="utf-8"?>
<!-- Generator: Adobe Illustrator 22.1.0, SVG Export Plug-In . SVG Version: 6.00 Build 0)  -->
<svg version="1.1" id="Layer_1" xmlns="http://www.w3.org/2000/svg" xmlns:xlink="http://www.w3.org/1999/xlink" x="0px" y="0px"
	 viewBox="0 0 425.2 425.2" style="enable-background:new 0 0 425.2 425.2;" xml:space="preserve">
<style type="text/css">
	.st0{fill:#8C5D12;}
	.st1{fill:#FFFFFF;}
	.st2{fill:none;stroke:#000000;stroke-miterlimit:10;}
	.st3{fill:#807A79;}
</style>
<g id="blackbaord">
	<g>
		<path class="st0" d="M339.4,98.6v300.7H93.5V98.6H339.4z M329.7,387.4V110.7H103.5v276.7h178.9h13.2H329.7z"/>
		<polygon class="st1" points="315.2,381.9 315.1,386.6 295.7,386.8 295.8,382.2 		"/>
		<polygon points="329.7,387.4 295.7,387.4 295.7,386.8 315.1,386.6 315.2,381.9 295.8,382.2 295.7,382.1 298.2,381.1 296.9,376.6 
			280.8,382.5 282.4,387.1 282.4,387.4 103.5,387.4 103.5,110.7 329.7,110.7 		"/>
		<polygon class="st1" points="296.9,376.6 298.2,381.1 295.7,382.1 282.4,387.1 280.8,382.5 		"/>
		<polygon points="295.7,382.1 295.8,382.2 295.7,386.8 295.7,387.4 282.4,387.4 282.4,387.1 		"/>
	</g>
	<g>
		<rect x="93.5" y="98.6" class="st2" width="245.9" height="300.7"/>
		<polygon class="st2" points="282.4,387.4 103.5,387.4 103.5,110.7 329.7,110.7 329.7,387.4 295.7,387.4 		"/>
		<polygon class="st2" points="295.7,386.8 315.1,386.6 315.2,381.9 295.8,382.2 		"/>
		<polygon class="st2" points="295.7,382.1 298.2,381.1 296.9,376.6 280.8,382.5 282.4,387.1 		"/>
	</g>
</g>
<polyline class="st2" points="101.7,98.6 207.6,6.9 322.4,96.8 324.9,98.6 "/>
<g id="søm">
	<g>
		<path class="st3" d="M215,10.8c1,4.1-1.5,8.7-5.7,10c-3.5,1.1-7.8-0.3-9.5-3.7c-2.2-4.1,0.8-8.4,1.1-8.8c0.5-0.7,3-4,7.1-3.7
			C211.4,4.9,214.2,7.7,215,10.8z"/>
	</g>
	<g>
		<path class="st2" d="M207.9,4.7c-4-0.3-6.6,3-7.1,3.7c-0.2,0.3-3.3,4.6-1.1,8.8c1.8,3.4,6,4.8,9.5,3.7c4.2-1.3,6.7-5.9,5.7-10
			C214.2,7.7,211.4,4.9,207.9,4.7z"/>
		<polyline class="st2" points="209.5,9 206,13 202.7,16.8 		"/>
		<polyline class="st2" points="202.7,10.2 206,13 209.5,15.9 210.9,16.8 		"/>
	</g>
</g>
</svg>
