<?xml version="1.0" encoding="utf-8"?>
<!-- Generator: Adobe Illustrator 22.1.0, SVG Export Plug-In . SVG Version: 6.00 Build 0)  -->
<svg version="1.1" id="Layer_1" xmlns="http://www.w3.org/2000/svg" xmlns:xlink="http://www.w3.org/1999/xlink" x="0px" y="0px"
	 viewBox="0 0 425.2 425.2" style="enable-background:new 0 0 425.2 425.2;" xml:space="preserve">
<style type="text/css">
	.st0{fill:none;stroke:#000000;stroke-miterlimit:10;}
	.st1{stroke:#000000;stroke-miterlimit:10;}
	.st2{fill:#6A4C1C;stroke:#000000;stroke-miterlimit:10;}
	.st3{fill:#FFFFFF;stroke:#FFFFFF;stroke-miterlimit:10;}
	.st4{fill:#807A79;}
</style>
<polyline class="st0" points="157.9,249.6 81.3,320.3 157.9,249.6 70,243.1 157.9,249.6 109.4,171.9 157.9,249.6 123.4,338.1 
	157.9,249.6 185.4,307.9 157.9,249.6 211.3,278.2 "/>
<path class="st0" d="M147.9,233.6c0.3,1.1,0.1,4.6,0,6.3c-0.2,3.9-2.2,7.3-3.1,8.4"/>
<path class="st0" d="M142.5,225.9c0.4,1.7,0.3,5.6-0.5,8.4c-2.2,8.4-12.8,12.8-13.7,13.2"/>
<path class="st0" d="M133.7,210.9c0.7,2.8,0.7,10-0.9,15.9c-3.6,12.9-18,19-19.6,19.6"/>
<path class="st0" d="M122.8,193.5c1.4,3.8,2.3,12.3,2.1,18.7c-0.5,16.7-15.5,30.4-18.8,33.6"/>
<path class="st0" d="M145.9,248.7c0.4,0.7,1.4,3.2,1.6,4.8c0.2,1.7,0.3,4.4,0,5.1"/>
<path class="st0" d="M118.4,246.7c1.2,0.7,5.2,3.5,6.8,5.4c0.4,0.4,2.9,3.3,4.2,7.6c2.1,7.4-1.2,15.8-2,17.4"/>
<path class="st0" d="M97.3,245.8c2.1,0.5,7.3,3.4,10.5,6c3.9,3.2,5.4,6.9,7.4,11.8c1.8,4.5,3.9,9.9,2.7,16.6
	c-0.3,1.7-0.2,5.8-0.5,6.7"/>
<path class="st0" d="M127.4,200.7c2.2,0.8,9.6,2.4,17,0.3c6.9-2,12-6.2,13.5-8"/>
<path class="st0" d="M133.7,211.6c1.5,0.8,6.1,2.3,9.2,2.9c3.2,0.6,8.1,1.5,11.2-1.4c0.6-0.6,4.4-3.2,4.7-6.8"/>
<path class="st0" d="M137.2,268.8c0.5-0.1,3.9-0.3,5.9,0.8c2.4,1.4,3.7,7.2,3.7,7.5"/>
<path class="st0" d="M121.9,283.1c1.4-0.2,5.8-0.2,8.5,0.7c1.2,0.4,4.4,1.5,6.6,4.8c1.2,1.9,2.6,6.6,2.8,7.7"/>
<path class="st0" d="M111.2,292.8c1.5-0.3,8-1,12.6,1.5c0.7,0.4,3.8,2.1,6.2,6c1.9,3.1,3.1,11.2,3.3,12.8"/>
<path class="st0" d="M172.7,280.9c-0.8-1-5.8-5.2-9.6-6.3c-0.7-0.2-3.9-1-7.9,0.1c-4.4,1.3-8.4,5.7-9.3,6.8"/>
<path class="st0" d="M137.5,301.9c1.5-1.9,7.1-6.7,12-9c5-2.3,9.3-2.4,11.9-2.4c6.8-0.1,14.5,2.5,17.7,4.1"/>
<path class="st0" d="M174.7,259.2c-0.8,0.4-3.1,1.1-4.1,2c-2,2.2-3.3,6.8-3.5,7.9"/>
<path class="st0" d="M194.4,269.2c-1.7,0.1-7.9,0.7-10.7,2.7c-2.5,1.9-3.7,4.2-4.7,6c-1.3,2.5-1.9,9.3-2.1,10.9"/>
<path class="st0" d="M195.5,269.7c-2.7-1.8-3.4-7.2-2.3-9.4c1-2.1,4.3-4.2,4.7-4.2"/>
<path class="st0" d="M156.8,273.7c-0.5,3.6-2.5,17.2-3.3,27.9c-0.2,2.4-0.3,4.7-0.3,4.7c-0.3,5.9-0.4,10.8-0.5,14.4"/>
<ellipse class="st1" cx="153" cy="326" rx="4.9" ry="5.3"/>
<path class="st0" d="M148.8,322.2c-0.5-0.6-2.8-3-6.4-3.3c-5.5-0.5-8.9,4.2-9.1,4.4"/>
<path class="st0" d="M147.4,326.2c-1.4-0.6-3.7-1.2-6.2-0.6c-4.6,1.2-8.2,6.2-8.5,12.7"/>
<path class="st0" d="M157.4,322.1c1.6-0.5,4.3-1.2,7.5-0.5c8,1.8,10.9,10.4,11.1,11"/>
<path class="st0" d="M158.2,328.3c1.2-0.1,4-0.2,6.8,1.6c5.3,3.3,5.1,10.2,5.1,10.5"/>
<path class="st0" d="M156.2,331.1c1.1,0.6,3.2,2.1,4.7,4.8c2.4,4.5,1.1,8.9,0.8,9.8"/>
<polyline class="st0" points="167.2,147.2 258.5,84.3 347.5,147.2 "/>
<path class="st0" d="M148.2,329c-1.5,0.4-3.6,1.3-5.5,3c-5.6,5-4.7,13-4.5,14"/>
<polygon class="st2" points="355.4,256.1 157.9,256.1 157.9,249.6 157.9,148.2 355.4,148.2 "/>
<rect x="170.2" y="159.2" class="st1" width="174" height="87.2"/>
<rect x="170.9" y="241" class="st3" width="35.9" height="5.1"/>
<g id="søm">
	<g>
		<path class="st4" d="M267.4,86.7c1.3,5.3-1.9,11.1-7.3,12.8c-4.5,1.4-9.9-0.4-12.2-4.7c-2.8-5.3,1.1-10.8,1.4-11.2
			c0.6-0.8,3.9-5.1,9-4.7C262.8,79.2,266.4,82.7,267.4,86.7z"/>
	</g>
	<g>
		<path class="st0" d="M258.4,78.9c-5.2-0.3-8.4,3.9-9,4.7c-0.3,0.4-4.2,5.9-1.4,11.2c2.3,4.3,7.7,6.1,12.2,4.7
			c5.3-1.6,8.6-7.5,7.3-12.8C266.4,82.7,262.8,79.2,258.4,78.9z"/>
		<polyline class="st0" points="260.3,84.4 255.9,89.5 251.7,94.4 		"/>
		<polyline class="st0" points="251.7,85.9 255.9,89.5 260.3,93.2 262.1,94.4 		"/>
	</g>
</g>
</svg>
