<svg id="fuld_øl_1" data-name="fuld øl 1" xmlns="http://www.w3.org/2000/svg" viewBox="0 0 39.65 105.53"><defs><style>.cls-1{fill:none;stroke:#000;stroke-miterlimit:10;}</style></defs><title>tomol1</title><path id="tom1" class="cls-1" d="M9.34,13.44c0,1.64-.25,18.48,0,22,.85,11.59,1.3,17.72,4,25a32.06,32.06,0,0,1,2,7c.83,5.24,0,9.36-1,14-.68,3.11-3.56,15.5-4.56,19.5a6.54,6.54,0,0,0,0,1c.2,1.86,7.3,3,8,3a38.9,38.9,0,0,0,15-2c1.74-.57,4.15-1.4,5-3a2.64,2.64,0,0,0,.3-1.21,4.7,4.7,0,0,0-.3-1.79l.5,2.5-.2-.71c-2-7.19-3.57-13.67-4.8-19.29-1-4.64-1.82-8.76-1-14a32.64,32.64,0,0,1,2-7c2.7-7.28,3.15-13.41,4-25,.31-4.22.74-15.6.75-21Z"/></svg>