<?xml version="1.0" encoding="utf-8"?>
<!-- Generator: Adobe Illustrator 22.1.0, SVG Export Plug-In . SVG Version: 6.00 Build 0)  -->
<svg version="1.1" id="tom_øl_2" xmlns="http://www.w3.org/2000/svg" xmlns:xlink="http://www.w3.org/1999/xlink" x="0px" y="0px"
	 viewBox="0 0 37.8 62.6" style="enable-background:new 0 0 37.8 62.6;" xml:space="preserve">
<style type="text/css">
	.st0{fill:none;stroke:#000000;stroke-miterlimit:10;}
</style>
<path class="st0" d="M5.4,61.8c1.4-0.1,4.1-0.4,6.8-2.3c1.5-1,4.6-3.1,4.9-6.6c0.5-4.4-3.6-7.8-4.9-8.4c0,0-0.3-0.2-0.7-0.4
	c-1.6-0.8-2.8-1.2-3-1.2c-1.9-0.7-5.6-4.7-6.3-5.8c-2.8-4-2.9-18.5,3.6-36.5"/>
<path class="st0" d="M5.5,0.5h26.4c6.4,18,6.4,32.6,3.6,36.5c-0.8,1.1-4.4,5.1-6.3,5.8c-0.2,0.1-1.4,0.5-3,1.2
	c-0.4,0.2-0.7,0.4-0.7,0.4c-1.2,0.6-5.4,4-4.9,8.4c0.4,3.6,3.5,5.6,4.9,6.6c2.7,1.8,5.5,2.2,6.8,2.3"/>
<line class="st0" x1="5.5" y1="62.1" x2="32.3" y2="62.1"/>
</svg>
