<svg id="fuld_øl_2" data-name="fuld øl 2" xmlns="http://www.w3.org/2000/svg" viewBox="0 0 39.05 70.25"><defs><style>.cls-1{fill:none;stroke:#000;stroke-miterlimit:10;}</style></defs><title>tomol2</title><g id="tom2"><path class="cls-1" d="M5.44,69.2h0A13.52,13.52,0,0,0,12.28,67c1.46-1,4.57-3.06,5-6.62.48-4.45-3.64-7.8-4.88-8.44l-.72-.37a26.41,26.41,0,0,0-3-1.23c-1.94-.7-5.56-4.74-6.33-5.83C-.49,40.49-.55,26,5.88,7.94"/><path class="cls-1" d="M5.48,7.94H31.89c6.44,18,6.37,32.55,3.57,36.52-.77,1.09-4.38,5.13-6.33,5.83a25.84,25.84,0,0,0-3,1.23l-.73.37c-1.23.64-5.36,4-4.88,8.44C20.93,63.89,24,66,25.49,67a13.68,13.68,0,0,0,6.8,2.25h0"/><line class="cls-1" x1="5.48" y1="69.57" x2="32.26" y2="69.57"/></g></svg>